G04 #@! TF.GenerationSoftware,KiCad,Pcbnew,5.0.2-bee76a0~70~ubuntu16.04.1*
G04 #@! TF.CreationDate,2019-01-25T11:05:23-05:00*
G04 #@! TF.ProjectId,HuskyA100_Nucleo_Shield,4875736b-7941-4313-9030-5f4e75636c65,rev?*
G04 #@! TF.SameCoordinates,Original*
G04 #@! TF.FileFunction,Legend,Top*
G04 #@! TF.FilePolarity,Positive*
%FSLAX46Y46*%
G04 Gerber Fmt 4.6, Leading zero omitted, Abs format (unit mm)*
G04 Created by KiCad (PCBNEW 5.0.2-bee76a0~70~ubuntu16.04.1) date Fri 25 Jan 2019 11:05:23 AM EST*
%MOMM*%
%LPD*%
G01*
G04 APERTURE LIST*
%ADD10C,0.100000*%
%ADD11C,0.150000*%
%ADD12C,0.300000*%
%ADD13C,0.400000*%
%ADD14C,0.120000*%
%ADD15C,0.152400*%
G04 APERTURE END LIST*
D10*
D11*
X159400000Y-171900000D02*
X159400000Y-203900000D01*
X267400000Y-203900000D01*
X267400000Y-171900000D01*
X159400000Y-171900000D01*
D10*
D11*
X10000000Y-10000000D02*
X10000000Y-205900000D01*
X269400000Y-205900000D01*
X269400000Y-10000000D01*
X10000000Y-10000000D01*
D10*
D11*
X12000000Y-12000000D02*
X12000000Y-203900000D01*
X267400000Y-203900000D01*
X267400000Y-12000000D01*
X12000000Y-12000000D01*
D10*
D11*
X60000000Y-12000000D02*
X60000000Y-10000000D01*
D10*
D11*
X110000000Y-12000000D02*
X110000000Y-10000000D01*
D10*
D11*
X160000000Y-12000000D02*
X160000000Y-10000000D01*
D10*
D11*
X210000000Y-12000000D02*
X210000000Y-10000000D01*
D10*
D11*
X260000000Y-12000000D02*
X260000000Y-10000000D01*
D10*
D11*
X36065476Y-11588095D02*
X35322619Y-11588095D01*
X35694047Y-11588095D02*
X35694047Y-10288095D01*
X35570238Y-10473809D01*
X35446428Y-10597619D01*
X35322619Y-10659523D01*
D10*
D11*
X85322619Y-10411904D02*
X85384523Y-10350000D01*
X85508333Y-10288095D01*
X85817857Y-10288095D01*
X85941666Y-10350000D01*
X86003571Y-10411904D01*
X86065476Y-10535714D01*
X86065476Y-10659523D01*
X86003571Y-10845238D01*
X85260714Y-11588095D01*
X86065476Y-11588095D01*
D10*
D11*
X135260714Y-10288095D02*
X136065476Y-10288095D01*
X135632142Y-10783333D01*
X135817857Y-10783333D01*
X135941666Y-10845238D01*
X136003571Y-10907142D01*
X136065476Y-11030952D01*
X136065476Y-11340476D01*
X136003571Y-11464285D01*
X135941666Y-11526190D01*
X135817857Y-11588095D01*
X135446428Y-11588095D01*
X135322619Y-11526190D01*
X135260714Y-11464285D01*
D10*
D11*
X185941666Y-10721428D02*
X185941666Y-11588095D01*
X185632142Y-10226190D02*
X185322619Y-11154761D01*
X186127380Y-11154761D01*
D10*
D11*
X236003571Y-10288095D02*
X235384523Y-10288095D01*
X235322619Y-10907142D01*
X235384523Y-10845238D01*
X235508333Y-10783333D01*
X235817857Y-10783333D01*
X235941666Y-10845238D01*
X236003571Y-10907142D01*
X236065476Y-11030952D01*
X236065476Y-11340476D01*
X236003571Y-11464285D01*
X235941666Y-11526190D01*
X235817857Y-11588095D01*
X235508333Y-11588095D01*
X235384523Y-11526190D01*
X235322619Y-11464285D01*
D10*
D11*
X60000000Y-203900000D02*
X60000000Y-205900000D01*
D10*
D11*
X110000000Y-203900000D02*
X110000000Y-205900000D01*
D10*
D11*
X160000000Y-203900000D02*
X160000000Y-205900000D01*
D10*
D11*
X210000000Y-203900000D02*
X210000000Y-205900000D01*
D10*
D11*
X260000000Y-203900000D02*
X260000000Y-205900000D01*
D10*
D11*
X36065476Y-205488095D02*
X35322619Y-205488095D01*
X35694047Y-205488095D02*
X35694047Y-204188095D01*
X35570238Y-204373809D01*
X35446428Y-204497619D01*
X35322619Y-204559523D01*
D10*
D11*
X85322619Y-204311904D02*
X85384523Y-204250000D01*
X85508333Y-204188095D01*
X85817857Y-204188095D01*
X85941666Y-204250000D01*
X86003571Y-204311904D01*
X86065476Y-204435714D01*
X86065476Y-204559523D01*
X86003571Y-204745238D01*
X85260714Y-205488095D01*
X86065476Y-205488095D01*
D10*
D11*
X135260714Y-204188095D02*
X136065476Y-204188095D01*
X135632142Y-204683333D01*
X135817857Y-204683333D01*
X135941666Y-204745238D01*
X136003571Y-204807142D01*
X136065476Y-204930952D01*
X136065476Y-205240476D01*
X136003571Y-205364285D01*
X135941666Y-205426190D01*
X135817857Y-205488095D01*
X135446428Y-205488095D01*
X135322619Y-205426190D01*
X135260714Y-205364285D01*
D10*
D11*
X185941666Y-204621428D02*
X185941666Y-205488095D01*
X185632142Y-204126190D02*
X185322619Y-205054761D01*
X186127380Y-205054761D01*
D10*
D11*
X236003571Y-204188095D02*
X235384523Y-204188095D01*
X235322619Y-204807142D01*
X235384523Y-204745238D01*
X235508333Y-204683333D01*
X235817857Y-204683333D01*
X235941666Y-204745238D01*
X236003571Y-204807142D01*
X236065476Y-204930952D01*
X236065476Y-205240476D01*
X236003571Y-205364285D01*
X235941666Y-205426190D01*
X235817857Y-205488095D01*
X235508333Y-205488095D01*
X235384523Y-205426190D01*
X235322619Y-205364285D01*
D10*
D11*
X10000000Y-60000000D02*
X12000000Y-60000000D01*
D10*
D11*
X10000000Y-110000000D02*
X12000000Y-110000000D01*
D10*
D11*
X10000000Y-160000000D02*
X12000000Y-160000000D01*
D10*
D11*
X10690476Y-35216666D02*
X11309523Y-35216666D01*
X10566666Y-35588095D02*
X11000000Y-34288095D01*
X11433333Y-35588095D01*
D10*
D11*
X11092857Y-84907142D02*
X11278571Y-84969047D01*
X11340476Y-85030952D01*
X11402380Y-85154761D01*
X11402380Y-85340476D01*
X11340476Y-85464285D01*
X11278571Y-85526190D01*
X11154761Y-85588095D01*
X10659523Y-85588095D01*
X10659523Y-84288095D01*
X11092857Y-84288095D01*
X11216666Y-84350000D01*
X11278571Y-84411904D01*
X11340476Y-84535714D01*
X11340476Y-84659523D01*
X11278571Y-84783333D01*
X11216666Y-84845238D01*
X11092857Y-84907142D01*
X10659523Y-84907142D01*
D10*
D11*
X11402380Y-135464285D02*
X11340476Y-135526190D01*
X11154761Y-135588095D01*
X11030952Y-135588095D01*
X10845238Y-135526190D01*
X10721428Y-135402380D01*
X10659523Y-135278571D01*
X10597619Y-135030952D01*
X10597619Y-134845238D01*
X10659523Y-134597619D01*
X10721428Y-134473809D01*
X10845238Y-134350000D01*
X11030952Y-134288095D01*
X11154761Y-134288095D01*
X11340476Y-134350000D01*
X11402380Y-134411904D01*
D10*
D11*
X10659523Y-185588095D02*
X10659523Y-184288095D01*
X10969047Y-184288095D01*
X11154761Y-184350000D01*
X11278571Y-184473809D01*
X11340476Y-184597619D01*
X11402380Y-184845238D01*
X11402380Y-185030952D01*
X11340476Y-185278571D01*
X11278571Y-185402380D01*
X11154761Y-185526190D01*
X10969047Y-185588095D01*
X10659523Y-185588095D01*
D10*
D11*
X269400000Y-60000000D02*
X267400000Y-60000000D01*
D10*
D11*
X269400000Y-110000000D02*
X267400000Y-110000000D01*
D10*
D11*
X269400000Y-160000000D02*
X267400000Y-160000000D01*
D10*
D11*
X268090476Y-35216666D02*
X268709523Y-35216666D01*
X267966666Y-35588095D02*
X268400000Y-34288095D01*
X268833333Y-35588095D01*
D10*
D11*
X268492857Y-84907142D02*
X268678571Y-84969047D01*
X268740476Y-85030952D01*
X268802380Y-85154761D01*
X268802380Y-85340476D01*
X268740476Y-85464285D01*
X268678571Y-85526190D01*
X268554761Y-85588095D01*
X268059523Y-85588095D01*
X268059523Y-84288095D01*
X268492857Y-84288095D01*
X268616666Y-84350000D01*
X268678571Y-84411904D01*
X268740476Y-84535714D01*
X268740476Y-84659523D01*
X268678571Y-84783333D01*
X268616666Y-84845238D01*
X268492857Y-84907142D01*
X268059523Y-84907142D01*
D10*
D11*
X268802380Y-135464285D02*
X268740476Y-135526190D01*
X268554761Y-135588095D01*
X268430952Y-135588095D01*
X268245238Y-135526190D01*
X268121428Y-135402380D01*
X268059523Y-135278571D01*
X267997619Y-135030952D01*
X267997619Y-134845238D01*
X268059523Y-134597619D01*
X268121428Y-134473809D01*
X268245238Y-134350000D01*
X268430952Y-134288095D01*
X268554761Y-134288095D01*
X268740476Y-134350000D01*
X268802380Y-134411904D01*
D10*
D11*
X268059523Y-185588095D02*
X268059523Y-184288095D01*
X268369047Y-184288095D01*
X268554761Y-184350000D01*
X268678571Y-184473809D01*
X268740476Y-184597619D01*
X268802380Y-184845238D01*
X268802380Y-185030952D01*
X268740476Y-185278571D01*
X268678571Y-185402380D01*
X268554761Y-185526190D01*
X268369047Y-185588095D01*
X268059523Y-185588095D01*
D10*
D11*
X182832142Y-199678571D02*
X182832142Y-198178571D01*
X183189285Y-198178571D01*
X183403571Y-198250000D01*
X183546428Y-198392857D01*
X183617857Y-198535714D01*
X183689285Y-198821428D01*
X183689285Y-199035714D01*
X183617857Y-199321428D01*
X183546428Y-199464285D01*
X183403571Y-199607142D01*
X183189285Y-199678571D01*
X182832142Y-199678571D01*
X184975000Y-199678571D02*
X184975000Y-198892857D01*
X184903571Y-198750000D01*
X184760714Y-198678571D01*
X184475000Y-198678571D01*
X184332142Y-198750000D01*
X184975000Y-199607142D02*
X184832142Y-199678571D01*
X184475000Y-199678571D01*
X184332142Y-199607142D01*
X184260714Y-199464285D01*
X184260714Y-199321428D01*
X184332142Y-199178571D01*
X184475000Y-199107142D01*
X184832142Y-199107142D01*
X184975000Y-199035714D01*
X185475000Y-198678571D02*
X186046428Y-198678571D01*
X185689285Y-198178571D02*
X185689285Y-199464285D01*
X185760714Y-199607142D01*
X185903571Y-199678571D01*
X186046428Y-199678571D01*
X187117857Y-199607142D02*
X186975000Y-199678571D01*
X186689285Y-199678571D01*
X186546428Y-199607142D01*
X186475000Y-199464285D01*
X186475000Y-198892857D01*
X186546428Y-198750000D01*
X186689285Y-198678571D01*
X186975000Y-198678571D01*
X187117857Y-198750000D01*
X187189285Y-198892857D01*
X187189285Y-199035714D01*
X186475000Y-199178571D01*
X187832142Y-199535714D02*
X187903571Y-199607142D01*
X187832142Y-199678571D01*
X187760714Y-199607142D01*
X187832142Y-199535714D01*
X187832142Y-199678571D01*
X187832142Y-198750000D02*
X187903571Y-198821428D01*
X187832142Y-198892857D01*
X187760714Y-198821428D01*
X187832142Y-198750000D01*
X187832142Y-198892857D01*
D10*
D11*
X159400000Y-200400000D02*
X267400000Y-200400000D01*
D10*
D11*
X160832142Y-202478571D02*
X160832142Y-200978571D01*
X161689285Y-202478571D02*
X161046428Y-201621428D01*
X161689285Y-200978571D02*
X160832142Y-201835714D01*
X162332142Y-202478571D02*
X162332142Y-201478571D01*
X162332142Y-200978571D02*
X162260714Y-201050000D01*
X162332142Y-201121428D01*
X162403571Y-201050000D01*
X162332142Y-200978571D01*
X162332142Y-201121428D01*
X163903571Y-202335714D02*
X163832142Y-202407142D01*
X163617857Y-202478571D01*
X163475000Y-202478571D01*
X163260714Y-202407142D01*
X163117857Y-202264285D01*
X163046428Y-202121428D01*
X162975000Y-201835714D01*
X162975000Y-201621428D01*
X163046428Y-201335714D01*
X163117857Y-201192857D01*
X163260714Y-201050000D01*
X163475000Y-200978571D01*
X163617857Y-200978571D01*
X163832142Y-201050000D01*
X163903571Y-201121428D01*
X165189285Y-202478571D02*
X165189285Y-201692857D01*
X165117857Y-201550000D01*
X164975000Y-201478571D01*
X164689285Y-201478571D01*
X164546428Y-201550000D01*
X165189285Y-202407142D02*
X165046428Y-202478571D01*
X164689285Y-202478571D01*
X164546428Y-202407142D01*
X164475000Y-202264285D01*
X164475000Y-202121428D01*
X164546428Y-201978571D01*
X164689285Y-201907142D01*
X165046428Y-201907142D01*
X165189285Y-201835714D01*
X166546428Y-202478571D02*
X166546428Y-200978571D01*
X166546428Y-202407142D02*
X166403571Y-202478571D01*
X166117857Y-202478571D01*
X165975000Y-202407142D01*
X165903571Y-202335714D01*
X165832142Y-202192857D01*
X165832142Y-201764285D01*
X165903571Y-201621428D01*
X165975000Y-201550000D01*
X166117857Y-201478571D01*
X166403571Y-201478571D01*
X166546428Y-201550000D01*
X168403571Y-201692857D02*
X168903571Y-201692857D01*
X169117857Y-202478571D02*
X168403571Y-202478571D01*
X168403571Y-200978571D01*
X169117857Y-200978571D01*
X169760714Y-202335714D02*
X169832142Y-202407142D01*
X169760714Y-202478571D01*
X169689285Y-202407142D01*
X169760714Y-202335714D01*
X169760714Y-202478571D01*
X170475000Y-202478571D02*
X170475000Y-200978571D01*
X170832142Y-200978571D01*
X171046428Y-201050000D01*
X171189285Y-201192857D01*
X171260714Y-201335714D01*
X171332142Y-201621428D01*
X171332142Y-201835714D01*
X171260714Y-202121428D01*
X171189285Y-202264285D01*
X171046428Y-202407142D01*
X170832142Y-202478571D01*
X170475000Y-202478571D01*
X171975000Y-202335714D02*
X172046428Y-202407142D01*
X171975000Y-202478571D01*
X171903571Y-202407142D01*
X171975000Y-202335714D01*
X171975000Y-202478571D01*
X172617857Y-202050000D02*
X173332142Y-202050000D01*
X172475000Y-202478571D02*
X172975000Y-200978571D01*
X173475000Y-202478571D01*
X173975000Y-202335714D02*
X174046428Y-202407142D01*
X173975000Y-202478571D01*
X173903571Y-202407142D01*
X173975000Y-202335714D01*
X173975000Y-202478571D01*
X176975000Y-201478571D02*
X176975000Y-202978571D01*
X176975000Y-201550000D02*
X177117857Y-201478571D01*
X177403571Y-201478571D01*
X177546428Y-201550000D01*
X177617857Y-201621428D01*
X177689285Y-201764285D01*
X177689285Y-202192857D01*
X177617857Y-202335714D01*
X177546428Y-202407142D01*
X177403571Y-202478571D01*
X177117857Y-202478571D01*
X176975000Y-202407142D01*
X178975000Y-202407142D02*
X178832142Y-202478571D01*
X178546428Y-202478571D01*
X178403571Y-202407142D01*
X178332142Y-202335714D01*
X178260714Y-202192857D01*
X178260714Y-201764285D01*
X178332142Y-201621428D01*
X178403571Y-201550000D01*
X178546428Y-201478571D01*
X178832142Y-201478571D01*
X178975000Y-201550000D01*
X179617857Y-202478571D02*
X179617857Y-200978571D01*
X179617857Y-201550000D02*
X179760714Y-201478571D01*
X180046428Y-201478571D01*
X180189285Y-201550000D01*
X180260714Y-201621428D01*
X180332142Y-201764285D01*
X180332142Y-202192857D01*
X180260714Y-202335714D01*
X180189285Y-202407142D01*
X180046428Y-202478571D01*
X179760714Y-202478571D01*
X179617857Y-202407142D01*
X180975000Y-201478571D02*
X180975000Y-202478571D01*
X180975000Y-201621428D02*
X181046428Y-201550000D01*
X181189285Y-201478571D01*
X181403571Y-201478571D01*
X181546428Y-201550000D01*
X181617857Y-201692857D01*
X181617857Y-202478571D01*
X182903571Y-202407142D02*
X182760714Y-202478571D01*
X182475000Y-202478571D01*
X182332142Y-202407142D01*
X182260714Y-202264285D01*
X182260714Y-201692857D01*
X182332142Y-201550000D01*
X182475000Y-201478571D01*
X182760714Y-201478571D01*
X182903571Y-201550000D01*
X182975000Y-201692857D01*
X182975000Y-201835714D01*
X182260714Y-201978571D01*
X183475000Y-201478571D02*
X183760714Y-202478571D01*
X184046428Y-201764285D01*
X184332142Y-202478571D01*
X184617857Y-201478571D01*
X187046428Y-200978571D02*
X186332142Y-200978571D01*
X186260714Y-201692857D01*
X186332142Y-201621428D01*
X186475000Y-201550000D01*
X186832142Y-201550000D01*
X186975000Y-201621428D01*
X187046428Y-201692857D01*
X187117857Y-201835714D01*
X187117857Y-202192857D01*
X187046428Y-202335714D01*
X186975000Y-202407142D01*
X186832142Y-202478571D01*
X186475000Y-202478571D01*
X186332142Y-202407142D01*
X186260714Y-202335714D01*
X187760714Y-202335714D02*
X187832142Y-202407142D01*
X187760714Y-202478571D01*
X187689285Y-202407142D01*
X187760714Y-202335714D01*
X187760714Y-202478571D01*
X188760714Y-200978571D02*
X188903571Y-200978571D01*
X189046428Y-201050000D01*
X189117857Y-201121428D01*
X189189285Y-201264285D01*
X189260714Y-201550000D01*
X189260714Y-201907142D01*
X189189285Y-202192857D01*
X189117857Y-202335714D01*
X189046428Y-202407142D01*
X188903571Y-202478571D01*
X188760714Y-202478571D01*
X188617857Y-202407142D01*
X188546428Y-202335714D01*
X188475000Y-202192857D01*
X188403571Y-201907142D01*
X188403571Y-201550000D01*
X188475000Y-201264285D01*
X188546428Y-201121428D01*
X188617857Y-201050000D01*
X188760714Y-200978571D01*
X189903571Y-202335714D02*
X189975000Y-202407142D01*
X189903571Y-202478571D01*
X189832142Y-202407142D01*
X189903571Y-202335714D01*
X189903571Y-202478571D01*
X190546428Y-201121428D02*
X190617857Y-201050000D01*
X190760714Y-200978571D01*
X191117857Y-200978571D01*
X191260714Y-201050000D01*
X191332142Y-201121428D01*
X191403571Y-201264285D01*
X191403571Y-201407142D01*
X191332142Y-201621428D01*
X190475000Y-202478571D01*
X191403571Y-202478571D01*
X192046428Y-201907142D02*
X193189285Y-201907142D01*
X193903571Y-202478571D02*
X193903571Y-200978571D01*
X193903571Y-201550000D02*
X194046428Y-201478571D01*
X194332142Y-201478571D01*
X194475000Y-201550000D01*
X194546428Y-201621428D01*
X194617857Y-201764285D01*
X194617857Y-202192857D01*
X194546428Y-202335714D01*
X194475000Y-202407142D01*
X194332142Y-202478571D01*
X194046428Y-202478571D01*
X193903571Y-202407142D01*
X195832142Y-202407142D02*
X195689285Y-202478571D01*
X195403571Y-202478571D01*
X195260714Y-202407142D01*
X195189285Y-202264285D01*
X195189285Y-201692857D01*
X195260714Y-201550000D01*
X195403571Y-201478571D01*
X195689285Y-201478571D01*
X195832142Y-201550000D01*
X195903571Y-201692857D01*
X195903571Y-201835714D01*
X195189285Y-201978571D01*
X197117857Y-202407142D02*
X196975000Y-202478571D01*
X196689285Y-202478571D01*
X196546428Y-202407142D01*
X196475000Y-202264285D01*
X196475000Y-201692857D01*
X196546428Y-201550000D01*
X196689285Y-201478571D01*
X196975000Y-201478571D01*
X197117857Y-201550000D01*
X197189285Y-201692857D01*
X197189285Y-201835714D01*
X196475000Y-201978571D01*
X197689285Y-200978571D02*
X198689285Y-200978571D01*
X198046428Y-202478571D01*
X199903571Y-200978571D02*
X199617857Y-200978571D01*
X199475000Y-201050000D01*
X199403571Y-201121428D01*
X199260714Y-201335714D01*
X199189285Y-201621428D01*
X199189285Y-202192857D01*
X199260714Y-202335714D01*
X199332142Y-202407142D01*
X199475000Y-202478571D01*
X199760714Y-202478571D01*
X199903571Y-202407142D01*
X199975000Y-202335714D01*
X200046428Y-202192857D01*
X200046428Y-201835714D01*
X199975000Y-201692857D01*
X199903571Y-201621428D01*
X199760714Y-201550000D01*
X199475000Y-201550000D01*
X199332142Y-201621428D01*
X199260714Y-201692857D01*
X199189285Y-201835714D01*
X201332142Y-202478571D02*
X201332142Y-201692857D01*
X201260714Y-201550000D01*
X201117857Y-201478571D01*
X200832142Y-201478571D01*
X200689285Y-201550000D01*
X201332142Y-202407142D02*
X201189285Y-202478571D01*
X200832142Y-202478571D01*
X200689285Y-202407142D01*
X200617857Y-202264285D01*
X200617857Y-202121428D01*
X200689285Y-201978571D01*
X200832142Y-201907142D01*
X201189285Y-201907142D01*
X201332142Y-201835714D01*
X202332142Y-200978571D02*
X202475000Y-200978571D01*
X202617857Y-201050000D01*
X202689285Y-201121428D01*
X202760714Y-201264285D01*
X202832142Y-201550000D01*
X202832142Y-201907142D01*
X202760714Y-202192857D01*
X202689285Y-202335714D01*
X202617857Y-202407142D01*
X202475000Y-202478571D01*
X202332142Y-202478571D01*
X202189285Y-202407142D01*
X202117857Y-202335714D01*
X202046428Y-202192857D01*
X201975000Y-201907142D01*
X201975000Y-201550000D01*
X202046428Y-201264285D01*
X202117857Y-201121428D01*
X202189285Y-201050000D01*
X202332142Y-200978571D01*
X203117857Y-200570000D02*
X204546428Y-200570000D01*
X203332142Y-200978571D02*
X204332142Y-200978571D01*
X203689285Y-202478571D01*
X204546428Y-200570000D02*
X205975000Y-200570000D01*
X205189285Y-200978571D02*
X205332142Y-200978571D01*
X205475000Y-201050000D01*
X205546428Y-201121428D01*
X205617857Y-201264285D01*
X205689285Y-201550000D01*
X205689285Y-201907142D01*
X205617857Y-202192857D01*
X205546428Y-202335714D01*
X205475000Y-202407142D01*
X205332142Y-202478571D01*
X205189285Y-202478571D01*
X205046428Y-202407142D01*
X204975000Y-202335714D01*
X204903571Y-202192857D01*
X204832142Y-201907142D01*
X204832142Y-201550000D01*
X204903571Y-201264285D01*
X204975000Y-201121428D01*
X205046428Y-201050000D01*
X205189285Y-200978571D01*
X206975000Y-201478571D02*
X206975000Y-202478571D01*
X206332142Y-201478571D02*
X206332142Y-202264285D01*
X206403571Y-202407142D01*
X206546428Y-202478571D01*
X206760714Y-202478571D01*
X206903571Y-202407142D01*
X206975000Y-202335714D01*
X207689285Y-202478571D02*
X207689285Y-200978571D01*
X207689285Y-201550000D02*
X207832142Y-201478571D01*
X208117857Y-201478571D01*
X208260714Y-201550000D01*
X208332142Y-201621428D01*
X208403571Y-201764285D01*
X208403571Y-202192857D01*
X208332142Y-202335714D01*
X208260714Y-202407142D01*
X208117857Y-202478571D01*
X207832142Y-202478571D01*
X207689285Y-202407142D01*
X209689285Y-201478571D02*
X209689285Y-202478571D01*
X209046428Y-201478571D02*
X209046428Y-202264285D01*
X209117857Y-202407142D01*
X209260714Y-202478571D01*
X209475000Y-202478571D01*
X209617857Y-202407142D01*
X209689285Y-202335714D01*
X210403571Y-201478571D02*
X210403571Y-202478571D01*
X210403571Y-201621428D02*
X210475000Y-201550000D01*
X210617857Y-201478571D01*
X210832142Y-201478571D01*
X210975000Y-201550000D01*
X211046428Y-201692857D01*
X211046428Y-202478571D01*
X211546428Y-201478571D02*
X212117857Y-201478571D01*
X211760714Y-200978571D02*
X211760714Y-202264285D01*
X211832142Y-202407142D01*
X211975000Y-202478571D01*
X212117857Y-202478571D01*
X213260714Y-201478571D02*
X213260714Y-202478571D01*
X212617857Y-201478571D02*
X212617857Y-202264285D01*
X212689285Y-202407142D01*
X212832142Y-202478571D01*
X213046428Y-202478571D01*
X213189285Y-202407142D01*
X213260714Y-202335714D01*
X214760714Y-202478571D02*
X213903571Y-202478571D01*
X214332142Y-202478571D02*
X214332142Y-200978571D01*
X214189285Y-201192857D01*
X214046428Y-201335714D01*
X213903571Y-201407142D01*
X216046428Y-200978571D02*
X215760714Y-200978571D01*
X215617857Y-201050000D01*
X215546428Y-201121428D01*
X215403571Y-201335714D01*
X215332142Y-201621428D01*
X215332142Y-202192857D01*
X215403571Y-202335714D01*
X215475000Y-202407142D01*
X215617857Y-202478571D01*
X215903571Y-202478571D01*
X216046428Y-202407142D01*
X216117857Y-202335714D01*
X216189285Y-202192857D01*
X216189285Y-201835714D01*
X216117857Y-201692857D01*
X216046428Y-201621428D01*
X215903571Y-201550000D01*
X215617857Y-201550000D01*
X215475000Y-201621428D01*
X215403571Y-201692857D01*
X215332142Y-201835714D01*
X216832142Y-202335714D02*
X216903571Y-202407142D01*
X216832142Y-202478571D01*
X216760714Y-202407142D01*
X216832142Y-202335714D01*
X216832142Y-202478571D01*
X217832142Y-200978571D02*
X217975000Y-200978571D01*
X218117857Y-201050000D01*
X218189285Y-201121428D01*
X218260714Y-201264285D01*
X218332142Y-201550000D01*
X218332142Y-201907142D01*
X218260714Y-202192857D01*
X218189285Y-202335714D01*
X218117857Y-202407142D01*
X217975000Y-202478571D01*
X217832142Y-202478571D01*
X217689285Y-202407142D01*
X217617857Y-202335714D01*
X217546428Y-202192857D01*
X217475000Y-201907142D01*
X217475000Y-201550000D01*
X217546428Y-201264285D01*
X217617857Y-201121428D01*
X217689285Y-201050000D01*
X217832142Y-200978571D01*
X219617857Y-201478571D02*
X219617857Y-202478571D01*
X219260714Y-200907142D02*
X218903571Y-201978571D01*
X219832142Y-201978571D01*
X220403571Y-202335714D02*
X220474999Y-202407142D01*
X220403571Y-202478571D01*
X220332142Y-202407142D01*
X220403571Y-202335714D01*
X220403571Y-202478571D01*
X221903571Y-202478571D02*
X221046428Y-202478571D01*
X221475000Y-202478571D02*
X221475000Y-200978571D01*
X221332142Y-201192857D01*
X221189285Y-201335714D01*
X221046428Y-201407142D01*
D10*
D11*
X159400000Y-197400000D02*
X267400000Y-197400000D01*
D10*
D12*
X246809285Y-199678571D02*
X246309285Y-198964285D01*
X245952142Y-199678571D02*
X245952142Y-198178571D01*
X246523571Y-198178571D01*
X246666428Y-198250000D01*
X246737857Y-198321428D01*
X246809285Y-198464285D01*
X246809285Y-198678571D01*
X246737857Y-198821428D01*
X246666428Y-198892857D01*
X246523571Y-198964285D01*
X245952142Y-198964285D01*
X248023571Y-199607142D02*
X247880714Y-199678571D01*
X247595000Y-199678571D01*
X247452142Y-199607142D01*
X247380714Y-199464285D01*
X247380714Y-198892857D01*
X247452142Y-198750000D01*
X247595000Y-198678571D01*
X247880714Y-198678571D01*
X248023571Y-198750000D01*
X248095000Y-198892857D01*
X248095000Y-199035714D01*
X247380714Y-199178571D01*
X248595000Y-198678571D02*
X248952142Y-199678571D01*
X249309285Y-198678571D01*
X249880714Y-199535714D02*
X249952142Y-199607142D01*
X249880714Y-199678571D01*
X249809285Y-199607142D01*
X249880714Y-199535714D01*
X249880714Y-199678571D01*
X249880714Y-198750000D02*
X249952142Y-198821428D01*
X249880714Y-198892857D01*
X249809285Y-198821428D01*
X249880714Y-198750000D01*
X249880714Y-198892857D01*
D10*
D11*
X160760714Y-199607142D02*
X160975000Y-199678571D01*
X161332142Y-199678571D01*
X161475000Y-199607142D01*
X161546428Y-199535714D01*
X161617857Y-199392857D01*
X161617857Y-199250000D01*
X161546428Y-199107142D01*
X161475000Y-199035714D01*
X161332142Y-198964285D01*
X161046428Y-198892857D01*
X160903571Y-198821428D01*
X160832142Y-198750000D01*
X160760714Y-198607142D01*
X160760714Y-198464285D01*
X160832142Y-198321428D01*
X160903571Y-198250000D01*
X161046428Y-198178571D01*
X161403571Y-198178571D01*
X161617857Y-198250000D01*
X162260714Y-199678571D02*
X162260714Y-198678571D01*
X162260714Y-198178571D02*
X162189285Y-198250000D01*
X162260714Y-198321428D01*
X162332142Y-198250000D01*
X162260714Y-198178571D01*
X162260714Y-198321428D01*
X162832142Y-198678571D02*
X163617857Y-198678571D01*
X162832142Y-199678571D01*
X163617857Y-199678571D01*
X164760714Y-199607142D02*
X164617857Y-199678571D01*
X164332142Y-199678571D01*
X164189285Y-199607142D01*
X164117857Y-199464285D01*
X164117857Y-198892857D01*
X164189285Y-198750000D01*
X164332142Y-198678571D01*
X164617857Y-198678571D01*
X164760714Y-198750000D01*
X164832142Y-198892857D01*
X164832142Y-199035714D01*
X164117857Y-199178571D01*
X165475000Y-199535714D02*
X165546428Y-199607142D01*
X165475000Y-199678571D01*
X165403571Y-199607142D01*
X165475000Y-199535714D01*
X165475000Y-199678571D01*
X165475000Y-198750000D02*
X165546428Y-198821428D01*
X165475000Y-198892857D01*
X165403571Y-198821428D01*
X165475000Y-198750000D01*
X165475000Y-198892857D01*
X167260714Y-199250000D02*
X167975000Y-199250000D01*
X167117857Y-199678571D02*
X167617857Y-198178571D01*
X168117857Y-199678571D01*
D10*
D11*
X245832142Y-202478571D02*
X245832142Y-200978571D01*
X247189285Y-202478571D02*
X247189285Y-200978571D01*
X247189285Y-202407142D02*
X247046428Y-202478571D01*
X246760714Y-202478571D01*
X246617857Y-202407142D01*
X246546428Y-202335714D01*
X246475000Y-202192857D01*
X246475000Y-201764285D01*
X246546428Y-201621428D01*
X246617857Y-201550000D01*
X246760714Y-201478571D01*
X247046428Y-201478571D01*
X247189285Y-201550000D01*
X247903571Y-202335714D02*
X247975000Y-202407142D01*
X247903571Y-202478571D01*
X247832142Y-202407142D01*
X247903571Y-202335714D01*
X247903571Y-202478571D01*
X247903571Y-201550000D02*
X247975000Y-201621428D01*
X247903571Y-201692857D01*
X247832142Y-201621428D01*
X247903571Y-201550000D01*
X247903571Y-201692857D01*
X250546428Y-202478571D02*
X249689285Y-202478571D01*
X250117857Y-202478571D02*
X250117857Y-200978571D01*
X249975000Y-201192857D01*
X249832142Y-201335714D01*
X249689285Y-201407142D01*
X252260714Y-200907142D02*
X250975000Y-202835714D01*
X253546428Y-202478571D02*
X252689285Y-202478571D01*
X253117857Y-202478571D02*
X253117857Y-200978571D01*
X252975000Y-201192857D01*
X252832142Y-201335714D01*
X252689285Y-201407142D01*
D10*
D11*
X159400000Y-193400000D02*
X267400000Y-193400000D01*
D10*
D13*
X161112380Y-194104761D02*
X162255238Y-194104761D01*
X161433809Y-196104761D02*
X161683809Y-194104761D01*
X162671904Y-196104761D02*
X162838571Y-194771428D01*
X162921904Y-194104761D02*
X162814761Y-194200000D01*
X162898095Y-194295238D01*
X163005238Y-194200000D01*
X162921904Y-194104761D01*
X162898095Y-194295238D01*
X163505238Y-194771428D02*
X164267142Y-194771428D01*
X163874285Y-194104761D02*
X163660000Y-195819047D01*
X163731428Y-196009523D01*
X163910000Y-196104761D01*
X164100476Y-196104761D01*
X165052857Y-196104761D02*
X164874285Y-196009523D01*
X164802857Y-195819047D01*
X165017142Y-194104761D01*
X166588571Y-196009523D02*
X166386190Y-196104761D01*
X166005238Y-196104761D01*
X165826666Y-196009523D01*
X165755238Y-195819047D01*
X165850476Y-195057142D01*
X165969523Y-194866666D01*
X166171904Y-194771428D01*
X166552857Y-194771428D01*
X166731428Y-194866666D01*
X166802857Y-195057142D01*
X166779047Y-195247619D01*
X165802857Y-195438095D01*
X167552857Y-195914285D02*
X167636190Y-196009523D01*
X167529047Y-196104761D01*
X167445714Y-196009523D01*
X167552857Y-195914285D01*
X167529047Y-196104761D01*
X167683809Y-194866666D02*
X167767142Y-194961904D01*
X167660000Y-195057142D01*
X167576666Y-194961904D01*
X167683809Y-194866666D01*
X167660000Y-195057142D01*
D10*
D11*
X161332142Y-191492857D02*
X160832142Y-191492857D01*
X160832142Y-192278571D02*
X160832142Y-190778571D01*
X161546428Y-190778571D01*
X162117857Y-192278571D02*
X162117857Y-191278571D01*
X162117857Y-190778571D02*
X162046428Y-190850000D01*
X162117857Y-190921428D01*
X162189285Y-190850000D01*
X162117857Y-190778571D01*
X162117857Y-190921428D01*
X163046428Y-192278571D02*
X162903571Y-192207142D01*
X162832142Y-192064285D01*
X162832142Y-190778571D01*
X164189285Y-192207142D02*
X164046428Y-192278571D01*
X163760714Y-192278571D01*
X163617857Y-192207142D01*
X163546428Y-192064285D01*
X163546428Y-191492857D01*
X163617857Y-191350000D01*
X163760714Y-191278571D01*
X164046428Y-191278571D01*
X164189285Y-191350000D01*
X164260714Y-191492857D01*
X164260714Y-191635714D01*
X163546428Y-191778571D01*
X164903571Y-192135714D02*
X164975000Y-192207142D01*
X164903571Y-192278571D01*
X164832142Y-192207142D01*
X164903571Y-192135714D01*
X164903571Y-192278571D01*
X164903571Y-191350000D02*
X164975000Y-191421428D01*
X164903571Y-191492857D01*
X164832142Y-191421428D01*
X164903571Y-191350000D01*
X164903571Y-191492857D01*
X166760714Y-192278571D02*
X166760714Y-190778571D01*
X166760714Y-191492857D02*
X167617857Y-191492857D01*
X167617857Y-192278571D02*
X167617857Y-190778571D01*
X168975000Y-191278571D02*
X168975000Y-192278571D01*
X168332142Y-191278571D02*
X168332142Y-192064285D01*
X168403571Y-192207142D01*
X168546428Y-192278571D01*
X168760714Y-192278571D01*
X168903571Y-192207142D01*
X168975000Y-192135714D01*
X169617857Y-192207142D02*
X169760714Y-192278571D01*
X170046428Y-192278571D01*
X170189285Y-192207142D01*
X170260714Y-192064285D01*
X170260714Y-191992857D01*
X170189285Y-191850000D01*
X170046428Y-191778571D01*
X169832142Y-191778571D01*
X169689285Y-191707142D01*
X169617857Y-191564285D01*
X169617857Y-191492857D01*
X169689285Y-191350000D01*
X169832142Y-191278571D01*
X170046428Y-191278571D01*
X170189285Y-191350000D01*
X170903571Y-192278571D02*
X170903571Y-190778571D01*
X171046428Y-191707142D02*
X171475000Y-192278571D01*
X171475000Y-191278571D02*
X170903571Y-191850000D01*
X171975000Y-191278571D02*
X172332142Y-192278571D01*
X172689285Y-191278571D02*
X172332142Y-192278571D01*
X172189285Y-192635714D01*
X172117857Y-192707142D01*
X171975000Y-192778571D01*
X173189285Y-191850000D02*
X173903571Y-191850000D01*
X173046428Y-192278571D02*
X173546428Y-190778571D01*
X174046428Y-192278571D01*
X175332142Y-192278571D02*
X174475000Y-192278571D01*
X174903571Y-192278571D02*
X174903571Y-190778571D01*
X174760714Y-190992857D01*
X174617857Y-191135714D01*
X174475000Y-191207142D01*
X176260714Y-190778571D02*
X176403571Y-190778571D01*
X176546428Y-190850000D01*
X176617857Y-190921428D01*
X176689285Y-191064285D01*
X176760714Y-191350000D01*
X176760714Y-191707142D01*
X176689285Y-191992857D01*
X176617857Y-192135714D01*
X176546428Y-192207142D01*
X176403571Y-192278571D01*
X176260714Y-192278571D01*
X176117857Y-192207142D01*
X176046428Y-192135714D01*
X175975000Y-191992857D01*
X175903571Y-191707142D01*
X175903571Y-191350000D01*
X175975000Y-191064285D01*
X176046428Y-190921428D01*
X176117857Y-190850000D01*
X176260714Y-190778571D01*
X177689285Y-190778571D02*
X177832142Y-190778571D01*
X177975000Y-190850000D01*
X178046428Y-190921428D01*
X178117857Y-191064285D01*
X178189285Y-191350000D01*
X178189285Y-191707142D01*
X178117857Y-191992857D01*
X178046428Y-192135714D01*
X177975000Y-192207142D01*
X177832142Y-192278571D01*
X177689285Y-192278571D01*
X177546428Y-192207142D01*
X177475000Y-192135714D01*
X177403571Y-191992857D01*
X177332142Y-191707142D01*
X177332142Y-191350000D01*
X177403571Y-191064285D01*
X177475000Y-190921428D01*
X177546428Y-190850000D01*
X177689285Y-190778571D01*
X178475000Y-192421428D02*
X179617857Y-192421428D01*
X179975000Y-192278571D02*
X179975000Y-190778571D01*
X180832142Y-192278571D01*
X180832142Y-190778571D01*
X182189285Y-191278571D02*
X182189285Y-192278571D01*
X181546428Y-191278571D02*
X181546428Y-192064285D01*
X181617857Y-192207142D01*
X181760714Y-192278571D01*
X181975000Y-192278571D01*
X182117857Y-192207142D01*
X182189285Y-192135714D01*
X183546428Y-192207142D02*
X183403571Y-192278571D01*
X183117857Y-192278571D01*
X182975000Y-192207142D01*
X182903571Y-192135714D01*
X182832142Y-191992857D01*
X182832142Y-191564285D01*
X182903571Y-191421428D01*
X182975000Y-191350000D01*
X183117857Y-191278571D01*
X183403571Y-191278571D01*
X183546428Y-191350000D01*
X184403571Y-192278571D02*
X184260714Y-192207142D01*
X184189285Y-192064285D01*
X184189285Y-190778571D01*
X185546428Y-192207142D02*
X185403571Y-192278571D01*
X185117857Y-192278571D01*
X184975000Y-192207142D01*
X184903571Y-192064285D01*
X184903571Y-191492857D01*
X184975000Y-191350000D01*
X185117857Y-191278571D01*
X185403571Y-191278571D01*
X185546428Y-191350000D01*
X185617857Y-191492857D01*
X185617857Y-191635714D01*
X184903571Y-191778571D01*
X186475000Y-192278571D02*
X186332142Y-192207142D01*
X186260714Y-192135714D01*
X186189285Y-191992857D01*
X186189285Y-191564285D01*
X186260714Y-191421428D01*
X186332142Y-191350000D01*
X186475000Y-191278571D01*
X186689285Y-191278571D01*
X186832142Y-191350000D01*
X186903571Y-191421428D01*
X186975000Y-191564285D01*
X186975000Y-191992857D01*
X186903571Y-192135714D01*
X186832142Y-192207142D01*
X186689285Y-192278571D01*
X186475000Y-192278571D01*
X187260714Y-192421428D02*
X188403571Y-192421428D01*
X188689285Y-192207142D02*
X188903571Y-192278571D01*
X189260714Y-192278571D01*
X189403571Y-192207142D01*
X189475000Y-192135714D01*
X189546428Y-191992857D01*
X189546428Y-191850000D01*
X189475000Y-191707142D01*
X189403571Y-191635714D01*
X189260714Y-191564285D01*
X188975000Y-191492857D01*
X188832142Y-191421428D01*
X188760714Y-191350000D01*
X188689285Y-191207142D01*
X188689285Y-191064285D01*
X188760714Y-190921428D01*
X188832142Y-190850000D01*
X188975000Y-190778571D01*
X189332142Y-190778571D01*
X189546428Y-190850000D01*
X190189285Y-192278571D02*
X190189285Y-190778571D01*
X190832142Y-192278571D02*
X190832142Y-191492857D01*
X190760714Y-191350000D01*
X190617857Y-191278571D01*
X190403571Y-191278571D01*
X190260714Y-191350000D01*
X190189285Y-191421428D01*
X191546428Y-192278571D02*
X191546428Y-191278571D01*
X191546428Y-190778571D02*
X191475000Y-190850000D01*
X191546428Y-190921428D01*
X191617857Y-190850000D01*
X191546428Y-190778571D01*
X191546428Y-190921428D01*
X192832142Y-192207142D02*
X192689285Y-192278571D01*
X192403571Y-192278571D01*
X192260714Y-192207142D01*
X192189285Y-192064285D01*
X192189285Y-191492857D01*
X192260714Y-191350000D01*
X192403571Y-191278571D01*
X192689285Y-191278571D01*
X192832142Y-191350000D01*
X192903571Y-191492857D01*
X192903571Y-191635714D01*
X192189285Y-191778571D01*
X193760714Y-192278571D02*
X193617857Y-192207142D01*
X193546428Y-192064285D01*
X193546428Y-190778571D01*
X194975000Y-192278571D02*
X194975000Y-190778571D01*
X194975000Y-192207142D02*
X194832142Y-192278571D01*
X194546428Y-192278571D01*
X194403571Y-192207142D01*
X194332142Y-192135714D01*
X194260714Y-191992857D01*
X194260714Y-191564285D01*
X194332142Y-191421428D01*
X194403571Y-191350000D01*
X194546428Y-191278571D01*
X194832142Y-191278571D01*
X194975000Y-191350000D01*
X195689285Y-192135714D02*
X195760714Y-192207142D01*
X195689285Y-192278571D01*
X195617857Y-192207142D01*
X195689285Y-192135714D01*
X195689285Y-192278571D01*
X196403571Y-192278571D02*
X196403571Y-190778571D01*
X196546428Y-191707142D02*
X196975000Y-192278571D01*
X196975000Y-191278571D02*
X196403571Y-191850000D01*
X197617857Y-192278571D02*
X197617857Y-191278571D01*
X197617857Y-190778571D02*
X197546428Y-190850000D01*
X197617857Y-190921428D01*
X197689285Y-190850000D01*
X197617857Y-190778571D01*
X197617857Y-190921428D01*
X198975000Y-192207142D02*
X198832142Y-192278571D01*
X198546428Y-192278571D01*
X198403571Y-192207142D01*
X198332142Y-192135714D01*
X198260714Y-191992857D01*
X198260714Y-191564285D01*
X198332142Y-191421428D01*
X198403571Y-191350000D01*
X198546428Y-191278571D01*
X198832142Y-191278571D01*
X198975000Y-191350000D01*
X200260714Y-192278571D02*
X200260714Y-191492857D01*
X200189285Y-191350000D01*
X200046428Y-191278571D01*
X199760714Y-191278571D01*
X199617857Y-191350000D01*
X200260714Y-192207142D02*
X200117857Y-192278571D01*
X199760714Y-192278571D01*
X199617857Y-192207142D01*
X199546428Y-192064285D01*
X199546428Y-191921428D01*
X199617857Y-191778571D01*
X199760714Y-191707142D01*
X200117857Y-191707142D01*
X200260714Y-191635714D01*
X201617857Y-192278571D02*
X201617857Y-190778571D01*
X201617857Y-192207142D02*
X201475000Y-192278571D01*
X201189285Y-192278571D01*
X201046428Y-192207142D01*
X200975000Y-192135714D01*
X200903571Y-191992857D01*
X200903571Y-191564285D01*
X200975000Y-191421428D01*
X201046428Y-191350000D01*
X201189285Y-191278571D01*
X201475000Y-191278571D01*
X201617857Y-191350000D01*
X201975000Y-192421428D02*
X203117857Y-192421428D01*
X203475000Y-191278571D02*
X203475000Y-192778571D01*
X203475000Y-191350000D02*
X203617857Y-191278571D01*
X203903571Y-191278571D01*
X204046428Y-191350000D01*
X204117857Y-191421428D01*
X204189285Y-191564285D01*
X204189285Y-191992857D01*
X204117857Y-192135714D01*
X204046428Y-192207142D01*
X203903571Y-192278571D01*
X203617857Y-192278571D01*
X203475000Y-192207142D01*
X205475000Y-192207142D02*
X205332142Y-192278571D01*
X205046428Y-192278571D01*
X204903571Y-192207142D01*
X204832142Y-192135714D01*
X204760714Y-191992857D01*
X204760714Y-191564285D01*
X204832142Y-191421428D01*
X204903571Y-191350000D01*
X205046428Y-191278571D01*
X205332142Y-191278571D01*
X205475000Y-191350000D01*
X206117857Y-192278571D02*
X206117857Y-190778571D01*
X206117857Y-191350000D02*
X206260714Y-191278571D01*
X206546428Y-191278571D01*
X206689285Y-191350000D01*
X206760714Y-191421428D01*
X206832142Y-191564285D01*
X206832142Y-191992857D01*
X206760714Y-192135714D01*
X206689285Y-192207142D01*
X206546428Y-192278571D01*
X206260714Y-192278571D01*
X206117857Y-192207142D01*
D10*
D11*
X159400000Y-187400000D02*
X267400000Y-187400000D01*
D10*
D11*
X160760714Y-189507142D02*
X160975000Y-189578571D01*
X161332142Y-189578571D01*
X161475000Y-189507142D01*
X161546428Y-189435714D01*
X161617857Y-189292857D01*
X161617857Y-189150000D01*
X161546428Y-189007142D01*
X161475000Y-188935714D01*
X161332142Y-188864285D01*
X161046428Y-188792857D01*
X160903571Y-188721428D01*
X160832142Y-188650000D01*
X160760714Y-188507142D01*
X160760714Y-188364285D01*
X160832142Y-188221428D01*
X160903571Y-188150000D01*
X161046428Y-188078571D01*
X161403571Y-188078571D01*
X161617857Y-188150000D01*
X162260714Y-189578571D02*
X162260714Y-188078571D01*
X162903571Y-189578571D02*
X162903571Y-188792857D01*
X162832142Y-188650000D01*
X162689285Y-188578571D01*
X162475000Y-188578571D01*
X162332142Y-188650000D01*
X162260714Y-188721428D01*
X164189285Y-189507142D02*
X164046428Y-189578571D01*
X163760714Y-189578571D01*
X163617857Y-189507142D01*
X163546428Y-189364285D01*
X163546428Y-188792857D01*
X163617857Y-188650000D01*
X163760714Y-188578571D01*
X164046428Y-188578571D01*
X164189285Y-188650000D01*
X164260714Y-188792857D01*
X164260714Y-188935714D01*
X163546428Y-189078571D01*
X165475000Y-189507142D02*
X165332142Y-189578571D01*
X165046428Y-189578571D01*
X164903571Y-189507142D01*
X164832142Y-189364285D01*
X164832142Y-188792857D01*
X164903571Y-188650000D01*
X165046428Y-188578571D01*
X165332142Y-188578571D01*
X165475000Y-188650000D01*
X165546428Y-188792857D01*
X165546428Y-188935714D01*
X164832142Y-189078571D01*
X165975000Y-188578571D02*
X166546428Y-188578571D01*
X166189285Y-188078571D02*
X166189285Y-189364285D01*
X166260714Y-189507142D01*
X166403571Y-189578571D01*
X166546428Y-189578571D01*
X167046428Y-189435714D02*
X167117857Y-189507142D01*
X167046428Y-189578571D01*
X166975000Y-189507142D01*
X167046428Y-189435714D01*
X167046428Y-189578571D01*
X167046428Y-188650000D02*
X167117857Y-188721428D01*
X167046428Y-188792857D01*
X166975000Y-188721428D01*
X167046428Y-188650000D01*
X167046428Y-188792857D01*
D10*
D11*
X179400000Y-197400000D02*
X179400000Y-200400000D01*
D10*
D11*
X243400000Y-197400000D02*
X243400000Y-203900000D01*
D14*
G04 #@! TO.C,CN8*
X85030000Y-41850000D02*
X87630000Y-41850000D01*
X85030000Y-41850000D02*
X85030000Y-62290000D01*
X85030000Y-62290000D02*
X90230000Y-62290000D01*
X90230000Y-44450000D02*
X90230000Y-62290000D01*
X87630000Y-44450000D02*
X90230000Y-44450000D01*
X87630000Y-41850000D02*
X87630000Y-44450000D01*
X90230000Y-41850000D02*
X90230000Y-43180000D01*
X88900000Y-41850000D02*
X90230000Y-41850000D01*
G04 #@! TO.C,CN7*
X130750000Y-34230000D02*
X133350000Y-34230000D01*
X130750000Y-34230000D02*
X130750000Y-59750000D01*
X130750000Y-59750000D02*
X135950000Y-59750000D01*
X135950000Y-36830000D02*
X135950000Y-59750000D01*
X133350000Y-36830000D02*
X135950000Y-36830000D01*
X133350000Y-34230000D02*
X133350000Y-36830000D01*
X135950000Y-34230000D02*
X135950000Y-35560000D01*
X134620000Y-34230000D02*
X135950000Y-34230000D01*
G04 #@! TO.C,CN9*
X85030000Y-65980000D02*
X87630000Y-65980000D01*
X85030000Y-65980000D02*
X85030000Y-104200000D01*
X85030000Y-104200000D02*
X90230000Y-104200000D01*
X90230000Y-68580000D02*
X90230000Y-104200000D01*
X87630000Y-68580000D02*
X90230000Y-68580000D01*
X87630000Y-65980000D02*
X87630000Y-68580000D01*
X90230000Y-65980000D02*
X90230000Y-67310000D01*
X88900000Y-65980000D02*
X90230000Y-65980000D01*
G04 #@! TO.C,CN10*
X130750000Y-60900000D02*
X133350000Y-60900000D01*
X130750000Y-60900000D02*
X130750000Y-104200000D01*
X130750000Y-104200000D02*
X135950000Y-104200000D01*
X135950000Y-63500000D02*
X135950000Y-104200000D01*
X133350000Y-63500000D02*
X135950000Y-63500000D01*
X133350000Y-60900000D02*
X133350000Y-63500000D01*
X135950000Y-60900000D02*
X135950000Y-62230000D01*
X134620000Y-60900000D02*
X135950000Y-60900000D01*
D11*
G04 #@! TO.C,J3*
X105000000Y-116250000D02*
X92500000Y-116250000D01*
X105000000Y-116250000D02*
X105000000Y-128750000D01*
X105000000Y-128750000D02*
X92500000Y-128750000D01*
X92500000Y-128750000D02*
X92500000Y-116250000D01*
G04 #@! TO.C,J4*
X105000000Y-16250000D02*
X105000000Y-28750000D01*
X92500000Y-16250000D02*
X105000000Y-16250000D01*
X92500000Y-28750000D02*
X92500000Y-16250000D01*
X92500000Y-28750000D02*
X105000000Y-28750000D01*
G04 #@! TO.C,J1*
X115000000Y-28750000D02*
X125000000Y-28750000D01*
X115000000Y-28750000D02*
X115000000Y-16250000D01*
X125000000Y-16250000D02*
X125000000Y-28750000D01*
X115000000Y-16250000D02*
X125000000Y-16250000D01*
G04 #@! TO.C,J2*
X125000000Y-128750000D02*
X115000000Y-128750000D01*
X115000000Y-128750000D02*
X115000000Y-116250000D01*
X125000000Y-116250000D02*
X125000000Y-128750000D01*
X125000000Y-116250000D02*
X115000000Y-116250000D01*
D15*
G04 #@! TO.C,C1*
X101193600Y-31115000D02*
G75*
G03X101193600Y-31115000I-76200J0D01*
G01*
G04 #@! TO.C,C2*
X96888300Y-113665000D02*
G75*
G03X96888300Y-113665000I-76200J0D01*
G01*
G04 #@! TO.C,C3*
X119113300Y-31115000D02*
G75*
G03X119113300Y-31115000I-76200J0D01*
G01*
G04 #@! TO.C,C4*
X119113300Y-113665000D02*
G75*
G03X119113300Y-113665000I-76200J0D01*
G01*
G04 #@! TO.C,C5*
X121259600Y-31115000D02*
G75*
G03X121259600Y-31115000I-76200J0D01*
G01*
G04 #@! TO.C,C6*
X98209100Y-113665000D02*
G75*
G03X98209100Y-113665000I-76200J0D01*
G01*
G04 #@! TO.C,C7*
X99237800Y-31115000D02*
G75*
G03X99237800Y-31115000I-76200J0D01*
G01*
G04 #@! TO.C,C8*
X121069100Y-113665000D02*
G75*
G03X121069100Y-113665000I-76200J0D01*
G01*
G04 #@! TO.C,CN8*
D11*
X86939523Y-40767142D02*
X86891904Y-40814761D01*
X86749047Y-40862380D01*
X86653809Y-40862380D01*
X86510952Y-40814761D01*
X86415714Y-40719523D01*
X86368095Y-40624285D01*
X86320476Y-40433809D01*
X86320476Y-40290952D01*
X86368095Y-40100476D01*
X86415714Y-40005238D01*
X86510952Y-39910000D01*
X86653809Y-39862380D01*
X86749047Y-39862380D01*
X86891904Y-39910000D01*
X86939523Y-39957619D01*
X87368095Y-40862380D02*
X87368095Y-39862380D01*
X87939523Y-40862380D01*
X87939523Y-39862380D01*
X88558571Y-40290952D02*
X88463333Y-40243333D01*
X88415714Y-40195714D01*
X88368095Y-40100476D01*
X88368095Y-40052857D01*
X88415714Y-39957619D01*
X88463333Y-39910000D01*
X88558571Y-39862380D01*
X88749047Y-39862380D01*
X88844285Y-39910000D01*
X88891904Y-39957619D01*
X88939523Y-40052857D01*
X88939523Y-40100476D01*
X88891904Y-40195714D01*
X88844285Y-40243333D01*
X88749047Y-40290952D01*
X88558571Y-40290952D01*
X88463333Y-40338571D01*
X88415714Y-40386190D01*
X88368095Y-40481428D01*
X88368095Y-40671904D01*
X88415714Y-40767142D01*
X88463333Y-40814761D01*
X88558571Y-40862380D01*
X88749047Y-40862380D01*
X88844285Y-40814761D01*
X88891904Y-40767142D01*
X88939523Y-40671904D01*
X88939523Y-40481428D01*
X88891904Y-40386190D01*
X88844285Y-40338571D01*
X88749047Y-40290952D01*
G04 #@! TO.C,CN7*
X132659523Y-33147142D02*
X132611904Y-33194761D01*
X132469047Y-33242380D01*
X132373809Y-33242380D01*
X132230952Y-33194761D01*
X132135714Y-33099523D01*
X132088095Y-33004285D01*
X132040476Y-32813809D01*
X132040476Y-32670952D01*
X132088095Y-32480476D01*
X132135714Y-32385238D01*
X132230952Y-32290000D01*
X132373809Y-32242380D01*
X132469047Y-32242380D01*
X132611904Y-32290000D01*
X132659523Y-32337619D01*
X133088095Y-33242380D02*
X133088095Y-32242380D01*
X133659523Y-33242380D01*
X133659523Y-32242380D01*
X134040476Y-32242380D02*
X134707142Y-32242380D01*
X134278571Y-33242380D01*
G04 #@! TO.C,CN9*
X86939523Y-64897142D02*
X86891904Y-64944761D01*
X86749047Y-64992380D01*
X86653809Y-64992380D01*
X86510952Y-64944761D01*
X86415714Y-64849523D01*
X86368095Y-64754285D01*
X86320476Y-64563809D01*
X86320476Y-64420952D01*
X86368095Y-64230476D01*
X86415714Y-64135238D01*
X86510952Y-64040000D01*
X86653809Y-63992380D01*
X86749047Y-63992380D01*
X86891904Y-64040000D01*
X86939523Y-64087619D01*
X87368095Y-64992380D02*
X87368095Y-63992380D01*
X87939523Y-64992380D01*
X87939523Y-63992380D01*
X88463333Y-64992380D02*
X88653809Y-64992380D01*
X88749047Y-64944761D01*
X88796666Y-64897142D01*
X88891904Y-64754285D01*
X88939523Y-64563809D01*
X88939523Y-64182857D01*
X88891904Y-64087619D01*
X88844285Y-64040000D01*
X88749047Y-63992380D01*
X88558571Y-63992380D01*
X88463333Y-64040000D01*
X88415714Y-64087619D01*
X88368095Y-64182857D01*
X88368095Y-64420952D01*
X88415714Y-64516190D01*
X88463333Y-64563809D01*
X88558571Y-64611428D01*
X88749047Y-64611428D01*
X88844285Y-64563809D01*
X88891904Y-64516190D01*
X88939523Y-64420952D01*
G04 #@! TO.C,CN10*
X132183333Y-59817142D02*
X132135714Y-59864761D01*
X131992857Y-59912380D01*
X131897619Y-59912380D01*
X131754761Y-59864761D01*
X131659523Y-59769523D01*
X131611904Y-59674285D01*
X131564285Y-59483809D01*
X131564285Y-59340952D01*
X131611904Y-59150476D01*
X131659523Y-59055238D01*
X131754761Y-58960000D01*
X131897619Y-58912380D01*
X131992857Y-58912380D01*
X132135714Y-58960000D01*
X132183333Y-59007619D01*
X132611904Y-59912380D02*
X132611904Y-58912380D01*
X133183333Y-59912380D01*
X133183333Y-58912380D01*
X134183333Y-59912380D02*
X133611904Y-59912380D01*
X133897619Y-59912380D02*
X133897619Y-58912380D01*
X133802380Y-59055238D01*
X133707142Y-59150476D01*
X133611904Y-59198095D01*
X134802380Y-58912380D02*
X134897619Y-58912380D01*
X134992857Y-58960000D01*
X135040476Y-59007619D01*
X135088095Y-59102857D01*
X135135714Y-59293333D01*
X135135714Y-59531428D01*
X135088095Y-59721904D01*
X135040476Y-59817142D01*
X134992857Y-59864761D01*
X134897619Y-59912380D01*
X134802380Y-59912380D01*
X134707142Y-59864761D01*
X134659523Y-59817142D01*
X134611904Y-59721904D01*
X134564285Y-59531428D01*
X134564285Y-59293333D01*
X134611904Y-59102857D01*
X134659523Y-59007619D01*
X134707142Y-58960000D01*
X134802380Y-58912380D01*
G04 #@! TO.C,J3*
X89452380Y-117833333D02*
X90166666Y-117833333D01*
X90309523Y-117880952D01*
X90404761Y-117976190D01*
X90452380Y-118119047D01*
X90452380Y-118214285D01*
X89452380Y-117452380D02*
X89452380Y-116833333D01*
X89833333Y-117166666D01*
X89833333Y-117023809D01*
X89880952Y-116928571D01*
X89928571Y-116880952D01*
X90023809Y-116833333D01*
X90261904Y-116833333D01*
X90357142Y-116880952D01*
X90404761Y-116928571D01*
X90452380Y-117023809D01*
X90452380Y-117309523D01*
X90404761Y-117404761D01*
X90357142Y-117452380D01*
G04 #@! TO.C,J4*
X106952380Y-27833333D02*
X107666666Y-27833333D01*
X107809523Y-27880952D01*
X107904761Y-27976190D01*
X107952380Y-28119047D01*
X107952380Y-28214285D01*
X107285714Y-26928571D02*
X107952380Y-26928571D01*
X106904761Y-27166666D02*
X107619047Y-27404761D01*
X107619047Y-26785714D01*
G04 #@! TO.C,J1*
X128202380Y-27833333D02*
X128916666Y-27833333D01*
X129059523Y-27880952D01*
X129154761Y-27976190D01*
X129202380Y-28119047D01*
X129202380Y-28214285D01*
X129202380Y-26833333D02*
X129202380Y-27404761D01*
X129202380Y-27119047D02*
X128202380Y-27119047D01*
X128345238Y-27214285D01*
X128440476Y-27309523D01*
X128488095Y-27404761D01*
G04 #@! TO.C,J2*
X110702380Y-117833333D02*
X111416666Y-117833333D01*
X111559523Y-117880952D01*
X111654761Y-117976190D01*
X111702380Y-118119047D01*
X111702380Y-118214285D01*
X110797619Y-117404761D02*
X110750000Y-117357142D01*
X110702380Y-117261904D01*
X110702380Y-117023809D01*
X110750000Y-116928571D01*
X110797619Y-116880952D01*
X110892857Y-116833333D01*
X110988095Y-116833333D01*
X111130952Y-116880952D01*
X111702380Y-117452380D01*
X111702380Y-116833333D01*
G04 #@! TO.C,C1*
X102512833Y-30202142D02*
X102465214Y-30249761D01*
X102322357Y-30297380D01*
X102227119Y-30297380D01*
X102084261Y-30249761D01*
X101989023Y-30154523D01*
X101941404Y-30059285D01*
X101893785Y-29868809D01*
X101893785Y-29725952D01*
X101941404Y-29535476D01*
X101989023Y-29440238D01*
X102084261Y-29345000D01*
X102227119Y-29297380D01*
X102322357Y-29297380D01*
X102465214Y-29345000D01*
X102512833Y-29392619D01*
X103465214Y-30297380D02*
X102893785Y-30297380D01*
X103179500Y-30297380D02*
X103179500Y-29297380D01*
X103084261Y-29440238D01*
X102989023Y-29535476D01*
X102893785Y-29583095D01*
X101640476Y-32742142D02*
X101592857Y-32789761D01*
X101450000Y-32837380D01*
X101354761Y-32837380D01*
X101211904Y-32789761D01*
X101116666Y-32694523D01*
X101069047Y-32599285D01*
X101021428Y-32408809D01*
X101021428Y-32265952D01*
X101069047Y-32075476D01*
X101116666Y-31980238D01*
X101211904Y-31885000D01*
X101354761Y-31837380D01*
X101450000Y-31837380D01*
X101592857Y-31885000D01*
X101640476Y-31932619D01*
X102545238Y-32837380D02*
X102069047Y-32837380D01*
X102069047Y-31837380D01*
X103069047Y-31837380D02*
X103164285Y-31837380D01*
X103259523Y-31885000D01*
X103307142Y-31932619D01*
X103354761Y-32027857D01*
X103402380Y-32218333D01*
X103402380Y-32456428D01*
X103354761Y-32646904D01*
X103307142Y-32742142D01*
X103259523Y-32789761D01*
X103164285Y-32837380D01*
X103069047Y-32837380D01*
X102973809Y-32789761D01*
X102926190Y-32742142D01*
X102878571Y-32646904D01*
X102830952Y-32456428D01*
X102830952Y-32218333D01*
X102878571Y-32027857D01*
X102926190Y-31932619D01*
X102973809Y-31885000D01*
X103069047Y-31837380D01*
X104307142Y-31837380D02*
X103830952Y-31837380D01*
X103783333Y-32313571D01*
X103830952Y-32265952D01*
X103926190Y-32218333D01*
X104164285Y-32218333D01*
X104259523Y-32265952D01*
X104307142Y-32313571D01*
X104354761Y-32408809D01*
X104354761Y-32646904D01*
X104307142Y-32742142D01*
X104259523Y-32789761D01*
X104164285Y-32837380D01*
X103926190Y-32837380D01*
X103830952Y-32789761D01*
X103783333Y-32742142D01*
X105116666Y-32313571D02*
X105259523Y-32361190D01*
X105307142Y-32408809D01*
X105354761Y-32504047D01*
X105354761Y-32646904D01*
X105307142Y-32742142D01*
X105259523Y-32789761D01*
X105164285Y-32837380D01*
X104783333Y-32837380D01*
X104783333Y-31837380D01*
X105116666Y-31837380D01*
X105211904Y-31885000D01*
X105259523Y-31932619D01*
X105307142Y-32027857D01*
X105307142Y-32123095D01*
X105259523Y-32218333D01*
X105211904Y-32265952D01*
X105116666Y-32313571D01*
X104783333Y-32313571D01*
X106307142Y-32837380D02*
X105735714Y-32837380D01*
X106021428Y-32837380D02*
X106021428Y-31837380D01*
X105926190Y-31980238D01*
X105830952Y-32075476D01*
X105735714Y-32123095D01*
X106926190Y-31837380D02*
X107021428Y-31837380D01*
X107116666Y-31885000D01*
X107164285Y-31932619D01*
X107211904Y-32027857D01*
X107259523Y-32218333D01*
X107259523Y-32456428D01*
X107211904Y-32646904D01*
X107164285Y-32742142D01*
X107116666Y-32789761D01*
X107021428Y-32837380D01*
X106926190Y-32837380D01*
X106830952Y-32789761D01*
X106783333Y-32742142D01*
X106735714Y-32646904D01*
X106688095Y-32456428D01*
X106688095Y-32218333D01*
X106735714Y-32027857D01*
X106783333Y-31932619D01*
X106830952Y-31885000D01*
X106926190Y-31837380D01*
X108116666Y-32170714D02*
X108116666Y-32837380D01*
X107878571Y-31789761D02*
X107640476Y-32504047D01*
X108259523Y-32504047D01*
X108640476Y-32837380D02*
X108640476Y-31837380D01*
X109211904Y-32837380D02*
X108783333Y-32265952D01*
X109211904Y-31837380D02*
X108640476Y-32408809D01*
X109592857Y-32551666D02*
X110069047Y-32551666D01*
X109497619Y-32837380D02*
X109830952Y-31837380D01*
X110164285Y-32837380D01*
X110973809Y-31837380D02*
X110497619Y-31837380D01*
X110450000Y-32313571D01*
X110497619Y-32265952D01*
X110592857Y-32218333D01*
X110830952Y-32218333D01*
X110926190Y-32265952D01*
X110973809Y-32313571D01*
X111021428Y-32408809D01*
X111021428Y-32646904D01*
X110973809Y-32742142D01*
X110926190Y-32789761D01*
X110830952Y-32837380D01*
X110592857Y-32837380D01*
X110497619Y-32789761D01*
X110450000Y-32742142D01*
X111973809Y-32837380D02*
X111402380Y-32837380D01*
X111688095Y-32837380D02*
X111688095Y-31837380D01*
X111592857Y-31980238D01*
X111497619Y-32075476D01*
X111402380Y-32123095D01*
X112402380Y-32837380D02*
X112402380Y-31837380D01*
X112783333Y-31837380D01*
X112878571Y-31885000D01*
X112926190Y-31932619D01*
X112973809Y-32027857D01*
X112973809Y-32170714D01*
X112926190Y-32265952D01*
X112878571Y-32313571D01*
X112783333Y-32361190D01*
X112402380Y-32361190D01*
X113402380Y-32313571D02*
X113735714Y-32313571D01*
X113878571Y-32837380D02*
X113402380Y-32837380D01*
X113402380Y-31837380D01*
X113878571Y-31837380D01*
X114878571Y-32742142D02*
X114830952Y-32789761D01*
X114688095Y-32837380D01*
X114592857Y-32837380D01*
X114450000Y-32789761D01*
X114354761Y-32694523D01*
X114307142Y-32599285D01*
X114259523Y-32408809D01*
X114259523Y-32265952D01*
X114307142Y-32075476D01*
X114354761Y-31980238D01*
X114450000Y-31885000D01*
X114592857Y-31837380D01*
X114688095Y-31837380D01*
X114830952Y-31885000D01*
X114878571Y-31932619D01*
X102679500Y-30567380D02*
X102679500Y-30805476D01*
X102441404Y-30710238D02*
X102679500Y-30805476D01*
X102917595Y-30710238D01*
X102536642Y-30995952D02*
X102679500Y-30805476D01*
X102822357Y-30995952D01*
G04 #@! TO.C,C2*
X95083333Y-115292142D02*
X95035714Y-115339761D01*
X94892857Y-115387380D01*
X94797619Y-115387380D01*
X94654761Y-115339761D01*
X94559523Y-115244523D01*
X94511904Y-115149285D01*
X94464285Y-114958809D01*
X94464285Y-114815952D01*
X94511904Y-114625476D01*
X94559523Y-114530238D01*
X94654761Y-114435000D01*
X94797619Y-114387380D01*
X94892857Y-114387380D01*
X95035714Y-114435000D01*
X95083333Y-114482619D01*
X95464285Y-114482619D02*
X95511904Y-114435000D01*
X95607142Y-114387380D01*
X95845238Y-114387380D01*
X95940476Y-114435000D01*
X95988095Y-114482619D01*
X96035714Y-114577857D01*
X96035714Y-114673095D01*
X95988095Y-114815952D01*
X95416666Y-115387380D01*
X96035714Y-115387380D01*
X83225476Y-111482142D02*
X83177857Y-111529761D01*
X83035000Y-111577380D01*
X82939761Y-111577380D01*
X82796904Y-111529761D01*
X82701666Y-111434523D01*
X82654047Y-111339285D01*
X82606428Y-111148809D01*
X82606428Y-111005952D01*
X82654047Y-110815476D01*
X82701666Y-110720238D01*
X82796904Y-110625000D01*
X82939761Y-110577380D01*
X83035000Y-110577380D01*
X83177857Y-110625000D01*
X83225476Y-110672619D01*
X84130238Y-111577380D02*
X83654047Y-111577380D01*
X83654047Y-110577380D01*
X84654047Y-110577380D02*
X84749285Y-110577380D01*
X84844523Y-110625000D01*
X84892142Y-110672619D01*
X84939761Y-110767857D01*
X84987380Y-110958333D01*
X84987380Y-111196428D01*
X84939761Y-111386904D01*
X84892142Y-111482142D01*
X84844523Y-111529761D01*
X84749285Y-111577380D01*
X84654047Y-111577380D01*
X84558809Y-111529761D01*
X84511190Y-111482142D01*
X84463571Y-111386904D01*
X84415952Y-111196428D01*
X84415952Y-110958333D01*
X84463571Y-110767857D01*
X84511190Y-110672619D01*
X84558809Y-110625000D01*
X84654047Y-110577380D01*
X85892142Y-110577380D02*
X85415952Y-110577380D01*
X85368333Y-111053571D01*
X85415952Y-111005952D01*
X85511190Y-110958333D01*
X85749285Y-110958333D01*
X85844523Y-111005952D01*
X85892142Y-111053571D01*
X85939761Y-111148809D01*
X85939761Y-111386904D01*
X85892142Y-111482142D01*
X85844523Y-111529761D01*
X85749285Y-111577380D01*
X85511190Y-111577380D01*
X85415952Y-111529761D01*
X85368333Y-111482142D01*
X86701666Y-111053571D02*
X86844523Y-111101190D01*
X86892142Y-111148809D01*
X86939761Y-111244047D01*
X86939761Y-111386904D01*
X86892142Y-111482142D01*
X86844523Y-111529761D01*
X86749285Y-111577380D01*
X86368333Y-111577380D01*
X86368333Y-110577380D01*
X86701666Y-110577380D01*
X86796904Y-110625000D01*
X86844523Y-110672619D01*
X86892142Y-110767857D01*
X86892142Y-110863095D01*
X86844523Y-110958333D01*
X86796904Y-111005952D01*
X86701666Y-111053571D01*
X86368333Y-111053571D01*
X87892142Y-111577380D02*
X87320714Y-111577380D01*
X87606428Y-111577380D02*
X87606428Y-110577380D01*
X87511190Y-110720238D01*
X87415952Y-110815476D01*
X87320714Y-110863095D01*
X88511190Y-110577380D02*
X88606428Y-110577380D01*
X88701666Y-110625000D01*
X88749285Y-110672619D01*
X88796904Y-110767857D01*
X88844523Y-110958333D01*
X88844523Y-111196428D01*
X88796904Y-111386904D01*
X88749285Y-111482142D01*
X88701666Y-111529761D01*
X88606428Y-111577380D01*
X88511190Y-111577380D01*
X88415952Y-111529761D01*
X88368333Y-111482142D01*
X88320714Y-111386904D01*
X88273095Y-111196428D01*
X88273095Y-110958333D01*
X88320714Y-110767857D01*
X88368333Y-110672619D01*
X88415952Y-110625000D01*
X88511190Y-110577380D01*
X89701666Y-110910714D02*
X89701666Y-111577380D01*
X89463571Y-110529761D02*
X89225476Y-111244047D01*
X89844523Y-111244047D01*
X90225476Y-111577380D02*
X90225476Y-110577380D01*
X90796904Y-111577380D02*
X90368333Y-111005952D01*
X90796904Y-110577380D02*
X90225476Y-111148809D01*
X91177857Y-111291666D02*
X91654047Y-111291666D01*
X91082619Y-111577380D02*
X91415952Y-110577380D01*
X91749285Y-111577380D01*
X92558809Y-110577380D02*
X92082619Y-110577380D01*
X92035000Y-111053571D01*
X92082619Y-111005952D01*
X92177857Y-110958333D01*
X92415952Y-110958333D01*
X92511190Y-111005952D01*
X92558809Y-111053571D01*
X92606428Y-111148809D01*
X92606428Y-111386904D01*
X92558809Y-111482142D01*
X92511190Y-111529761D01*
X92415952Y-111577380D01*
X92177857Y-111577380D01*
X92082619Y-111529761D01*
X92035000Y-111482142D01*
X93558809Y-111577380D02*
X92987380Y-111577380D01*
X93273095Y-111577380D02*
X93273095Y-110577380D01*
X93177857Y-110720238D01*
X93082619Y-110815476D01*
X92987380Y-110863095D01*
X93987380Y-111577380D02*
X93987380Y-110577380D01*
X94368333Y-110577380D01*
X94463571Y-110625000D01*
X94511190Y-110672619D01*
X94558809Y-110767857D01*
X94558809Y-110910714D01*
X94511190Y-111005952D01*
X94463571Y-111053571D01*
X94368333Y-111101190D01*
X93987380Y-111101190D01*
X94987380Y-111053571D02*
X95320714Y-111053571D01*
X95463571Y-111577380D02*
X94987380Y-111577380D01*
X94987380Y-110577380D01*
X95463571Y-110577380D01*
X96463571Y-111482142D02*
X96415952Y-111529761D01*
X96273095Y-111577380D01*
X96177857Y-111577380D01*
X96035000Y-111529761D01*
X95939761Y-111434523D01*
X95892142Y-111339285D01*
X95844523Y-111148809D01*
X95844523Y-111005952D01*
X95892142Y-110815476D01*
X95939761Y-110720238D01*
X96035000Y-110625000D01*
X96177857Y-110577380D01*
X96273095Y-110577380D01*
X96415952Y-110625000D01*
X96463571Y-110672619D01*
X95250000Y-113117380D02*
X95250000Y-113355476D01*
X95011904Y-113260238D02*
X95250000Y-113355476D01*
X95488095Y-113260238D01*
X95107142Y-113545952D02*
X95250000Y-113355476D01*
X95392857Y-113545952D01*
G04 #@! TO.C,C3*
X117308333Y-32742142D02*
X117260714Y-32789761D01*
X117117857Y-32837380D01*
X117022619Y-32837380D01*
X116879761Y-32789761D01*
X116784523Y-32694523D01*
X116736904Y-32599285D01*
X116689285Y-32408809D01*
X116689285Y-32265952D01*
X116736904Y-32075476D01*
X116784523Y-31980238D01*
X116879761Y-31885000D01*
X117022619Y-31837380D01*
X117117857Y-31837380D01*
X117260714Y-31885000D01*
X117308333Y-31932619D01*
X117641666Y-31837380D02*
X118260714Y-31837380D01*
X117927380Y-32218333D01*
X118070238Y-32218333D01*
X118165476Y-32265952D01*
X118213095Y-32313571D01*
X118260714Y-32408809D01*
X118260714Y-32646904D01*
X118213095Y-32742142D01*
X118165476Y-32789761D01*
X118070238Y-32837380D01*
X117784523Y-32837380D01*
X117689285Y-32789761D01*
X117641666Y-32742142D01*
X105450476Y-30202142D02*
X105402857Y-30249761D01*
X105260000Y-30297380D01*
X105164761Y-30297380D01*
X105021904Y-30249761D01*
X104926666Y-30154523D01*
X104879047Y-30059285D01*
X104831428Y-29868809D01*
X104831428Y-29725952D01*
X104879047Y-29535476D01*
X104926666Y-29440238D01*
X105021904Y-29345000D01*
X105164761Y-29297380D01*
X105260000Y-29297380D01*
X105402857Y-29345000D01*
X105450476Y-29392619D01*
X106355238Y-30297380D02*
X105879047Y-30297380D01*
X105879047Y-29297380D01*
X106879047Y-29297380D02*
X106974285Y-29297380D01*
X107069523Y-29345000D01*
X107117142Y-29392619D01*
X107164761Y-29487857D01*
X107212380Y-29678333D01*
X107212380Y-29916428D01*
X107164761Y-30106904D01*
X107117142Y-30202142D01*
X107069523Y-30249761D01*
X106974285Y-30297380D01*
X106879047Y-30297380D01*
X106783809Y-30249761D01*
X106736190Y-30202142D01*
X106688571Y-30106904D01*
X106640952Y-29916428D01*
X106640952Y-29678333D01*
X106688571Y-29487857D01*
X106736190Y-29392619D01*
X106783809Y-29345000D01*
X106879047Y-29297380D01*
X108117142Y-29297380D02*
X107640952Y-29297380D01*
X107593333Y-29773571D01*
X107640952Y-29725952D01*
X107736190Y-29678333D01*
X107974285Y-29678333D01*
X108069523Y-29725952D01*
X108117142Y-29773571D01*
X108164761Y-29868809D01*
X108164761Y-30106904D01*
X108117142Y-30202142D01*
X108069523Y-30249761D01*
X107974285Y-30297380D01*
X107736190Y-30297380D01*
X107640952Y-30249761D01*
X107593333Y-30202142D01*
X108926666Y-29773571D02*
X109069523Y-29821190D01*
X109117142Y-29868809D01*
X109164761Y-29964047D01*
X109164761Y-30106904D01*
X109117142Y-30202142D01*
X109069523Y-30249761D01*
X108974285Y-30297380D01*
X108593333Y-30297380D01*
X108593333Y-29297380D01*
X108926666Y-29297380D01*
X109021904Y-29345000D01*
X109069523Y-29392619D01*
X109117142Y-29487857D01*
X109117142Y-29583095D01*
X109069523Y-29678333D01*
X109021904Y-29725952D01*
X108926666Y-29773571D01*
X108593333Y-29773571D01*
X110117142Y-30297380D02*
X109545714Y-30297380D01*
X109831428Y-30297380D02*
X109831428Y-29297380D01*
X109736190Y-29440238D01*
X109640952Y-29535476D01*
X109545714Y-29583095D01*
X110736190Y-29297380D02*
X110831428Y-29297380D01*
X110926666Y-29345000D01*
X110974285Y-29392619D01*
X111021904Y-29487857D01*
X111069523Y-29678333D01*
X111069523Y-29916428D01*
X111021904Y-30106904D01*
X110974285Y-30202142D01*
X110926666Y-30249761D01*
X110831428Y-30297380D01*
X110736190Y-30297380D01*
X110640952Y-30249761D01*
X110593333Y-30202142D01*
X110545714Y-30106904D01*
X110498095Y-29916428D01*
X110498095Y-29678333D01*
X110545714Y-29487857D01*
X110593333Y-29392619D01*
X110640952Y-29345000D01*
X110736190Y-29297380D01*
X111926666Y-29630714D02*
X111926666Y-30297380D01*
X111688571Y-29249761D02*
X111450476Y-29964047D01*
X112069523Y-29964047D01*
X112450476Y-30297380D02*
X112450476Y-29297380D01*
X113021904Y-30297380D02*
X112593333Y-29725952D01*
X113021904Y-29297380D02*
X112450476Y-29868809D01*
X113402857Y-30011666D02*
X113879047Y-30011666D01*
X113307619Y-30297380D02*
X113640952Y-29297380D01*
X113974285Y-30297380D01*
X114783809Y-29297380D02*
X114307619Y-29297380D01*
X114260000Y-29773571D01*
X114307619Y-29725952D01*
X114402857Y-29678333D01*
X114640952Y-29678333D01*
X114736190Y-29725952D01*
X114783809Y-29773571D01*
X114831428Y-29868809D01*
X114831428Y-30106904D01*
X114783809Y-30202142D01*
X114736190Y-30249761D01*
X114640952Y-30297380D01*
X114402857Y-30297380D01*
X114307619Y-30249761D01*
X114260000Y-30202142D01*
X115783809Y-30297380D02*
X115212380Y-30297380D01*
X115498095Y-30297380D02*
X115498095Y-29297380D01*
X115402857Y-29440238D01*
X115307619Y-29535476D01*
X115212380Y-29583095D01*
X116212380Y-30297380D02*
X116212380Y-29297380D01*
X116593333Y-29297380D01*
X116688571Y-29345000D01*
X116736190Y-29392619D01*
X116783809Y-29487857D01*
X116783809Y-29630714D01*
X116736190Y-29725952D01*
X116688571Y-29773571D01*
X116593333Y-29821190D01*
X116212380Y-29821190D01*
X117212380Y-29773571D02*
X117545714Y-29773571D01*
X117688571Y-30297380D02*
X117212380Y-30297380D01*
X117212380Y-29297380D01*
X117688571Y-29297380D01*
X118688571Y-30202142D02*
X118640952Y-30249761D01*
X118498095Y-30297380D01*
X118402857Y-30297380D01*
X118260000Y-30249761D01*
X118164761Y-30154523D01*
X118117142Y-30059285D01*
X118069523Y-29868809D01*
X118069523Y-29725952D01*
X118117142Y-29535476D01*
X118164761Y-29440238D01*
X118260000Y-29345000D01*
X118402857Y-29297380D01*
X118498095Y-29297380D01*
X118640952Y-29345000D01*
X118688571Y-29392619D01*
X117475000Y-30567380D02*
X117475000Y-30805476D01*
X117236904Y-30710238D02*
X117475000Y-30805476D01*
X117713095Y-30710238D01*
X117332142Y-30995952D02*
X117475000Y-30805476D01*
X117617857Y-30995952D01*
G04 #@! TO.C,C4*
X117308333Y-112752142D02*
X117260714Y-112799761D01*
X117117857Y-112847380D01*
X117022619Y-112847380D01*
X116879761Y-112799761D01*
X116784523Y-112704523D01*
X116736904Y-112609285D01*
X116689285Y-112418809D01*
X116689285Y-112275952D01*
X116736904Y-112085476D01*
X116784523Y-111990238D01*
X116879761Y-111895000D01*
X117022619Y-111847380D01*
X117117857Y-111847380D01*
X117260714Y-111895000D01*
X117308333Y-111942619D01*
X118165476Y-112180714D02*
X118165476Y-112847380D01*
X117927380Y-111799761D02*
X117689285Y-112514047D01*
X118308333Y-112514047D01*
X105450476Y-115292142D02*
X105402857Y-115339761D01*
X105260000Y-115387380D01*
X105164761Y-115387380D01*
X105021904Y-115339761D01*
X104926666Y-115244523D01*
X104879047Y-115149285D01*
X104831428Y-114958809D01*
X104831428Y-114815952D01*
X104879047Y-114625476D01*
X104926666Y-114530238D01*
X105021904Y-114435000D01*
X105164761Y-114387380D01*
X105260000Y-114387380D01*
X105402857Y-114435000D01*
X105450476Y-114482619D01*
X106355238Y-115387380D02*
X105879047Y-115387380D01*
X105879047Y-114387380D01*
X106879047Y-114387380D02*
X106974285Y-114387380D01*
X107069523Y-114435000D01*
X107117142Y-114482619D01*
X107164761Y-114577857D01*
X107212380Y-114768333D01*
X107212380Y-115006428D01*
X107164761Y-115196904D01*
X107117142Y-115292142D01*
X107069523Y-115339761D01*
X106974285Y-115387380D01*
X106879047Y-115387380D01*
X106783809Y-115339761D01*
X106736190Y-115292142D01*
X106688571Y-115196904D01*
X106640952Y-115006428D01*
X106640952Y-114768333D01*
X106688571Y-114577857D01*
X106736190Y-114482619D01*
X106783809Y-114435000D01*
X106879047Y-114387380D01*
X108117142Y-114387380D02*
X107640952Y-114387380D01*
X107593333Y-114863571D01*
X107640952Y-114815952D01*
X107736190Y-114768333D01*
X107974285Y-114768333D01*
X108069523Y-114815952D01*
X108117142Y-114863571D01*
X108164761Y-114958809D01*
X108164761Y-115196904D01*
X108117142Y-115292142D01*
X108069523Y-115339761D01*
X107974285Y-115387380D01*
X107736190Y-115387380D01*
X107640952Y-115339761D01*
X107593333Y-115292142D01*
X108926666Y-114863571D02*
X109069523Y-114911190D01*
X109117142Y-114958809D01*
X109164761Y-115054047D01*
X109164761Y-115196904D01*
X109117142Y-115292142D01*
X109069523Y-115339761D01*
X108974285Y-115387380D01*
X108593333Y-115387380D01*
X108593333Y-114387380D01*
X108926666Y-114387380D01*
X109021904Y-114435000D01*
X109069523Y-114482619D01*
X109117142Y-114577857D01*
X109117142Y-114673095D01*
X109069523Y-114768333D01*
X109021904Y-114815952D01*
X108926666Y-114863571D01*
X108593333Y-114863571D01*
X110117142Y-115387380D02*
X109545714Y-115387380D01*
X109831428Y-115387380D02*
X109831428Y-114387380D01*
X109736190Y-114530238D01*
X109640952Y-114625476D01*
X109545714Y-114673095D01*
X110736190Y-114387380D02*
X110831428Y-114387380D01*
X110926666Y-114435000D01*
X110974285Y-114482619D01*
X111021904Y-114577857D01*
X111069523Y-114768333D01*
X111069523Y-115006428D01*
X111021904Y-115196904D01*
X110974285Y-115292142D01*
X110926666Y-115339761D01*
X110831428Y-115387380D01*
X110736190Y-115387380D01*
X110640952Y-115339761D01*
X110593333Y-115292142D01*
X110545714Y-115196904D01*
X110498095Y-115006428D01*
X110498095Y-114768333D01*
X110545714Y-114577857D01*
X110593333Y-114482619D01*
X110640952Y-114435000D01*
X110736190Y-114387380D01*
X111926666Y-114720714D02*
X111926666Y-115387380D01*
X111688571Y-114339761D02*
X111450476Y-115054047D01*
X112069523Y-115054047D01*
X112450476Y-115387380D02*
X112450476Y-114387380D01*
X113021904Y-115387380D02*
X112593333Y-114815952D01*
X113021904Y-114387380D02*
X112450476Y-114958809D01*
X113402857Y-115101666D02*
X113879047Y-115101666D01*
X113307619Y-115387380D02*
X113640952Y-114387380D01*
X113974285Y-115387380D01*
X114783809Y-114387380D02*
X114307619Y-114387380D01*
X114260000Y-114863571D01*
X114307619Y-114815952D01*
X114402857Y-114768333D01*
X114640952Y-114768333D01*
X114736190Y-114815952D01*
X114783809Y-114863571D01*
X114831428Y-114958809D01*
X114831428Y-115196904D01*
X114783809Y-115292142D01*
X114736190Y-115339761D01*
X114640952Y-115387380D01*
X114402857Y-115387380D01*
X114307619Y-115339761D01*
X114260000Y-115292142D01*
X115783809Y-115387380D02*
X115212380Y-115387380D01*
X115498095Y-115387380D02*
X115498095Y-114387380D01*
X115402857Y-114530238D01*
X115307619Y-114625476D01*
X115212380Y-114673095D01*
X116212380Y-115387380D02*
X116212380Y-114387380D01*
X116593333Y-114387380D01*
X116688571Y-114435000D01*
X116736190Y-114482619D01*
X116783809Y-114577857D01*
X116783809Y-114720714D01*
X116736190Y-114815952D01*
X116688571Y-114863571D01*
X116593333Y-114911190D01*
X116212380Y-114911190D01*
X117212380Y-114863571D02*
X117545714Y-114863571D01*
X117688571Y-115387380D02*
X117212380Y-115387380D01*
X117212380Y-114387380D01*
X117688571Y-114387380D01*
X118688571Y-115292142D02*
X118640952Y-115339761D01*
X118498095Y-115387380D01*
X118402857Y-115387380D01*
X118260000Y-115339761D01*
X118164761Y-115244523D01*
X118117142Y-115149285D01*
X118069523Y-114958809D01*
X118069523Y-114815952D01*
X118117142Y-114625476D01*
X118164761Y-114530238D01*
X118260000Y-114435000D01*
X118402857Y-114387380D01*
X118498095Y-114387380D01*
X118640952Y-114435000D01*
X118688571Y-114482619D01*
X117475000Y-113117380D02*
X117475000Y-113355476D01*
X117236904Y-113260238D02*
X117475000Y-113355476D01*
X117713095Y-113260238D01*
X117332142Y-113545952D02*
X117475000Y-113355476D01*
X117617857Y-113545952D01*
G04 #@! TO.C,C5*
X122578833Y-32742142D02*
X122531214Y-32789761D01*
X122388357Y-32837380D01*
X122293119Y-32837380D01*
X122150261Y-32789761D01*
X122055023Y-32694523D01*
X122007404Y-32599285D01*
X121959785Y-32408809D01*
X121959785Y-32265952D01*
X122007404Y-32075476D01*
X122055023Y-31980238D01*
X122150261Y-31885000D01*
X122293119Y-31837380D01*
X122388357Y-31837380D01*
X122531214Y-31885000D01*
X122578833Y-31932619D01*
X123483595Y-31837380D02*
X123007404Y-31837380D01*
X122959785Y-32313571D01*
X123007404Y-32265952D01*
X123102642Y-32218333D01*
X123340738Y-32218333D01*
X123435976Y-32265952D01*
X123483595Y-32313571D01*
X123531214Y-32408809D01*
X123531214Y-32646904D01*
X123483595Y-32742142D01*
X123435976Y-32789761D01*
X123340738Y-32837380D01*
X123102642Y-32837380D01*
X123007404Y-32789761D01*
X122959785Y-32742142D01*
X121960476Y-30202142D02*
X121912857Y-30249761D01*
X121770000Y-30297380D01*
X121674761Y-30297380D01*
X121531904Y-30249761D01*
X121436666Y-30154523D01*
X121389047Y-30059285D01*
X121341428Y-29868809D01*
X121341428Y-29725952D01*
X121389047Y-29535476D01*
X121436666Y-29440238D01*
X121531904Y-29345000D01*
X121674761Y-29297380D01*
X121770000Y-29297380D01*
X121912857Y-29345000D01*
X121960476Y-29392619D01*
X122865238Y-30297380D02*
X122389047Y-30297380D01*
X122389047Y-29297380D01*
X123389047Y-29297380D02*
X123484285Y-29297380D01*
X123579523Y-29345000D01*
X123627142Y-29392619D01*
X123674761Y-29487857D01*
X123722380Y-29678333D01*
X123722380Y-29916428D01*
X123674761Y-30106904D01*
X123627142Y-30202142D01*
X123579523Y-30249761D01*
X123484285Y-30297380D01*
X123389047Y-30297380D01*
X123293809Y-30249761D01*
X123246190Y-30202142D01*
X123198571Y-30106904D01*
X123150952Y-29916428D01*
X123150952Y-29678333D01*
X123198571Y-29487857D01*
X123246190Y-29392619D01*
X123293809Y-29345000D01*
X123389047Y-29297380D01*
X124627142Y-29297380D02*
X124150952Y-29297380D01*
X124103333Y-29773571D01*
X124150952Y-29725952D01*
X124246190Y-29678333D01*
X124484285Y-29678333D01*
X124579523Y-29725952D01*
X124627142Y-29773571D01*
X124674761Y-29868809D01*
X124674761Y-30106904D01*
X124627142Y-30202142D01*
X124579523Y-30249761D01*
X124484285Y-30297380D01*
X124246190Y-30297380D01*
X124150952Y-30249761D01*
X124103333Y-30202142D01*
X125436666Y-29773571D02*
X125579523Y-29821190D01*
X125627142Y-29868809D01*
X125674761Y-29964047D01*
X125674761Y-30106904D01*
X125627142Y-30202142D01*
X125579523Y-30249761D01*
X125484285Y-30297380D01*
X125103333Y-30297380D01*
X125103333Y-29297380D01*
X125436666Y-29297380D01*
X125531904Y-29345000D01*
X125579523Y-29392619D01*
X125627142Y-29487857D01*
X125627142Y-29583095D01*
X125579523Y-29678333D01*
X125531904Y-29725952D01*
X125436666Y-29773571D01*
X125103333Y-29773571D01*
X126627142Y-30297380D02*
X126055714Y-30297380D01*
X126341428Y-30297380D02*
X126341428Y-29297380D01*
X126246190Y-29440238D01*
X126150952Y-29535476D01*
X126055714Y-29583095D01*
X127246190Y-29297380D02*
X127341428Y-29297380D01*
X127436666Y-29345000D01*
X127484285Y-29392619D01*
X127531904Y-29487857D01*
X127579523Y-29678333D01*
X127579523Y-29916428D01*
X127531904Y-30106904D01*
X127484285Y-30202142D01*
X127436666Y-30249761D01*
X127341428Y-30297380D01*
X127246190Y-30297380D01*
X127150952Y-30249761D01*
X127103333Y-30202142D01*
X127055714Y-30106904D01*
X127008095Y-29916428D01*
X127008095Y-29678333D01*
X127055714Y-29487857D01*
X127103333Y-29392619D01*
X127150952Y-29345000D01*
X127246190Y-29297380D01*
X127912857Y-29297380D02*
X128531904Y-29297380D01*
X128198571Y-29678333D01*
X128341428Y-29678333D01*
X128436666Y-29725952D01*
X128484285Y-29773571D01*
X128531904Y-29868809D01*
X128531904Y-30106904D01*
X128484285Y-30202142D01*
X128436666Y-30249761D01*
X128341428Y-30297380D01*
X128055714Y-30297380D01*
X127960476Y-30249761D01*
X127912857Y-30202142D01*
X128960476Y-30297380D02*
X128960476Y-29297380D01*
X129531904Y-30297380D02*
X129103333Y-29725952D01*
X129531904Y-29297380D02*
X128960476Y-29868809D01*
X129912857Y-30011666D02*
X130389047Y-30011666D01*
X129817619Y-30297380D02*
X130150952Y-29297380D01*
X130484285Y-30297380D01*
X131293809Y-29297380D02*
X130817619Y-29297380D01*
X130770000Y-29773571D01*
X130817619Y-29725952D01*
X130912857Y-29678333D01*
X131150952Y-29678333D01*
X131246190Y-29725952D01*
X131293809Y-29773571D01*
X131341428Y-29868809D01*
X131341428Y-30106904D01*
X131293809Y-30202142D01*
X131246190Y-30249761D01*
X131150952Y-30297380D01*
X130912857Y-30297380D01*
X130817619Y-30249761D01*
X130770000Y-30202142D01*
X132293809Y-30297380D02*
X131722380Y-30297380D01*
X132008095Y-30297380D02*
X132008095Y-29297380D01*
X131912857Y-29440238D01*
X131817619Y-29535476D01*
X131722380Y-29583095D01*
X132722380Y-30297380D02*
X132722380Y-29297380D01*
X133103333Y-29297380D01*
X133198571Y-29345000D01*
X133246190Y-29392619D01*
X133293809Y-29487857D01*
X133293809Y-29630714D01*
X133246190Y-29725952D01*
X133198571Y-29773571D01*
X133103333Y-29821190D01*
X132722380Y-29821190D01*
X133722380Y-29773571D02*
X134055714Y-29773571D01*
X134198571Y-30297380D02*
X133722380Y-30297380D01*
X133722380Y-29297380D01*
X134198571Y-29297380D01*
X135198571Y-30202142D02*
X135150952Y-30249761D01*
X135008095Y-30297380D01*
X134912857Y-30297380D01*
X134770000Y-30249761D01*
X134674761Y-30154523D01*
X134627142Y-30059285D01*
X134579523Y-29868809D01*
X134579523Y-29725952D01*
X134627142Y-29535476D01*
X134674761Y-29440238D01*
X134770000Y-29345000D01*
X134912857Y-29297380D01*
X135008095Y-29297380D01*
X135150952Y-29345000D01*
X135198571Y-29392619D01*
X122745500Y-30567380D02*
X122745500Y-30805476D01*
X122507404Y-30710238D02*
X122745500Y-30805476D01*
X122983595Y-30710238D01*
X122602642Y-30995952D02*
X122745500Y-30805476D01*
X122888357Y-30995952D01*
G04 #@! TO.C,C6*
X99528333Y-115292142D02*
X99480714Y-115339761D01*
X99337857Y-115387380D01*
X99242619Y-115387380D01*
X99099761Y-115339761D01*
X99004523Y-115244523D01*
X98956904Y-115149285D01*
X98909285Y-114958809D01*
X98909285Y-114815952D01*
X98956904Y-114625476D01*
X99004523Y-114530238D01*
X99099761Y-114435000D01*
X99242619Y-114387380D01*
X99337857Y-114387380D01*
X99480714Y-114435000D01*
X99528333Y-114482619D01*
X100385476Y-114387380D02*
X100195000Y-114387380D01*
X100099761Y-114435000D01*
X100052142Y-114482619D01*
X99956904Y-114625476D01*
X99909285Y-114815952D01*
X99909285Y-115196904D01*
X99956904Y-115292142D01*
X100004523Y-115339761D01*
X100099761Y-115387380D01*
X100290238Y-115387380D01*
X100385476Y-115339761D01*
X100433095Y-115292142D01*
X100480714Y-115196904D01*
X100480714Y-114958809D01*
X100433095Y-114863571D01*
X100385476Y-114815952D01*
X100290238Y-114768333D01*
X100099761Y-114768333D01*
X100004523Y-114815952D01*
X99956904Y-114863571D01*
X99909285Y-114958809D01*
X98465476Y-112117142D02*
X98417857Y-112164761D01*
X98275000Y-112212380D01*
X98179761Y-112212380D01*
X98036904Y-112164761D01*
X97941666Y-112069523D01*
X97894047Y-111974285D01*
X97846428Y-111783809D01*
X97846428Y-111640952D01*
X97894047Y-111450476D01*
X97941666Y-111355238D01*
X98036904Y-111260000D01*
X98179761Y-111212380D01*
X98275000Y-111212380D01*
X98417857Y-111260000D01*
X98465476Y-111307619D01*
X99370238Y-112212380D02*
X98894047Y-112212380D01*
X98894047Y-111212380D01*
X99894047Y-111212380D02*
X99989285Y-111212380D01*
X100084523Y-111260000D01*
X100132142Y-111307619D01*
X100179761Y-111402857D01*
X100227380Y-111593333D01*
X100227380Y-111831428D01*
X100179761Y-112021904D01*
X100132142Y-112117142D01*
X100084523Y-112164761D01*
X99989285Y-112212380D01*
X99894047Y-112212380D01*
X99798809Y-112164761D01*
X99751190Y-112117142D01*
X99703571Y-112021904D01*
X99655952Y-111831428D01*
X99655952Y-111593333D01*
X99703571Y-111402857D01*
X99751190Y-111307619D01*
X99798809Y-111260000D01*
X99894047Y-111212380D01*
X101132142Y-111212380D02*
X100655952Y-111212380D01*
X100608333Y-111688571D01*
X100655952Y-111640952D01*
X100751190Y-111593333D01*
X100989285Y-111593333D01*
X101084523Y-111640952D01*
X101132142Y-111688571D01*
X101179761Y-111783809D01*
X101179761Y-112021904D01*
X101132142Y-112117142D01*
X101084523Y-112164761D01*
X100989285Y-112212380D01*
X100751190Y-112212380D01*
X100655952Y-112164761D01*
X100608333Y-112117142D01*
X101941666Y-111688571D02*
X102084523Y-111736190D01*
X102132142Y-111783809D01*
X102179761Y-111879047D01*
X102179761Y-112021904D01*
X102132142Y-112117142D01*
X102084523Y-112164761D01*
X101989285Y-112212380D01*
X101608333Y-112212380D01*
X101608333Y-111212380D01*
X101941666Y-111212380D01*
X102036904Y-111260000D01*
X102084523Y-111307619D01*
X102132142Y-111402857D01*
X102132142Y-111498095D01*
X102084523Y-111593333D01*
X102036904Y-111640952D01*
X101941666Y-111688571D01*
X101608333Y-111688571D01*
X103132142Y-112212380D02*
X102560714Y-112212380D01*
X102846428Y-112212380D02*
X102846428Y-111212380D01*
X102751190Y-111355238D01*
X102655952Y-111450476D01*
X102560714Y-111498095D01*
X103751190Y-111212380D02*
X103846428Y-111212380D01*
X103941666Y-111260000D01*
X103989285Y-111307619D01*
X104036904Y-111402857D01*
X104084523Y-111593333D01*
X104084523Y-111831428D01*
X104036904Y-112021904D01*
X103989285Y-112117142D01*
X103941666Y-112164761D01*
X103846428Y-112212380D01*
X103751190Y-112212380D01*
X103655952Y-112164761D01*
X103608333Y-112117142D01*
X103560714Y-112021904D01*
X103513095Y-111831428D01*
X103513095Y-111593333D01*
X103560714Y-111402857D01*
X103608333Y-111307619D01*
X103655952Y-111260000D01*
X103751190Y-111212380D01*
X104417857Y-111212380D02*
X105036904Y-111212380D01*
X104703571Y-111593333D01*
X104846428Y-111593333D01*
X104941666Y-111640952D01*
X104989285Y-111688571D01*
X105036904Y-111783809D01*
X105036904Y-112021904D01*
X104989285Y-112117142D01*
X104941666Y-112164761D01*
X104846428Y-112212380D01*
X104560714Y-112212380D01*
X104465476Y-112164761D01*
X104417857Y-112117142D01*
X105465476Y-112212380D02*
X105465476Y-111212380D01*
X106036904Y-112212380D02*
X105608333Y-111640952D01*
X106036904Y-111212380D02*
X105465476Y-111783809D01*
X106417857Y-111926666D02*
X106894047Y-111926666D01*
X106322619Y-112212380D02*
X106655952Y-111212380D01*
X106989285Y-112212380D01*
X107798809Y-111212380D02*
X107322619Y-111212380D01*
X107275000Y-111688571D01*
X107322619Y-111640952D01*
X107417857Y-111593333D01*
X107655952Y-111593333D01*
X107751190Y-111640952D01*
X107798809Y-111688571D01*
X107846428Y-111783809D01*
X107846428Y-112021904D01*
X107798809Y-112117142D01*
X107751190Y-112164761D01*
X107655952Y-112212380D01*
X107417857Y-112212380D01*
X107322619Y-112164761D01*
X107275000Y-112117142D01*
X108798809Y-112212380D02*
X108227380Y-112212380D01*
X108513095Y-112212380D02*
X108513095Y-111212380D01*
X108417857Y-111355238D01*
X108322619Y-111450476D01*
X108227380Y-111498095D01*
X109227380Y-112212380D02*
X109227380Y-111212380D01*
X109608333Y-111212380D01*
X109703571Y-111260000D01*
X109751190Y-111307619D01*
X109798809Y-111402857D01*
X109798809Y-111545714D01*
X109751190Y-111640952D01*
X109703571Y-111688571D01*
X109608333Y-111736190D01*
X109227380Y-111736190D01*
X110227380Y-111688571D02*
X110560714Y-111688571D01*
X110703571Y-112212380D02*
X110227380Y-112212380D01*
X110227380Y-111212380D01*
X110703571Y-111212380D01*
X111703571Y-112117142D02*
X111655952Y-112164761D01*
X111513095Y-112212380D01*
X111417857Y-112212380D01*
X111275000Y-112164761D01*
X111179761Y-112069523D01*
X111132142Y-111974285D01*
X111084523Y-111783809D01*
X111084523Y-111640952D01*
X111132142Y-111450476D01*
X111179761Y-111355238D01*
X111275000Y-111260000D01*
X111417857Y-111212380D01*
X111513095Y-111212380D01*
X111655952Y-111260000D01*
X111703571Y-111307619D01*
X99695000Y-113117380D02*
X99695000Y-113355476D01*
X99456904Y-113260238D02*
X99695000Y-113355476D01*
X99933095Y-113260238D01*
X99552142Y-113545952D02*
X99695000Y-113355476D01*
X99837857Y-113545952D01*
G04 #@! TO.C,C7*
X97432833Y-30202142D02*
X97385214Y-30249761D01*
X97242357Y-30297380D01*
X97147119Y-30297380D01*
X97004261Y-30249761D01*
X96909023Y-30154523D01*
X96861404Y-30059285D01*
X96813785Y-29868809D01*
X96813785Y-29725952D01*
X96861404Y-29535476D01*
X96909023Y-29440238D01*
X97004261Y-29345000D01*
X97147119Y-29297380D01*
X97242357Y-29297380D01*
X97385214Y-29345000D01*
X97432833Y-29392619D01*
X97766166Y-29297380D02*
X98432833Y-29297380D01*
X98004261Y-30297380D01*
X85765476Y-32742142D02*
X85717857Y-32789761D01*
X85575000Y-32837380D01*
X85479761Y-32837380D01*
X85336904Y-32789761D01*
X85241666Y-32694523D01*
X85194047Y-32599285D01*
X85146428Y-32408809D01*
X85146428Y-32265952D01*
X85194047Y-32075476D01*
X85241666Y-31980238D01*
X85336904Y-31885000D01*
X85479761Y-31837380D01*
X85575000Y-31837380D01*
X85717857Y-31885000D01*
X85765476Y-31932619D01*
X86670238Y-32837380D02*
X86194047Y-32837380D01*
X86194047Y-31837380D01*
X87194047Y-31837380D02*
X87289285Y-31837380D01*
X87384523Y-31885000D01*
X87432142Y-31932619D01*
X87479761Y-32027857D01*
X87527380Y-32218333D01*
X87527380Y-32456428D01*
X87479761Y-32646904D01*
X87432142Y-32742142D01*
X87384523Y-32789761D01*
X87289285Y-32837380D01*
X87194047Y-32837380D01*
X87098809Y-32789761D01*
X87051190Y-32742142D01*
X87003571Y-32646904D01*
X86955952Y-32456428D01*
X86955952Y-32218333D01*
X87003571Y-32027857D01*
X87051190Y-31932619D01*
X87098809Y-31885000D01*
X87194047Y-31837380D01*
X88432142Y-31837380D02*
X87955952Y-31837380D01*
X87908333Y-32313571D01*
X87955952Y-32265952D01*
X88051190Y-32218333D01*
X88289285Y-32218333D01*
X88384523Y-32265952D01*
X88432142Y-32313571D01*
X88479761Y-32408809D01*
X88479761Y-32646904D01*
X88432142Y-32742142D01*
X88384523Y-32789761D01*
X88289285Y-32837380D01*
X88051190Y-32837380D01*
X87955952Y-32789761D01*
X87908333Y-32742142D01*
X89241666Y-32313571D02*
X89384523Y-32361190D01*
X89432142Y-32408809D01*
X89479761Y-32504047D01*
X89479761Y-32646904D01*
X89432142Y-32742142D01*
X89384523Y-32789761D01*
X89289285Y-32837380D01*
X88908333Y-32837380D01*
X88908333Y-31837380D01*
X89241666Y-31837380D01*
X89336904Y-31885000D01*
X89384523Y-31932619D01*
X89432142Y-32027857D01*
X89432142Y-32123095D01*
X89384523Y-32218333D01*
X89336904Y-32265952D01*
X89241666Y-32313571D01*
X88908333Y-32313571D01*
X90432142Y-32837380D02*
X89860714Y-32837380D01*
X90146428Y-32837380D02*
X90146428Y-31837380D01*
X90051190Y-31980238D01*
X89955952Y-32075476D01*
X89860714Y-32123095D01*
X91051190Y-31837380D02*
X91146428Y-31837380D01*
X91241666Y-31885000D01*
X91289285Y-31932619D01*
X91336904Y-32027857D01*
X91384523Y-32218333D01*
X91384523Y-32456428D01*
X91336904Y-32646904D01*
X91289285Y-32742142D01*
X91241666Y-32789761D01*
X91146428Y-32837380D01*
X91051190Y-32837380D01*
X90955952Y-32789761D01*
X90908333Y-32742142D01*
X90860714Y-32646904D01*
X90813095Y-32456428D01*
X90813095Y-32218333D01*
X90860714Y-32027857D01*
X90908333Y-31932619D01*
X90955952Y-31885000D01*
X91051190Y-31837380D01*
X91717857Y-31837380D02*
X92336904Y-31837380D01*
X92003571Y-32218333D01*
X92146428Y-32218333D01*
X92241666Y-32265952D01*
X92289285Y-32313571D01*
X92336904Y-32408809D01*
X92336904Y-32646904D01*
X92289285Y-32742142D01*
X92241666Y-32789761D01*
X92146428Y-32837380D01*
X91860714Y-32837380D01*
X91765476Y-32789761D01*
X91717857Y-32742142D01*
X92765476Y-32837380D02*
X92765476Y-31837380D01*
X93336904Y-32837380D02*
X92908333Y-32265952D01*
X93336904Y-31837380D02*
X92765476Y-32408809D01*
X93717857Y-32551666D02*
X94194047Y-32551666D01*
X93622619Y-32837380D02*
X93955952Y-31837380D01*
X94289285Y-32837380D01*
X95098809Y-31837380D02*
X94622619Y-31837380D01*
X94575000Y-32313571D01*
X94622619Y-32265952D01*
X94717857Y-32218333D01*
X94955952Y-32218333D01*
X95051190Y-32265952D01*
X95098809Y-32313571D01*
X95146428Y-32408809D01*
X95146428Y-32646904D01*
X95098809Y-32742142D01*
X95051190Y-32789761D01*
X94955952Y-32837380D01*
X94717857Y-32837380D01*
X94622619Y-32789761D01*
X94575000Y-32742142D01*
X96098809Y-32837380D02*
X95527380Y-32837380D01*
X95813095Y-32837380D02*
X95813095Y-31837380D01*
X95717857Y-31980238D01*
X95622619Y-32075476D01*
X95527380Y-32123095D01*
X96527380Y-32837380D02*
X96527380Y-31837380D01*
X96908333Y-31837380D01*
X97003571Y-31885000D01*
X97051190Y-31932619D01*
X97098809Y-32027857D01*
X97098809Y-32170714D01*
X97051190Y-32265952D01*
X97003571Y-32313571D01*
X96908333Y-32361190D01*
X96527380Y-32361190D01*
X97527380Y-32313571D02*
X97860714Y-32313571D01*
X98003571Y-32837380D02*
X97527380Y-32837380D01*
X97527380Y-31837380D01*
X98003571Y-31837380D01*
X99003571Y-32742142D02*
X98955952Y-32789761D01*
X98813095Y-32837380D01*
X98717857Y-32837380D01*
X98575000Y-32789761D01*
X98479761Y-32694523D01*
X98432142Y-32599285D01*
X98384523Y-32408809D01*
X98384523Y-32265952D01*
X98432142Y-32075476D01*
X98479761Y-31980238D01*
X98575000Y-31885000D01*
X98717857Y-31837380D01*
X98813095Y-31837380D01*
X98955952Y-31885000D01*
X99003571Y-31932619D01*
X97599500Y-30567380D02*
X97599500Y-30805476D01*
X97361404Y-30710238D02*
X97599500Y-30805476D01*
X97837595Y-30710238D01*
X97456642Y-30995952D02*
X97599500Y-30805476D01*
X97742357Y-30995952D01*
G04 #@! TO.C,C8*
X122388333Y-112752142D02*
X122340714Y-112799761D01*
X122197857Y-112847380D01*
X122102619Y-112847380D01*
X121959761Y-112799761D01*
X121864523Y-112704523D01*
X121816904Y-112609285D01*
X121769285Y-112418809D01*
X121769285Y-112275952D01*
X121816904Y-112085476D01*
X121864523Y-111990238D01*
X121959761Y-111895000D01*
X122102619Y-111847380D01*
X122197857Y-111847380D01*
X122340714Y-111895000D01*
X122388333Y-111942619D01*
X122959761Y-112275952D02*
X122864523Y-112228333D01*
X122816904Y-112180714D01*
X122769285Y-112085476D01*
X122769285Y-112037857D01*
X122816904Y-111942619D01*
X122864523Y-111895000D01*
X122959761Y-111847380D01*
X123150238Y-111847380D01*
X123245476Y-111895000D01*
X123293095Y-111942619D01*
X123340714Y-112037857D01*
X123340714Y-112085476D01*
X123293095Y-112180714D01*
X123245476Y-112228333D01*
X123150238Y-112275952D01*
X122959761Y-112275952D01*
X122864523Y-112323571D01*
X122816904Y-112371190D01*
X122769285Y-112466428D01*
X122769285Y-112656904D01*
X122816904Y-112752142D01*
X122864523Y-112799761D01*
X122959761Y-112847380D01*
X123150238Y-112847380D01*
X123245476Y-112799761D01*
X123293095Y-112752142D01*
X123340714Y-112656904D01*
X123340714Y-112466428D01*
X123293095Y-112371190D01*
X123245476Y-112323571D01*
X123150238Y-112275952D01*
X121325476Y-115292142D02*
X121277857Y-115339761D01*
X121135000Y-115387380D01*
X121039761Y-115387380D01*
X120896904Y-115339761D01*
X120801666Y-115244523D01*
X120754047Y-115149285D01*
X120706428Y-114958809D01*
X120706428Y-114815952D01*
X120754047Y-114625476D01*
X120801666Y-114530238D01*
X120896904Y-114435000D01*
X121039761Y-114387380D01*
X121135000Y-114387380D01*
X121277857Y-114435000D01*
X121325476Y-114482619D01*
X122230238Y-115387380D02*
X121754047Y-115387380D01*
X121754047Y-114387380D01*
X122754047Y-114387380D02*
X122849285Y-114387380D01*
X122944523Y-114435000D01*
X122992142Y-114482619D01*
X123039761Y-114577857D01*
X123087380Y-114768333D01*
X123087380Y-115006428D01*
X123039761Y-115196904D01*
X122992142Y-115292142D01*
X122944523Y-115339761D01*
X122849285Y-115387380D01*
X122754047Y-115387380D01*
X122658809Y-115339761D01*
X122611190Y-115292142D01*
X122563571Y-115196904D01*
X122515952Y-115006428D01*
X122515952Y-114768333D01*
X122563571Y-114577857D01*
X122611190Y-114482619D01*
X122658809Y-114435000D01*
X122754047Y-114387380D01*
X123992142Y-114387380D02*
X123515952Y-114387380D01*
X123468333Y-114863571D01*
X123515952Y-114815952D01*
X123611190Y-114768333D01*
X123849285Y-114768333D01*
X123944523Y-114815952D01*
X123992142Y-114863571D01*
X124039761Y-114958809D01*
X124039761Y-115196904D01*
X123992142Y-115292142D01*
X123944523Y-115339761D01*
X123849285Y-115387380D01*
X123611190Y-115387380D01*
X123515952Y-115339761D01*
X123468333Y-115292142D01*
X124801666Y-114863571D02*
X124944523Y-114911190D01*
X124992142Y-114958809D01*
X125039761Y-115054047D01*
X125039761Y-115196904D01*
X124992142Y-115292142D01*
X124944523Y-115339761D01*
X124849285Y-115387380D01*
X124468333Y-115387380D01*
X124468333Y-114387380D01*
X124801666Y-114387380D01*
X124896904Y-114435000D01*
X124944523Y-114482619D01*
X124992142Y-114577857D01*
X124992142Y-114673095D01*
X124944523Y-114768333D01*
X124896904Y-114815952D01*
X124801666Y-114863571D01*
X124468333Y-114863571D01*
X125992142Y-115387380D02*
X125420714Y-115387380D01*
X125706428Y-115387380D02*
X125706428Y-114387380D01*
X125611190Y-114530238D01*
X125515952Y-114625476D01*
X125420714Y-114673095D01*
X126611190Y-114387380D02*
X126706428Y-114387380D01*
X126801666Y-114435000D01*
X126849285Y-114482619D01*
X126896904Y-114577857D01*
X126944523Y-114768333D01*
X126944523Y-115006428D01*
X126896904Y-115196904D01*
X126849285Y-115292142D01*
X126801666Y-115339761D01*
X126706428Y-115387380D01*
X126611190Y-115387380D01*
X126515952Y-115339761D01*
X126468333Y-115292142D01*
X126420714Y-115196904D01*
X126373095Y-115006428D01*
X126373095Y-114768333D01*
X126420714Y-114577857D01*
X126468333Y-114482619D01*
X126515952Y-114435000D01*
X126611190Y-114387380D01*
X127277857Y-114387380D02*
X127896904Y-114387380D01*
X127563571Y-114768333D01*
X127706428Y-114768333D01*
X127801666Y-114815952D01*
X127849285Y-114863571D01*
X127896904Y-114958809D01*
X127896904Y-115196904D01*
X127849285Y-115292142D01*
X127801666Y-115339761D01*
X127706428Y-115387380D01*
X127420714Y-115387380D01*
X127325476Y-115339761D01*
X127277857Y-115292142D01*
X128325476Y-115387380D02*
X128325476Y-114387380D01*
X128896904Y-115387380D02*
X128468333Y-114815952D01*
X128896904Y-114387380D02*
X128325476Y-114958809D01*
X129277857Y-115101666D02*
X129754047Y-115101666D01*
X129182619Y-115387380D02*
X129515952Y-114387380D01*
X129849285Y-115387380D01*
X130658809Y-114387380D02*
X130182619Y-114387380D01*
X130135000Y-114863571D01*
X130182619Y-114815952D01*
X130277857Y-114768333D01*
X130515952Y-114768333D01*
X130611190Y-114815952D01*
X130658809Y-114863571D01*
X130706428Y-114958809D01*
X130706428Y-115196904D01*
X130658809Y-115292142D01*
X130611190Y-115339761D01*
X130515952Y-115387380D01*
X130277857Y-115387380D01*
X130182619Y-115339761D01*
X130135000Y-115292142D01*
X131658809Y-115387380D02*
X131087380Y-115387380D01*
X131373095Y-115387380D02*
X131373095Y-114387380D01*
X131277857Y-114530238D01*
X131182619Y-114625476D01*
X131087380Y-114673095D01*
X132087380Y-115387380D02*
X132087380Y-114387380D01*
X132468333Y-114387380D01*
X132563571Y-114435000D01*
X132611190Y-114482619D01*
X132658809Y-114577857D01*
X132658809Y-114720714D01*
X132611190Y-114815952D01*
X132563571Y-114863571D01*
X132468333Y-114911190D01*
X132087380Y-114911190D01*
X133087380Y-114863571D02*
X133420714Y-114863571D01*
X133563571Y-115387380D02*
X133087380Y-115387380D01*
X133087380Y-114387380D01*
X133563571Y-114387380D01*
X134563571Y-115292142D02*
X134515952Y-115339761D01*
X134373095Y-115387380D01*
X134277857Y-115387380D01*
X134135000Y-115339761D01*
X134039761Y-115244523D01*
X133992142Y-115149285D01*
X133944523Y-114958809D01*
X133944523Y-114815952D01*
X133992142Y-114625476D01*
X134039761Y-114530238D01*
X134135000Y-114435000D01*
X134277857Y-114387380D01*
X134373095Y-114387380D01*
X134515952Y-114435000D01*
X134563571Y-114482619D01*
X122555000Y-113117380D02*
X122555000Y-113355476D01*
X122316904Y-113260238D02*
X122555000Y-113355476D01*
X122793095Y-113260238D01*
X122412142Y-113545952D02*
X122555000Y-113355476D01*
X122697857Y-113545952D01*
G04 #@! TO.C,REF\002A\002A*
X133286666Y-28002380D02*
X132953333Y-27526190D01*
X132715238Y-28002380D02*
X132715238Y-27002380D01*
X133096190Y-27002380D01*
X133191428Y-27050000D01*
X133239047Y-27097619D01*
X133286666Y-27192857D01*
X133286666Y-27335714D01*
X133239047Y-27430952D01*
X133191428Y-27478571D01*
X133096190Y-27526190D01*
X132715238Y-27526190D01*
X133715238Y-27478571D02*
X134048571Y-27478571D01*
X134191428Y-28002380D02*
X133715238Y-28002380D01*
X133715238Y-27002380D01*
X134191428Y-27002380D01*
X134953333Y-27478571D02*
X134620000Y-27478571D01*
X134620000Y-28002380D02*
X134620000Y-27002380D01*
X135096190Y-27002380D01*
X135620000Y-27002380D02*
X135620000Y-27240476D01*
X135381904Y-27145238D02*
X135620000Y-27240476D01*
X135858095Y-27145238D01*
X135477142Y-27430952D02*
X135620000Y-27240476D01*
X135762857Y-27430952D01*
X136381904Y-27002380D02*
X136381904Y-27240476D01*
X136143809Y-27145238D02*
X136381904Y-27240476D01*
X136620000Y-27145238D01*
X136239047Y-27430952D02*
X136381904Y-27240476D01*
X136524761Y-27430952D01*
X87566666Y-28002380D02*
X87233333Y-27526190D01*
X86995238Y-28002380D02*
X86995238Y-27002380D01*
X87376190Y-27002380D01*
X87471428Y-27050000D01*
X87519047Y-27097619D01*
X87566666Y-27192857D01*
X87566666Y-27335714D01*
X87519047Y-27430952D01*
X87471428Y-27478571D01*
X87376190Y-27526190D01*
X86995238Y-27526190D01*
X87995238Y-27478571D02*
X88328571Y-27478571D01*
X88471428Y-28002380D02*
X87995238Y-28002380D01*
X87995238Y-27002380D01*
X88471428Y-27002380D01*
X89233333Y-27478571D02*
X88900000Y-27478571D01*
X88900000Y-28002380D02*
X88900000Y-27002380D01*
X89376190Y-27002380D01*
X89900000Y-27002380D02*
X89900000Y-27240476D01*
X89661904Y-27145238D02*
X89900000Y-27240476D01*
X90138095Y-27145238D01*
X89757142Y-27430952D02*
X89900000Y-27240476D01*
X90042857Y-27430952D01*
X90661904Y-27002380D02*
X90661904Y-27240476D01*
X90423809Y-27145238D02*
X90661904Y-27240476D01*
X90900000Y-27145238D01*
X90519047Y-27430952D02*
X90661904Y-27240476D01*
X90804761Y-27430952D01*
X86296666Y-102932380D02*
X85963333Y-102456190D01*
X85725238Y-102932380D02*
X85725238Y-101932380D01*
X86106190Y-101932380D01*
X86201428Y-101980000D01*
X86249047Y-102027619D01*
X86296666Y-102122857D01*
X86296666Y-102265714D01*
X86249047Y-102360952D01*
X86201428Y-102408571D01*
X86106190Y-102456190D01*
X85725238Y-102456190D01*
X86725238Y-102408571D02*
X87058571Y-102408571D01*
X87201428Y-102932380D02*
X86725238Y-102932380D01*
X86725238Y-101932380D01*
X87201428Y-101932380D01*
X87963333Y-102408571D02*
X87630000Y-102408571D01*
X87630000Y-102932380D02*
X87630000Y-101932380D01*
X88106190Y-101932380D01*
X88630000Y-101932380D02*
X88630000Y-102170476D01*
X88391904Y-102075238D02*
X88630000Y-102170476D01*
X88868095Y-102075238D01*
X88487142Y-102360952D02*
X88630000Y-102170476D01*
X88772857Y-102360952D01*
X89391904Y-101932380D02*
X89391904Y-102170476D01*
X89153809Y-102075238D02*
X89391904Y-102170476D01*
X89630000Y-102075238D01*
X89249047Y-102360952D02*
X89391904Y-102170476D01*
X89534761Y-102360952D01*
X132016666Y-102932380D02*
X131683333Y-102456190D01*
X131445238Y-102932380D02*
X131445238Y-101932380D01*
X131826190Y-101932380D01*
X131921428Y-101980000D01*
X131969047Y-102027619D01*
X132016666Y-102122857D01*
X132016666Y-102265714D01*
X131969047Y-102360952D01*
X131921428Y-102408571D01*
X131826190Y-102456190D01*
X131445238Y-102456190D01*
X132445238Y-102408571D02*
X132778571Y-102408571D01*
X132921428Y-102932380D02*
X132445238Y-102932380D01*
X132445238Y-101932380D01*
X132921428Y-101932380D01*
X133683333Y-102408571D02*
X133350000Y-102408571D01*
X133350000Y-102932380D02*
X133350000Y-101932380D01*
X133826190Y-101932380D01*
X134350000Y-101932380D02*
X134350000Y-102170476D01*
X134111904Y-102075238D02*
X134350000Y-102170476D01*
X134588095Y-102075238D01*
X134207142Y-102360952D02*
X134350000Y-102170476D01*
X134492857Y-102360952D01*
X135111904Y-101932380D02*
X135111904Y-102170476D01*
X134873809Y-102075238D02*
X135111904Y-102170476D01*
X135350000Y-102075238D01*
X134969047Y-102360952D02*
X135111904Y-102170476D01*
X135254761Y-102360952D01*
G04 #@! TD*
M02*
