G04 #@! TF.GenerationSoftware,KiCad,Pcbnew,5.0.2-bee76a0~70~ubuntu16.04.1*
G04 #@! TF.CreationDate,2019-02-15T17:44:48-05:00*
G04 #@! TF.ProjectId,HuskyA100_Nucleo_Shield,4875736b-7941-4313-9030-5f4e75636c65,rev?*
G04 #@! TF.SameCoordinates,Original*
G04 #@! TF.FileFunction,Legend,Top*
G04 #@! TF.FilePolarity,Positive*
%FSLAX46Y46*%
G04 Gerber Fmt 4.6, Leading zero omitted, Abs format (unit mm)*
G04 Created by KiCad (PCBNEW 5.0.2-bee76a0~70~ubuntu16.04.1) date Fri 15 Feb 2019 05:44:48 PM EST*
%MOMM*%
%LPD*%
G01*
G04 APERTURE LIST*
%ADD10C,0.100000*%
%ADD11C,0.150000*%
%ADD12C,0.300000*%
%ADD13C,0.400000*%
%ADD14C,0.120000*%
G04 APERTURE END LIST*
D10*
D11*
X159400000Y-171900000D02*
X159400000Y-203900000D01*
X267400000Y-203900000D01*
X267400000Y-171900000D01*
X159400000Y-171900000D01*
D10*
D11*
X10000000Y-10000000D02*
X10000000Y-205900000D01*
X269400000Y-205900000D01*
X269400000Y-10000000D01*
X10000000Y-10000000D01*
D10*
D11*
X12000000Y-12000000D02*
X12000000Y-203900000D01*
X267400000Y-203900000D01*
X267400000Y-12000000D01*
X12000000Y-12000000D01*
D10*
D11*
X60000000Y-12000000D02*
X60000000Y-10000000D01*
D10*
D11*
X110000000Y-12000000D02*
X110000000Y-10000000D01*
D10*
D11*
X160000000Y-12000000D02*
X160000000Y-10000000D01*
D10*
D11*
X210000000Y-12000000D02*
X210000000Y-10000000D01*
D10*
D11*
X260000000Y-12000000D02*
X260000000Y-10000000D01*
D10*
D11*
X36065476Y-11588095D02*
X35322619Y-11588095D01*
X35694047Y-11588095D02*
X35694047Y-10288095D01*
X35570238Y-10473809D01*
X35446428Y-10597619D01*
X35322619Y-10659523D01*
D10*
D11*
X85322619Y-10411904D02*
X85384523Y-10350000D01*
X85508333Y-10288095D01*
X85817857Y-10288095D01*
X85941666Y-10350000D01*
X86003571Y-10411904D01*
X86065476Y-10535714D01*
X86065476Y-10659523D01*
X86003571Y-10845238D01*
X85260714Y-11588095D01*
X86065476Y-11588095D01*
D10*
D11*
X135260714Y-10288095D02*
X136065476Y-10288095D01*
X135632142Y-10783333D01*
X135817857Y-10783333D01*
X135941666Y-10845238D01*
X136003571Y-10907142D01*
X136065476Y-11030952D01*
X136065476Y-11340476D01*
X136003571Y-11464285D01*
X135941666Y-11526190D01*
X135817857Y-11588095D01*
X135446428Y-11588095D01*
X135322619Y-11526190D01*
X135260714Y-11464285D01*
D10*
D11*
X185941666Y-10721428D02*
X185941666Y-11588095D01*
X185632142Y-10226190D02*
X185322619Y-11154761D01*
X186127380Y-11154761D01*
D10*
D11*
X236003571Y-10288095D02*
X235384523Y-10288095D01*
X235322619Y-10907142D01*
X235384523Y-10845238D01*
X235508333Y-10783333D01*
X235817857Y-10783333D01*
X235941666Y-10845238D01*
X236003571Y-10907142D01*
X236065476Y-11030952D01*
X236065476Y-11340476D01*
X236003571Y-11464285D01*
X235941666Y-11526190D01*
X235817857Y-11588095D01*
X235508333Y-11588095D01*
X235384523Y-11526190D01*
X235322619Y-11464285D01*
D10*
D11*
X60000000Y-203900000D02*
X60000000Y-205900000D01*
D10*
D11*
X110000000Y-203900000D02*
X110000000Y-205900000D01*
D10*
D11*
X160000000Y-203900000D02*
X160000000Y-205900000D01*
D10*
D11*
X210000000Y-203900000D02*
X210000000Y-205900000D01*
D10*
D11*
X260000000Y-203900000D02*
X260000000Y-205900000D01*
D10*
D11*
X36065476Y-205488095D02*
X35322619Y-205488095D01*
X35694047Y-205488095D02*
X35694047Y-204188095D01*
X35570238Y-204373809D01*
X35446428Y-204497619D01*
X35322619Y-204559523D01*
D10*
D11*
X85322619Y-204311904D02*
X85384523Y-204250000D01*
X85508333Y-204188095D01*
X85817857Y-204188095D01*
X85941666Y-204250000D01*
X86003571Y-204311904D01*
X86065476Y-204435714D01*
X86065476Y-204559523D01*
X86003571Y-204745238D01*
X85260714Y-205488095D01*
X86065476Y-205488095D01*
D10*
D11*
X135260714Y-204188095D02*
X136065476Y-204188095D01*
X135632142Y-204683333D01*
X135817857Y-204683333D01*
X135941666Y-204745238D01*
X136003571Y-204807142D01*
X136065476Y-204930952D01*
X136065476Y-205240476D01*
X136003571Y-205364285D01*
X135941666Y-205426190D01*
X135817857Y-205488095D01*
X135446428Y-205488095D01*
X135322619Y-205426190D01*
X135260714Y-205364285D01*
D10*
D11*
X185941666Y-204621428D02*
X185941666Y-205488095D01*
X185632142Y-204126190D02*
X185322619Y-205054761D01*
X186127380Y-205054761D01*
D10*
D11*
X236003571Y-204188095D02*
X235384523Y-204188095D01*
X235322619Y-204807142D01*
X235384523Y-204745238D01*
X235508333Y-204683333D01*
X235817857Y-204683333D01*
X235941666Y-204745238D01*
X236003571Y-204807142D01*
X236065476Y-204930952D01*
X236065476Y-205240476D01*
X236003571Y-205364285D01*
X235941666Y-205426190D01*
X235817857Y-205488095D01*
X235508333Y-205488095D01*
X235384523Y-205426190D01*
X235322619Y-205364285D01*
D10*
D11*
X10000000Y-60000000D02*
X12000000Y-60000000D01*
D10*
D11*
X10000000Y-110000000D02*
X12000000Y-110000000D01*
D10*
D11*
X10000000Y-160000000D02*
X12000000Y-160000000D01*
D10*
D11*
X10690476Y-35216666D02*
X11309523Y-35216666D01*
X10566666Y-35588095D02*
X11000000Y-34288095D01*
X11433333Y-35588095D01*
D10*
D11*
X11092857Y-84907142D02*
X11278571Y-84969047D01*
X11340476Y-85030952D01*
X11402380Y-85154761D01*
X11402380Y-85340476D01*
X11340476Y-85464285D01*
X11278571Y-85526190D01*
X11154761Y-85588095D01*
X10659523Y-85588095D01*
X10659523Y-84288095D01*
X11092857Y-84288095D01*
X11216666Y-84350000D01*
X11278571Y-84411904D01*
X11340476Y-84535714D01*
X11340476Y-84659523D01*
X11278571Y-84783333D01*
X11216666Y-84845238D01*
X11092857Y-84907142D01*
X10659523Y-84907142D01*
D10*
D11*
X11402380Y-135464285D02*
X11340476Y-135526190D01*
X11154761Y-135588095D01*
X11030952Y-135588095D01*
X10845238Y-135526190D01*
X10721428Y-135402380D01*
X10659523Y-135278571D01*
X10597619Y-135030952D01*
X10597619Y-134845238D01*
X10659523Y-134597619D01*
X10721428Y-134473809D01*
X10845238Y-134350000D01*
X11030952Y-134288095D01*
X11154761Y-134288095D01*
X11340476Y-134350000D01*
X11402380Y-134411904D01*
D10*
D11*
X10659523Y-185588095D02*
X10659523Y-184288095D01*
X10969047Y-184288095D01*
X11154761Y-184350000D01*
X11278571Y-184473809D01*
X11340476Y-184597619D01*
X11402380Y-184845238D01*
X11402380Y-185030952D01*
X11340476Y-185278571D01*
X11278571Y-185402380D01*
X11154761Y-185526190D01*
X10969047Y-185588095D01*
X10659523Y-185588095D01*
D10*
D11*
X269400000Y-60000000D02*
X267400000Y-60000000D01*
D10*
D11*
X269400000Y-110000000D02*
X267400000Y-110000000D01*
D10*
D11*
X269400000Y-160000000D02*
X267400000Y-160000000D01*
D10*
D11*
X268090476Y-35216666D02*
X268709523Y-35216666D01*
X267966666Y-35588095D02*
X268400000Y-34288095D01*
X268833333Y-35588095D01*
D10*
D11*
X268492857Y-84907142D02*
X268678571Y-84969047D01*
X268740476Y-85030952D01*
X268802380Y-85154761D01*
X268802380Y-85340476D01*
X268740476Y-85464285D01*
X268678571Y-85526190D01*
X268554761Y-85588095D01*
X268059523Y-85588095D01*
X268059523Y-84288095D01*
X268492857Y-84288095D01*
X268616666Y-84350000D01*
X268678571Y-84411904D01*
X268740476Y-84535714D01*
X268740476Y-84659523D01*
X268678571Y-84783333D01*
X268616666Y-84845238D01*
X268492857Y-84907142D01*
X268059523Y-84907142D01*
D10*
D11*
X268802380Y-135464285D02*
X268740476Y-135526190D01*
X268554761Y-135588095D01*
X268430952Y-135588095D01*
X268245238Y-135526190D01*
X268121428Y-135402380D01*
X268059523Y-135278571D01*
X267997619Y-135030952D01*
X267997619Y-134845238D01*
X268059523Y-134597619D01*
X268121428Y-134473809D01*
X268245238Y-134350000D01*
X268430952Y-134288095D01*
X268554761Y-134288095D01*
X268740476Y-134350000D01*
X268802380Y-134411904D01*
D10*
D11*
X268059523Y-185588095D02*
X268059523Y-184288095D01*
X268369047Y-184288095D01*
X268554761Y-184350000D01*
X268678571Y-184473809D01*
X268740476Y-184597619D01*
X268802380Y-184845238D01*
X268802380Y-185030952D01*
X268740476Y-185278571D01*
X268678571Y-185402380D01*
X268554761Y-185526190D01*
X268369047Y-185588095D01*
X268059523Y-185588095D01*
D10*
D11*
X182832142Y-199678571D02*
X182832142Y-198178571D01*
X183189285Y-198178571D01*
X183403571Y-198250000D01*
X183546428Y-198392857D01*
X183617857Y-198535714D01*
X183689285Y-198821428D01*
X183689285Y-199035714D01*
X183617857Y-199321428D01*
X183546428Y-199464285D01*
X183403571Y-199607142D01*
X183189285Y-199678571D01*
X182832142Y-199678571D01*
X184975000Y-199678571D02*
X184975000Y-198892857D01*
X184903571Y-198750000D01*
X184760714Y-198678571D01*
X184475000Y-198678571D01*
X184332142Y-198750000D01*
X184975000Y-199607142D02*
X184832142Y-199678571D01*
X184475000Y-199678571D01*
X184332142Y-199607142D01*
X184260714Y-199464285D01*
X184260714Y-199321428D01*
X184332142Y-199178571D01*
X184475000Y-199107142D01*
X184832142Y-199107142D01*
X184975000Y-199035714D01*
X185475000Y-198678571D02*
X186046428Y-198678571D01*
X185689285Y-198178571D02*
X185689285Y-199464285D01*
X185760714Y-199607142D01*
X185903571Y-199678571D01*
X186046428Y-199678571D01*
X187117857Y-199607142D02*
X186975000Y-199678571D01*
X186689285Y-199678571D01*
X186546428Y-199607142D01*
X186475000Y-199464285D01*
X186475000Y-198892857D01*
X186546428Y-198750000D01*
X186689285Y-198678571D01*
X186975000Y-198678571D01*
X187117857Y-198750000D01*
X187189285Y-198892857D01*
X187189285Y-199035714D01*
X186475000Y-199178571D01*
X187832142Y-199535714D02*
X187903571Y-199607142D01*
X187832142Y-199678571D01*
X187760714Y-199607142D01*
X187832142Y-199535714D01*
X187832142Y-199678571D01*
X187832142Y-198750000D02*
X187903571Y-198821428D01*
X187832142Y-198892857D01*
X187760714Y-198821428D01*
X187832142Y-198750000D01*
X187832142Y-198892857D01*
D10*
D11*
X159400000Y-200400000D02*
X267400000Y-200400000D01*
D10*
D11*
X160832142Y-202478571D02*
X160832142Y-200978571D01*
X161689285Y-202478571D02*
X161046428Y-201621428D01*
X161689285Y-200978571D02*
X160832142Y-201835714D01*
X162332142Y-202478571D02*
X162332142Y-201478571D01*
X162332142Y-200978571D02*
X162260714Y-201050000D01*
X162332142Y-201121428D01*
X162403571Y-201050000D01*
X162332142Y-200978571D01*
X162332142Y-201121428D01*
X163903571Y-202335714D02*
X163832142Y-202407142D01*
X163617857Y-202478571D01*
X163475000Y-202478571D01*
X163260714Y-202407142D01*
X163117857Y-202264285D01*
X163046428Y-202121428D01*
X162975000Y-201835714D01*
X162975000Y-201621428D01*
X163046428Y-201335714D01*
X163117857Y-201192857D01*
X163260714Y-201050000D01*
X163475000Y-200978571D01*
X163617857Y-200978571D01*
X163832142Y-201050000D01*
X163903571Y-201121428D01*
X165189285Y-202478571D02*
X165189285Y-201692857D01*
X165117857Y-201550000D01*
X164975000Y-201478571D01*
X164689285Y-201478571D01*
X164546428Y-201550000D01*
X165189285Y-202407142D02*
X165046428Y-202478571D01*
X164689285Y-202478571D01*
X164546428Y-202407142D01*
X164475000Y-202264285D01*
X164475000Y-202121428D01*
X164546428Y-201978571D01*
X164689285Y-201907142D01*
X165046428Y-201907142D01*
X165189285Y-201835714D01*
X166546428Y-202478571D02*
X166546428Y-200978571D01*
X166546428Y-202407142D02*
X166403571Y-202478571D01*
X166117857Y-202478571D01*
X165975000Y-202407142D01*
X165903571Y-202335714D01*
X165832142Y-202192857D01*
X165832142Y-201764285D01*
X165903571Y-201621428D01*
X165975000Y-201550000D01*
X166117857Y-201478571D01*
X166403571Y-201478571D01*
X166546428Y-201550000D01*
X168403571Y-201692857D02*
X168903571Y-201692857D01*
X169117857Y-202478571D02*
X168403571Y-202478571D01*
X168403571Y-200978571D01*
X169117857Y-200978571D01*
X169760714Y-202335714D02*
X169832142Y-202407142D01*
X169760714Y-202478571D01*
X169689285Y-202407142D01*
X169760714Y-202335714D01*
X169760714Y-202478571D01*
X170475000Y-202478571D02*
X170475000Y-200978571D01*
X170832142Y-200978571D01*
X171046428Y-201050000D01*
X171189285Y-201192857D01*
X171260714Y-201335714D01*
X171332142Y-201621428D01*
X171332142Y-201835714D01*
X171260714Y-202121428D01*
X171189285Y-202264285D01*
X171046428Y-202407142D01*
X170832142Y-202478571D01*
X170475000Y-202478571D01*
X171975000Y-202335714D02*
X172046428Y-202407142D01*
X171975000Y-202478571D01*
X171903571Y-202407142D01*
X171975000Y-202335714D01*
X171975000Y-202478571D01*
X172617857Y-202050000D02*
X173332142Y-202050000D01*
X172475000Y-202478571D02*
X172975000Y-200978571D01*
X173475000Y-202478571D01*
X173975000Y-202335714D02*
X174046428Y-202407142D01*
X173975000Y-202478571D01*
X173903571Y-202407142D01*
X173975000Y-202335714D01*
X173975000Y-202478571D01*
X176975000Y-202478571D02*
X176975000Y-200978571D01*
X177117857Y-201907142D02*
X177546428Y-202478571D01*
X177546428Y-201478571D02*
X176975000Y-202050000D01*
X178189285Y-202478571D02*
X178189285Y-201478571D01*
X178189285Y-200978571D02*
X178117857Y-201050000D01*
X178189285Y-201121428D01*
X178260714Y-201050000D01*
X178189285Y-200978571D01*
X178189285Y-201121428D01*
X179546428Y-202407142D02*
X179403571Y-202478571D01*
X179117857Y-202478571D01*
X178975000Y-202407142D01*
X178903571Y-202335714D01*
X178832142Y-202192857D01*
X178832142Y-201764285D01*
X178903571Y-201621428D01*
X178975000Y-201550000D01*
X179117857Y-201478571D01*
X179403571Y-201478571D01*
X179546428Y-201550000D01*
X180832142Y-202478571D02*
X180832142Y-201692857D01*
X180760714Y-201550000D01*
X180617857Y-201478571D01*
X180332142Y-201478571D01*
X180189285Y-201550000D01*
X180832142Y-202407142D02*
X180689285Y-202478571D01*
X180332142Y-202478571D01*
X180189285Y-202407142D01*
X180117857Y-202264285D01*
X180117857Y-202121428D01*
X180189285Y-201978571D01*
X180332142Y-201907142D01*
X180689285Y-201907142D01*
X180832142Y-201835714D01*
X182189285Y-202478571D02*
X182189285Y-200978571D01*
X182189285Y-202407142D02*
X182046428Y-202478571D01*
X181760714Y-202478571D01*
X181617857Y-202407142D01*
X181546428Y-202335714D01*
X181475000Y-202192857D01*
X181475000Y-201764285D01*
X181546428Y-201621428D01*
X181617857Y-201550000D01*
X181760714Y-201478571D01*
X182046428Y-201478571D01*
X182189285Y-201550000D01*
X184760714Y-200978571D02*
X184046428Y-200978571D01*
X183975000Y-201692857D01*
X184046428Y-201621428D01*
X184189285Y-201550000D01*
X184546428Y-201550000D01*
X184689285Y-201621428D01*
X184760714Y-201692857D01*
X184832142Y-201835714D01*
X184832142Y-202192857D01*
X184760714Y-202335714D01*
X184689285Y-202407142D01*
X184546428Y-202478571D01*
X184189285Y-202478571D01*
X184046428Y-202407142D01*
X183975000Y-202335714D01*
X185475000Y-202335714D02*
X185546428Y-202407142D01*
X185475000Y-202478571D01*
X185403571Y-202407142D01*
X185475000Y-202335714D01*
X185475000Y-202478571D01*
X186475000Y-200978571D02*
X186617857Y-200978571D01*
X186760714Y-201050000D01*
X186832142Y-201121428D01*
X186903571Y-201264285D01*
X186975000Y-201550000D01*
X186975000Y-201907142D01*
X186903571Y-202192857D01*
X186832142Y-202335714D01*
X186760714Y-202407142D01*
X186617857Y-202478571D01*
X186475000Y-202478571D01*
X186332142Y-202407142D01*
X186260714Y-202335714D01*
X186189285Y-202192857D01*
X186117857Y-201907142D01*
X186117857Y-201550000D01*
X186189285Y-201264285D01*
X186260714Y-201121428D01*
X186332142Y-201050000D01*
X186475000Y-200978571D01*
X187617857Y-202335714D02*
X187689285Y-202407142D01*
X187617857Y-202478571D01*
X187546428Y-202407142D01*
X187617857Y-202335714D01*
X187617857Y-202478571D01*
X188260714Y-201121428D02*
X188332142Y-201050000D01*
X188475000Y-200978571D01*
X188832142Y-200978571D01*
X188975000Y-201050000D01*
X189046428Y-201121428D01*
X189117857Y-201264285D01*
X189117857Y-201407142D01*
X189046428Y-201621428D01*
X188189285Y-202478571D01*
X189117857Y-202478571D01*
X189760714Y-201907142D02*
X190903571Y-201907142D01*
X191617857Y-202478571D02*
X191617857Y-200978571D01*
X191617857Y-201550000D02*
X191760714Y-201478571D01*
X192046428Y-201478571D01*
X192189285Y-201550000D01*
X192260714Y-201621428D01*
X192332142Y-201764285D01*
X192332142Y-202192857D01*
X192260714Y-202335714D01*
X192189285Y-202407142D01*
X192046428Y-202478571D01*
X191760714Y-202478571D01*
X191617857Y-202407142D01*
X193546428Y-202407142D02*
X193403571Y-202478571D01*
X193117857Y-202478571D01*
X192975000Y-202407142D01*
X192903571Y-202264285D01*
X192903571Y-201692857D01*
X192975000Y-201550000D01*
X193117857Y-201478571D01*
X193403571Y-201478571D01*
X193546428Y-201550000D01*
X193617857Y-201692857D01*
X193617857Y-201835714D01*
X192903571Y-201978571D01*
X194832142Y-202407142D02*
X194689285Y-202478571D01*
X194403571Y-202478571D01*
X194260714Y-202407142D01*
X194189285Y-202264285D01*
X194189285Y-201692857D01*
X194260714Y-201550000D01*
X194403571Y-201478571D01*
X194689285Y-201478571D01*
X194832142Y-201550000D01*
X194903571Y-201692857D01*
X194903571Y-201835714D01*
X194189285Y-201978571D01*
X195403571Y-200978571D02*
X196403571Y-200978571D01*
X195760714Y-202478571D01*
X197617857Y-200978571D02*
X197332142Y-200978571D01*
X197189285Y-201050000D01*
X197117857Y-201121428D01*
X196975000Y-201335714D01*
X196903571Y-201621428D01*
X196903571Y-202192857D01*
X196975000Y-202335714D01*
X197046428Y-202407142D01*
X197189285Y-202478571D01*
X197475000Y-202478571D01*
X197617857Y-202407142D01*
X197689285Y-202335714D01*
X197760714Y-202192857D01*
X197760714Y-201835714D01*
X197689285Y-201692857D01*
X197617857Y-201621428D01*
X197475000Y-201550000D01*
X197189285Y-201550000D01*
X197046428Y-201621428D01*
X196975000Y-201692857D01*
X196903571Y-201835714D01*
X199046428Y-202478571D02*
X199046428Y-201692857D01*
X198975000Y-201550000D01*
X198832142Y-201478571D01*
X198546428Y-201478571D01*
X198403571Y-201550000D01*
X199046428Y-202407142D02*
X198903571Y-202478571D01*
X198546428Y-202478571D01*
X198403571Y-202407142D01*
X198332142Y-202264285D01*
X198332142Y-202121428D01*
X198403571Y-201978571D01*
X198546428Y-201907142D01*
X198903571Y-201907142D01*
X199046428Y-201835714D01*
X200046428Y-200978571D02*
X200189285Y-200978571D01*
X200332142Y-201050000D01*
X200403571Y-201121428D01*
X200475000Y-201264285D01*
X200546428Y-201550000D01*
X200546428Y-201907142D01*
X200475000Y-202192857D01*
X200403571Y-202335714D01*
X200332142Y-202407142D01*
X200189285Y-202478571D01*
X200046428Y-202478571D01*
X199903571Y-202407142D01*
X199832142Y-202335714D01*
X199760714Y-202192857D01*
X199689285Y-201907142D01*
X199689285Y-201550000D01*
X199760714Y-201264285D01*
X199832142Y-201121428D01*
X199903571Y-201050000D01*
X200046428Y-200978571D01*
X200832142Y-200570000D02*
X202260714Y-200570000D01*
X201046428Y-200978571D02*
X202046428Y-200978571D01*
X201403571Y-202478571D01*
X202260714Y-200570000D02*
X203689285Y-200570000D01*
X202903571Y-200978571D02*
X203046428Y-200978571D01*
X203189285Y-201050000D01*
X203260714Y-201121428D01*
X203332142Y-201264285D01*
X203403571Y-201550000D01*
X203403571Y-201907142D01*
X203332142Y-202192857D01*
X203260714Y-202335714D01*
X203189285Y-202407142D01*
X203046428Y-202478571D01*
X202903571Y-202478571D01*
X202760714Y-202407142D01*
X202689285Y-202335714D01*
X202617857Y-202192857D01*
X202546428Y-201907142D01*
X202546428Y-201550000D01*
X202617857Y-201264285D01*
X202689285Y-201121428D01*
X202760714Y-201050000D01*
X202903571Y-200978571D01*
X204689285Y-201478571D02*
X204689285Y-202478571D01*
X204046428Y-201478571D02*
X204046428Y-202264285D01*
X204117857Y-202407142D01*
X204260714Y-202478571D01*
X204475000Y-202478571D01*
X204617857Y-202407142D01*
X204689285Y-202335714D01*
X205403571Y-202478571D02*
X205403571Y-200978571D01*
X205403571Y-201550000D02*
X205546428Y-201478571D01*
X205832142Y-201478571D01*
X205975000Y-201550000D01*
X206046428Y-201621428D01*
X206117857Y-201764285D01*
X206117857Y-202192857D01*
X206046428Y-202335714D01*
X205975000Y-202407142D01*
X205832142Y-202478571D01*
X205546428Y-202478571D01*
X205403571Y-202407142D01*
X207403571Y-201478571D02*
X207403571Y-202478571D01*
X206760714Y-201478571D02*
X206760714Y-202264285D01*
X206832142Y-202407142D01*
X206975000Y-202478571D01*
X207189285Y-202478571D01*
X207332142Y-202407142D01*
X207403571Y-202335714D01*
X208117857Y-201478571D02*
X208117857Y-202478571D01*
X208117857Y-201621428D02*
X208189285Y-201550000D01*
X208332142Y-201478571D01*
X208546428Y-201478571D01*
X208689285Y-201550000D01*
X208760714Y-201692857D01*
X208760714Y-202478571D01*
X209260714Y-201478571D02*
X209832142Y-201478571D01*
X209475000Y-200978571D02*
X209475000Y-202264285D01*
X209546428Y-202407142D01*
X209689285Y-202478571D01*
X209832142Y-202478571D01*
X210975000Y-201478571D02*
X210975000Y-202478571D01*
X210332142Y-201478571D02*
X210332142Y-202264285D01*
X210403571Y-202407142D01*
X210546428Y-202478571D01*
X210760714Y-202478571D01*
X210903571Y-202407142D01*
X210975000Y-202335714D01*
X212475000Y-202478571D02*
X211617857Y-202478571D01*
X212046428Y-202478571D02*
X212046428Y-200978571D01*
X211903571Y-201192857D01*
X211760714Y-201335714D01*
X211617857Y-201407142D01*
X213760714Y-200978571D02*
X213475000Y-200978571D01*
X213332142Y-201050000D01*
X213260714Y-201121428D01*
X213117857Y-201335714D01*
X213046428Y-201621428D01*
X213046428Y-202192857D01*
X213117857Y-202335714D01*
X213189285Y-202407142D01*
X213332142Y-202478571D01*
X213617857Y-202478571D01*
X213760714Y-202407142D01*
X213832142Y-202335714D01*
X213903571Y-202192857D01*
X213903571Y-201835714D01*
X213832142Y-201692857D01*
X213760714Y-201621428D01*
X213617857Y-201550000D01*
X213332142Y-201550000D01*
X213189285Y-201621428D01*
X213117857Y-201692857D01*
X213046428Y-201835714D01*
X214546428Y-202335714D02*
X214617857Y-202407142D01*
X214546428Y-202478571D01*
X214475000Y-202407142D01*
X214546428Y-202335714D01*
X214546428Y-202478571D01*
X215546428Y-200978571D02*
X215689285Y-200978571D01*
X215832142Y-201050000D01*
X215903571Y-201121428D01*
X215975000Y-201264285D01*
X216046428Y-201550000D01*
X216046428Y-201907142D01*
X215975000Y-202192857D01*
X215903571Y-202335714D01*
X215832142Y-202407142D01*
X215689285Y-202478571D01*
X215546428Y-202478571D01*
X215403571Y-202407142D01*
X215332142Y-202335714D01*
X215260714Y-202192857D01*
X215189285Y-201907142D01*
X215189285Y-201550000D01*
X215260714Y-201264285D01*
X215332142Y-201121428D01*
X215403571Y-201050000D01*
X215546428Y-200978571D01*
X217332142Y-201478571D02*
X217332142Y-202478571D01*
X216975000Y-200907142D02*
X216617857Y-201978571D01*
X217546428Y-201978571D01*
X218117857Y-202335714D02*
X218189285Y-202407142D01*
X218117857Y-202478571D01*
X218046428Y-202407142D01*
X218117857Y-202335714D01*
X218117857Y-202478571D01*
X219617857Y-202478571D02*
X218760714Y-202478571D01*
X219189285Y-202478571D02*
X219189285Y-200978571D01*
X219046428Y-201192857D01*
X218903571Y-201335714D01*
X218760714Y-201407142D01*
D10*
D11*
X159400000Y-197400000D02*
X267400000Y-197400000D01*
D10*
D12*
X246809285Y-199678571D02*
X246309285Y-198964285D01*
X245952142Y-199678571D02*
X245952142Y-198178571D01*
X246523571Y-198178571D01*
X246666428Y-198250000D01*
X246737857Y-198321428D01*
X246809285Y-198464285D01*
X246809285Y-198678571D01*
X246737857Y-198821428D01*
X246666428Y-198892857D01*
X246523571Y-198964285D01*
X245952142Y-198964285D01*
X248023571Y-199607142D02*
X247880714Y-199678571D01*
X247595000Y-199678571D01*
X247452142Y-199607142D01*
X247380714Y-199464285D01*
X247380714Y-198892857D01*
X247452142Y-198750000D01*
X247595000Y-198678571D01*
X247880714Y-198678571D01*
X248023571Y-198750000D01*
X248095000Y-198892857D01*
X248095000Y-199035714D01*
X247380714Y-199178571D01*
X248595000Y-198678571D02*
X248952142Y-199678571D01*
X249309285Y-198678571D01*
X249880714Y-199535714D02*
X249952142Y-199607142D01*
X249880714Y-199678571D01*
X249809285Y-199607142D01*
X249880714Y-199535714D01*
X249880714Y-199678571D01*
X249880714Y-198750000D02*
X249952142Y-198821428D01*
X249880714Y-198892857D01*
X249809285Y-198821428D01*
X249880714Y-198750000D01*
X249880714Y-198892857D01*
D10*
D11*
X160760714Y-199607142D02*
X160975000Y-199678571D01*
X161332142Y-199678571D01*
X161475000Y-199607142D01*
X161546428Y-199535714D01*
X161617857Y-199392857D01*
X161617857Y-199250000D01*
X161546428Y-199107142D01*
X161475000Y-199035714D01*
X161332142Y-198964285D01*
X161046428Y-198892857D01*
X160903571Y-198821428D01*
X160832142Y-198750000D01*
X160760714Y-198607142D01*
X160760714Y-198464285D01*
X160832142Y-198321428D01*
X160903571Y-198250000D01*
X161046428Y-198178571D01*
X161403571Y-198178571D01*
X161617857Y-198250000D01*
X162260714Y-199678571D02*
X162260714Y-198678571D01*
X162260714Y-198178571D02*
X162189285Y-198250000D01*
X162260714Y-198321428D01*
X162332142Y-198250000D01*
X162260714Y-198178571D01*
X162260714Y-198321428D01*
X162832142Y-198678571D02*
X163617857Y-198678571D01*
X162832142Y-199678571D01*
X163617857Y-199678571D01*
X164760714Y-199607142D02*
X164617857Y-199678571D01*
X164332142Y-199678571D01*
X164189285Y-199607142D01*
X164117857Y-199464285D01*
X164117857Y-198892857D01*
X164189285Y-198750000D01*
X164332142Y-198678571D01*
X164617857Y-198678571D01*
X164760714Y-198750000D01*
X164832142Y-198892857D01*
X164832142Y-199035714D01*
X164117857Y-199178571D01*
X165475000Y-199535714D02*
X165546428Y-199607142D01*
X165475000Y-199678571D01*
X165403571Y-199607142D01*
X165475000Y-199535714D01*
X165475000Y-199678571D01*
X165475000Y-198750000D02*
X165546428Y-198821428D01*
X165475000Y-198892857D01*
X165403571Y-198821428D01*
X165475000Y-198750000D01*
X165475000Y-198892857D01*
X167260714Y-199250000D02*
X167975000Y-199250000D01*
X167117857Y-199678571D02*
X167617857Y-198178571D01*
X168117857Y-199678571D01*
D10*
D11*
X245832142Y-202478571D02*
X245832142Y-200978571D01*
X247189285Y-202478571D02*
X247189285Y-200978571D01*
X247189285Y-202407142D02*
X247046428Y-202478571D01*
X246760714Y-202478571D01*
X246617857Y-202407142D01*
X246546428Y-202335714D01*
X246475000Y-202192857D01*
X246475000Y-201764285D01*
X246546428Y-201621428D01*
X246617857Y-201550000D01*
X246760714Y-201478571D01*
X247046428Y-201478571D01*
X247189285Y-201550000D01*
X247903571Y-202335714D02*
X247975000Y-202407142D01*
X247903571Y-202478571D01*
X247832142Y-202407142D01*
X247903571Y-202335714D01*
X247903571Y-202478571D01*
X247903571Y-201550000D02*
X247975000Y-201621428D01*
X247903571Y-201692857D01*
X247832142Y-201621428D01*
X247903571Y-201550000D01*
X247903571Y-201692857D01*
X250546428Y-202478571D02*
X249689285Y-202478571D01*
X250117857Y-202478571D02*
X250117857Y-200978571D01*
X249975000Y-201192857D01*
X249832142Y-201335714D01*
X249689285Y-201407142D01*
X252260714Y-200907142D02*
X250975000Y-202835714D01*
X253546428Y-202478571D02*
X252689285Y-202478571D01*
X253117857Y-202478571D02*
X253117857Y-200978571D01*
X252975000Y-201192857D01*
X252832142Y-201335714D01*
X252689285Y-201407142D01*
D10*
D11*
X159400000Y-193400000D02*
X267400000Y-193400000D01*
D10*
D13*
X161112380Y-194104761D02*
X162255238Y-194104761D01*
X161433809Y-196104761D02*
X161683809Y-194104761D01*
X162671904Y-196104761D02*
X162838571Y-194771428D01*
X162921904Y-194104761D02*
X162814761Y-194200000D01*
X162898095Y-194295238D01*
X163005238Y-194200000D01*
X162921904Y-194104761D01*
X162898095Y-194295238D01*
X163505238Y-194771428D02*
X164267142Y-194771428D01*
X163874285Y-194104761D02*
X163660000Y-195819047D01*
X163731428Y-196009523D01*
X163910000Y-196104761D01*
X164100476Y-196104761D01*
X165052857Y-196104761D02*
X164874285Y-196009523D01*
X164802857Y-195819047D01*
X165017142Y-194104761D01*
X166588571Y-196009523D02*
X166386190Y-196104761D01*
X166005238Y-196104761D01*
X165826666Y-196009523D01*
X165755238Y-195819047D01*
X165850476Y-195057142D01*
X165969523Y-194866666D01*
X166171904Y-194771428D01*
X166552857Y-194771428D01*
X166731428Y-194866666D01*
X166802857Y-195057142D01*
X166779047Y-195247619D01*
X165802857Y-195438095D01*
X167552857Y-195914285D02*
X167636190Y-196009523D01*
X167529047Y-196104761D01*
X167445714Y-196009523D01*
X167552857Y-195914285D01*
X167529047Y-196104761D01*
X167683809Y-194866666D02*
X167767142Y-194961904D01*
X167660000Y-195057142D01*
X167576666Y-194961904D01*
X167683809Y-194866666D01*
X167660000Y-195057142D01*
D10*
D11*
X161332142Y-191492857D02*
X160832142Y-191492857D01*
X160832142Y-192278571D02*
X160832142Y-190778571D01*
X161546428Y-190778571D01*
X162117857Y-192278571D02*
X162117857Y-191278571D01*
X162117857Y-190778571D02*
X162046428Y-190850000D01*
X162117857Y-190921428D01*
X162189285Y-190850000D01*
X162117857Y-190778571D01*
X162117857Y-190921428D01*
X163046428Y-192278571D02*
X162903571Y-192207142D01*
X162832142Y-192064285D01*
X162832142Y-190778571D01*
X164189285Y-192207142D02*
X164046428Y-192278571D01*
X163760714Y-192278571D01*
X163617857Y-192207142D01*
X163546428Y-192064285D01*
X163546428Y-191492857D01*
X163617857Y-191350000D01*
X163760714Y-191278571D01*
X164046428Y-191278571D01*
X164189285Y-191350000D01*
X164260714Y-191492857D01*
X164260714Y-191635714D01*
X163546428Y-191778571D01*
X164903571Y-192135714D02*
X164975000Y-192207142D01*
X164903571Y-192278571D01*
X164832142Y-192207142D01*
X164903571Y-192135714D01*
X164903571Y-192278571D01*
X164903571Y-191350000D02*
X164975000Y-191421428D01*
X164903571Y-191492857D01*
X164832142Y-191421428D01*
X164903571Y-191350000D01*
X164903571Y-191492857D01*
X166760714Y-192278571D02*
X166760714Y-190778571D01*
X166760714Y-191492857D02*
X167617857Y-191492857D01*
X167617857Y-192278571D02*
X167617857Y-190778571D01*
X168975000Y-191278571D02*
X168975000Y-192278571D01*
X168332142Y-191278571D02*
X168332142Y-192064285D01*
X168403571Y-192207142D01*
X168546428Y-192278571D01*
X168760714Y-192278571D01*
X168903571Y-192207142D01*
X168975000Y-192135714D01*
X169617857Y-192207142D02*
X169760714Y-192278571D01*
X170046428Y-192278571D01*
X170189285Y-192207142D01*
X170260714Y-192064285D01*
X170260714Y-191992857D01*
X170189285Y-191850000D01*
X170046428Y-191778571D01*
X169832142Y-191778571D01*
X169689285Y-191707142D01*
X169617857Y-191564285D01*
X169617857Y-191492857D01*
X169689285Y-191350000D01*
X169832142Y-191278571D01*
X170046428Y-191278571D01*
X170189285Y-191350000D01*
X170903571Y-192278571D02*
X170903571Y-190778571D01*
X171046428Y-191707142D02*
X171475000Y-192278571D01*
X171475000Y-191278571D02*
X170903571Y-191850000D01*
X171975000Y-191278571D02*
X172332142Y-192278571D01*
X172689285Y-191278571D02*
X172332142Y-192278571D01*
X172189285Y-192635714D01*
X172117857Y-192707142D01*
X171975000Y-192778571D01*
X173189285Y-191850000D02*
X173903571Y-191850000D01*
X173046428Y-192278571D02*
X173546428Y-190778571D01*
X174046428Y-192278571D01*
X175332142Y-192278571D02*
X174475000Y-192278571D01*
X174903571Y-192278571D02*
X174903571Y-190778571D01*
X174760714Y-190992857D01*
X174617857Y-191135714D01*
X174475000Y-191207142D01*
X176260714Y-190778571D02*
X176403571Y-190778571D01*
X176546428Y-190850000D01*
X176617857Y-190921428D01*
X176689285Y-191064285D01*
X176760714Y-191350000D01*
X176760714Y-191707142D01*
X176689285Y-191992857D01*
X176617857Y-192135714D01*
X176546428Y-192207142D01*
X176403571Y-192278571D01*
X176260714Y-192278571D01*
X176117857Y-192207142D01*
X176046428Y-192135714D01*
X175975000Y-191992857D01*
X175903571Y-191707142D01*
X175903571Y-191350000D01*
X175975000Y-191064285D01*
X176046428Y-190921428D01*
X176117857Y-190850000D01*
X176260714Y-190778571D01*
X177689285Y-190778571D02*
X177832142Y-190778571D01*
X177975000Y-190850000D01*
X178046428Y-190921428D01*
X178117857Y-191064285D01*
X178189285Y-191350000D01*
X178189285Y-191707142D01*
X178117857Y-191992857D01*
X178046428Y-192135714D01*
X177975000Y-192207142D01*
X177832142Y-192278571D01*
X177689285Y-192278571D01*
X177546428Y-192207142D01*
X177475000Y-192135714D01*
X177403571Y-191992857D01*
X177332142Y-191707142D01*
X177332142Y-191350000D01*
X177403571Y-191064285D01*
X177475000Y-190921428D01*
X177546428Y-190850000D01*
X177689285Y-190778571D01*
X178475000Y-192421428D02*
X179617857Y-192421428D01*
X179975000Y-192278571D02*
X179975000Y-190778571D01*
X180832142Y-192278571D01*
X180832142Y-190778571D01*
X182189285Y-191278571D02*
X182189285Y-192278571D01*
X181546428Y-191278571D02*
X181546428Y-192064285D01*
X181617857Y-192207142D01*
X181760714Y-192278571D01*
X181975000Y-192278571D01*
X182117857Y-192207142D01*
X182189285Y-192135714D01*
X183546428Y-192207142D02*
X183403571Y-192278571D01*
X183117857Y-192278571D01*
X182975000Y-192207142D01*
X182903571Y-192135714D01*
X182832142Y-191992857D01*
X182832142Y-191564285D01*
X182903571Y-191421428D01*
X182975000Y-191350000D01*
X183117857Y-191278571D01*
X183403571Y-191278571D01*
X183546428Y-191350000D01*
X184403571Y-192278571D02*
X184260714Y-192207142D01*
X184189285Y-192064285D01*
X184189285Y-190778571D01*
X185546428Y-192207142D02*
X185403571Y-192278571D01*
X185117857Y-192278571D01*
X184975000Y-192207142D01*
X184903571Y-192064285D01*
X184903571Y-191492857D01*
X184975000Y-191350000D01*
X185117857Y-191278571D01*
X185403571Y-191278571D01*
X185546428Y-191350000D01*
X185617857Y-191492857D01*
X185617857Y-191635714D01*
X184903571Y-191778571D01*
X186475000Y-192278571D02*
X186332142Y-192207142D01*
X186260714Y-192135714D01*
X186189285Y-191992857D01*
X186189285Y-191564285D01*
X186260714Y-191421428D01*
X186332142Y-191350000D01*
X186475000Y-191278571D01*
X186689285Y-191278571D01*
X186832142Y-191350000D01*
X186903571Y-191421428D01*
X186975000Y-191564285D01*
X186975000Y-191992857D01*
X186903571Y-192135714D01*
X186832142Y-192207142D01*
X186689285Y-192278571D01*
X186475000Y-192278571D01*
X187260714Y-192421428D02*
X188403571Y-192421428D01*
X188689285Y-192207142D02*
X188903571Y-192278571D01*
X189260714Y-192278571D01*
X189403571Y-192207142D01*
X189475000Y-192135714D01*
X189546428Y-191992857D01*
X189546428Y-191850000D01*
X189475000Y-191707142D01*
X189403571Y-191635714D01*
X189260714Y-191564285D01*
X188975000Y-191492857D01*
X188832142Y-191421428D01*
X188760714Y-191350000D01*
X188689285Y-191207142D01*
X188689285Y-191064285D01*
X188760714Y-190921428D01*
X188832142Y-190850000D01*
X188975000Y-190778571D01*
X189332142Y-190778571D01*
X189546428Y-190850000D01*
X190189285Y-192278571D02*
X190189285Y-190778571D01*
X190832142Y-192278571D02*
X190832142Y-191492857D01*
X190760714Y-191350000D01*
X190617857Y-191278571D01*
X190403571Y-191278571D01*
X190260714Y-191350000D01*
X190189285Y-191421428D01*
X191546428Y-192278571D02*
X191546428Y-191278571D01*
X191546428Y-190778571D02*
X191475000Y-190850000D01*
X191546428Y-190921428D01*
X191617857Y-190850000D01*
X191546428Y-190778571D01*
X191546428Y-190921428D01*
X192832142Y-192207142D02*
X192689285Y-192278571D01*
X192403571Y-192278571D01*
X192260714Y-192207142D01*
X192189285Y-192064285D01*
X192189285Y-191492857D01*
X192260714Y-191350000D01*
X192403571Y-191278571D01*
X192689285Y-191278571D01*
X192832142Y-191350000D01*
X192903571Y-191492857D01*
X192903571Y-191635714D01*
X192189285Y-191778571D01*
X193760714Y-192278571D02*
X193617857Y-192207142D01*
X193546428Y-192064285D01*
X193546428Y-190778571D01*
X194975000Y-192278571D02*
X194975000Y-190778571D01*
X194975000Y-192207142D02*
X194832142Y-192278571D01*
X194546428Y-192278571D01*
X194403571Y-192207142D01*
X194332142Y-192135714D01*
X194260714Y-191992857D01*
X194260714Y-191564285D01*
X194332142Y-191421428D01*
X194403571Y-191350000D01*
X194546428Y-191278571D01*
X194832142Y-191278571D01*
X194975000Y-191350000D01*
X195689285Y-192135714D02*
X195760714Y-192207142D01*
X195689285Y-192278571D01*
X195617857Y-192207142D01*
X195689285Y-192135714D01*
X195689285Y-192278571D01*
X196403571Y-192278571D02*
X196403571Y-190778571D01*
X196546428Y-191707142D02*
X196975000Y-192278571D01*
X196975000Y-191278571D02*
X196403571Y-191850000D01*
X197617857Y-192278571D02*
X197617857Y-191278571D01*
X197617857Y-190778571D02*
X197546428Y-190850000D01*
X197617857Y-190921428D01*
X197689285Y-190850000D01*
X197617857Y-190778571D01*
X197617857Y-190921428D01*
X198975000Y-192207142D02*
X198832142Y-192278571D01*
X198546428Y-192278571D01*
X198403571Y-192207142D01*
X198332142Y-192135714D01*
X198260714Y-191992857D01*
X198260714Y-191564285D01*
X198332142Y-191421428D01*
X198403571Y-191350000D01*
X198546428Y-191278571D01*
X198832142Y-191278571D01*
X198975000Y-191350000D01*
X200260714Y-192278571D02*
X200260714Y-191492857D01*
X200189285Y-191350000D01*
X200046428Y-191278571D01*
X199760714Y-191278571D01*
X199617857Y-191350000D01*
X200260714Y-192207142D02*
X200117857Y-192278571D01*
X199760714Y-192278571D01*
X199617857Y-192207142D01*
X199546428Y-192064285D01*
X199546428Y-191921428D01*
X199617857Y-191778571D01*
X199760714Y-191707142D01*
X200117857Y-191707142D01*
X200260714Y-191635714D01*
X201617857Y-192278571D02*
X201617857Y-190778571D01*
X201617857Y-192207142D02*
X201475000Y-192278571D01*
X201189285Y-192278571D01*
X201046428Y-192207142D01*
X200975000Y-192135714D01*
X200903571Y-191992857D01*
X200903571Y-191564285D01*
X200975000Y-191421428D01*
X201046428Y-191350000D01*
X201189285Y-191278571D01*
X201475000Y-191278571D01*
X201617857Y-191350000D01*
X201975000Y-192421428D02*
X203117857Y-192421428D01*
X203475000Y-191278571D02*
X203475000Y-192778571D01*
X203475000Y-191350000D02*
X203617857Y-191278571D01*
X203903571Y-191278571D01*
X204046428Y-191350000D01*
X204117857Y-191421428D01*
X204189285Y-191564285D01*
X204189285Y-191992857D01*
X204117857Y-192135714D01*
X204046428Y-192207142D01*
X203903571Y-192278571D01*
X203617857Y-192278571D01*
X203475000Y-192207142D01*
X205475000Y-192207142D02*
X205332142Y-192278571D01*
X205046428Y-192278571D01*
X204903571Y-192207142D01*
X204832142Y-192135714D01*
X204760714Y-191992857D01*
X204760714Y-191564285D01*
X204832142Y-191421428D01*
X204903571Y-191350000D01*
X205046428Y-191278571D01*
X205332142Y-191278571D01*
X205475000Y-191350000D01*
X206117857Y-192278571D02*
X206117857Y-190778571D01*
X206117857Y-191350000D02*
X206260714Y-191278571D01*
X206546428Y-191278571D01*
X206689285Y-191350000D01*
X206760714Y-191421428D01*
X206832142Y-191564285D01*
X206832142Y-191992857D01*
X206760714Y-192135714D01*
X206689285Y-192207142D01*
X206546428Y-192278571D01*
X206260714Y-192278571D01*
X206117857Y-192207142D01*
D10*
D11*
X159400000Y-187400000D02*
X267400000Y-187400000D01*
D10*
D11*
X160760714Y-189507142D02*
X160975000Y-189578571D01*
X161332142Y-189578571D01*
X161475000Y-189507142D01*
X161546428Y-189435714D01*
X161617857Y-189292857D01*
X161617857Y-189150000D01*
X161546428Y-189007142D01*
X161475000Y-188935714D01*
X161332142Y-188864285D01*
X161046428Y-188792857D01*
X160903571Y-188721428D01*
X160832142Y-188650000D01*
X160760714Y-188507142D01*
X160760714Y-188364285D01*
X160832142Y-188221428D01*
X160903571Y-188150000D01*
X161046428Y-188078571D01*
X161403571Y-188078571D01*
X161617857Y-188150000D01*
X162260714Y-189578571D02*
X162260714Y-188078571D01*
X162903571Y-189578571D02*
X162903571Y-188792857D01*
X162832142Y-188650000D01*
X162689285Y-188578571D01*
X162475000Y-188578571D01*
X162332142Y-188650000D01*
X162260714Y-188721428D01*
X164189285Y-189507142D02*
X164046428Y-189578571D01*
X163760714Y-189578571D01*
X163617857Y-189507142D01*
X163546428Y-189364285D01*
X163546428Y-188792857D01*
X163617857Y-188650000D01*
X163760714Y-188578571D01*
X164046428Y-188578571D01*
X164189285Y-188650000D01*
X164260714Y-188792857D01*
X164260714Y-188935714D01*
X163546428Y-189078571D01*
X165475000Y-189507142D02*
X165332142Y-189578571D01*
X165046428Y-189578571D01*
X164903571Y-189507142D01*
X164832142Y-189364285D01*
X164832142Y-188792857D01*
X164903571Y-188650000D01*
X165046428Y-188578571D01*
X165332142Y-188578571D01*
X165475000Y-188650000D01*
X165546428Y-188792857D01*
X165546428Y-188935714D01*
X164832142Y-189078571D01*
X165975000Y-188578571D02*
X166546428Y-188578571D01*
X166189285Y-188078571D02*
X166189285Y-189364285D01*
X166260714Y-189507142D01*
X166403571Y-189578571D01*
X166546428Y-189578571D01*
X167046428Y-189435714D02*
X167117857Y-189507142D01*
X167046428Y-189578571D01*
X166975000Y-189507142D01*
X167046428Y-189435714D01*
X167046428Y-189578571D01*
X167046428Y-188650000D02*
X167117857Y-188721428D01*
X167046428Y-188792857D01*
X166975000Y-188721428D01*
X167046428Y-188650000D01*
X167046428Y-188792857D01*
D10*
D11*
X179400000Y-197400000D02*
X179400000Y-200400000D01*
D10*
D11*
X243400000Y-197400000D02*
X243400000Y-203900000D01*
D12*
X128948571Y-104004642D02*
X127448571Y-103817142D01*
X127448571Y-103460000D01*
X127520000Y-103254642D01*
X127662857Y-103129642D01*
X127805714Y-103076071D01*
X128091428Y-103040357D01*
X128305714Y-103067142D01*
X128591428Y-103174285D01*
X128734285Y-103263571D01*
X128877142Y-103424285D01*
X128948571Y-103647500D01*
X128948571Y-104004642D01*
X128877142Y-101924285D02*
X128948571Y-102076071D01*
X128948571Y-102361785D01*
X128877142Y-102495714D01*
X128734285Y-102549285D01*
X128162857Y-102477857D01*
X128020000Y-102388571D01*
X127948571Y-102236785D01*
X127948571Y-101951071D01*
X128020000Y-101817142D01*
X128162857Y-101763571D01*
X128305714Y-101781428D01*
X128448571Y-102513571D01*
X128877142Y-101281428D02*
X128948571Y-101147500D01*
X128948571Y-100861785D01*
X128877142Y-100710000D01*
X128734285Y-100620714D01*
X128662857Y-100611785D01*
X128520000Y-100665357D01*
X128448571Y-100799285D01*
X128448571Y-101013571D01*
X128377142Y-101147500D01*
X128234285Y-101201071D01*
X128162857Y-101192142D01*
X128020000Y-101102857D01*
X127948571Y-100951071D01*
X127948571Y-100736785D01*
X128020000Y-100602857D01*
X128948571Y-100004642D02*
X127948571Y-99879642D01*
X127448571Y-99817142D02*
X127520000Y-99897500D01*
X127591428Y-99835000D01*
X127520000Y-99754642D01*
X127448571Y-99817142D01*
X127591428Y-99835000D01*
X127948571Y-98522500D02*
X129162857Y-98674285D01*
X129305714Y-98763571D01*
X129377142Y-98843928D01*
X129448571Y-98995714D01*
X129448571Y-99210000D01*
X129377142Y-99343928D01*
X128877142Y-98638571D02*
X128948571Y-98790357D01*
X128948571Y-99076071D01*
X128877142Y-99210000D01*
X128805714Y-99272500D01*
X128662857Y-99326071D01*
X128234285Y-99272500D01*
X128091428Y-99183214D01*
X128020000Y-99102857D01*
X127948571Y-98951071D01*
X127948571Y-98665357D01*
X128020000Y-98531428D01*
X127948571Y-97808214D02*
X128948571Y-97933214D01*
X128091428Y-97826071D02*
X128020000Y-97745714D01*
X127948571Y-97593928D01*
X127948571Y-97379642D01*
X128020000Y-97245714D01*
X128162857Y-97192142D01*
X128948571Y-97290357D01*
X128877142Y-95995714D02*
X128948571Y-96147500D01*
X128948571Y-96433214D01*
X128877142Y-96567142D01*
X128734285Y-96620714D01*
X128162857Y-96549285D01*
X128020000Y-96460000D01*
X127948571Y-96308214D01*
X127948571Y-96022500D01*
X128020000Y-95888571D01*
X128162857Y-95835000D01*
X128305714Y-95852857D01*
X128448571Y-96585000D01*
X128948571Y-94647500D02*
X127448571Y-94460000D01*
X128877142Y-94638571D02*
X128948571Y-94790357D01*
X128948571Y-95076071D01*
X128877142Y-95210000D01*
X128805714Y-95272500D01*
X128662857Y-95326071D01*
X128234285Y-95272500D01*
X128091428Y-95183214D01*
X128020000Y-95102857D01*
X127948571Y-94951071D01*
X127948571Y-94665357D01*
X128020000Y-94531428D01*
X128948571Y-92790357D02*
X127448571Y-92602857D01*
X128020000Y-92674285D02*
X127948571Y-92522500D01*
X127948571Y-92236785D01*
X128020000Y-92102857D01*
X128091428Y-92040357D01*
X128234285Y-91986785D01*
X128662857Y-92040357D01*
X128805714Y-92129642D01*
X128877142Y-92210000D01*
X128948571Y-92361785D01*
X128948571Y-92647500D01*
X128877142Y-92781428D01*
X127948571Y-91451071D02*
X128948571Y-91218928D01*
X127948571Y-90736785D02*
X128948571Y-91218928D01*
X129305714Y-91406428D01*
X129377142Y-91486785D01*
X129448571Y-91638571D01*
X128877142Y-89210000D02*
X128948571Y-89004642D01*
X128948571Y-88647500D01*
X128877142Y-88495714D01*
X128805714Y-88415357D01*
X128662857Y-88326071D01*
X128520000Y-88308214D01*
X128377142Y-88361785D01*
X128305714Y-88424285D01*
X128234285Y-88558214D01*
X128162857Y-88835000D01*
X128091428Y-88968928D01*
X128020000Y-89031428D01*
X127877142Y-89085000D01*
X127734285Y-89067142D01*
X127591428Y-88977857D01*
X127520000Y-88897500D01*
X127448571Y-88745714D01*
X127448571Y-88388571D01*
X127520000Y-88183214D01*
X128877142Y-87138571D02*
X128948571Y-87290357D01*
X128948571Y-87576071D01*
X128877142Y-87710000D01*
X128734285Y-87763571D01*
X128162857Y-87692142D01*
X128020000Y-87602857D01*
X127948571Y-87451071D01*
X127948571Y-87165357D01*
X128020000Y-87031428D01*
X128162857Y-86977857D01*
X128305714Y-86995714D01*
X128448571Y-87727857D01*
X128948571Y-85790357D02*
X128162857Y-85692142D01*
X128020000Y-85745714D01*
X127948571Y-85879642D01*
X127948571Y-86165357D01*
X128020000Y-86317142D01*
X128877142Y-85781428D02*
X128948571Y-85933214D01*
X128948571Y-86290357D01*
X128877142Y-86424285D01*
X128734285Y-86477857D01*
X128591428Y-86460000D01*
X128448571Y-86370714D01*
X128377142Y-86218928D01*
X128377142Y-85861785D01*
X128305714Y-85710000D01*
X127948571Y-84951071D02*
X128948571Y-85076071D01*
X128091428Y-84968928D02*
X128020000Y-84888571D01*
X127948571Y-84736785D01*
X127948571Y-84522500D01*
X128020000Y-84388571D01*
X128162857Y-84335000D01*
X128948571Y-84433214D01*
X127448571Y-82102857D02*
X127448571Y-81817142D01*
X127520000Y-81683214D01*
X127662857Y-81558214D01*
X127948571Y-81522500D01*
X128448571Y-81585000D01*
X128734285Y-81692142D01*
X128877142Y-81852857D01*
X128948571Y-82004642D01*
X128948571Y-82290357D01*
X128877142Y-82424285D01*
X128734285Y-82549285D01*
X128448571Y-82585000D01*
X127948571Y-82522500D01*
X127662857Y-82415357D01*
X127520000Y-82254642D01*
X127448571Y-82102857D01*
X127448571Y-80745714D02*
X127734285Y-80924285D01*
X128948571Y-80290357D02*
X127448571Y-80102857D01*
X128948571Y-79433214D01*
X127448571Y-79245714D01*
X128877142Y-78138571D02*
X128948571Y-78290357D01*
X128948571Y-78576071D01*
X128877142Y-78710000D01*
X128734285Y-78763571D01*
X128162857Y-78692142D01*
X128020000Y-78602857D01*
X127948571Y-78451071D01*
X127948571Y-78165357D01*
X128020000Y-78031428D01*
X128162857Y-77977857D01*
X128305714Y-77995714D01*
X128448571Y-78727857D01*
X128948571Y-77433214D02*
X127948571Y-77308214D01*
X127448571Y-77245714D02*
X127520000Y-77326071D01*
X127591428Y-77263571D01*
X127520000Y-77183214D01*
X127448571Y-77245714D01*
X127591428Y-77263571D01*
X128948571Y-76504642D02*
X128877142Y-76638571D01*
X128734285Y-76692142D01*
X127448571Y-76531428D01*
X124903571Y-103730714D02*
X126403571Y-103373571D01*
X125332142Y-103087857D01*
X126403571Y-102802142D01*
X124903571Y-102445000D01*
X126403571Y-101659285D02*
X126332142Y-101802142D01*
X126260714Y-101873571D01*
X126117857Y-101945000D01*
X125689285Y-101945000D01*
X125546428Y-101873571D01*
X125475000Y-101802142D01*
X125403571Y-101659285D01*
X125403571Y-101445000D01*
X125475000Y-101302142D01*
X125546428Y-101230714D01*
X125689285Y-101159285D01*
X126117857Y-101159285D01*
X126260714Y-101230714D01*
X126332142Y-101302142D01*
X126403571Y-101445000D01*
X126403571Y-101659285D01*
X126403571Y-100302142D02*
X126332142Y-100445000D01*
X126189285Y-100516428D01*
X124903571Y-100516428D01*
X125403571Y-99945000D02*
X125403571Y-99373571D01*
X126403571Y-99730714D02*
X125117857Y-99730714D01*
X124975000Y-99659285D01*
X124903571Y-99516428D01*
X124903571Y-99373571D01*
X125403571Y-98230714D02*
X126617857Y-98230714D01*
X126760714Y-98302142D01*
X126832142Y-98373571D01*
X126903571Y-98516428D01*
X126903571Y-98730714D01*
X126832142Y-98873571D01*
X126332142Y-98230714D02*
X126403571Y-98373571D01*
X126403571Y-98659285D01*
X126332142Y-98802142D01*
X126260714Y-98873571D01*
X126117857Y-98945000D01*
X125689285Y-98945000D01*
X125546428Y-98873571D01*
X125475000Y-98802142D01*
X125403571Y-98659285D01*
X125403571Y-98373571D01*
X125475000Y-98230714D01*
X126403571Y-96873571D02*
X125617857Y-96873571D01*
X125475000Y-96945000D01*
X125403571Y-97087857D01*
X125403571Y-97373571D01*
X125475000Y-97516428D01*
X126332142Y-96873571D02*
X126403571Y-97016428D01*
X126403571Y-97373571D01*
X126332142Y-97516428D01*
X126189285Y-97587857D01*
X126046428Y-97587857D01*
X125903571Y-97516428D01*
X125832142Y-97373571D01*
X125832142Y-97016428D01*
X125760714Y-96873571D01*
X125403571Y-96159285D02*
X126403571Y-96159285D01*
X125546428Y-96159285D02*
X125475000Y-96087857D01*
X125403571Y-95945000D01*
X125403571Y-95730714D01*
X125475000Y-95587857D01*
X125617857Y-95516428D01*
X126403571Y-95516428D01*
X125403571Y-94159285D02*
X126617857Y-94159285D01*
X126760714Y-94230714D01*
X126832142Y-94302142D01*
X126903571Y-94445000D01*
X126903571Y-94659285D01*
X126832142Y-94802142D01*
X126332142Y-94159285D02*
X126403571Y-94302142D01*
X126403571Y-94587857D01*
X126332142Y-94730714D01*
X126260714Y-94802142D01*
X126117857Y-94873571D01*
X125689285Y-94873571D01*
X125546428Y-94802142D01*
X125475000Y-94730714D01*
X125403571Y-94587857D01*
X125403571Y-94302142D01*
X125475000Y-94159285D01*
X126403571Y-92302142D02*
X124903571Y-92302142D01*
X125975000Y-91802142D01*
X124903571Y-91302142D01*
X126403571Y-91302142D01*
X126403571Y-90373571D02*
X126332142Y-90516428D01*
X126260714Y-90587857D01*
X126117857Y-90659285D01*
X125689285Y-90659285D01*
X125546428Y-90587857D01*
X125475000Y-90516428D01*
X125403571Y-90373571D01*
X125403571Y-90159285D01*
X125475000Y-90016428D01*
X125546428Y-89945000D01*
X125689285Y-89873571D01*
X126117857Y-89873571D01*
X126260714Y-89945000D01*
X126332142Y-90016428D01*
X126403571Y-90159285D01*
X126403571Y-90373571D01*
X125403571Y-89445000D02*
X125403571Y-88873571D01*
X124903571Y-89230714D02*
X126189285Y-89230714D01*
X126332142Y-89159285D01*
X126403571Y-89016428D01*
X126403571Y-88873571D01*
X126403571Y-88159285D02*
X126332142Y-88302142D01*
X126260714Y-88373571D01*
X126117857Y-88445000D01*
X125689285Y-88445000D01*
X125546428Y-88373571D01*
X125475000Y-88302142D01*
X125403571Y-88159285D01*
X125403571Y-87945000D01*
X125475000Y-87802142D01*
X125546428Y-87730714D01*
X125689285Y-87659285D01*
X126117857Y-87659285D01*
X126260714Y-87730714D01*
X126332142Y-87802142D01*
X126403571Y-87945000D01*
X126403571Y-88159285D01*
X126403571Y-87016428D02*
X125403571Y-87016428D01*
X125689285Y-87016428D02*
X125546428Y-86945000D01*
X125475000Y-86873571D01*
X125403571Y-86730714D01*
X125403571Y-86587857D01*
X126260714Y-84087857D02*
X126332142Y-84159285D01*
X126403571Y-84373571D01*
X126403571Y-84516428D01*
X126332142Y-84730714D01*
X126189285Y-84873571D01*
X126046428Y-84945000D01*
X125760714Y-85016428D01*
X125546428Y-85016428D01*
X125260714Y-84945000D01*
X125117857Y-84873571D01*
X124975000Y-84730714D01*
X124903571Y-84516428D01*
X124903571Y-84373571D01*
X124975000Y-84159285D01*
X125046428Y-84087857D01*
X126403571Y-83230714D02*
X126332142Y-83373571D01*
X126260714Y-83445000D01*
X126117857Y-83516428D01*
X125689285Y-83516428D01*
X125546428Y-83445000D01*
X125475000Y-83373571D01*
X125403571Y-83230714D01*
X125403571Y-83016428D01*
X125475000Y-82873571D01*
X125546428Y-82802142D01*
X125689285Y-82730714D01*
X126117857Y-82730714D01*
X126260714Y-82802142D01*
X126332142Y-82873571D01*
X126403571Y-83016428D01*
X126403571Y-83230714D01*
X125403571Y-82087857D02*
X126403571Y-82087857D01*
X125546428Y-82087857D02*
X125475000Y-82016428D01*
X125403571Y-81873571D01*
X125403571Y-81659285D01*
X125475000Y-81516428D01*
X125617857Y-81445000D01*
X126403571Y-81445000D01*
X125403571Y-80945000D02*
X125403571Y-80373571D01*
X124903571Y-80730714D02*
X126189285Y-80730714D01*
X126332142Y-80659285D01*
X126403571Y-80516428D01*
X126403571Y-80373571D01*
X126403571Y-79873571D02*
X125403571Y-79873571D01*
X125689285Y-79873571D02*
X125546428Y-79802142D01*
X125475000Y-79730714D01*
X125403571Y-79587857D01*
X125403571Y-79445000D01*
X126403571Y-78730714D02*
X126332142Y-78873571D01*
X126260714Y-78945000D01*
X126117857Y-79016428D01*
X125689285Y-79016428D01*
X125546428Y-78945000D01*
X125475000Y-78873571D01*
X125403571Y-78730714D01*
X125403571Y-78516428D01*
X125475000Y-78373571D01*
X125546428Y-78302142D01*
X125689285Y-78230714D01*
X126117857Y-78230714D01*
X126260714Y-78302142D01*
X126332142Y-78373571D01*
X126403571Y-78516428D01*
X126403571Y-78730714D01*
X126403571Y-77373571D02*
X126332142Y-77516428D01*
X126189285Y-77587857D01*
X124903571Y-77587857D01*
X126403571Y-76587857D02*
X126332142Y-76730714D01*
X126189285Y-76802142D01*
X124903571Y-76802142D01*
X126332142Y-75445000D02*
X126403571Y-75587857D01*
X126403571Y-75873571D01*
X126332142Y-76016428D01*
X126189285Y-76087857D01*
X125617857Y-76087857D01*
X125475000Y-76016428D01*
X125403571Y-75873571D01*
X125403571Y-75587857D01*
X125475000Y-75445000D01*
X125617857Y-75373571D01*
X125760714Y-75373571D01*
X125903571Y-76087857D01*
X126403571Y-74730714D02*
X125403571Y-74730714D01*
X125689285Y-74730714D02*
X125546428Y-74659285D01*
X125475000Y-74587857D01*
X125403571Y-74445000D01*
X125403571Y-74302142D01*
X126332142Y-72730714D02*
X126403571Y-72516428D01*
X126403571Y-72159285D01*
X126332142Y-72016428D01*
X126260714Y-71945000D01*
X126117857Y-71873571D01*
X125975000Y-71873571D01*
X125832142Y-71945000D01*
X125760714Y-72016428D01*
X125689285Y-72159285D01*
X125617857Y-72445000D01*
X125546428Y-72587857D01*
X125475000Y-72659285D01*
X125332142Y-72730714D01*
X125189285Y-72730714D01*
X125046428Y-72659285D01*
X124975000Y-72587857D01*
X124903571Y-72445000D01*
X124903571Y-72087857D01*
X124975000Y-71873571D01*
X126403571Y-71230714D02*
X124903571Y-71230714D01*
X126403571Y-70587857D02*
X125617857Y-70587857D01*
X125475000Y-70659285D01*
X125403571Y-70802142D01*
X125403571Y-71016428D01*
X125475000Y-71159285D01*
X125546428Y-71230714D01*
X126403571Y-69873571D02*
X125403571Y-69873571D01*
X124903571Y-69873571D02*
X124975000Y-69945000D01*
X125046428Y-69873571D01*
X124975000Y-69802142D01*
X124903571Y-69873571D01*
X125046428Y-69873571D01*
X126332142Y-68587857D02*
X126403571Y-68730714D01*
X126403571Y-69016428D01*
X126332142Y-69159285D01*
X126189285Y-69230714D01*
X125617857Y-69230714D01*
X125475000Y-69159285D01*
X125403571Y-69016428D01*
X125403571Y-68730714D01*
X125475000Y-68587857D01*
X125617857Y-68516428D01*
X125760714Y-68516428D01*
X125903571Y-69230714D01*
X126403571Y-67659285D02*
X126332142Y-67802142D01*
X126189285Y-67873571D01*
X124903571Y-67873571D01*
X126403571Y-66445000D02*
X124903571Y-66445000D01*
X126332142Y-66445000D02*
X126403571Y-66587857D01*
X126403571Y-66873571D01*
X126332142Y-67016428D01*
X126260714Y-67087857D01*
X126117857Y-67159285D01*
X125689285Y-67159285D01*
X125546428Y-67087857D01*
X125475000Y-67016428D01*
X125403571Y-66873571D01*
X125403571Y-66587857D01*
X125475000Y-66445000D01*
X96147714Y-59884571D02*
X95433428Y-59884571D01*
X95362000Y-60598857D01*
X95433428Y-60527428D01*
X95576285Y-60456000D01*
X95933428Y-60456000D01*
X96076285Y-60527428D01*
X96147714Y-60598857D01*
X96219142Y-60741714D01*
X96219142Y-61098857D01*
X96147714Y-61241714D01*
X96076285Y-61313142D01*
X95933428Y-61384571D01*
X95576285Y-61384571D01*
X95433428Y-61313142D01*
X95362000Y-61241714D01*
X96647714Y-59884571D02*
X97147714Y-61384571D01*
X97647714Y-59884571D01*
X99290571Y-61384571D02*
X99290571Y-59884571D01*
X99862000Y-59884571D01*
X100004857Y-59956000D01*
X100076285Y-60027428D01*
X100147714Y-60170285D01*
X100147714Y-60384571D01*
X100076285Y-60527428D01*
X100004857Y-60598857D01*
X99862000Y-60670285D01*
X99290571Y-60670285D01*
X101004857Y-61384571D02*
X100862000Y-61313142D01*
X100790571Y-61241714D01*
X100719142Y-61098857D01*
X100719142Y-60670285D01*
X100790571Y-60527428D01*
X100862000Y-60456000D01*
X101004857Y-60384571D01*
X101219142Y-60384571D01*
X101362000Y-60456000D01*
X101433428Y-60527428D01*
X101504857Y-60670285D01*
X101504857Y-61098857D01*
X101433428Y-61241714D01*
X101362000Y-61313142D01*
X101219142Y-61384571D01*
X101004857Y-61384571D01*
X102004857Y-60384571D02*
X102290571Y-61384571D01*
X102576285Y-60670285D01*
X102862000Y-61384571D01*
X103147714Y-60384571D01*
X104290571Y-61313142D02*
X104147714Y-61384571D01*
X103862000Y-61384571D01*
X103719142Y-61313142D01*
X103647714Y-61170285D01*
X103647714Y-60598857D01*
X103719142Y-60456000D01*
X103862000Y-60384571D01*
X104147714Y-60384571D01*
X104290571Y-60456000D01*
X104362000Y-60598857D01*
X104362000Y-60741714D01*
X103647714Y-60884571D01*
X105004857Y-61384571D02*
X105004857Y-60384571D01*
X105004857Y-60670285D02*
X105076285Y-60527428D01*
X105147714Y-60456000D01*
X105290571Y-60384571D01*
X105433428Y-60384571D01*
X107362000Y-59884571D02*
X107647714Y-59884571D01*
X107790571Y-59956000D01*
X107933428Y-60098857D01*
X108004857Y-60384571D01*
X108004857Y-60884571D01*
X107933428Y-61170285D01*
X107790571Y-61313142D01*
X107647714Y-61384571D01*
X107362000Y-61384571D01*
X107219142Y-61313142D01*
X107076285Y-61170285D01*
X107004857Y-60884571D01*
X107004857Y-60384571D01*
X107076285Y-60098857D01*
X107219142Y-59956000D01*
X107362000Y-59884571D01*
X108647714Y-60384571D02*
X108647714Y-61384571D01*
X108647714Y-60527428D02*
X108719142Y-60456000D01*
X108862000Y-60384571D01*
X109076285Y-60384571D01*
X109219142Y-60456000D01*
X109290571Y-60598857D01*
X109290571Y-61384571D01*
D11*
G04 #@! TO.C,J2*
X125000000Y-128750000D02*
X115000000Y-128750000D01*
X115000000Y-128750000D02*
X115000000Y-116250000D01*
X125000000Y-116250000D02*
X125000000Y-128750000D01*
X125000000Y-116250000D02*
X115000000Y-116250000D01*
G04 #@! TO.C,J3*
X92500000Y-128750000D02*
X92500000Y-116250000D01*
X105000000Y-128750000D02*
X92500000Y-128750000D01*
X105000000Y-116250000D02*
X105000000Y-128750000D01*
X105000000Y-116250000D02*
X92500000Y-116250000D01*
G04 #@! TO.C,J4*
X105000000Y-16250000D02*
X105000000Y-28750000D01*
X92500000Y-16250000D02*
X105000000Y-16250000D01*
X92500000Y-28750000D02*
X92500000Y-16250000D01*
X92500000Y-28750000D02*
X105000000Y-28750000D01*
D14*
G04 #@! TO.C,CN8*
X85030000Y-43120000D02*
X87630000Y-43120000D01*
X85030000Y-43120000D02*
X85030000Y-63560000D01*
X85030000Y-63560000D02*
X90230000Y-63560000D01*
X90230000Y-45720000D02*
X90230000Y-63560000D01*
X87630000Y-45720000D02*
X90230000Y-45720000D01*
X87630000Y-43120000D02*
X87630000Y-45720000D01*
X90230000Y-43120000D02*
X90230000Y-44450000D01*
X88900000Y-43120000D02*
X90230000Y-43120000D01*
G04 #@! TO.C,CN7*
X130750000Y-34230000D02*
X133350000Y-34230000D01*
X130750000Y-34230000D02*
X130750000Y-59750000D01*
X130750000Y-59750000D02*
X135950000Y-59750000D01*
X135950000Y-36830000D02*
X135950000Y-59750000D01*
X133350000Y-36830000D02*
X135950000Y-36830000D01*
X133350000Y-34230000D02*
X133350000Y-36830000D01*
X135950000Y-34230000D02*
X135950000Y-35560000D01*
X134620000Y-34230000D02*
X135950000Y-34230000D01*
G04 #@! TO.C,CN9*
X85030000Y-65980000D02*
X87630000Y-65980000D01*
X85030000Y-65980000D02*
X85030000Y-104200000D01*
X85030000Y-104200000D02*
X90230000Y-104200000D01*
X90230000Y-68580000D02*
X90230000Y-104200000D01*
X87630000Y-68580000D02*
X90230000Y-68580000D01*
X87630000Y-65980000D02*
X87630000Y-68580000D01*
X90230000Y-65980000D02*
X90230000Y-67310000D01*
X88900000Y-65980000D02*
X90230000Y-65980000D01*
G04 #@! TO.C,CN10*
X130750000Y-60900000D02*
X133350000Y-60900000D01*
X130750000Y-60900000D02*
X130750000Y-104200000D01*
X130750000Y-104200000D02*
X135950000Y-104200000D01*
X135950000Y-63500000D02*
X135950000Y-104200000D01*
X133350000Y-63500000D02*
X135950000Y-63500000D01*
X133350000Y-60900000D02*
X133350000Y-63500000D01*
X135950000Y-60900000D02*
X135950000Y-62230000D01*
X134620000Y-60900000D02*
X135950000Y-60900000D01*
D11*
G04 #@! TO.C,J1*
X115000000Y-28750000D02*
X125000000Y-28750000D01*
X115000000Y-28750000D02*
X115000000Y-16250000D01*
X125000000Y-16250000D02*
X125000000Y-28750000D01*
X115000000Y-16250000D02*
X125000000Y-16250000D01*
D14*
G04 #@! TO.C,C1*
X106544252Y-32442000D02*
X109375748Y-32442000D01*
X106544252Y-37662000D02*
X109375748Y-37662000D01*
G04 #@! TO.C,C3*
X119704000Y-36948252D02*
X119704000Y-39779748D01*
X114484000Y-36948252D02*
X114484000Y-39779748D01*
G04 #@! TO.C,C4*
X124324252Y-113862000D02*
X127155748Y-113862000D01*
X124324252Y-108642000D02*
X127155748Y-108642000D01*
G04 #@! TO.C,C5*
X102226252Y-109404000D02*
X105057748Y-109404000D01*
X102226252Y-114624000D02*
X105057748Y-114624000D01*
G04 #@! TO.C,C6*
X97720000Y-38726252D02*
X97720000Y-41557748D01*
X102940000Y-38726252D02*
X102940000Y-41557748D01*
G04 #@! TO.C,C7*
X114992000Y-109863748D02*
X114992000Y-107032252D01*
X120212000Y-109863748D02*
X120212000Y-107032252D01*
G04 #@! TO.C,C8*
X123816252Y-36646000D02*
X126647748Y-36646000D01*
X123816252Y-31426000D02*
X126647748Y-31426000D01*
G04 #@! TO.C,D1*
X95794000Y-63424000D02*
X100444000Y-63424000D01*
X95794000Y-66624000D02*
X100444000Y-66624000D01*
X100444000Y-66624000D02*
X100444000Y-65824000D01*
G04 #@! TO.C,R1*
X108588564Y-65934000D02*
X107384436Y-65934000D01*
X108588564Y-64114000D02*
X107384436Y-64114000D01*
G04 #@! TO.C,C2*
X92386000Y-108193248D02*
X92386000Y-105361752D01*
X97606000Y-108193248D02*
X97606000Y-105361752D01*
G04 #@! TO.C,J2*
D11*
X110702380Y-117833333D02*
X111416666Y-117833333D01*
X111559523Y-117880952D01*
X111654761Y-117976190D01*
X111702380Y-118119047D01*
X111702380Y-118214285D01*
X110797619Y-117404761D02*
X110750000Y-117357142D01*
X110702380Y-117261904D01*
X110702380Y-117023809D01*
X110750000Y-116928571D01*
X110797619Y-116880952D01*
X110892857Y-116833333D01*
X110988095Y-116833333D01*
X111130952Y-116880952D01*
X111702380Y-117452380D01*
X111702380Y-116833333D01*
G04 #@! TO.C,J3*
X89452380Y-117833333D02*
X90166666Y-117833333D01*
X90309523Y-117880952D01*
X90404761Y-117976190D01*
X90452380Y-118119047D01*
X90452380Y-118214285D01*
X89452380Y-117452380D02*
X89452380Y-116833333D01*
X89833333Y-117166666D01*
X89833333Y-117023809D01*
X89880952Y-116928571D01*
X89928571Y-116880952D01*
X90023809Y-116833333D01*
X90261904Y-116833333D01*
X90357142Y-116880952D01*
X90404761Y-116928571D01*
X90452380Y-117023809D01*
X90452380Y-117309523D01*
X90404761Y-117404761D01*
X90357142Y-117452380D01*
G04 #@! TO.C,J4*
X106952380Y-27833333D02*
X107666666Y-27833333D01*
X107809523Y-27880952D01*
X107904761Y-27976190D01*
X107952380Y-28119047D01*
X107952380Y-28214285D01*
X107285714Y-26928571D02*
X107952380Y-26928571D01*
X106904761Y-27166666D02*
X107619047Y-27404761D01*
X107619047Y-26785714D01*
G04 #@! TO.C,CN8*
X92019523Y-44807142D02*
X91971904Y-44854761D01*
X91829047Y-44902380D01*
X91733809Y-44902380D01*
X91590952Y-44854761D01*
X91495714Y-44759523D01*
X91448095Y-44664285D01*
X91400476Y-44473809D01*
X91400476Y-44330952D01*
X91448095Y-44140476D01*
X91495714Y-44045238D01*
X91590952Y-43950000D01*
X91733809Y-43902380D01*
X91829047Y-43902380D01*
X91971904Y-43950000D01*
X92019523Y-43997619D01*
X92448095Y-44902380D02*
X92448095Y-43902380D01*
X93019523Y-44902380D01*
X93019523Y-43902380D01*
X93638571Y-44330952D02*
X93543333Y-44283333D01*
X93495714Y-44235714D01*
X93448095Y-44140476D01*
X93448095Y-44092857D01*
X93495714Y-43997619D01*
X93543333Y-43950000D01*
X93638571Y-43902380D01*
X93829047Y-43902380D01*
X93924285Y-43950000D01*
X93971904Y-43997619D01*
X94019523Y-44092857D01*
X94019523Y-44140476D01*
X93971904Y-44235714D01*
X93924285Y-44283333D01*
X93829047Y-44330952D01*
X93638571Y-44330952D01*
X93543333Y-44378571D01*
X93495714Y-44426190D01*
X93448095Y-44521428D01*
X93448095Y-44711904D01*
X93495714Y-44807142D01*
X93543333Y-44854761D01*
X93638571Y-44902380D01*
X93829047Y-44902380D01*
X93924285Y-44854761D01*
X93971904Y-44807142D01*
X94019523Y-44711904D01*
X94019523Y-44521428D01*
X93971904Y-44426190D01*
X93924285Y-44378571D01*
X93829047Y-44330952D01*
G04 #@! TO.C,CN7*
X127579523Y-40489142D02*
X127531904Y-40536761D01*
X127389047Y-40584380D01*
X127293809Y-40584380D01*
X127150952Y-40536761D01*
X127055714Y-40441523D01*
X127008095Y-40346285D01*
X126960476Y-40155809D01*
X126960476Y-40012952D01*
X127008095Y-39822476D01*
X127055714Y-39727238D01*
X127150952Y-39632000D01*
X127293809Y-39584380D01*
X127389047Y-39584380D01*
X127531904Y-39632000D01*
X127579523Y-39679619D01*
X128008095Y-40584380D02*
X128008095Y-39584380D01*
X128579523Y-40584380D01*
X128579523Y-39584380D01*
X128960476Y-39584380D02*
X129627142Y-39584380D01*
X129198571Y-40584380D01*
G04 #@! TO.C,CN9*
X92781523Y-68175142D02*
X92733904Y-68222761D01*
X92591047Y-68270380D01*
X92495809Y-68270380D01*
X92352952Y-68222761D01*
X92257714Y-68127523D01*
X92210095Y-68032285D01*
X92162476Y-67841809D01*
X92162476Y-67698952D01*
X92210095Y-67508476D01*
X92257714Y-67413238D01*
X92352952Y-67318000D01*
X92495809Y-67270380D01*
X92591047Y-67270380D01*
X92733904Y-67318000D01*
X92781523Y-67365619D01*
X93210095Y-68270380D02*
X93210095Y-67270380D01*
X93781523Y-68270380D01*
X93781523Y-67270380D01*
X94305333Y-68270380D02*
X94495809Y-68270380D01*
X94591047Y-68222761D01*
X94638666Y-68175142D01*
X94733904Y-68032285D01*
X94781523Y-67841809D01*
X94781523Y-67460857D01*
X94733904Y-67365619D01*
X94686285Y-67318000D01*
X94591047Y-67270380D01*
X94400571Y-67270380D01*
X94305333Y-67318000D01*
X94257714Y-67365619D01*
X94210095Y-67460857D01*
X94210095Y-67698952D01*
X94257714Y-67794190D01*
X94305333Y-67841809D01*
X94400571Y-67889428D01*
X94591047Y-67889428D01*
X94686285Y-67841809D01*
X94733904Y-67794190D01*
X94781523Y-67698952D01*
G04 #@! TO.C,CN10*
X126087333Y-63857142D02*
X126039714Y-63904761D01*
X125896857Y-63952380D01*
X125801619Y-63952380D01*
X125658761Y-63904761D01*
X125563523Y-63809523D01*
X125515904Y-63714285D01*
X125468285Y-63523809D01*
X125468285Y-63380952D01*
X125515904Y-63190476D01*
X125563523Y-63095238D01*
X125658761Y-63000000D01*
X125801619Y-62952380D01*
X125896857Y-62952380D01*
X126039714Y-63000000D01*
X126087333Y-63047619D01*
X126515904Y-63952380D02*
X126515904Y-62952380D01*
X127087333Y-63952380D01*
X127087333Y-62952380D01*
X128087333Y-63952380D02*
X127515904Y-63952380D01*
X127801619Y-63952380D02*
X127801619Y-62952380D01*
X127706380Y-63095238D01*
X127611142Y-63190476D01*
X127515904Y-63238095D01*
X128706380Y-62952380D02*
X128801619Y-62952380D01*
X128896857Y-63000000D01*
X128944476Y-63047619D01*
X128992095Y-63142857D01*
X129039714Y-63333333D01*
X129039714Y-63571428D01*
X128992095Y-63761904D01*
X128944476Y-63857142D01*
X128896857Y-63904761D01*
X128801619Y-63952380D01*
X128706380Y-63952380D01*
X128611142Y-63904761D01*
X128563523Y-63857142D01*
X128515904Y-63761904D01*
X128468285Y-63571428D01*
X128468285Y-63333333D01*
X128515904Y-63142857D01*
X128563523Y-63047619D01*
X128611142Y-63000000D01*
X128706380Y-62952380D01*
G04 #@! TO.C,J1*
X128202380Y-27833333D02*
X128916666Y-27833333D01*
X129059523Y-27880952D01*
X129154761Y-27976190D01*
X129202380Y-28119047D01*
X129202380Y-28214285D01*
X129202380Y-26833333D02*
X129202380Y-27404761D01*
X129202380Y-27119047D02*
X128202380Y-27119047D01*
X128345238Y-27214285D01*
X128440476Y-27309523D01*
X128488095Y-27404761D01*
G04 #@! TO.C,C1*
X107793333Y-31759142D02*
X107745714Y-31806761D01*
X107602857Y-31854380D01*
X107507619Y-31854380D01*
X107364761Y-31806761D01*
X107269523Y-31711523D01*
X107221904Y-31616285D01*
X107174285Y-31425809D01*
X107174285Y-31282952D01*
X107221904Y-31092476D01*
X107269523Y-30997238D01*
X107364761Y-30902000D01*
X107507619Y-30854380D01*
X107602857Y-30854380D01*
X107745714Y-30902000D01*
X107793333Y-30949619D01*
X108745714Y-31854380D02*
X108174285Y-31854380D01*
X108460000Y-31854380D02*
X108460000Y-30854380D01*
X108364761Y-30997238D01*
X108269523Y-31092476D01*
X108174285Y-31140095D01*
G04 #@! TO.C,C3*
X121101142Y-38530666D02*
X121148761Y-38578285D01*
X121196380Y-38721142D01*
X121196380Y-38816380D01*
X121148761Y-38959238D01*
X121053523Y-39054476D01*
X120958285Y-39102095D01*
X120767809Y-39149714D01*
X120624952Y-39149714D01*
X120434476Y-39102095D01*
X120339238Y-39054476D01*
X120244000Y-38959238D01*
X120196380Y-38816380D01*
X120196380Y-38721142D01*
X120244000Y-38578285D01*
X120291619Y-38530666D01*
X120196380Y-38197333D02*
X120196380Y-37578285D01*
X120577333Y-37911619D01*
X120577333Y-37768761D01*
X120624952Y-37673523D01*
X120672571Y-37625904D01*
X120767809Y-37578285D01*
X121005904Y-37578285D01*
X121101142Y-37625904D01*
X121148761Y-37673523D01*
X121196380Y-37768761D01*
X121196380Y-38054476D01*
X121148761Y-38149714D01*
X121101142Y-38197333D01*
G04 #@! TO.C,C4*
X125573333Y-107959142D02*
X125525714Y-108006761D01*
X125382857Y-108054380D01*
X125287619Y-108054380D01*
X125144761Y-108006761D01*
X125049523Y-107911523D01*
X125001904Y-107816285D01*
X124954285Y-107625809D01*
X124954285Y-107482952D01*
X125001904Y-107292476D01*
X125049523Y-107197238D01*
X125144761Y-107102000D01*
X125287619Y-107054380D01*
X125382857Y-107054380D01*
X125525714Y-107102000D01*
X125573333Y-107149619D01*
X126430476Y-107387714D02*
X126430476Y-108054380D01*
X126192380Y-107006761D02*
X125954285Y-107721047D01*
X126573333Y-107721047D01*
G04 #@! TO.C,C5*
X103475333Y-108721142D02*
X103427714Y-108768761D01*
X103284857Y-108816380D01*
X103189619Y-108816380D01*
X103046761Y-108768761D01*
X102951523Y-108673523D01*
X102903904Y-108578285D01*
X102856285Y-108387809D01*
X102856285Y-108244952D01*
X102903904Y-108054476D01*
X102951523Y-107959238D01*
X103046761Y-107864000D01*
X103189619Y-107816380D01*
X103284857Y-107816380D01*
X103427714Y-107864000D01*
X103475333Y-107911619D01*
X104380095Y-107816380D02*
X103903904Y-107816380D01*
X103856285Y-108292571D01*
X103903904Y-108244952D01*
X103999142Y-108197333D01*
X104237238Y-108197333D01*
X104332476Y-108244952D01*
X104380095Y-108292571D01*
X104427714Y-108387809D01*
X104427714Y-108625904D01*
X104380095Y-108721142D01*
X104332476Y-108768761D01*
X104237238Y-108816380D01*
X103999142Y-108816380D01*
X103903904Y-108768761D01*
X103856285Y-108721142D01*
G04 #@! TO.C,C6*
X104337142Y-40308666D02*
X104384761Y-40356285D01*
X104432380Y-40499142D01*
X104432380Y-40594380D01*
X104384761Y-40737238D01*
X104289523Y-40832476D01*
X104194285Y-40880095D01*
X104003809Y-40927714D01*
X103860952Y-40927714D01*
X103670476Y-40880095D01*
X103575238Y-40832476D01*
X103480000Y-40737238D01*
X103432380Y-40594380D01*
X103432380Y-40499142D01*
X103480000Y-40356285D01*
X103527619Y-40308666D01*
X103432380Y-39451523D02*
X103432380Y-39642000D01*
X103480000Y-39737238D01*
X103527619Y-39784857D01*
X103670476Y-39880095D01*
X103860952Y-39927714D01*
X104241904Y-39927714D01*
X104337142Y-39880095D01*
X104384761Y-39832476D01*
X104432380Y-39737238D01*
X104432380Y-39546761D01*
X104384761Y-39451523D01*
X104337142Y-39403904D01*
X104241904Y-39356285D01*
X104003809Y-39356285D01*
X103908571Y-39403904D01*
X103860952Y-39451523D01*
X103813333Y-39546761D01*
X103813333Y-39737238D01*
X103860952Y-39832476D01*
X103908571Y-39880095D01*
X104003809Y-39927714D01*
G04 #@! TO.C,C7*
X114309142Y-108614666D02*
X114356761Y-108662285D01*
X114404380Y-108805142D01*
X114404380Y-108900380D01*
X114356761Y-109043238D01*
X114261523Y-109138476D01*
X114166285Y-109186095D01*
X113975809Y-109233714D01*
X113832952Y-109233714D01*
X113642476Y-109186095D01*
X113547238Y-109138476D01*
X113452000Y-109043238D01*
X113404380Y-108900380D01*
X113404380Y-108805142D01*
X113452000Y-108662285D01*
X113499619Y-108614666D01*
X113404380Y-108281333D02*
X113404380Y-107614666D01*
X114404380Y-108043238D01*
G04 #@! TO.C,C8*
X125065333Y-30743142D02*
X125017714Y-30790761D01*
X124874857Y-30838380D01*
X124779619Y-30838380D01*
X124636761Y-30790761D01*
X124541523Y-30695523D01*
X124493904Y-30600285D01*
X124446285Y-30409809D01*
X124446285Y-30266952D01*
X124493904Y-30076476D01*
X124541523Y-29981238D01*
X124636761Y-29886000D01*
X124779619Y-29838380D01*
X124874857Y-29838380D01*
X125017714Y-29886000D01*
X125065333Y-29933619D01*
X125636761Y-30266952D02*
X125541523Y-30219333D01*
X125493904Y-30171714D01*
X125446285Y-30076476D01*
X125446285Y-30028857D01*
X125493904Y-29933619D01*
X125541523Y-29886000D01*
X125636761Y-29838380D01*
X125827238Y-29838380D01*
X125922476Y-29886000D01*
X125970095Y-29933619D01*
X126017714Y-30028857D01*
X126017714Y-30076476D01*
X125970095Y-30171714D01*
X125922476Y-30219333D01*
X125827238Y-30266952D01*
X125636761Y-30266952D01*
X125541523Y-30314571D01*
X125493904Y-30362190D01*
X125446285Y-30457428D01*
X125446285Y-30647904D01*
X125493904Y-30743142D01*
X125541523Y-30790761D01*
X125636761Y-30838380D01*
X125827238Y-30838380D01*
X125922476Y-30790761D01*
X125970095Y-30743142D01*
X126017714Y-30647904D01*
X126017714Y-30457428D01*
X125970095Y-30362190D01*
X125922476Y-30314571D01*
X125827238Y-30266952D01*
G04 #@! TO.C,D1*
X97305904Y-67976380D02*
X97305904Y-66976380D01*
X97544000Y-66976380D01*
X97686857Y-67024000D01*
X97782095Y-67119238D01*
X97829714Y-67214476D01*
X97877333Y-67404952D01*
X97877333Y-67547809D01*
X97829714Y-67738285D01*
X97782095Y-67833523D01*
X97686857Y-67928761D01*
X97544000Y-67976380D01*
X97305904Y-67976380D01*
X98829714Y-67976380D02*
X98258285Y-67976380D01*
X98544000Y-67976380D02*
X98544000Y-66976380D01*
X98448761Y-67119238D01*
X98353523Y-67214476D01*
X98258285Y-67262095D01*
G04 #@! TO.C,R1*
X107819833Y-67296380D02*
X107486500Y-66820190D01*
X107248404Y-67296380D02*
X107248404Y-66296380D01*
X107629357Y-66296380D01*
X107724595Y-66344000D01*
X107772214Y-66391619D01*
X107819833Y-66486857D01*
X107819833Y-66629714D01*
X107772214Y-66724952D01*
X107724595Y-66772571D01*
X107629357Y-66820190D01*
X107248404Y-66820190D01*
X108772214Y-67296380D02*
X108200785Y-67296380D01*
X108486500Y-67296380D02*
X108486500Y-66296380D01*
X108391261Y-66439238D01*
X108296023Y-66534476D01*
X108200785Y-66582095D01*
G04 #@! TO.C,C2*
X91703142Y-106944166D02*
X91750761Y-106991785D01*
X91798380Y-107134642D01*
X91798380Y-107229880D01*
X91750761Y-107372738D01*
X91655523Y-107467976D01*
X91560285Y-107515595D01*
X91369809Y-107563214D01*
X91226952Y-107563214D01*
X91036476Y-107515595D01*
X90941238Y-107467976D01*
X90846000Y-107372738D01*
X90798380Y-107229880D01*
X90798380Y-107134642D01*
X90846000Y-106991785D01*
X90893619Y-106944166D01*
X90893619Y-106563214D02*
X90846000Y-106515595D01*
X90798380Y-106420357D01*
X90798380Y-106182261D01*
X90846000Y-106087023D01*
X90893619Y-106039404D01*
X90988857Y-105991785D01*
X91084095Y-105991785D01*
X91226952Y-106039404D01*
X91798380Y-106610833D01*
X91798380Y-105991785D01*
G04 #@! TD*
M02*
