M48
;DRILL file {KiCad 5.0.2-bee76a0~70~ubuntu16.04.1} date Fri 15 Feb 2019 05:44:33 PM EST
;FORMAT={-:-/ absolute / inch / decimal}
FMAT,2
INCH,TZ
T1C0.0157
T2C0.0240
T3C0.0394
T4C0.1260
%
G90
G05
T1
X3.62Y-2.56
X3.74Y-4.41
X3.82Y-3.93
X3.95Y-1.35
X3.95Y-1.8
X4.29Y-4.41
X4.4Y-2.56
X4.41Y-1.37
X4.57Y-4.05
X4.61Y-1.71
X4.7244Y-1.225
X4.7244Y-4.475
X5.1Y-1.34
X5.16Y-4.38
T2
X3.7402Y-1.0827
X3.8386Y-1.0827
X3.937Y-1.0827
X4.0354Y-1.0827
X4.626Y-1.0827
X4.7244Y-1.0827
X4.8228Y-1.0827
X3.7402Y-4.626
X3.8386Y-4.626
X3.937Y-4.626
X4.0354Y-4.626
X4.626Y-4.626
X4.7244Y-4.626
X4.8228Y-4.626
T3
X3.4Y-2.65
X3.4Y-2.75
X3.4Y-2.85
X3.4Y-2.95
X3.4Y-3.05
X3.4Y-3.15
X3.4Y-3.25
X3.4Y-3.35
X3.4Y-3.45
X3.4Y-3.55
X3.4Y-3.65
X3.4Y-3.75
X3.4Y-3.85
X3.4Y-3.95
X3.4Y-4.05
X3.5Y-2.65
X3.5Y-2.75
X3.5Y-2.85
X3.5Y-2.95
X3.5Y-3.05
X3.5Y-3.15
X3.5Y-3.25
X3.5Y-3.35
X3.5Y-3.45
X3.5Y-3.55
X3.5Y-3.65
X3.5Y-3.75
X3.5Y-3.85
X3.5Y-3.95
X3.5Y-4.05
X3.4Y-1.75
X3.4Y-1.85
X3.4Y-1.95
X3.4Y-2.05
X3.4Y-2.15
X3.4Y-2.25
X3.4Y-2.35
X3.4Y-2.45
X3.5Y-1.75
X3.5Y-1.85
X3.5Y-1.95
X3.5Y-2.05
X3.5Y-2.15
X3.5Y-2.25
X3.5Y-2.35
X3.5Y-2.45
X5.2Y-1.4
X5.2Y-1.5
X5.2Y-1.6
X5.2Y-1.7
X5.2Y-1.8
X5.2Y-1.9
X5.2Y-2.
X5.2Y-2.1
X5.2Y-2.2
X5.2Y-2.3
X5.3Y-1.4
X5.3Y-1.5
X5.3Y-1.6
X5.3Y-1.7
X5.3Y-1.8
X5.3Y-1.9
X5.3Y-2.
X5.3Y-2.1
X5.3Y-2.2
X5.3Y-2.3
X5.2Y-2.45
X5.2Y-2.55
X5.2Y-2.65
X5.2Y-2.75
X5.2Y-2.85
X5.2Y-2.95
X5.2Y-3.05
X5.2Y-3.15
X5.2Y-3.25
X5.2Y-3.35
X5.2Y-3.45
X5.2Y-3.55
X5.2Y-3.65
X5.2Y-3.75
X5.2Y-3.85
X5.2Y-3.95
X5.2Y-4.05
X5.3Y-2.45
X5.3Y-2.55
X5.3Y-2.65
X5.3Y-2.75
X5.3Y-2.85
X5.3Y-2.95
X5.3Y-3.05
X5.3Y-3.15
X5.3Y-3.25
X5.3Y-3.35
X5.3Y-3.45
X5.3Y-3.55
X5.3Y-3.65
X5.3Y-3.75
X5.3Y-3.85
X5.3Y-3.95
X5.3Y-4.05
T4
X5.25Y-4.2
X3.45Y-4.2
X4.7Y-3.25
X5.3Y-1.25
X3.4Y-1.25
T0
M30
