G04 #@! TF.GenerationSoftware,KiCad,Pcbnew,5.0.2-bee76a0~70~ubuntu16.04.1*
G04 #@! TF.CreationDate,2019-02-15T18:52:28-05:00*
G04 #@! TF.ProjectId,HuskyA100_Nucleo_Shield,4875736b-7941-4313-9030-5f4e75636c65,rev?*
G04 #@! TF.SameCoordinates,Original*
G04 #@! TF.FileFunction,Soldermask,Top*
G04 #@! TF.FilePolarity,Negative*
%FSLAX46Y46*%
G04 Gerber Fmt 4.6, Leading zero omitted, Abs format (unit mm)*
G04 Created by KiCad (PCBNEW 5.0.2-bee76a0~70~ubuntu16.04.1) date Fri 15 Feb 2019 06:52:28 PM EST*
%MOMM*%
%LPD*%
G01*
G04 APERTURE LIST*
%ADD10C,0.100000*%
%ADD11C,0.150000*%
%ADD12C,0.300000*%
%ADD13C,0.400000*%
G04 APERTURE END LIST*
D10*
D11*
X159400000Y-171900000D02*
X159400000Y-203900000D01*
X267400000Y-203900000D01*
X267400000Y-171900000D01*
X159400000Y-171900000D01*
D10*
D11*
X10000000Y-10000000D02*
X10000000Y-205900000D01*
X269400000Y-205900000D01*
X269400000Y-10000000D01*
X10000000Y-10000000D01*
D10*
D11*
X12000000Y-12000000D02*
X12000000Y-203900000D01*
X267400000Y-203900000D01*
X267400000Y-12000000D01*
X12000000Y-12000000D01*
D10*
D11*
X60000000Y-12000000D02*
X60000000Y-10000000D01*
D10*
D11*
X110000000Y-12000000D02*
X110000000Y-10000000D01*
D10*
D11*
X160000000Y-12000000D02*
X160000000Y-10000000D01*
D10*
D11*
X210000000Y-12000000D02*
X210000000Y-10000000D01*
D10*
D11*
X260000000Y-12000000D02*
X260000000Y-10000000D01*
D10*
D11*
X36065476Y-11588095D02*
X35322619Y-11588095D01*
X35694047Y-11588095D02*
X35694047Y-10288095D01*
X35570238Y-10473809D01*
X35446428Y-10597619D01*
X35322619Y-10659523D01*
D10*
D11*
X85322619Y-10411904D02*
X85384523Y-10350000D01*
X85508333Y-10288095D01*
X85817857Y-10288095D01*
X85941666Y-10350000D01*
X86003571Y-10411904D01*
X86065476Y-10535714D01*
X86065476Y-10659523D01*
X86003571Y-10845238D01*
X85260714Y-11588095D01*
X86065476Y-11588095D01*
D10*
D11*
X135260714Y-10288095D02*
X136065476Y-10288095D01*
X135632142Y-10783333D01*
X135817857Y-10783333D01*
X135941666Y-10845238D01*
X136003571Y-10907142D01*
X136065476Y-11030952D01*
X136065476Y-11340476D01*
X136003571Y-11464285D01*
X135941666Y-11526190D01*
X135817857Y-11588095D01*
X135446428Y-11588095D01*
X135322619Y-11526190D01*
X135260714Y-11464285D01*
D10*
D11*
X185941666Y-10721428D02*
X185941666Y-11588095D01*
X185632142Y-10226190D02*
X185322619Y-11154761D01*
X186127380Y-11154761D01*
D10*
D11*
X236003571Y-10288095D02*
X235384523Y-10288095D01*
X235322619Y-10907142D01*
X235384523Y-10845238D01*
X235508333Y-10783333D01*
X235817857Y-10783333D01*
X235941666Y-10845238D01*
X236003571Y-10907142D01*
X236065476Y-11030952D01*
X236065476Y-11340476D01*
X236003571Y-11464285D01*
X235941666Y-11526190D01*
X235817857Y-11588095D01*
X235508333Y-11588095D01*
X235384523Y-11526190D01*
X235322619Y-11464285D01*
D10*
D11*
X60000000Y-203900000D02*
X60000000Y-205900000D01*
D10*
D11*
X110000000Y-203900000D02*
X110000000Y-205900000D01*
D10*
D11*
X160000000Y-203900000D02*
X160000000Y-205900000D01*
D10*
D11*
X210000000Y-203900000D02*
X210000000Y-205900000D01*
D10*
D11*
X260000000Y-203900000D02*
X260000000Y-205900000D01*
D10*
D11*
X36065476Y-205488095D02*
X35322619Y-205488095D01*
X35694047Y-205488095D02*
X35694047Y-204188095D01*
X35570238Y-204373809D01*
X35446428Y-204497619D01*
X35322619Y-204559523D01*
D10*
D11*
X85322619Y-204311904D02*
X85384523Y-204250000D01*
X85508333Y-204188095D01*
X85817857Y-204188095D01*
X85941666Y-204250000D01*
X86003571Y-204311904D01*
X86065476Y-204435714D01*
X86065476Y-204559523D01*
X86003571Y-204745238D01*
X85260714Y-205488095D01*
X86065476Y-205488095D01*
D10*
D11*
X135260714Y-204188095D02*
X136065476Y-204188095D01*
X135632142Y-204683333D01*
X135817857Y-204683333D01*
X135941666Y-204745238D01*
X136003571Y-204807142D01*
X136065476Y-204930952D01*
X136065476Y-205240476D01*
X136003571Y-205364285D01*
X135941666Y-205426190D01*
X135817857Y-205488095D01*
X135446428Y-205488095D01*
X135322619Y-205426190D01*
X135260714Y-205364285D01*
D10*
D11*
X185941666Y-204621428D02*
X185941666Y-205488095D01*
X185632142Y-204126190D02*
X185322619Y-205054761D01*
X186127380Y-205054761D01*
D10*
D11*
X236003571Y-204188095D02*
X235384523Y-204188095D01*
X235322619Y-204807142D01*
X235384523Y-204745238D01*
X235508333Y-204683333D01*
X235817857Y-204683333D01*
X235941666Y-204745238D01*
X236003571Y-204807142D01*
X236065476Y-204930952D01*
X236065476Y-205240476D01*
X236003571Y-205364285D01*
X235941666Y-205426190D01*
X235817857Y-205488095D01*
X235508333Y-205488095D01*
X235384523Y-205426190D01*
X235322619Y-205364285D01*
D10*
D11*
X10000000Y-60000000D02*
X12000000Y-60000000D01*
D10*
D11*
X10000000Y-110000000D02*
X12000000Y-110000000D01*
D10*
D11*
X10000000Y-160000000D02*
X12000000Y-160000000D01*
D10*
D11*
X10690476Y-35216666D02*
X11309523Y-35216666D01*
X10566666Y-35588095D02*
X11000000Y-34288095D01*
X11433333Y-35588095D01*
D10*
D11*
X11092857Y-84907142D02*
X11278571Y-84969047D01*
X11340476Y-85030952D01*
X11402380Y-85154761D01*
X11402380Y-85340476D01*
X11340476Y-85464285D01*
X11278571Y-85526190D01*
X11154761Y-85588095D01*
X10659523Y-85588095D01*
X10659523Y-84288095D01*
X11092857Y-84288095D01*
X11216666Y-84350000D01*
X11278571Y-84411904D01*
X11340476Y-84535714D01*
X11340476Y-84659523D01*
X11278571Y-84783333D01*
X11216666Y-84845238D01*
X11092857Y-84907142D01*
X10659523Y-84907142D01*
D10*
D11*
X11402380Y-135464285D02*
X11340476Y-135526190D01*
X11154761Y-135588095D01*
X11030952Y-135588095D01*
X10845238Y-135526190D01*
X10721428Y-135402380D01*
X10659523Y-135278571D01*
X10597619Y-135030952D01*
X10597619Y-134845238D01*
X10659523Y-134597619D01*
X10721428Y-134473809D01*
X10845238Y-134350000D01*
X11030952Y-134288095D01*
X11154761Y-134288095D01*
X11340476Y-134350000D01*
X11402380Y-134411904D01*
D10*
D11*
X10659523Y-185588095D02*
X10659523Y-184288095D01*
X10969047Y-184288095D01*
X11154761Y-184350000D01*
X11278571Y-184473809D01*
X11340476Y-184597619D01*
X11402380Y-184845238D01*
X11402380Y-185030952D01*
X11340476Y-185278571D01*
X11278571Y-185402380D01*
X11154761Y-185526190D01*
X10969047Y-185588095D01*
X10659523Y-185588095D01*
D10*
D11*
X269400000Y-60000000D02*
X267400000Y-60000000D01*
D10*
D11*
X269400000Y-110000000D02*
X267400000Y-110000000D01*
D10*
D11*
X269400000Y-160000000D02*
X267400000Y-160000000D01*
D10*
D11*
X268090476Y-35216666D02*
X268709523Y-35216666D01*
X267966666Y-35588095D02*
X268400000Y-34288095D01*
X268833333Y-35588095D01*
D10*
D11*
X268492857Y-84907142D02*
X268678571Y-84969047D01*
X268740476Y-85030952D01*
X268802380Y-85154761D01*
X268802380Y-85340476D01*
X268740476Y-85464285D01*
X268678571Y-85526190D01*
X268554761Y-85588095D01*
X268059523Y-85588095D01*
X268059523Y-84288095D01*
X268492857Y-84288095D01*
X268616666Y-84350000D01*
X268678571Y-84411904D01*
X268740476Y-84535714D01*
X268740476Y-84659523D01*
X268678571Y-84783333D01*
X268616666Y-84845238D01*
X268492857Y-84907142D01*
X268059523Y-84907142D01*
D10*
D11*
X268802380Y-135464285D02*
X268740476Y-135526190D01*
X268554761Y-135588095D01*
X268430952Y-135588095D01*
X268245238Y-135526190D01*
X268121428Y-135402380D01*
X268059523Y-135278571D01*
X267997619Y-135030952D01*
X267997619Y-134845238D01*
X268059523Y-134597619D01*
X268121428Y-134473809D01*
X268245238Y-134350000D01*
X268430952Y-134288095D01*
X268554761Y-134288095D01*
X268740476Y-134350000D01*
X268802380Y-134411904D01*
D10*
D11*
X268059523Y-185588095D02*
X268059523Y-184288095D01*
X268369047Y-184288095D01*
X268554761Y-184350000D01*
X268678571Y-184473809D01*
X268740476Y-184597619D01*
X268802380Y-184845238D01*
X268802380Y-185030952D01*
X268740476Y-185278571D01*
X268678571Y-185402380D01*
X268554761Y-185526190D01*
X268369047Y-185588095D01*
X268059523Y-185588095D01*
D10*
D11*
X182832142Y-199678571D02*
X182832142Y-198178571D01*
X183189285Y-198178571D01*
X183403571Y-198250000D01*
X183546428Y-198392857D01*
X183617857Y-198535714D01*
X183689285Y-198821428D01*
X183689285Y-199035714D01*
X183617857Y-199321428D01*
X183546428Y-199464285D01*
X183403571Y-199607142D01*
X183189285Y-199678571D01*
X182832142Y-199678571D01*
X184975000Y-199678571D02*
X184975000Y-198892857D01*
X184903571Y-198750000D01*
X184760714Y-198678571D01*
X184475000Y-198678571D01*
X184332142Y-198750000D01*
X184975000Y-199607142D02*
X184832142Y-199678571D01*
X184475000Y-199678571D01*
X184332142Y-199607142D01*
X184260714Y-199464285D01*
X184260714Y-199321428D01*
X184332142Y-199178571D01*
X184475000Y-199107142D01*
X184832142Y-199107142D01*
X184975000Y-199035714D01*
X185475000Y-198678571D02*
X186046428Y-198678571D01*
X185689285Y-198178571D02*
X185689285Y-199464285D01*
X185760714Y-199607142D01*
X185903571Y-199678571D01*
X186046428Y-199678571D01*
X187117857Y-199607142D02*
X186975000Y-199678571D01*
X186689285Y-199678571D01*
X186546428Y-199607142D01*
X186475000Y-199464285D01*
X186475000Y-198892857D01*
X186546428Y-198750000D01*
X186689285Y-198678571D01*
X186975000Y-198678571D01*
X187117857Y-198750000D01*
X187189285Y-198892857D01*
X187189285Y-199035714D01*
X186475000Y-199178571D01*
X187832142Y-199535714D02*
X187903571Y-199607142D01*
X187832142Y-199678571D01*
X187760714Y-199607142D01*
X187832142Y-199535714D01*
X187832142Y-199678571D01*
X187832142Y-198750000D02*
X187903571Y-198821428D01*
X187832142Y-198892857D01*
X187760714Y-198821428D01*
X187832142Y-198750000D01*
X187832142Y-198892857D01*
D10*
D11*
X159400000Y-200400000D02*
X267400000Y-200400000D01*
D10*
D11*
X160832142Y-202478571D02*
X160832142Y-200978571D01*
X161689285Y-202478571D02*
X161046428Y-201621428D01*
X161689285Y-200978571D02*
X160832142Y-201835714D01*
X162332142Y-202478571D02*
X162332142Y-201478571D01*
X162332142Y-200978571D02*
X162260714Y-201050000D01*
X162332142Y-201121428D01*
X162403571Y-201050000D01*
X162332142Y-200978571D01*
X162332142Y-201121428D01*
X163903571Y-202335714D02*
X163832142Y-202407142D01*
X163617857Y-202478571D01*
X163475000Y-202478571D01*
X163260714Y-202407142D01*
X163117857Y-202264285D01*
X163046428Y-202121428D01*
X162975000Y-201835714D01*
X162975000Y-201621428D01*
X163046428Y-201335714D01*
X163117857Y-201192857D01*
X163260714Y-201050000D01*
X163475000Y-200978571D01*
X163617857Y-200978571D01*
X163832142Y-201050000D01*
X163903571Y-201121428D01*
X165189285Y-202478571D02*
X165189285Y-201692857D01*
X165117857Y-201550000D01*
X164975000Y-201478571D01*
X164689285Y-201478571D01*
X164546428Y-201550000D01*
X165189285Y-202407142D02*
X165046428Y-202478571D01*
X164689285Y-202478571D01*
X164546428Y-202407142D01*
X164475000Y-202264285D01*
X164475000Y-202121428D01*
X164546428Y-201978571D01*
X164689285Y-201907142D01*
X165046428Y-201907142D01*
X165189285Y-201835714D01*
X166546428Y-202478571D02*
X166546428Y-200978571D01*
X166546428Y-202407142D02*
X166403571Y-202478571D01*
X166117857Y-202478571D01*
X165975000Y-202407142D01*
X165903571Y-202335714D01*
X165832142Y-202192857D01*
X165832142Y-201764285D01*
X165903571Y-201621428D01*
X165975000Y-201550000D01*
X166117857Y-201478571D01*
X166403571Y-201478571D01*
X166546428Y-201550000D01*
X168403571Y-201692857D02*
X168903571Y-201692857D01*
X169117857Y-202478571D02*
X168403571Y-202478571D01*
X168403571Y-200978571D01*
X169117857Y-200978571D01*
X169760714Y-202335714D02*
X169832142Y-202407142D01*
X169760714Y-202478571D01*
X169689285Y-202407142D01*
X169760714Y-202335714D01*
X169760714Y-202478571D01*
X170475000Y-202478571D02*
X170475000Y-200978571D01*
X170832142Y-200978571D01*
X171046428Y-201050000D01*
X171189285Y-201192857D01*
X171260714Y-201335714D01*
X171332142Y-201621428D01*
X171332142Y-201835714D01*
X171260714Y-202121428D01*
X171189285Y-202264285D01*
X171046428Y-202407142D01*
X170832142Y-202478571D01*
X170475000Y-202478571D01*
X171975000Y-202335714D02*
X172046428Y-202407142D01*
X171975000Y-202478571D01*
X171903571Y-202407142D01*
X171975000Y-202335714D01*
X171975000Y-202478571D01*
X172617857Y-202050000D02*
X173332142Y-202050000D01*
X172475000Y-202478571D02*
X172975000Y-200978571D01*
X173475000Y-202478571D01*
X173975000Y-202335714D02*
X174046428Y-202407142D01*
X173975000Y-202478571D01*
X173903571Y-202407142D01*
X173975000Y-202335714D01*
X173975000Y-202478571D01*
X176975000Y-202478571D02*
X176975000Y-200978571D01*
X177117857Y-201907142D02*
X177546428Y-202478571D01*
X177546428Y-201478571D02*
X176975000Y-202050000D01*
X178189285Y-202478571D02*
X178189285Y-201478571D01*
X178189285Y-200978571D02*
X178117857Y-201050000D01*
X178189285Y-201121428D01*
X178260714Y-201050000D01*
X178189285Y-200978571D01*
X178189285Y-201121428D01*
X179546428Y-202407142D02*
X179403571Y-202478571D01*
X179117857Y-202478571D01*
X178975000Y-202407142D01*
X178903571Y-202335714D01*
X178832142Y-202192857D01*
X178832142Y-201764285D01*
X178903571Y-201621428D01*
X178975000Y-201550000D01*
X179117857Y-201478571D01*
X179403571Y-201478571D01*
X179546428Y-201550000D01*
X180832142Y-202478571D02*
X180832142Y-201692857D01*
X180760714Y-201550000D01*
X180617857Y-201478571D01*
X180332142Y-201478571D01*
X180189285Y-201550000D01*
X180832142Y-202407142D02*
X180689285Y-202478571D01*
X180332142Y-202478571D01*
X180189285Y-202407142D01*
X180117857Y-202264285D01*
X180117857Y-202121428D01*
X180189285Y-201978571D01*
X180332142Y-201907142D01*
X180689285Y-201907142D01*
X180832142Y-201835714D01*
X182189285Y-202478571D02*
X182189285Y-200978571D01*
X182189285Y-202407142D02*
X182046428Y-202478571D01*
X181760714Y-202478571D01*
X181617857Y-202407142D01*
X181546428Y-202335714D01*
X181475000Y-202192857D01*
X181475000Y-201764285D01*
X181546428Y-201621428D01*
X181617857Y-201550000D01*
X181760714Y-201478571D01*
X182046428Y-201478571D01*
X182189285Y-201550000D01*
X184760714Y-200978571D02*
X184046428Y-200978571D01*
X183975000Y-201692857D01*
X184046428Y-201621428D01*
X184189285Y-201550000D01*
X184546428Y-201550000D01*
X184689285Y-201621428D01*
X184760714Y-201692857D01*
X184832142Y-201835714D01*
X184832142Y-202192857D01*
X184760714Y-202335714D01*
X184689285Y-202407142D01*
X184546428Y-202478571D01*
X184189285Y-202478571D01*
X184046428Y-202407142D01*
X183975000Y-202335714D01*
X185475000Y-202335714D02*
X185546428Y-202407142D01*
X185475000Y-202478571D01*
X185403571Y-202407142D01*
X185475000Y-202335714D01*
X185475000Y-202478571D01*
X186475000Y-200978571D02*
X186617857Y-200978571D01*
X186760714Y-201050000D01*
X186832142Y-201121428D01*
X186903571Y-201264285D01*
X186975000Y-201550000D01*
X186975000Y-201907142D01*
X186903571Y-202192857D01*
X186832142Y-202335714D01*
X186760714Y-202407142D01*
X186617857Y-202478571D01*
X186475000Y-202478571D01*
X186332142Y-202407142D01*
X186260714Y-202335714D01*
X186189285Y-202192857D01*
X186117857Y-201907142D01*
X186117857Y-201550000D01*
X186189285Y-201264285D01*
X186260714Y-201121428D01*
X186332142Y-201050000D01*
X186475000Y-200978571D01*
X187617857Y-202335714D02*
X187689285Y-202407142D01*
X187617857Y-202478571D01*
X187546428Y-202407142D01*
X187617857Y-202335714D01*
X187617857Y-202478571D01*
X188260714Y-201121428D02*
X188332142Y-201050000D01*
X188475000Y-200978571D01*
X188832142Y-200978571D01*
X188975000Y-201050000D01*
X189046428Y-201121428D01*
X189117857Y-201264285D01*
X189117857Y-201407142D01*
X189046428Y-201621428D01*
X188189285Y-202478571D01*
X189117857Y-202478571D01*
X189760714Y-201907142D02*
X190903571Y-201907142D01*
X191617857Y-202478571D02*
X191617857Y-200978571D01*
X191617857Y-201550000D02*
X191760714Y-201478571D01*
X192046428Y-201478571D01*
X192189285Y-201550000D01*
X192260714Y-201621428D01*
X192332142Y-201764285D01*
X192332142Y-202192857D01*
X192260714Y-202335714D01*
X192189285Y-202407142D01*
X192046428Y-202478571D01*
X191760714Y-202478571D01*
X191617857Y-202407142D01*
X193546428Y-202407142D02*
X193403571Y-202478571D01*
X193117857Y-202478571D01*
X192975000Y-202407142D01*
X192903571Y-202264285D01*
X192903571Y-201692857D01*
X192975000Y-201550000D01*
X193117857Y-201478571D01*
X193403571Y-201478571D01*
X193546428Y-201550000D01*
X193617857Y-201692857D01*
X193617857Y-201835714D01*
X192903571Y-201978571D01*
X194832142Y-202407142D02*
X194689285Y-202478571D01*
X194403571Y-202478571D01*
X194260714Y-202407142D01*
X194189285Y-202264285D01*
X194189285Y-201692857D01*
X194260714Y-201550000D01*
X194403571Y-201478571D01*
X194689285Y-201478571D01*
X194832142Y-201550000D01*
X194903571Y-201692857D01*
X194903571Y-201835714D01*
X194189285Y-201978571D01*
X195403571Y-200978571D02*
X196403571Y-200978571D01*
X195760714Y-202478571D01*
X197617857Y-200978571D02*
X197332142Y-200978571D01*
X197189285Y-201050000D01*
X197117857Y-201121428D01*
X196975000Y-201335714D01*
X196903571Y-201621428D01*
X196903571Y-202192857D01*
X196975000Y-202335714D01*
X197046428Y-202407142D01*
X197189285Y-202478571D01*
X197475000Y-202478571D01*
X197617857Y-202407142D01*
X197689285Y-202335714D01*
X197760714Y-202192857D01*
X197760714Y-201835714D01*
X197689285Y-201692857D01*
X197617857Y-201621428D01*
X197475000Y-201550000D01*
X197189285Y-201550000D01*
X197046428Y-201621428D01*
X196975000Y-201692857D01*
X196903571Y-201835714D01*
X199046428Y-202478571D02*
X199046428Y-201692857D01*
X198975000Y-201550000D01*
X198832142Y-201478571D01*
X198546428Y-201478571D01*
X198403571Y-201550000D01*
X199046428Y-202407142D02*
X198903571Y-202478571D01*
X198546428Y-202478571D01*
X198403571Y-202407142D01*
X198332142Y-202264285D01*
X198332142Y-202121428D01*
X198403571Y-201978571D01*
X198546428Y-201907142D01*
X198903571Y-201907142D01*
X199046428Y-201835714D01*
X200046428Y-200978571D02*
X200189285Y-200978571D01*
X200332142Y-201050000D01*
X200403571Y-201121428D01*
X200475000Y-201264285D01*
X200546428Y-201550000D01*
X200546428Y-201907142D01*
X200475000Y-202192857D01*
X200403571Y-202335714D01*
X200332142Y-202407142D01*
X200189285Y-202478571D01*
X200046428Y-202478571D01*
X199903571Y-202407142D01*
X199832142Y-202335714D01*
X199760714Y-202192857D01*
X199689285Y-201907142D01*
X199689285Y-201550000D01*
X199760714Y-201264285D01*
X199832142Y-201121428D01*
X199903571Y-201050000D01*
X200046428Y-200978571D01*
X200832142Y-200570000D02*
X202260714Y-200570000D01*
X201046428Y-200978571D02*
X202046428Y-200978571D01*
X201403571Y-202478571D01*
X202260714Y-200570000D02*
X203689285Y-200570000D01*
X202903571Y-200978571D02*
X203046428Y-200978571D01*
X203189285Y-201050000D01*
X203260714Y-201121428D01*
X203332142Y-201264285D01*
X203403571Y-201550000D01*
X203403571Y-201907142D01*
X203332142Y-202192857D01*
X203260714Y-202335714D01*
X203189285Y-202407142D01*
X203046428Y-202478571D01*
X202903571Y-202478571D01*
X202760714Y-202407142D01*
X202689285Y-202335714D01*
X202617857Y-202192857D01*
X202546428Y-201907142D01*
X202546428Y-201550000D01*
X202617857Y-201264285D01*
X202689285Y-201121428D01*
X202760714Y-201050000D01*
X202903571Y-200978571D01*
X204689285Y-201478571D02*
X204689285Y-202478571D01*
X204046428Y-201478571D02*
X204046428Y-202264285D01*
X204117857Y-202407142D01*
X204260714Y-202478571D01*
X204475000Y-202478571D01*
X204617857Y-202407142D01*
X204689285Y-202335714D01*
X205403571Y-202478571D02*
X205403571Y-200978571D01*
X205403571Y-201550000D02*
X205546428Y-201478571D01*
X205832142Y-201478571D01*
X205975000Y-201550000D01*
X206046428Y-201621428D01*
X206117857Y-201764285D01*
X206117857Y-202192857D01*
X206046428Y-202335714D01*
X205975000Y-202407142D01*
X205832142Y-202478571D01*
X205546428Y-202478571D01*
X205403571Y-202407142D01*
X207403571Y-201478571D02*
X207403571Y-202478571D01*
X206760714Y-201478571D02*
X206760714Y-202264285D01*
X206832142Y-202407142D01*
X206975000Y-202478571D01*
X207189285Y-202478571D01*
X207332142Y-202407142D01*
X207403571Y-202335714D01*
X208117857Y-201478571D02*
X208117857Y-202478571D01*
X208117857Y-201621428D02*
X208189285Y-201550000D01*
X208332142Y-201478571D01*
X208546428Y-201478571D01*
X208689285Y-201550000D01*
X208760714Y-201692857D01*
X208760714Y-202478571D01*
X209260714Y-201478571D02*
X209832142Y-201478571D01*
X209475000Y-200978571D02*
X209475000Y-202264285D01*
X209546428Y-202407142D01*
X209689285Y-202478571D01*
X209832142Y-202478571D01*
X210975000Y-201478571D02*
X210975000Y-202478571D01*
X210332142Y-201478571D02*
X210332142Y-202264285D01*
X210403571Y-202407142D01*
X210546428Y-202478571D01*
X210760714Y-202478571D01*
X210903571Y-202407142D01*
X210975000Y-202335714D01*
X212475000Y-202478571D02*
X211617857Y-202478571D01*
X212046428Y-202478571D02*
X212046428Y-200978571D01*
X211903571Y-201192857D01*
X211760714Y-201335714D01*
X211617857Y-201407142D01*
X213760714Y-200978571D02*
X213475000Y-200978571D01*
X213332142Y-201050000D01*
X213260714Y-201121428D01*
X213117857Y-201335714D01*
X213046428Y-201621428D01*
X213046428Y-202192857D01*
X213117857Y-202335714D01*
X213189285Y-202407142D01*
X213332142Y-202478571D01*
X213617857Y-202478571D01*
X213760714Y-202407142D01*
X213832142Y-202335714D01*
X213903571Y-202192857D01*
X213903571Y-201835714D01*
X213832142Y-201692857D01*
X213760714Y-201621428D01*
X213617857Y-201550000D01*
X213332142Y-201550000D01*
X213189285Y-201621428D01*
X213117857Y-201692857D01*
X213046428Y-201835714D01*
X214546428Y-202335714D02*
X214617857Y-202407142D01*
X214546428Y-202478571D01*
X214475000Y-202407142D01*
X214546428Y-202335714D01*
X214546428Y-202478571D01*
X215546428Y-200978571D02*
X215689285Y-200978571D01*
X215832142Y-201050000D01*
X215903571Y-201121428D01*
X215975000Y-201264285D01*
X216046428Y-201550000D01*
X216046428Y-201907142D01*
X215975000Y-202192857D01*
X215903571Y-202335714D01*
X215832142Y-202407142D01*
X215689285Y-202478571D01*
X215546428Y-202478571D01*
X215403571Y-202407142D01*
X215332142Y-202335714D01*
X215260714Y-202192857D01*
X215189285Y-201907142D01*
X215189285Y-201550000D01*
X215260714Y-201264285D01*
X215332142Y-201121428D01*
X215403571Y-201050000D01*
X215546428Y-200978571D01*
X217332142Y-201478571D02*
X217332142Y-202478571D01*
X216975000Y-200907142D02*
X216617857Y-201978571D01*
X217546428Y-201978571D01*
X218117857Y-202335714D02*
X218189285Y-202407142D01*
X218117857Y-202478571D01*
X218046428Y-202407142D01*
X218117857Y-202335714D01*
X218117857Y-202478571D01*
X219617857Y-202478571D02*
X218760714Y-202478571D01*
X219189285Y-202478571D02*
X219189285Y-200978571D01*
X219046428Y-201192857D01*
X218903571Y-201335714D01*
X218760714Y-201407142D01*
D10*
D11*
X159400000Y-197400000D02*
X267400000Y-197400000D01*
D10*
D12*
X246809285Y-199678571D02*
X246309285Y-198964285D01*
X245952142Y-199678571D02*
X245952142Y-198178571D01*
X246523571Y-198178571D01*
X246666428Y-198250000D01*
X246737857Y-198321428D01*
X246809285Y-198464285D01*
X246809285Y-198678571D01*
X246737857Y-198821428D01*
X246666428Y-198892857D01*
X246523571Y-198964285D01*
X245952142Y-198964285D01*
X248023571Y-199607142D02*
X247880714Y-199678571D01*
X247595000Y-199678571D01*
X247452142Y-199607142D01*
X247380714Y-199464285D01*
X247380714Y-198892857D01*
X247452142Y-198750000D01*
X247595000Y-198678571D01*
X247880714Y-198678571D01*
X248023571Y-198750000D01*
X248095000Y-198892857D01*
X248095000Y-199035714D01*
X247380714Y-199178571D01*
X248595000Y-198678571D02*
X248952142Y-199678571D01*
X249309285Y-198678571D01*
X249880714Y-199535714D02*
X249952142Y-199607142D01*
X249880714Y-199678571D01*
X249809285Y-199607142D01*
X249880714Y-199535714D01*
X249880714Y-199678571D01*
X249880714Y-198750000D02*
X249952142Y-198821428D01*
X249880714Y-198892857D01*
X249809285Y-198821428D01*
X249880714Y-198750000D01*
X249880714Y-198892857D01*
D10*
D11*
X160760714Y-199607142D02*
X160975000Y-199678571D01*
X161332142Y-199678571D01*
X161475000Y-199607142D01*
X161546428Y-199535714D01*
X161617857Y-199392857D01*
X161617857Y-199250000D01*
X161546428Y-199107142D01*
X161475000Y-199035714D01*
X161332142Y-198964285D01*
X161046428Y-198892857D01*
X160903571Y-198821428D01*
X160832142Y-198750000D01*
X160760714Y-198607142D01*
X160760714Y-198464285D01*
X160832142Y-198321428D01*
X160903571Y-198250000D01*
X161046428Y-198178571D01*
X161403571Y-198178571D01*
X161617857Y-198250000D01*
X162260714Y-199678571D02*
X162260714Y-198678571D01*
X162260714Y-198178571D02*
X162189285Y-198250000D01*
X162260714Y-198321428D01*
X162332142Y-198250000D01*
X162260714Y-198178571D01*
X162260714Y-198321428D01*
X162832142Y-198678571D02*
X163617857Y-198678571D01*
X162832142Y-199678571D01*
X163617857Y-199678571D01*
X164760714Y-199607142D02*
X164617857Y-199678571D01*
X164332142Y-199678571D01*
X164189285Y-199607142D01*
X164117857Y-199464285D01*
X164117857Y-198892857D01*
X164189285Y-198750000D01*
X164332142Y-198678571D01*
X164617857Y-198678571D01*
X164760714Y-198750000D01*
X164832142Y-198892857D01*
X164832142Y-199035714D01*
X164117857Y-199178571D01*
X165475000Y-199535714D02*
X165546428Y-199607142D01*
X165475000Y-199678571D01*
X165403571Y-199607142D01*
X165475000Y-199535714D01*
X165475000Y-199678571D01*
X165475000Y-198750000D02*
X165546428Y-198821428D01*
X165475000Y-198892857D01*
X165403571Y-198821428D01*
X165475000Y-198750000D01*
X165475000Y-198892857D01*
X167260714Y-199250000D02*
X167975000Y-199250000D01*
X167117857Y-199678571D02*
X167617857Y-198178571D01*
X168117857Y-199678571D01*
D10*
D11*
X245832142Y-202478571D02*
X245832142Y-200978571D01*
X247189285Y-202478571D02*
X247189285Y-200978571D01*
X247189285Y-202407142D02*
X247046428Y-202478571D01*
X246760714Y-202478571D01*
X246617857Y-202407142D01*
X246546428Y-202335714D01*
X246475000Y-202192857D01*
X246475000Y-201764285D01*
X246546428Y-201621428D01*
X246617857Y-201550000D01*
X246760714Y-201478571D01*
X247046428Y-201478571D01*
X247189285Y-201550000D01*
X247903571Y-202335714D02*
X247975000Y-202407142D01*
X247903571Y-202478571D01*
X247832142Y-202407142D01*
X247903571Y-202335714D01*
X247903571Y-202478571D01*
X247903571Y-201550000D02*
X247975000Y-201621428D01*
X247903571Y-201692857D01*
X247832142Y-201621428D01*
X247903571Y-201550000D01*
X247903571Y-201692857D01*
X250546428Y-202478571D02*
X249689285Y-202478571D01*
X250117857Y-202478571D02*
X250117857Y-200978571D01*
X249975000Y-201192857D01*
X249832142Y-201335714D01*
X249689285Y-201407142D01*
X252260714Y-200907142D02*
X250975000Y-202835714D01*
X253546428Y-202478571D02*
X252689285Y-202478571D01*
X253117857Y-202478571D02*
X253117857Y-200978571D01*
X252975000Y-201192857D01*
X252832142Y-201335714D01*
X252689285Y-201407142D01*
D10*
D11*
X159400000Y-193400000D02*
X267400000Y-193400000D01*
D10*
D13*
X161112380Y-194104761D02*
X162255238Y-194104761D01*
X161433809Y-196104761D02*
X161683809Y-194104761D01*
X162671904Y-196104761D02*
X162838571Y-194771428D01*
X162921904Y-194104761D02*
X162814761Y-194200000D01*
X162898095Y-194295238D01*
X163005238Y-194200000D01*
X162921904Y-194104761D01*
X162898095Y-194295238D01*
X163505238Y-194771428D02*
X164267142Y-194771428D01*
X163874285Y-194104761D02*
X163660000Y-195819047D01*
X163731428Y-196009523D01*
X163910000Y-196104761D01*
X164100476Y-196104761D01*
X165052857Y-196104761D02*
X164874285Y-196009523D01*
X164802857Y-195819047D01*
X165017142Y-194104761D01*
X166588571Y-196009523D02*
X166386190Y-196104761D01*
X166005238Y-196104761D01*
X165826666Y-196009523D01*
X165755238Y-195819047D01*
X165850476Y-195057142D01*
X165969523Y-194866666D01*
X166171904Y-194771428D01*
X166552857Y-194771428D01*
X166731428Y-194866666D01*
X166802857Y-195057142D01*
X166779047Y-195247619D01*
X165802857Y-195438095D01*
X167552857Y-195914285D02*
X167636190Y-196009523D01*
X167529047Y-196104761D01*
X167445714Y-196009523D01*
X167552857Y-195914285D01*
X167529047Y-196104761D01*
X167683809Y-194866666D02*
X167767142Y-194961904D01*
X167660000Y-195057142D01*
X167576666Y-194961904D01*
X167683809Y-194866666D01*
X167660000Y-195057142D01*
D10*
D11*
X161332142Y-191492857D02*
X160832142Y-191492857D01*
X160832142Y-192278571D02*
X160832142Y-190778571D01*
X161546428Y-190778571D01*
X162117857Y-192278571D02*
X162117857Y-191278571D01*
X162117857Y-190778571D02*
X162046428Y-190850000D01*
X162117857Y-190921428D01*
X162189285Y-190850000D01*
X162117857Y-190778571D01*
X162117857Y-190921428D01*
X163046428Y-192278571D02*
X162903571Y-192207142D01*
X162832142Y-192064285D01*
X162832142Y-190778571D01*
X164189285Y-192207142D02*
X164046428Y-192278571D01*
X163760714Y-192278571D01*
X163617857Y-192207142D01*
X163546428Y-192064285D01*
X163546428Y-191492857D01*
X163617857Y-191350000D01*
X163760714Y-191278571D01*
X164046428Y-191278571D01*
X164189285Y-191350000D01*
X164260714Y-191492857D01*
X164260714Y-191635714D01*
X163546428Y-191778571D01*
X164903571Y-192135714D02*
X164975000Y-192207142D01*
X164903571Y-192278571D01*
X164832142Y-192207142D01*
X164903571Y-192135714D01*
X164903571Y-192278571D01*
X164903571Y-191350000D02*
X164975000Y-191421428D01*
X164903571Y-191492857D01*
X164832142Y-191421428D01*
X164903571Y-191350000D01*
X164903571Y-191492857D01*
X166760714Y-192278571D02*
X166760714Y-190778571D01*
X166760714Y-191492857D02*
X167617857Y-191492857D01*
X167617857Y-192278571D02*
X167617857Y-190778571D01*
X168975000Y-191278571D02*
X168975000Y-192278571D01*
X168332142Y-191278571D02*
X168332142Y-192064285D01*
X168403571Y-192207142D01*
X168546428Y-192278571D01*
X168760714Y-192278571D01*
X168903571Y-192207142D01*
X168975000Y-192135714D01*
X169617857Y-192207142D02*
X169760714Y-192278571D01*
X170046428Y-192278571D01*
X170189285Y-192207142D01*
X170260714Y-192064285D01*
X170260714Y-191992857D01*
X170189285Y-191850000D01*
X170046428Y-191778571D01*
X169832142Y-191778571D01*
X169689285Y-191707142D01*
X169617857Y-191564285D01*
X169617857Y-191492857D01*
X169689285Y-191350000D01*
X169832142Y-191278571D01*
X170046428Y-191278571D01*
X170189285Y-191350000D01*
X170903571Y-192278571D02*
X170903571Y-190778571D01*
X171046428Y-191707142D02*
X171475000Y-192278571D01*
X171475000Y-191278571D02*
X170903571Y-191850000D01*
X171975000Y-191278571D02*
X172332142Y-192278571D01*
X172689285Y-191278571D02*
X172332142Y-192278571D01*
X172189285Y-192635714D01*
X172117857Y-192707142D01*
X171975000Y-192778571D01*
X173189285Y-191850000D02*
X173903571Y-191850000D01*
X173046428Y-192278571D02*
X173546428Y-190778571D01*
X174046428Y-192278571D01*
X175332142Y-192278571D02*
X174475000Y-192278571D01*
X174903571Y-192278571D02*
X174903571Y-190778571D01*
X174760714Y-190992857D01*
X174617857Y-191135714D01*
X174475000Y-191207142D01*
X176260714Y-190778571D02*
X176403571Y-190778571D01*
X176546428Y-190850000D01*
X176617857Y-190921428D01*
X176689285Y-191064285D01*
X176760714Y-191350000D01*
X176760714Y-191707142D01*
X176689285Y-191992857D01*
X176617857Y-192135714D01*
X176546428Y-192207142D01*
X176403571Y-192278571D01*
X176260714Y-192278571D01*
X176117857Y-192207142D01*
X176046428Y-192135714D01*
X175975000Y-191992857D01*
X175903571Y-191707142D01*
X175903571Y-191350000D01*
X175975000Y-191064285D01*
X176046428Y-190921428D01*
X176117857Y-190850000D01*
X176260714Y-190778571D01*
X177689285Y-190778571D02*
X177832142Y-190778571D01*
X177975000Y-190850000D01*
X178046428Y-190921428D01*
X178117857Y-191064285D01*
X178189285Y-191350000D01*
X178189285Y-191707142D01*
X178117857Y-191992857D01*
X178046428Y-192135714D01*
X177975000Y-192207142D01*
X177832142Y-192278571D01*
X177689285Y-192278571D01*
X177546428Y-192207142D01*
X177475000Y-192135714D01*
X177403571Y-191992857D01*
X177332142Y-191707142D01*
X177332142Y-191350000D01*
X177403571Y-191064285D01*
X177475000Y-190921428D01*
X177546428Y-190850000D01*
X177689285Y-190778571D01*
X178475000Y-192421428D02*
X179617857Y-192421428D01*
X179975000Y-192278571D02*
X179975000Y-190778571D01*
X180832142Y-192278571D01*
X180832142Y-190778571D01*
X182189285Y-191278571D02*
X182189285Y-192278571D01*
X181546428Y-191278571D02*
X181546428Y-192064285D01*
X181617857Y-192207142D01*
X181760714Y-192278571D01*
X181975000Y-192278571D01*
X182117857Y-192207142D01*
X182189285Y-192135714D01*
X183546428Y-192207142D02*
X183403571Y-192278571D01*
X183117857Y-192278571D01*
X182975000Y-192207142D01*
X182903571Y-192135714D01*
X182832142Y-191992857D01*
X182832142Y-191564285D01*
X182903571Y-191421428D01*
X182975000Y-191350000D01*
X183117857Y-191278571D01*
X183403571Y-191278571D01*
X183546428Y-191350000D01*
X184403571Y-192278571D02*
X184260714Y-192207142D01*
X184189285Y-192064285D01*
X184189285Y-190778571D01*
X185546428Y-192207142D02*
X185403571Y-192278571D01*
X185117857Y-192278571D01*
X184975000Y-192207142D01*
X184903571Y-192064285D01*
X184903571Y-191492857D01*
X184975000Y-191350000D01*
X185117857Y-191278571D01*
X185403571Y-191278571D01*
X185546428Y-191350000D01*
X185617857Y-191492857D01*
X185617857Y-191635714D01*
X184903571Y-191778571D01*
X186475000Y-192278571D02*
X186332142Y-192207142D01*
X186260714Y-192135714D01*
X186189285Y-191992857D01*
X186189285Y-191564285D01*
X186260714Y-191421428D01*
X186332142Y-191350000D01*
X186475000Y-191278571D01*
X186689285Y-191278571D01*
X186832142Y-191350000D01*
X186903571Y-191421428D01*
X186975000Y-191564285D01*
X186975000Y-191992857D01*
X186903571Y-192135714D01*
X186832142Y-192207142D01*
X186689285Y-192278571D01*
X186475000Y-192278571D01*
X187260714Y-192421428D02*
X188403571Y-192421428D01*
X188689285Y-192207142D02*
X188903571Y-192278571D01*
X189260714Y-192278571D01*
X189403571Y-192207142D01*
X189475000Y-192135714D01*
X189546428Y-191992857D01*
X189546428Y-191850000D01*
X189475000Y-191707142D01*
X189403571Y-191635714D01*
X189260714Y-191564285D01*
X188975000Y-191492857D01*
X188832142Y-191421428D01*
X188760714Y-191350000D01*
X188689285Y-191207142D01*
X188689285Y-191064285D01*
X188760714Y-190921428D01*
X188832142Y-190850000D01*
X188975000Y-190778571D01*
X189332142Y-190778571D01*
X189546428Y-190850000D01*
X190189285Y-192278571D02*
X190189285Y-190778571D01*
X190832142Y-192278571D02*
X190832142Y-191492857D01*
X190760714Y-191350000D01*
X190617857Y-191278571D01*
X190403571Y-191278571D01*
X190260714Y-191350000D01*
X190189285Y-191421428D01*
X191546428Y-192278571D02*
X191546428Y-191278571D01*
X191546428Y-190778571D02*
X191475000Y-190850000D01*
X191546428Y-190921428D01*
X191617857Y-190850000D01*
X191546428Y-190778571D01*
X191546428Y-190921428D01*
X192832142Y-192207142D02*
X192689285Y-192278571D01*
X192403571Y-192278571D01*
X192260714Y-192207142D01*
X192189285Y-192064285D01*
X192189285Y-191492857D01*
X192260714Y-191350000D01*
X192403571Y-191278571D01*
X192689285Y-191278571D01*
X192832142Y-191350000D01*
X192903571Y-191492857D01*
X192903571Y-191635714D01*
X192189285Y-191778571D01*
X193760714Y-192278571D02*
X193617857Y-192207142D01*
X193546428Y-192064285D01*
X193546428Y-190778571D01*
X194975000Y-192278571D02*
X194975000Y-190778571D01*
X194975000Y-192207142D02*
X194832142Y-192278571D01*
X194546428Y-192278571D01*
X194403571Y-192207142D01*
X194332142Y-192135714D01*
X194260714Y-191992857D01*
X194260714Y-191564285D01*
X194332142Y-191421428D01*
X194403571Y-191350000D01*
X194546428Y-191278571D01*
X194832142Y-191278571D01*
X194975000Y-191350000D01*
X195689285Y-192135714D02*
X195760714Y-192207142D01*
X195689285Y-192278571D01*
X195617857Y-192207142D01*
X195689285Y-192135714D01*
X195689285Y-192278571D01*
X196403571Y-192278571D02*
X196403571Y-190778571D01*
X196546428Y-191707142D02*
X196975000Y-192278571D01*
X196975000Y-191278571D02*
X196403571Y-191850000D01*
X197617857Y-192278571D02*
X197617857Y-191278571D01*
X197617857Y-190778571D02*
X197546428Y-190850000D01*
X197617857Y-190921428D01*
X197689285Y-190850000D01*
X197617857Y-190778571D01*
X197617857Y-190921428D01*
X198975000Y-192207142D02*
X198832142Y-192278571D01*
X198546428Y-192278571D01*
X198403571Y-192207142D01*
X198332142Y-192135714D01*
X198260714Y-191992857D01*
X198260714Y-191564285D01*
X198332142Y-191421428D01*
X198403571Y-191350000D01*
X198546428Y-191278571D01*
X198832142Y-191278571D01*
X198975000Y-191350000D01*
X200260714Y-192278571D02*
X200260714Y-191492857D01*
X200189285Y-191350000D01*
X200046428Y-191278571D01*
X199760714Y-191278571D01*
X199617857Y-191350000D01*
X200260714Y-192207142D02*
X200117857Y-192278571D01*
X199760714Y-192278571D01*
X199617857Y-192207142D01*
X199546428Y-192064285D01*
X199546428Y-191921428D01*
X199617857Y-191778571D01*
X199760714Y-191707142D01*
X200117857Y-191707142D01*
X200260714Y-191635714D01*
X201617857Y-192278571D02*
X201617857Y-190778571D01*
X201617857Y-192207142D02*
X201475000Y-192278571D01*
X201189285Y-192278571D01*
X201046428Y-192207142D01*
X200975000Y-192135714D01*
X200903571Y-191992857D01*
X200903571Y-191564285D01*
X200975000Y-191421428D01*
X201046428Y-191350000D01*
X201189285Y-191278571D01*
X201475000Y-191278571D01*
X201617857Y-191350000D01*
X201975000Y-192421428D02*
X203117857Y-192421428D01*
X203475000Y-191278571D02*
X203475000Y-192778571D01*
X203475000Y-191350000D02*
X203617857Y-191278571D01*
X203903571Y-191278571D01*
X204046428Y-191350000D01*
X204117857Y-191421428D01*
X204189285Y-191564285D01*
X204189285Y-191992857D01*
X204117857Y-192135714D01*
X204046428Y-192207142D01*
X203903571Y-192278571D01*
X203617857Y-192278571D01*
X203475000Y-192207142D01*
X205475000Y-192207142D02*
X205332142Y-192278571D01*
X205046428Y-192278571D01*
X204903571Y-192207142D01*
X204832142Y-192135714D01*
X204760714Y-191992857D01*
X204760714Y-191564285D01*
X204832142Y-191421428D01*
X204903571Y-191350000D01*
X205046428Y-191278571D01*
X205332142Y-191278571D01*
X205475000Y-191350000D01*
X206117857Y-192278571D02*
X206117857Y-190778571D01*
X206117857Y-191350000D02*
X206260714Y-191278571D01*
X206546428Y-191278571D01*
X206689285Y-191350000D01*
X206760714Y-191421428D01*
X206832142Y-191564285D01*
X206832142Y-191992857D01*
X206760714Y-192135714D01*
X206689285Y-192207142D01*
X206546428Y-192278571D01*
X206260714Y-192278571D01*
X206117857Y-192207142D01*
D10*
D11*
X159400000Y-187400000D02*
X267400000Y-187400000D01*
D10*
D11*
X160760714Y-189507142D02*
X160975000Y-189578571D01*
X161332142Y-189578571D01*
X161475000Y-189507142D01*
X161546428Y-189435714D01*
X161617857Y-189292857D01*
X161617857Y-189150000D01*
X161546428Y-189007142D01*
X161475000Y-188935714D01*
X161332142Y-188864285D01*
X161046428Y-188792857D01*
X160903571Y-188721428D01*
X160832142Y-188650000D01*
X160760714Y-188507142D01*
X160760714Y-188364285D01*
X160832142Y-188221428D01*
X160903571Y-188150000D01*
X161046428Y-188078571D01*
X161403571Y-188078571D01*
X161617857Y-188150000D01*
X162260714Y-189578571D02*
X162260714Y-188078571D01*
X162903571Y-189578571D02*
X162903571Y-188792857D01*
X162832142Y-188650000D01*
X162689285Y-188578571D01*
X162475000Y-188578571D01*
X162332142Y-188650000D01*
X162260714Y-188721428D01*
X164189285Y-189507142D02*
X164046428Y-189578571D01*
X163760714Y-189578571D01*
X163617857Y-189507142D01*
X163546428Y-189364285D01*
X163546428Y-188792857D01*
X163617857Y-188650000D01*
X163760714Y-188578571D01*
X164046428Y-188578571D01*
X164189285Y-188650000D01*
X164260714Y-188792857D01*
X164260714Y-188935714D01*
X163546428Y-189078571D01*
X165475000Y-189507142D02*
X165332142Y-189578571D01*
X165046428Y-189578571D01*
X164903571Y-189507142D01*
X164832142Y-189364285D01*
X164832142Y-188792857D01*
X164903571Y-188650000D01*
X165046428Y-188578571D01*
X165332142Y-188578571D01*
X165475000Y-188650000D01*
X165546428Y-188792857D01*
X165546428Y-188935714D01*
X164832142Y-189078571D01*
X165975000Y-188578571D02*
X166546428Y-188578571D01*
X166189285Y-188078571D02*
X166189285Y-189364285D01*
X166260714Y-189507142D01*
X166403571Y-189578571D01*
X166546428Y-189578571D01*
X167046428Y-189435714D02*
X167117857Y-189507142D01*
X167046428Y-189578571D01*
X166975000Y-189507142D01*
X167046428Y-189435714D01*
X167046428Y-189578571D01*
X167046428Y-188650000D02*
X167117857Y-188721428D01*
X167046428Y-188792857D01*
X166975000Y-188721428D01*
X167046428Y-188650000D01*
X167046428Y-188792857D01*
D10*
D11*
X179400000Y-197400000D02*
X179400000Y-200400000D01*
D10*
D11*
X243400000Y-197400000D02*
X243400000Y-203900000D01*
D10*
G36*
X102733352Y-116730743D02*
X102878941Y-116791048D01*
X103009973Y-116878601D01*
X103121399Y-116990027D01*
X103208952Y-117121059D01*
X103269257Y-117266648D01*
X103300000Y-117421205D01*
X103300000Y-117578795D01*
X103269257Y-117733352D01*
X103208952Y-117878941D01*
X103121399Y-118009973D01*
X103009973Y-118121399D01*
X102878941Y-118208952D01*
X102733352Y-118269257D01*
X102578795Y-118300000D01*
X102421205Y-118300000D01*
X102266648Y-118269257D01*
X102121059Y-118208952D01*
X101990027Y-118121399D01*
X101878601Y-118009973D01*
X101791048Y-117878941D01*
X101730743Y-117733352D01*
X101700000Y-117578795D01*
X101700000Y-117421205D01*
X101730743Y-117266648D01*
X101791048Y-117121059D01*
X101878601Y-116990027D01*
X101990027Y-116878601D01*
X102121059Y-116791048D01*
X102266648Y-116730743D01*
X102421205Y-116700000D01*
X102578795Y-116700000D01*
X102733352Y-116730743D01*
X102733352Y-116730743D01*
G37*
G36*
X97733352Y-116730743D02*
X97878941Y-116791048D01*
X98009973Y-116878601D01*
X98121399Y-116990027D01*
X98208952Y-117121059D01*
X98269257Y-117266648D01*
X98300000Y-117421205D01*
X98300000Y-117578795D01*
X98269257Y-117733352D01*
X98208952Y-117878941D01*
X98121399Y-118009973D01*
X98009973Y-118121399D01*
X97878941Y-118208952D01*
X97733352Y-118269257D01*
X97578795Y-118300000D01*
X97421205Y-118300000D01*
X97266648Y-118269257D01*
X97121059Y-118208952D01*
X96990027Y-118121399D01*
X96878601Y-118009973D01*
X96791048Y-117878941D01*
X96730743Y-117733352D01*
X96700000Y-117578795D01*
X96700000Y-117421205D01*
X96730743Y-117266648D01*
X96791048Y-117121059D01*
X96878601Y-116990027D01*
X96990027Y-116878601D01*
X97121059Y-116791048D01*
X97266648Y-116730743D01*
X97421205Y-116700000D01*
X97578795Y-116700000D01*
X97733352Y-116730743D01*
X97733352Y-116730743D01*
G37*
G36*
X95233352Y-116730743D02*
X95378941Y-116791048D01*
X95509973Y-116878601D01*
X95621399Y-116990027D01*
X95708952Y-117121059D01*
X95769257Y-117266648D01*
X95800000Y-117421205D01*
X95800000Y-117578795D01*
X95769257Y-117733352D01*
X95708952Y-117878941D01*
X95621399Y-118009973D01*
X95509973Y-118121399D01*
X95378941Y-118208952D01*
X95233352Y-118269257D01*
X95078795Y-118300000D01*
X94921205Y-118300000D01*
X94766648Y-118269257D01*
X94621059Y-118208952D01*
X94490027Y-118121399D01*
X94378601Y-118009973D01*
X94291048Y-117878941D01*
X94230743Y-117733352D01*
X94200000Y-117578795D01*
X94200000Y-117421205D01*
X94230743Y-117266648D01*
X94291048Y-117121059D01*
X94378601Y-116990027D01*
X94490027Y-116878601D01*
X94621059Y-116791048D01*
X94766648Y-116730743D01*
X94921205Y-116700000D01*
X95078795Y-116700000D01*
X95233352Y-116730743D01*
X95233352Y-116730743D01*
G37*
G36*
X100233352Y-116730743D02*
X100378941Y-116791048D01*
X100509973Y-116878601D01*
X100621399Y-116990027D01*
X100708952Y-117121059D01*
X100769257Y-117266648D01*
X100800000Y-117421205D01*
X100800000Y-117578795D01*
X100769257Y-117733352D01*
X100708952Y-117878941D01*
X100621399Y-118009973D01*
X100509973Y-118121399D01*
X100378941Y-118208952D01*
X100233352Y-118269257D01*
X100078795Y-118300000D01*
X99921205Y-118300000D01*
X99766648Y-118269257D01*
X99621059Y-118208952D01*
X99490027Y-118121399D01*
X99378601Y-118009973D01*
X99291048Y-117878941D01*
X99230743Y-117733352D01*
X99200000Y-117578795D01*
X99200000Y-117421205D01*
X99230743Y-117266648D01*
X99291048Y-117121059D01*
X99378601Y-116990027D01*
X99490027Y-116878601D01*
X99621059Y-116791048D01*
X99766648Y-116730743D01*
X99921205Y-116700000D01*
X100078795Y-116700000D01*
X100233352Y-116730743D01*
X100233352Y-116730743D01*
G37*
G36*
X122733352Y-116730743D02*
X122878941Y-116791048D01*
X123009973Y-116878601D01*
X123121399Y-116990027D01*
X123208952Y-117121059D01*
X123269257Y-117266648D01*
X123300000Y-117421205D01*
X123300000Y-117578795D01*
X123269257Y-117733352D01*
X123208952Y-117878941D01*
X123121399Y-118009973D01*
X123009973Y-118121399D01*
X122878941Y-118208952D01*
X122733352Y-118269257D01*
X122578795Y-118300000D01*
X122421205Y-118300000D01*
X122266648Y-118269257D01*
X122121059Y-118208952D01*
X121990027Y-118121399D01*
X121878601Y-118009973D01*
X121791048Y-117878941D01*
X121730743Y-117733352D01*
X121700000Y-117578795D01*
X121700000Y-117421205D01*
X121730743Y-117266648D01*
X121791048Y-117121059D01*
X121878601Y-116990027D01*
X121990027Y-116878601D01*
X122121059Y-116791048D01*
X122266648Y-116730743D01*
X122421205Y-116700000D01*
X122578795Y-116700000D01*
X122733352Y-116730743D01*
X122733352Y-116730743D01*
G37*
G36*
X117733352Y-116730743D02*
X117878941Y-116791048D01*
X118009973Y-116878601D01*
X118121399Y-116990027D01*
X118208952Y-117121059D01*
X118269257Y-117266648D01*
X118300000Y-117421205D01*
X118300000Y-117578795D01*
X118269257Y-117733352D01*
X118208952Y-117878941D01*
X118121399Y-118009973D01*
X118009973Y-118121399D01*
X117878941Y-118208952D01*
X117733352Y-118269257D01*
X117578795Y-118300000D01*
X117421205Y-118300000D01*
X117266648Y-118269257D01*
X117121059Y-118208952D01*
X116990027Y-118121399D01*
X116878601Y-118009973D01*
X116791048Y-117878941D01*
X116730743Y-117733352D01*
X116700000Y-117578795D01*
X116700000Y-117421205D01*
X116730743Y-117266648D01*
X116791048Y-117121059D01*
X116878601Y-116990027D01*
X116990027Y-116878601D01*
X117121059Y-116791048D01*
X117266648Y-116730743D01*
X117421205Y-116700000D01*
X117578795Y-116700000D01*
X117733352Y-116730743D01*
X117733352Y-116730743D01*
G37*
G36*
X120233352Y-116730743D02*
X120378941Y-116791048D01*
X120509973Y-116878601D01*
X120621399Y-116990027D01*
X120708952Y-117121059D01*
X120769257Y-117266648D01*
X120800000Y-117421205D01*
X120800000Y-117578795D01*
X120769257Y-117733352D01*
X120708952Y-117878941D01*
X120621399Y-118009973D01*
X120509973Y-118121399D01*
X120378941Y-118208952D01*
X120233352Y-118269257D01*
X120078795Y-118300000D01*
X119921205Y-118300000D01*
X119766648Y-118269257D01*
X119621059Y-118208952D01*
X119490027Y-118121399D01*
X119378601Y-118009973D01*
X119291048Y-117878941D01*
X119230743Y-117733352D01*
X119200000Y-117578795D01*
X119200000Y-117421205D01*
X119230743Y-117266648D01*
X119291048Y-117121059D01*
X119378601Y-116990027D01*
X119490027Y-116878601D01*
X119621059Y-116791048D01*
X119766648Y-116730743D01*
X119921205Y-116700000D01*
X120078795Y-116700000D01*
X120233352Y-116730743D01*
X120233352Y-116730743D01*
G37*
G36*
X101981434Y-109166080D02*
X102019272Y-109177559D01*
X102054149Y-109196201D01*
X102084715Y-109221285D01*
X102109799Y-109251851D01*
X102128441Y-109286728D01*
X102139920Y-109324566D01*
X102144400Y-109370057D01*
X102144400Y-114657943D01*
X102139920Y-114703434D01*
X102128441Y-114741272D01*
X102109799Y-114776149D01*
X102084715Y-114806715D01*
X102054149Y-114831799D01*
X102019272Y-114850441D01*
X101981434Y-114861920D01*
X101935943Y-114866400D01*
X100248057Y-114866400D01*
X100202566Y-114861920D01*
X100164728Y-114850441D01*
X100129851Y-114831799D01*
X100099285Y-114806715D01*
X100074201Y-114776149D01*
X100055559Y-114741272D01*
X100044080Y-114703434D01*
X100039600Y-114657943D01*
X100039600Y-109370057D01*
X100044080Y-109324566D01*
X100055559Y-109286728D01*
X100074201Y-109251851D01*
X100099285Y-109221285D01*
X100129851Y-109196201D01*
X100164728Y-109177559D01*
X100202566Y-109166080D01*
X100248057Y-109161600D01*
X101935943Y-109161600D01*
X101981434Y-109166080D01*
X101981434Y-109166080D01*
G37*
G36*
X107081434Y-109166080D02*
X107119272Y-109177559D01*
X107154149Y-109196201D01*
X107184715Y-109221285D01*
X107209799Y-109251851D01*
X107228441Y-109286728D01*
X107239920Y-109324566D01*
X107244400Y-109370057D01*
X107244400Y-114657943D01*
X107239920Y-114703434D01*
X107228441Y-114741272D01*
X107209799Y-114776149D01*
X107184715Y-114806715D01*
X107154149Y-114831799D01*
X107119272Y-114850441D01*
X107081434Y-114861920D01*
X107035943Y-114866400D01*
X105348057Y-114866400D01*
X105302566Y-114861920D01*
X105264728Y-114850441D01*
X105229851Y-114831799D01*
X105199285Y-114806715D01*
X105174201Y-114776149D01*
X105155559Y-114741272D01*
X105144080Y-114703434D01*
X105139600Y-114657943D01*
X105139600Y-109370057D01*
X105144080Y-109324566D01*
X105155559Y-109286728D01*
X105174201Y-109251851D01*
X105199285Y-109221285D01*
X105229851Y-109196201D01*
X105264728Y-109177559D01*
X105302566Y-109166080D01*
X105348057Y-109161600D01*
X107035943Y-109161600D01*
X107081434Y-109166080D01*
X107081434Y-109166080D01*
G37*
G36*
X129179434Y-108404080D02*
X129217272Y-108415559D01*
X129252149Y-108434201D01*
X129282715Y-108459285D01*
X129307799Y-108489851D01*
X129326441Y-108524728D01*
X129337920Y-108562566D01*
X129342400Y-108608057D01*
X129342400Y-113895943D01*
X129337920Y-113941434D01*
X129326441Y-113979272D01*
X129307799Y-114014149D01*
X129282715Y-114044715D01*
X129252149Y-114069799D01*
X129217272Y-114088441D01*
X129179434Y-114099920D01*
X129133943Y-114104400D01*
X127446057Y-114104400D01*
X127400566Y-114099920D01*
X127362728Y-114088441D01*
X127327851Y-114069799D01*
X127297285Y-114044715D01*
X127272201Y-114014149D01*
X127253559Y-113979272D01*
X127242080Y-113941434D01*
X127237600Y-113895943D01*
X127237600Y-108608057D01*
X127242080Y-108562566D01*
X127253559Y-108524728D01*
X127272201Y-108489851D01*
X127297285Y-108459285D01*
X127327851Y-108434201D01*
X127362728Y-108415559D01*
X127400566Y-108404080D01*
X127446057Y-108399600D01*
X129133943Y-108399600D01*
X129179434Y-108404080D01*
X129179434Y-108404080D01*
G37*
G36*
X124079434Y-108404080D02*
X124117272Y-108415559D01*
X124152149Y-108434201D01*
X124182715Y-108459285D01*
X124207799Y-108489851D01*
X124226441Y-108524728D01*
X124237920Y-108562566D01*
X124242400Y-108608057D01*
X124242400Y-113895943D01*
X124237920Y-113941434D01*
X124226441Y-113979272D01*
X124207799Y-114014149D01*
X124182715Y-114044715D01*
X124152149Y-114069799D01*
X124117272Y-114088441D01*
X124079434Y-114099920D01*
X124033943Y-114104400D01*
X122346057Y-114104400D01*
X122300566Y-114099920D01*
X122262728Y-114088441D01*
X122227851Y-114069799D01*
X122197285Y-114044715D01*
X122172201Y-114014149D01*
X122153559Y-113979272D01*
X122142080Y-113941434D01*
X122137600Y-113895943D01*
X122137600Y-108608057D01*
X122142080Y-108562566D01*
X122153559Y-108524728D01*
X122172201Y-108489851D01*
X122197285Y-108459285D01*
X122227851Y-108434201D01*
X122262728Y-108415559D01*
X122300566Y-108404080D01*
X122346057Y-108399600D01*
X124033943Y-108399600D01*
X124079434Y-108404080D01*
X124079434Y-108404080D01*
G37*
G36*
X120291434Y-109950080D02*
X120329272Y-109961559D01*
X120364149Y-109980201D01*
X120394715Y-110005285D01*
X120419799Y-110035851D01*
X120438441Y-110070728D01*
X120449920Y-110108566D01*
X120454400Y-110154057D01*
X120454400Y-111841943D01*
X120449920Y-111887434D01*
X120438441Y-111925272D01*
X120419799Y-111960149D01*
X120394715Y-111990715D01*
X120364149Y-112015799D01*
X120329272Y-112034441D01*
X120291434Y-112045920D01*
X120245943Y-112050400D01*
X114958057Y-112050400D01*
X114912566Y-112045920D01*
X114874728Y-112034441D01*
X114839851Y-112015799D01*
X114809285Y-111990715D01*
X114784201Y-111960149D01*
X114765559Y-111925272D01*
X114754080Y-111887434D01*
X114749600Y-111841943D01*
X114749600Y-110154057D01*
X114754080Y-110108566D01*
X114765559Y-110070728D01*
X114784201Y-110035851D01*
X114809285Y-110005285D01*
X114839851Y-109980201D01*
X114874728Y-109961559D01*
X114912566Y-109950080D01*
X114958057Y-109945600D01*
X120245943Y-109945600D01*
X120291434Y-109950080D01*
X120291434Y-109950080D01*
G37*
G36*
X97690287Y-108279464D02*
X97727001Y-108290601D01*
X97760828Y-108308682D01*
X97790482Y-108333018D01*
X97814818Y-108362672D01*
X97832899Y-108396499D01*
X97844036Y-108433213D01*
X97848400Y-108477522D01*
X97848400Y-110352478D01*
X97844036Y-110396787D01*
X97832899Y-110433501D01*
X97814818Y-110467328D01*
X97790482Y-110496982D01*
X97760828Y-110521318D01*
X97727001Y-110539399D01*
X97690287Y-110550536D01*
X97645978Y-110554900D01*
X92346022Y-110554900D01*
X92301713Y-110550536D01*
X92264999Y-110539399D01*
X92231172Y-110521318D01*
X92201518Y-110496982D01*
X92177182Y-110467328D01*
X92159101Y-110433501D01*
X92147964Y-110396787D01*
X92143600Y-110352478D01*
X92143600Y-108477522D01*
X92147964Y-108433213D01*
X92159101Y-108396499D01*
X92177182Y-108362672D01*
X92201518Y-108333018D01*
X92231172Y-108308682D01*
X92264999Y-108290601D01*
X92301713Y-108279464D01*
X92346022Y-108275100D01*
X97645978Y-108275100D01*
X97690287Y-108279464D01*
X97690287Y-108279464D01*
G37*
G36*
X133816703Y-105141486D02*
X134107883Y-105262097D01*
X134369944Y-105437201D01*
X134592799Y-105660056D01*
X134767903Y-105922117D01*
X134888514Y-106213297D01*
X134950000Y-106522412D01*
X134950000Y-106837588D01*
X134888514Y-107146703D01*
X134767903Y-107437883D01*
X134592799Y-107699944D01*
X134369944Y-107922799D01*
X134107883Y-108097903D01*
X133816703Y-108218514D01*
X133507588Y-108280000D01*
X133192412Y-108280000D01*
X132883297Y-108218514D01*
X132592117Y-108097903D01*
X132330056Y-107922799D01*
X132107201Y-107699944D01*
X131932097Y-107437883D01*
X131811486Y-107146703D01*
X131750000Y-106837588D01*
X131750000Y-106522412D01*
X131811486Y-106213297D01*
X131932097Y-105922117D01*
X132107201Y-105660056D01*
X132330056Y-105437201D01*
X132592117Y-105262097D01*
X132883297Y-105141486D01*
X133192412Y-105080000D01*
X133507588Y-105080000D01*
X133816703Y-105141486D01*
X133816703Y-105141486D01*
G37*
G36*
X88096703Y-105141486D02*
X88387883Y-105262097D01*
X88649944Y-105437201D01*
X88872799Y-105660056D01*
X89047903Y-105922117D01*
X89168514Y-106213297D01*
X89230000Y-106522412D01*
X89230000Y-106837588D01*
X89168514Y-107146703D01*
X89047903Y-107437883D01*
X88872799Y-107699944D01*
X88649944Y-107922799D01*
X88387883Y-108097903D01*
X88096703Y-108218514D01*
X87787588Y-108280000D01*
X87472412Y-108280000D01*
X87163297Y-108218514D01*
X86872117Y-108097903D01*
X86610056Y-107922799D01*
X86387201Y-107699944D01*
X86212097Y-107437883D01*
X86091486Y-107146703D01*
X86030000Y-106837588D01*
X86030000Y-106522412D01*
X86091486Y-106213297D01*
X86212097Y-105922117D01*
X86387201Y-105660056D01*
X86610056Y-105437201D01*
X86872117Y-105262097D01*
X87163297Y-105141486D01*
X87472412Y-105080000D01*
X87787588Y-105080000D01*
X88096703Y-105141486D01*
X88096703Y-105141486D01*
G37*
G36*
X120291434Y-104850080D02*
X120329272Y-104861559D01*
X120364149Y-104880201D01*
X120394715Y-104905285D01*
X120419799Y-104935851D01*
X120438441Y-104970728D01*
X120449920Y-105008566D01*
X120454400Y-105054057D01*
X120454400Y-106741943D01*
X120449920Y-106787434D01*
X120438441Y-106825272D01*
X120419799Y-106860149D01*
X120394715Y-106890715D01*
X120364149Y-106915799D01*
X120329272Y-106934441D01*
X120291434Y-106945920D01*
X120245943Y-106950400D01*
X114958057Y-106950400D01*
X114912566Y-106945920D01*
X114874728Y-106934441D01*
X114839851Y-106915799D01*
X114809285Y-106890715D01*
X114784201Y-106860149D01*
X114765559Y-106825272D01*
X114754080Y-106787434D01*
X114749600Y-106741943D01*
X114749600Y-105054057D01*
X114754080Y-105008566D01*
X114765559Y-104970728D01*
X114784201Y-104935851D01*
X114809285Y-104905285D01*
X114839851Y-104880201D01*
X114874728Y-104861559D01*
X114912566Y-104850080D01*
X114958057Y-104845600D01*
X120245943Y-104845600D01*
X120291434Y-104850080D01*
X120291434Y-104850080D01*
G37*
G36*
X97690287Y-103004464D02*
X97727001Y-103015601D01*
X97760828Y-103033682D01*
X97790482Y-103058018D01*
X97814818Y-103087672D01*
X97832899Y-103121499D01*
X97844036Y-103158213D01*
X97848400Y-103202522D01*
X97848400Y-105077478D01*
X97844036Y-105121787D01*
X97832899Y-105158501D01*
X97814818Y-105192328D01*
X97790482Y-105221982D01*
X97760828Y-105246318D01*
X97727001Y-105264399D01*
X97690287Y-105275536D01*
X97645978Y-105279900D01*
X92346022Y-105279900D01*
X92301713Y-105275536D01*
X92264999Y-105264399D01*
X92231172Y-105246318D01*
X92201518Y-105221982D01*
X92177182Y-105192328D01*
X92159101Y-105158501D01*
X92147964Y-105121787D01*
X92143600Y-105077478D01*
X92143600Y-103202522D01*
X92147964Y-103158213D01*
X92159101Y-103121499D01*
X92177182Y-103087672D01*
X92201518Y-103058018D01*
X92231172Y-103033682D01*
X92264999Y-103015601D01*
X92301713Y-103004464D01*
X92346022Y-103000100D01*
X97645978Y-103000100D01*
X97690287Y-103004464D01*
X97690287Y-103004464D01*
G37*
G36*
X89066630Y-102032299D02*
X89226855Y-102080903D01*
X89374520Y-102159831D01*
X89503949Y-102266051D01*
X89610169Y-102395480D01*
X89689097Y-102543145D01*
X89737701Y-102703370D01*
X89754112Y-102870000D01*
X89737701Y-103036630D01*
X89689097Y-103196855D01*
X89610169Y-103344520D01*
X89503949Y-103473949D01*
X89374520Y-103580169D01*
X89226855Y-103659097D01*
X89066630Y-103707701D01*
X88941752Y-103720000D01*
X88858248Y-103720000D01*
X88733370Y-103707701D01*
X88573145Y-103659097D01*
X88425480Y-103580169D01*
X88296051Y-103473949D01*
X88189831Y-103344520D01*
X88110903Y-103196855D01*
X88062299Y-103036630D01*
X88045888Y-102870000D01*
X88062299Y-102703370D01*
X88110903Y-102543145D01*
X88189831Y-102395480D01*
X88296051Y-102266051D01*
X88425480Y-102159831D01*
X88573145Y-102080903D01*
X88733370Y-102032299D01*
X88858248Y-102020000D01*
X88941752Y-102020000D01*
X89066630Y-102032299D01*
X89066630Y-102032299D01*
G37*
G36*
X86526630Y-102032299D02*
X86686855Y-102080903D01*
X86834520Y-102159831D01*
X86963949Y-102266051D01*
X87070169Y-102395480D01*
X87149097Y-102543145D01*
X87197701Y-102703370D01*
X87214112Y-102870000D01*
X87197701Y-103036630D01*
X87149097Y-103196855D01*
X87070169Y-103344520D01*
X86963949Y-103473949D01*
X86834520Y-103580169D01*
X86686855Y-103659097D01*
X86526630Y-103707701D01*
X86401752Y-103720000D01*
X86318248Y-103720000D01*
X86193370Y-103707701D01*
X86033145Y-103659097D01*
X85885480Y-103580169D01*
X85756051Y-103473949D01*
X85649831Y-103344520D01*
X85570903Y-103196855D01*
X85522299Y-103036630D01*
X85505888Y-102870000D01*
X85522299Y-102703370D01*
X85570903Y-102543145D01*
X85649831Y-102395480D01*
X85756051Y-102266051D01*
X85885480Y-102159831D01*
X86033145Y-102080903D01*
X86193370Y-102032299D01*
X86318248Y-102020000D01*
X86401752Y-102020000D01*
X86526630Y-102032299D01*
X86526630Y-102032299D01*
G37*
G36*
X134786630Y-102032299D02*
X134946855Y-102080903D01*
X135094520Y-102159831D01*
X135223949Y-102266051D01*
X135330169Y-102395480D01*
X135409097Y-102543145D01*
X135457701Y-102703370D01*
X135474112Y-102870000D01*
X135457701Y-103036630D01*
X135409097Y-103196855D01*
X135330169Y-103344520D01*
X135223949Y-103473949D01*
X135094520Y-103580169D01*
X134946855Y-103659097D01*
X134786630Y-103707701D01*
X134661752Y-103720000D01*
X134578248Y-103720000D01*
X134453370Y-103707701D01*
X134293145Y-103659097D01*
X134145480Y-103580169D01*
X134016051Y-103473949D01*
X133909831Y-103344520D01*
X133830903Y-103196855D01*
X133782299Y-103036630D01*
X133765888Y-102870000D01*
X133782299Y-102703370D01*
X133830903Y-102543145D01*
X133909831Y-102395480D01*
X134016051Y-102266051D01*
X134145480Y-102159831D01*
X134293145Y-102080903D01*
X134453370Y-102032299D01*
X134578248Y-102020000D01*
X134661752Y-102020000D01*
X134786630Y-102032299D01*
X134786630Y-102032299D01*
G37*
G36*
X132246630Y-102032299D02*
X132406855Y-102080903D01*
X132554520Y-102159831D01*
X132683949Y-102266051D01*
X132790169Y-102395480D01*
X132869097Y-102543145D01*
X132917701Y-102703370D01*
X132934112Y-102870000D01*
X132917701Y-103036630D01*
X132869097Y-103196855D01*
X132790169Y-103344520D01*
X132683949Y-103473949D01*
X132554520Y-103580169D01*
X132406855Y-103659097D01*
X132246630Y-103707701D01*
X132121752Y-103720000D01*
X132038248Y-103720000D01*
X131913370Y-103707701D01*
X131753145Y-103659097D01*
X131605480Y-103580169D01*
X131476051Y-103473949D01*
X131369831Y-103344520D01*
X131290903Y-103196855D01*
X131242299Y-103036630D01*
X131225888Y-102870000D01*
X131242299Y-102703370D01*
X131290903Y-102543145D01*
X131369831Y-102395480D01*
X131476051Y-102266051D01*
X131605480Y-102159831D01*
X131753145Y-102080903D01*
X131913370Y-102032299D01*
X132038248Y-102020000D01*
X132121752Y-102020000D01*
X132246630Y-102032299D01*
X132246630Y-102032299D01*
G37*
G36*
X89066630Y-99492299D02*
X89226855Y-99540903D01*
X89374520Y-99619831D01*
X89503949Y-99726051D01*
X89610169Y-99855480D01*
X89689097Y-100003145D01*
X89737701Y-100163370D01*
X89754112Y-100330000D01*
X89737701Y-100496630D01*
X89689097Y-100656855D01*
X89610169Y-100804520D01*
X89503949Y-100933949D01*
X89374520Y-101040169D01*
X89226855Y-101119097D01*
X89066630Y-101167701D01*
X88941752Y-101180000D01*
X88858248Y-101180000D01*
X88733370Y-101167701D01*
X88573145Y-101119097D01*
X88425480Y-101040169D01*
X88296051Y-100933949D01*
X88189831Y-100804520D01*
X88110903Y-100656855D01*
X88062299Y-100496630D01*
X88045888Y-100330000D01*
X88062299Y-100163370D01*
X88110903Y-100003145D01*
X88189831Y-99855480D01*
X88296051Y-99726051D01*
X88425480Y-99619831D01*
X88573145Y-99540903D01*
X88733370Y-99492299D01*
X88858248Y-99480000D01*
X88941752Y-99480000D01*
X89066630Y-99492299D01*
X89066630Y-99492299D01*
G37*
G36*
X86526630Y-99492299D02*
X86686855Y-99540903D01*
X86834520Y-99619831D01*
X86963949Y-99726051D01*
X87070169Y-99855480D01*
X87149097Y-100003145D01*
X87197701Y-100163370D01*
X87214112Y-100330000D01*
X87197701Y-100496630D01*
X87149097Y-100656855D01*
X87070169Y-100804520D01*
X86963949Y-100933949D01*
X86834520Y-101040169D01*
X86686855Y-101119097D01*
X86526630Y-101167701D01*
X86401752Y-101180000D01*
X86318248Y-101180000D01*
X86193370Y-101167701D01*
X86033145Y-101119097D01*
X85885480Y-101040169D01*
X85756051Y-100933949D01*
X85649831Y-100804520D01*
X85570903Y-100656855D01*
X85522299Y-100496630D01*
X85505888Y-100330000D01*
X85522299Y-100163370D01*
X85570903Y-100003145D01*
X85649831Y-99855480D01*
X85756051Y-99726051D01*
X85885480Y-99619831D01*
X86033145Y-99540903D01*
X86193370Y-99492299D01*
X86318248Y-99480000D01*
X86401752Y-99480000D01*
X86526630Y-99492299D01*
X86526630Y-99492299D01*
G37*
G36*
X134786630Y-99492299D02*
X134946855Y-99540903D01*
X135094520Y-99619831D01*
X135223949Y-99726051D01*
X135330169Y-99855480D01*
X135409097Y-100003145D01*
X135457701Y-100163370D01*
X135474112Y-100330000D01*
X135457701Y-100496630D01*
X135409097Y-100656855D01*
X135330169Y-100804520D01*
X135223949Y-100933949D01*
X135094520Y-101040169D01*
X134946855Y-101119097D01*
X134786630Y-101167701D01*
X134661752Y-101180000D01*
X134578248Y-101180000D01*
X134453370Y-101167701D01*
X134293145Y-101119097D01*
X134145480Y-101040169D01*
X134016051Y-100933949D01*
X133909831Y-100804520D01*
X133830903Y-100656855D01*
X133782299Y-100496630D01*
X133765888Y-100330000D01*
X133782299Y-100163370D01*
X133830903Y-100003145D01*
X133909831Y-99855480D01*
X134016051Y-99726051D01*
X134145480Y-99619831D01*
X134293145Y-99540903D01*
X134453370Y-99492299D01*
X134578248Y-99480000D01*
X134661752Y-99480000D01*
X134786630Y-99492299D01*
X134786630Y-99492299D01*
G37*
G36*
X132246630Y-99492299D02*
X132406855Y-99540903D01*
X132554520Y-99619831D01*
X132683949Y-99726051D01*
X132790169Y-99855480D01*
X132869097Y-100003145D01*
X132917701Y-100163370D01*
X132934112Y-100330000D01*
X132917701Y-100496630D01*
X132869097Y-100656855D01*
X132790169Y-100804520D01*
X132683949Y-100933949D01*
X132554520Y-101040169D01*
X132406855Y-101119097D01*
X132246630Y-101167701D01*
X132121752Y-101180000D01*
X132038248Y-101180000D01*
X131913370Y-101167701D01*
X131753145Y-101119097D01*
X131605480Y-101040169D01*
X131476051Y-100933949D01*
X131369831Y-100804520D01*
X131290903Y-100656855D01*
X131242299Y-100496630D01*
X131225888Y-100330000D01*
X131242299Y-100163370D01*
X131290903Y-100003145D01*
X131369831Y-99855480D01*
X131476051Y-99726051D01*
X131605480Y-99619831D01*
X131753145Y-99540903D01*
X131913370Y-99492299D01*
X132038248Y-99480000D01*
X132121752Y-99480000D01*
X132246630Y-99492299D01*
X132246630Y-99492299D01*
G37*
G36*
X86526630Y-96952299D02*
X86686855Y-97000903D01*
X86834520Y-97079831D01*
X86963949Y-97186051D01*
X87070169Y-97315480D01*
X87149097Y-97463145D01*
X87197701Y-97623370D01*
X87214112Y-97790000D01*
X87197701Y-97956630D01*
X87149097Y-98116855D01*
X87070169Y-98264520D01*
X86963949Y-98393949D01*
X86834520Y-98500169D01*
X86686855Y-98579097D01*
X86526630Y-98627701D01*
X86401752Y-98640000D01*
X86318248Y-98640000D01*
X86193370Y-98627701D01*
X86033145Y-98579097D01*
X85885480Y-98500169D01*
X85756051Y-98393949D01*
X85649831Y-98264520D01*
X85570903Y-98116855D01*
X85522299Y-97956630D01*
X85505888Y-97790000D01*
X85522299Y-97623370D01*
X85570903Y-97463145D01*
X85649831Y-97315480D01*
X85756051Y-97186051D01*
X85885480Y-97079831D01*
X86033145Y-97000903D01*
X86193370Y-96952299D01*
X86318248Y-96940000D01*
X86401752Y-96940000D01*
X86526630Y-96952299D01*
X86526630Y-96952299D01*
G37*
G36*
X89066630Y-96952299D02*
X89226855Y-97000903D01*
X89374520Y-97079831D01*
X89503949Y-97186051D01*
X89610169Y-97315480D01*
X89689097Y-97463145D01*
X89737701Y-97623370D01*
X89754112Y-97790000D01*
X89737701Y-97956630D01*
X89689097Y-98116855D01*
X89610169Y-98264520D01*
X89503949Y-98393949D01*
X89374520Y-98500169D01*
X89226855Y-98579097D01*
X89066630Y-98627701D01*
X88941752Y-98640000D01*
X88858248Y-98640000D01*
X88733370Y-98627701D01*
X88573145Y-98579097D01*
X88425480Y-98500169D01*
X88296051Y-98393949D01*
X88189831Y-98264520D01*
X88110903Y-98116855D01*
X88062299Y-97956630D01*
X88045888Y-97790000D01*
X88062299Y-97623370D01*
X88110903Y-97463145D01*
X88189831Y-97315480D01*
X88296051Y-97186051D01*
X88425480Y-97079831D01*
X88573145Y-97000903D01*
X88733370Y-96952299D01*
X88858248Y-96940000D01*
X88941752Y-96940000D01*
X89066630Y-96952299D01*
X89066630Y-96952299D01*
G37*
G36*
X134786630Y-96952299D02*
X134946855Y-97000903D01*
X135094520Y-97079831D01*
X135223949Y-97186051D01*
X135330169Y-97315480D01*
X135409097Y-97463145D01*
X135457701Y-97623370D01*
X135474112Y-97790000D01*
X135457701Y-97956630D01*
X135409097Y-98116855D01*
X135330169Y-98264520D01*
X135223949Y-98393949D01*
X135094520Y-98500169D01*
X134946855Y-98579097D01*
X134786630Y-98627701D01*
X134661752Y-98640000D01*
X134578248Y-98640000D01*
X134453370Y-98627701D01*
X134293145Y-98579097D01*
X134145480Y-98500169D01*
X134016051Y-98393949D01*
X133909831Y-98264520D01*
X133830903Y-98116855D01*
X133782299Y-97956630D01*
X133765888Y-97790000D01*
X133782299Y-97623370D01*
X133830903Y-97463145D01*
X133909831Y-97315480D01*
X134016051Y-97186051D01*
X134145480Y-97079831D01*
X134293145Y-97000903D01*
X134453370Y-96952299D01*
X134578248Y-96940000D01*
X134661752Y-96940000D01*
X134786630Y-96952299D01*
X134786630Y-96952299D01*
G37*
G36*
X132246630Y-96952299D02*
X132406855Y-97000903D01*
X132554520Y-97079831D01*
X132683949Y-97186051D01*
X132790169Y-97315480D01*
X132869097Y-97463145D01*
X132917701Y-97623370D01*
X132934112Y-97790000D01*
X132917701Y-97956630D01*
X132869097Y-98116855D01*
X132790169Y-98264520D01*
X132683949Y-98393949D01*
X132554520Y-98500169D01*
X132406855Y-98579097D01*
X132246630Y-98627701D01*
X132121752Y-98640000D01*
X132038248Y-98640000D01*
X131913370Y-98627701D01*
X131753145Y-98579097D01*
X131605480Y-98500169D01*
X131476051Y-98393949D01*
X131369831Y-98264520D01*
X131290903Y-98116855D01*
X131242299Y-97956630D01*
X131225888Y-97790000D01*
X131242299Y-97623370D01*
X131290903Y-97463145D01*
X131369831Y-97315480D01*
X131476051Y-97186051D01*
X131605480Y-97079831D01*
X131753145Y-97000903D01*
X131913370Y-96952299D01*
X132038248Y-96940000D01*
X132121752Y-96940000D01*
X132246630Y-96952299D01*
X132246630Y-96952299D01*
G37*
G36*
X134786630Y-94412299D02*
X134946855Y-94460903D01*
X135094520Y-94539831D01*
X135223949Y-94646051D01*
X135330169Y-94775480D01*
X135409097Y-94923145D01*
X135457701Y-95083370D01*
X135474112Y-95250000D01*
X135457701Y-95416630D01*
X135409097Y-95576855D01*
X135330169Y-95724520D01*
X135223949Y-95853949D01*
X135094520Y-95960169D01*
X134946855Y-96039097D01*
X134786630Y-96087701D01*
X134661752Y-96100000D01*
X134578248Y-96100000D01*
X134453370Y-96087701D01*
X134293145Y-96039097D01*
X134145480Y-95960169D01*
X134016051Y-95853949D01*
X133909831Y-95724520D01*
X133830903Y-95576855D01*
X133782299Y-95416630D01*
X133765888Y-95250000D01*
X133782299Y-95083370D01*
X133830903Y-94923145D01*
X133909831Y-94775480D01*
X134016051Y-94646051D01*
X134145480Y-94539831D01*
X134293145Y-94460903D01*
X134453370Y-94412299D01*
X134578248Y-94400000D01*
X134661752Y-94400000D01*
X134786630Y-94412299D01*
X134786630Y-94412299D01*
G37*
G36*
X132246630Y-94412299D02*
X132406855Y-94460903D01*
X132554520Y-94539831D01*
X132683949Y-94646051D01*
X132790169Y-94775480D01*
X132869097Y-94923145D01*
X132917701Y-95083370D01*
X132934112Y-95250000D01*
X132917701Y-95416630D01*
X132869097Y-95576855D01*
X132790169Y-95724520D01*
X132683949Y-95853949D01*
X132554520Y-95960169D01*
X132406855Y-96039097D01*
X132246630Y-96087701D01*
X132121752Y-96100000D01*
X132038248Y-96100000D01*
X131913370Y-96087701D01*
X131753145Y-96039097D01*
X131605480Y-95960169D01*
X131476051Y-95853949D01*
X131369831Y-95724520D01*
X131290903Y-95576855D01*
X131242299Y-95416630D01*
X131225888Y-95250000D01*
X131242299Y-95083370D01*
X131290903Y-94923145D01*
X131369831Y-94775480D01*
X131476051Y-94646051D01*
X131605480Y-94539831D01*
X131753145Y-94460903D01*
X131913370Y-94412299D01*
X132038248Y-94400000D01*
X132121752Y-94400000D01*
X132246630Y-94412299D01*
X132246630Y-94412299D01*
G37*
G36*
X89066630Y-94412299D02*
X89226855Y-94460903D01*
X89374520Y-94539831D01*
X89503949Y-94646051D01*
X89610169Y-94775480D01*
X89689097Y-94923145D01*
X89737701Y-95083370D01*
X89754112Y-95250000D01*
X89737701Y-95416630D01*
X89689097Y-95576855D01*
X89610169Y-95724520D01*
X89503949Y-95853949D01*
X89374520Y-95960169D01*
X89226855Y-96039097D01*
X89066630Y-96087701D01*
X88941752Y-96100000D01*
X88858248Y-96100000D01*
X88733370Y-96087701D01*
X88573145Y-96039097D01*
X88425480Y-95960169D01*
X88296051Y-95853949D01*
X88189831Y-95724520D01*
X88110903Y-95576855D01*
X88062299Y-95416630D01*
X88045888Y-95250000D01*
X88062299Y-95083370D01*
X88110903Y-94923145D01*
X88189831Y-94775480D01*
X88296051Y-94646051D01*
X88425480Y-94539831D01*
X88573145Y-94460903D01*
X88733370Y-94412299D01*
X88858248Y-94400000D01*
X88941752Y-94400000D01*
X89066630Y-94412299D01*
X89066630Y-94412299D01*
G37*
G36*
X86526630Y-94412299D02*
X86686855Y-94460903D01*
X86834520Y-94539831D01*
X86963949Y-94646051D01*
X87070169Y-94775480D01*
X87149097Y-94923145D01*
X87197701Y-95083370D01*
X87214112Y-95250000D01*
X87197701Y-95416630D01*
X87149097Y-95576855D01*
X87070169Y-95724520D01*
X86963949Y-95853949D01*
X86834520Y-95960169D01*
X86686855Y-96039097D01*
X86526630Y-96087701D01*
X86401752Y-96100000D01*
X86318248Y-96100000D01*
X86193370Y-96087701D01*
X86033145Y-96039097D01*
X85885480Y-95960169D01*
X85756051Y-95853949D01*
X85649831Y-95724520D01*
X85570903Y-95576855D01*
X85522299Y-95416630D01*
X85505888Y-95250000D01*
X85522299Y-95083370D01*
X85570903Y-94923145D01*
X85649831Y-94775480D01*
X85756051Y-94646051D01*
X85885480Y-94539831D01*
X86033145Y-94460903D01*
X86193370Y-94412299D01*
X86318248Y-94400000D01*
X86401752Y-94400000D01*
X86526630Y-94412299D01*
X86526630Y-94412299D01*
G37*
G36*
X86526630Y-91872299D02*
X86686855Y-91920903D01*
X86834520Y-91999831D01*
X86963949Y-92106051D01*
X87070169Y-92235480D01*
X87149097Y-92383145D01*
X87197701Y-92543370D01*
X87214112Y-92710000D01*
X87197701Y-92876630D01*
X87149097Y-93036855D01*
X87070169Y-93184520D01*
X86963949Y-93313949D01*
X86834520Y-93420169D01*
X86686855Y-93499097D01*
X86526630Y-93547701D01*
X86401752Y-93560000D01*
X86318248Y-93560000D01*
X86193370Y-93547701D01*
X86033145Y-93499097D01*
X85885480Y-93420169D01*
X85756051Y-93313949D01*
X85649831Y-93184520D01*
X85570903Y-93036855D01*
X85522299Y-92876630D01*
X85505888Y-92710000D01*
X85522299Y-92543370D01*
X85570903Y-92383145D01*
X85649831Y-92235480D01*
X85756051Y-92106051D01*
X85885480Y-91999831D01*
X86033145Y-91920903D01*
X86193370Y-91872299D01*
X86318248Y-91860000D01*
X86401752Y-91860000D01*
X86526630Y-91872299D01*
X86526630Y-91872299D01*
G37*
G36*
X134786630Y-91872299D02*
X134946855Y-91920903D01*
X135094520Y-91999831D01*
X135223949Y-92106051D01*
X135330169Y-92235480D01*
X135409097Y-92383145D01*
X135457701Y-92543370D01*
X135474112Y-92710000D01*
X135457701Y-92876630D01*
X135409097Y-93036855D01*
X135330169Y-93184520D01*
X135223949Y-93313949D01*
X135094520Y-93420169D01*
X134946855Y-93499097D01*
X134786630Y-93547701D01*
X134661752Y-93560000D01*
X134578248Y-93560000D01*
X134453370Y-93547701D01*
X134293145Y-93499097D01*
X134145480Y-93420169D01*
X134016051Y-93313949D01*
X133909831Y-93184520D01*
X133830903Y-93036855D01*
X133782299Y-92876630D01*
X133765888Y-92710000D01*
X133782299Y-92543370D01*
X133830903Y-92383145D01*
X133909831Y-92235480D01*
X134016051Y-92106051D01*
X134145480Y-91999831D01*
X134293145Y-91920903D01*
X134453370Y-91872299D01*
X134578248Y-91860000D01*
X134661752Y-91860000D01*
X134786630Y-91872299D01*
X134786630Y-91872299D01*
G37*
G36*
X89066630Y-91872299D02*
X89226855Y-91920903D01*
X89374520Y-91999831D01*
X89503949Y-92106051D01*
X89610169Y-92235480D01*
X89689097Y-92383145D01*
X89737701Y-92543370D01*
X89754112Y-92710000D01*
X89737701Y-92876630D01*
X89689097Y-93036855D01*
X89610169Y-93184520D01*
X89503949Y-93313949D01*
X89374520Y-93420169D01*
X89226855Y-93499097D01*
X89066630Y-93547701D01*
X88941752Y-93560000D01*
X88858248Y-93560000D01*
X88733370Y-93547701D01*
X88573145Y-93499097D01*
X88425480Y-93420169D01*
X88296051Y-93313949D01*
X88189831Y-93184520D01*
X88110903Y-93036855D01*
X88062299Y-92876630D01*
X88045888Y-92710000D01*
X88062299Y-92543370D01*
X88110903Y-92383145D01*
X88189831Y-92235480D01*
X88296051Y-92106051D01*
X88425480Y-91999831D01*
X88573145Y-91920903D01*
X88733370Y-91872299D01*
X88858248Y-91860000D01*
X88941752Y-91860000D01*
X89066630Y-91872299D01*
X89066630Y-91872299D01*
G37*
G36*
X132246630Y-91872299D02*
X132406855Y-91920903D01*
X132554520Y-91999831D01*
X132683949Y-92106051D01*
X132790169Y-92235480D01*
X132869097Y-92383145D01*
X132917701Y-92543370D01*
X132934112Y-92710000D01*
X132917701Y-92876630D01*
X132869097Y-93036855D01*
X132790169Y-93184520D01*
X132683949Y-93313949D01*
X132554520Y-93420169D01*
X132406855Y-93499097D01*
X132246630Y-93547701D01*
X132121752Y-93560000D01*
X132038248Y-93560000D01*
X131913370Y-93547701D01*
X131753145Y-93499097D01*
X131605480Y-93420169D01*
X131476051Y-93313949D01*
X131369831Y-93184520D01*
X131290903Y-93036855D01*
X131242299Y-92876630D01*
X131225888Y-92710000D01*
X131242299Y-92543370D01*
X131290903Y-92383145D01*
X131369831Y-92235480D01*
X131476051Y-92106051D01*
X131605480Y-91999831D01*
X131753145Y-91920903D01*
X131913370Y-91872299D01*
X132038248Y-91860000D01*
X132121752Y-91860000D01*
X132246630Y-91872299D01*
X132246630Y-91872299D01*
G37*
G36*
X89066630Y-89332299D02*
X89226855Y-89380903D01*
X89374520Y-89459831D01*
X89503949Y-89566051D01*
X89610169Y-89695480D01*
X89689097Y-89843145D01*
X89737701Y-90003370D01*
X89754112Y-90170000D01*
X89737701Y-90336630D01*
X89689097Y-90496855D01*
X89610169Y-90644520D01*
X89503949Y-90773949D01*
X89374520Y-90880169D01*
X89226855Y-90959097D01*
X89066630Y-91007701D01*
X88941752Y-91020000D01*
X88858248Y-91020000D01*
X88733370Y-91007701D01*
X88573145Y-90959097D01*
X88425480Y-90880169D01*
X88296051Y-90773949D01*
X88189831Y-90644520D01*
X88110903Y-90496855D01*
X88062299Y-90336630D01*
X88045888Y-90170000D01*
X88062299Y-90003370D01*
X88110903Y-89843145D01*
X88189831Y-89695480D01*
X88296051Y-89566051D01*
X88425480Y-89459831D01*
X88573145Y-89380903D01*
X88733370Y-89332299D01*
X88858248Y-89320000D01*
X88941752Y-89320000D01*
X89066630Y-89332299D01*
X89066630Y-89332299D01*
G37*
G36*
X134786630Y-89332299D02*
X134946855Y-89380903D01*
X135094520Y-89459831D01*
X135223949Y-89566051D01*
X135330169Y-89695480D01*
X135409097Y-89843145D01*
X135457701Y-90003370D01*
X135474112Y-90170000D01*
X135457701Y-90336630D01*
X135409097Y-90496855D01*
X135330169Y-90644520D01*
X135223949Y-90773949D01*
X135094520Y-90880169D01*
X134946855Y-90959097D01*
X134786630Y-91007701D01*
X134661752Y-91020000D01*
X134578248Y-91020000D01*
X134453370Y-91007701D01*
X134293145Y-90959097D01*
X134145480Y-90880169D01*
X134016051Y-90773949D01*
X133909831Y-90644520D01*
X133830903Y-90496855D01*
X133782299Y-90336630D01*
X133765888Y-90170000D01*
X133782299Y-90003370D01*
X133830903Y-89843145D01*
X133909831Y-89695480D01*
X134016051Y-89566051D01*
X134145480Y-89459831D01*
X134293145Y-89380903D01*
X134453370Y-89332299D01*
X134578248Y-89320000D01*
X134661752Y-89320000D01*
X134786630Y-89332299D01*
X134786630Y-89332299D01*
G37*
G36*
X132246630Y-89332299D02*
X132406855Y-89380903D01*
X132554520Y-89459831D01*
X132683949Y-89566051D01*
X132790169Y-89695480D01*
X132869097Y-89843145D01*
X132917701Y-90003370D01*
X132934112Y-90170000D01*
X132917701Y-90336630D01*
X132869097Y-90496855D01*
X132790169Y-90644520D01*
X132683949Y-90773949D01*
X132554520Y-90880169D01*
X132406855Y-90959097D01*
X132246630Y-91007701D01*
X132121752Y-91020000D01*
X132038248Y-91020000D01*
X131913370Y-91007701D01*
X131753145Y-90959097D01*
X131605480Y-90880169D01*
X131476051Y-90773949D01*
X131369831Y-90644520D01*
X131290903Y-90496855D01*
X131242299Y-90336630D01*
X131225888Y-90170000D01*
X131242299Y-90003370D01*
X131290903Y-89843145D01*
X131369831Y-89695480D01*
X131476051Y-89566051D01*
X131605480Y-89459831D01*
X131753145Y-89380903D01*
X131913370Y-89332299D01*
X132038248Y-89320000D01*
X132121752Y-89320000D01*
X132246630Y-89332299D01*
X132246630Y-89332299D01*
G37*
G36*
X86526630Y-89332299D02*
X86686855Y-89380903D01*
X86834520Y-89459831D01*
X86963949Y-89566051D01*
X87070169Y-89695480D01*
X87149097Y-89843145D01*
X87197701Y-90003370D01*
X87214112Y-90170000D01*
X87197701Y-90336630D01*
X87149097Y-90496855D01*
X87070169Y-90644520D01*
X86963949Y-90773949D01*
X86834520Y-90880169D01*
X86686855Y-90959097D01*
X86526630Y-91007701D01*
X86401752Y-91020000D01*
X86318248Y-91020000D01*
X86193370Y-91007701D01*
X86033145Y-90959097D01*
X85885480Y-90880169D01*
X85756051Y-90773949D01*
X85649831Y-90644520D01*
X85570903Y-90496855D01*
X85522299Y-90336630D01*
X85505888Y-90170000D01*
X85522299Y-90003370D01*
X85570903Y-89843145D01*
X85649831Y-89695480D01*
X85756051Y-89566051D01*
X85885480Y-89459831D01*
X86033145Y-89380903D01*
X86193370Y-89332299D01*
X86318248Y-89320000D01*
X86401752Y-89320000D01*
X86526630Y-89332299D01*
X86526630Y-89332299D01*
G37*
G36*
X132246630Y-86792299D02*
X132406855Y-86840903D01*
X132554520Y-86919831D01*
X132683949Y-87026051D01*
X132790169Y-87155480D01*
X132869097Y-87303145D01*
X132917701Y-87463370D01*
X132934112Y-87630000D01*
X132917701Y-87796630D01*
X132869097Y-87956855D01*
X132790169Y-88104520D01*
X132683949Y-88233949D01*
X132554520Y-88340169D01*
X132406855Y-88419097D01*
X132246630Y-88467701D01*
X132121752Y-88480000D01*
X132038248Y-88480000D01*
X131913370Y-88467701D01*
X131753145Y-88419097D01*
X131605480Y-88340169D01*
X131476051Y-88233949D01*
X131369831Y-88104520D01*
X131290903Y-87956855D01*
X131242299Y-87796630D01*
X131225888Y-87630000D01*
X131242299Y-87463370D01*
X131290903Y-87303145D01*
X131369831Y-87155480D01*
X131476051Y-87026051D01*
X131605480Y-86919831D01*
X131753145Y-86840903D01*
X131913370Y-86792299D01*
X132038248Y-86780000D01*
X132121752Y-86780000D01*
X132246630Y-86792299D01*
X132246630Y-86792299D01*
G37*
G36*
X134786630Y-86792299D02*
X134946855Y-86840903D01*
X135094520Y-86919831D01*
X135223949Y-87026051D01*
X135330169Y-87155480D01*
X135409097Y-87303145D01*
X135457701Y-87463370D01*
X135474112Y-87630000D01*
X135457701Y-87796630D01*
X135409097Y-87956855D01*
X135330169Y-88104520D01*
X135223949Y-88233949D01*
X135094520Y-88340169D01*
X134946855Y-88419097D01*
X134786630Y-88467701D01*
X134661752Y-88480000D01*
X134578248Y-88480000D01*
X134453370Y-88467701D01*
X134293145Y-88419097D01*
X134145480Y-88340169D01*
X134016051Y-88233949D01*
X133909831Y-88104520D01*
X133830903Y-87956855D01*
X133782299Y-87796630D01*
X133765888Y-87630000D01*
X133782299Y-87463370D01*
X133830903Y-87303145D01*
X133909831Y-87155480D01*
X134016051Y-87026051D01*
X134145480Y-86919831D01*
X134293145Y-86840903D01*
X134453370Y-86792299D01*
X134578248Y-86780000D01*
X134661752Y-86780000D01*
X134786630Y-86792299D01*
X134786630Y-86792299D01*
G37*
G36*
X89066630Y-86792299D02*
X89226855Y-86840903D01*
X89374520Y-86919831D01*
X89503949Y-87026051D01*
X89610169Y-87155480D01*
X89689097Y-87303145D01*
X89737701Y-87463370D01*
X89754112Y-87630000D01*
X89737701Y-87796630D01*
X89689097Y-87956855D01*
X89610169Y-88104520D01*
X89503949Y-88233949D01*
X89374520Y-88340169D01*
X89226855Y-88419097D01*
X89066630Y-88467701D01*
X88941752Y-88480000D01*
X88858248Y-88480000D01*
X88733370Y-88467701D01*
X88573145Y-88419097D01*
X88425480Y-88340169D01*
X88296051Y-88233949D01*
X88189831Y-88104520D01*
X88110903Y-87956855D01*
X88062299Y-87796630D01*
X88045888Y-87630000D01*
X88062299Y-87463370D01*
X88110903Y-87303145D01*
X88189831Y-87155480D01*
X88296051Y-87026051D01*
X88425480Y-86919831D01*
X88573145Y-86840903D01*
X88733370Y-86792299D01*
X88858248Y-86780000D01*
X88941752Y-86780000D01*
X89066630Y-86792299D01*
X89066630Y-86792299D01*
G37*
G36*
X86526630Y-86792299D02*
X86686855Y-86840903D01*
X86834520Y-86919831D01*
X86963949Y-87026051D01*
X87070169Y-87155480D01*
X87149097Y-87303145D01*
X87197701Y-87463370D01*
X87214112Y-87630000D01*
X87197701Y-87796630D01*
X87149097Y-87956855D01*
X87070169Y-88104520D01*
X86963949Y-88233949D01*
X86834520Y-88340169D01*
X86686855Y-88419097D01*
X86526630Y-88467701D01*
X86401752Y-88480000D01*
X86318248Y-88480000D01*
X86193370Y-88467701D01*
X86033145Y-88419097D01*
X85885480Y-88340169D01*
X85756051Y-88233949D01*
X85649831Y-88104520D01*
X85570903Y-87956855D01*
X85522299Y-87796630D01*
X85505888Y-87630000D01*
X85522299Y-87463370D01*
X85570903Y-87303145D01*
X85649831Y-87155480D01*
X85756051Y-87026051D01*
X85885480Y-86919831D01*
X86033145Y-86840903D01*
X86193370Y-86792299D01*
X86318248Y-86780000D01*
X86401752Y-86780000D01*
X86526630Y-86792299D01*
X86526630Y-86792299D01*
G37*
G36*
X134786630Y-84252299D02*
X134946855Y-84300903D01*
X135094520Y-84379831D01*
X135223949Y-84486051D01*
X135330169Y-84615480D01*
X135409097Y-84763145D01*
X135457701Y-84923370D01*
X135474112Y-85090000D01*
X135457701Y-85256630D01*
X135409097Y-85416855D01*
X135330169Y-85564520D01*
X135223949Y-85693949D01*
X135094520Y-85800169D01*
X134946855Y-85879097D01*
X134786630Y-85927701D01*
X134661752Y-85940000D01*
X134578248Y-85940000D01*
X134453370Y-85927701D01*
X134293145Y-85879097D01*
X134145480Y-85800169D01*
X134016051Y-85693949D01*
X133909831Y-85564520D01*
X133830903Y-85416855D01*
X133782299Y-85256630D01*
X133765888Y-85090000D01*
X133782299Y-84923370D01*
X133830903Y-84763145D01*
X133909831Y-84615480D01*
X134016051Y-84486051D01*
X134145480Y-84379831D01*
X134293145Y-84300903D01*
X134453370Y-84252299D01*
X134578248Y-84240000D01*
X134661752Y-84240000D01*
X134786630Y-84252299D01*
X134786630Y-84252299D01*
G37*
G36*
X132246630Y-84252299D02*
X132406855Y-84300903D01*
X132554520Y-84379831D01*
X132683949Y-84486051D01*
X132790169Y-84615480D01*
X132869097Y-84763145D01*
X132917701Y-84923370D01*
X132934112Y-85090000D01*
X132917701Y-85256630D01*
X132869097Y-85416855D01*
X132790169Y-85564520D01*
X132683949Y-85693949D01*
X132554520Y-85800169D01*
X132406855Y-85879097D01*
X132246630Y-85927701D01*
X132121752Y-85940000D01*
X132038248Y-85940000D01*
X131913370Y-85927701D01*
X131753145Y-85879097D01*
X131605480Y-85800169D01*
X131476051Y-85693949D01*
X131369831Y-85564520D01*
X131290903Y-85416855D01*
X131242299Y-85256630D01*
X131225888Y-85090000D01*
X131242299Y-84923370D01*
X131290903Y-84763145D01*
X131369831Y-84615480D01*
X131476051Y-84486051D01*
X131605480Y-84379831D01*
X131753145Y-84300903D01*
X131913370Y-84252299D01*
X132038248Y-84240000D01*
X132121752Y-84240000D01*
X132246630Y-84252299D01*
X132246630Y-84252299D01*
G37*
G36*
X89066630Y-84252299D02*
X89226855Y-84300903D01*
X89374520Y-84379831D01*
X89503949Y-84486051D01*
X89610169Y-84615480D01*
X89689097Y-84763145D01*
X89737701Y-84923370D01*
X89754112Y-85090000D01*
X89737701Y-85256630D01*
X89689097Y-85416855D01*
X89610169Y-85564520D01*
X89503949Y-85693949D01*
X89374520Y-85800169D01*
X89226855Y-85879097D01*
X89066630Y-85927701D01*
X88941752Y-85940000D01*
X88858248Y-85940000D01*
X88733370Y-85927701D01*
X88573145Y-85879097D01*
X88425480Y-85800169D01*
X88296051Y-85693949D01*
X88189831Y-85564520D01*
X88110903Y-85416855D01*
X88062299Y-85256630D01*
X88045888Y-85090000D01*
X88062299Y-84923370D01*
X88110903Y-84763145D01*
X88189831Y-84615480D01*
X88296051Y-84486051D01*
X88425480Y-84379831D01*
X88573145Y-84300903D01*
X88733370Y-84252299D01*
X88858248Y-84240000D01*
X88941752Y-84240000D01*
X89066630Y-84252299D01*
X89066630Y-84252299D01*
G37*
G36*
X86526630Y-84252299D02*
X86686855Y-84300903D01*
X86834520Y-84379831D01*
X86963949Y-84486051D01*
X87070169Y-84615480D01*
X87149097Y-84763145D01*
X87197701Y-84923370D01*
X87214112Y-85090000D01*
X87197701Y-85256630D01*
X87149097Y-85416855D01*
X87070169Y-85564520D01*
X86963949Y-85693949D01*
X86834520Y-85800169D01*
X86686855Y-85879097D01*
X86526630Y-85927701D01*
X86401752Y-85940000D01*
X86318248Y-85940000D01*
X86193370Y-85927701D01*
X86033145Y-85879097D01*
X85885480Y-85800169D01*
X85756051Y-85693949D01*
X85649831Y-85564520D01*
X85570903Y-85416855D01*
X85522299Y-85256630D01*
X85505888Y-85090000D01*
X85522299Y-84923370D01*
X85570903Y-84763145D01*
X85649831Y-84615480D01*
X85756051Y-84486051D01*
X85885480Y-84379831D01*
X86033145Y-84300903D01*
X86193370Y-84252299D01*
X86318248Y-84240000D01*
X86401752Y-84240000D01*
X86526630Y-84252299D01*
X86526630Y-84252299D01*
G37*
G36*
X119846703Y-81011486D02*
X120137883Y-81132097D01*
X120399944Y-81307201D01*
X120622799Y-81530056D01*
X120797903Y-81792117D01*
X120918514Y-82083297D01*
X120980000Y-82392412D01*
X120980000Y-82707588D01*
X120918514Y-83016703D01*
X120797903Y-83307883D01*
X120622799Y-83569944D01*
X120399944Y-83792799D01*
X120137883Y-83967903D01*
X119846703Y-84088514D01*
X119537588Y-84150000D01*
X119222412Y-84150000D01*
X118913297Y-84088514D01*
X118622117Y-83967903D01*
X118360056Y-83792799D01*
X118137201Y-83569944D01*
X117962097Y-83307883D01*
X117841486Y-83016703D01*
X117780000Y-82707588D01*
X117780000Y-82392412D01*
X117841486Y-82083297D01*
X117962097Y-81792117D01*
X118137201Y-81530056D01*
X118360056Y-81307201D01*
X118622117Y-81132097D01*
X118913297Y-81011486D01*
X119222412Y-80950000D01*
X119537588Y-80950000D01*
X119846703Y-81011486D01*
X119846703Y-81011486D01*
G37*
G36*
X132246630Y-81712299D02*
X132406855Y-81760903D01*
X132554520Y-81839831D01*
X132683949Y-81946051D01*
X132790169Y-82075480D01*
X132869097Y-82223145D01*
X132917701Y-82383370D01*
X132934112Y-82550000D01*
X132917701Y-82716630D01*
X132869097Y-82876855D01*
X132790169Y-83024520D01*
X132683949Y-83153949D01*
X132554520Y-83260169D01*
X132406855Y-83339097D01*
X132246630Y-83387701D01*
X132121752Y-83400000D01*
X132038248Y-83400000D01*
X131913370Y-83387701D01*
X131753145Y-83339097D01*
X131605480Y-83260169D01*
X131476051Y-83153949D01*
X131369831Y-83024520D01*
X131290903Y-82876855D01*
X131242299Y-82716630D01*
X131225888Y-82550000D01*
X131242299Y-82383370D01*
X131290903Y-82223145D01*
X131369831Y-82075480D01*
X131476051Y-81946051D01*
X131605480Y-81839831D01*
X131753145Y-81760903D01*
X131913370Y-81712299D01*
X132038248Y-81700000D01*
X132121752Y-81700000D01*
X132246630Y-81712299D01*
X132246630Y-81712299D01*
G37*
G36*
X134786630Y-81712299D02*
X134946855Y-81760903D01*
X135094520Y-81839831D01*
X135223949Y-81946051D01*
X135330169Y-82075480D01*
X135409097Y-82223145D01*
X135457701Y-82383370D01*
X135474112Y-82550000D01*
X135457701Y-82716630D01*
X135409097Y-82876855D01*
X135330169Y-83024520D01*
X135223949Y-83153949D01*
X135094520Y-83260169D01*
X134946855Y-83339097D01*
X134786630Y-83387701D01*
X134661752Y-83400000D01*
X134578248Y-83400000D01*
X134453370Y-83387701D01*
X134293145Y-83339097D01*
X134145480Y-83260169D01*
X134016051Y-83153949D01*
X133909831Y-83024520D01*
X133830903Y-82876855D01*
X133782299Y-82716630D01*
X133765888Y-82550000D01*
X133782299Y-82383370D01*
X133830903Y-82223145D01*
X133909831Y-82075480D01*
X134016051Y-81946051D01*
X134145480Y-81839831D01*
X134293145Y-81760903D01*
X134453370Y-81712299D01*
X134578248Y-81700000D01*
X134661752Y-81700000D01*
X134786630Y-81712299D01*
X134786630Y-81712299D01*
G37*
G36*
X86526630Y-81712299D02*
X86686855Y-81760903D01*
X86834520Y-81839831D01*
X86963949Y-81946051D01*
X87070169Y-82075480D01*
X87149097Y-82223145D01*
X87197701Y-82383370D01*
X87214112Y-82550000D01*
X87197701Y-82716630D01*
X87149097Y-82876855D01*
X87070169Y-83024520D01*
X86963949Y-83153949D01*
X86834520Y-83260169D01*
X86686855Y-83339097D01*
X86526630Y-83387701D01*
X86401752Y-83400000D01*
X86318248Y-83400000D01*
X86193370Y-83387701D01*
X86033145Y-83339097D01*
X85885480Y-83260169D01*
X85756051Y-83153949D01*
X85649831Y-83024520D01*
X85570903Y-82876855D01*
X85522299Y-82716630D01*
X85505888Y-82550000D01*
X85522299Y-82383370D01*
X85570903Y-82223145D01*
X85649831Y-82075480D01*
X85756051Y-81946051D01*
X85885480Y-81839831D01*
X86033145Y-81760903D01*
X86193370Y-81712299D01*
X86318248Y-81700000D01*
X86401752Y-81700000D01*
X86526630Y-81712299D01*
X86526630Y-81712299D01*
G37*
G36*
X89066630Y-81712299D02*
X89226855Y-81760903D01*
X89374520Y-81839831D01*
X89503949Y-81946051D01*
X89610169Y-82075480D01*
X89689097Y-82223145D01*
X89737701Y-82383370D01*
X89754112Y-82550000D01*
X89737701Y-82716630D01*
X89689097Y-82876855D01*
X89610169Y-83024520D01*
X89503949Y-83153949D01*
X89374520Y-83260169D01*
X89226855Y-83339097D01*
X89066630Y-83387701D01*
X88941752Y-83400000D01*
X88858248Y-83400000D01*
X88733370Y-83387701D01*
X88573145Y-83339097D01*
X88425480Y-83260169D01*
X88296051Y-83153949D01*
X88189831Y-83024520D01*
X88110903Y-82876855D01*
X88062299Y-82716630D01*
X88045888Y-82550000D01*
X88062299Y-82383370D01*
X88110903Y-82223145D01*
X88189831Y-82075480D01*
X88296051Y-81946051D01*
X88425480Y-81839831D01*
X88573145Y-81760903D01*
X88733370Y-81712299D01*
X88858248Y-81700000D01*
X88941752Y-81700000D01*
X89066630Y-81712299D01*
X89066630Y-81712299D01*
G37*
G36*
X89066630Y-79172299D02*
X89226855Y-79220903D01*
X89374520Y-79299831D01*
X89503949Y-79406051D01*
X89610169Y-79535480D01*
X89689097Y-79683145D01*
X89737701Y-79843370D01*
X89754112Y-80010000D01*
X89737701Y-80176630D01*
X89689097Y-80336855D01*
X89610169Y-80484520D01*
X89503949Y-80613949D01*
X89374520Y-80720169D01*
X89226855Y-80799097D01*
X89066630Y-80847701D01*
X88941752Y-80860000D01*
X88858248Y-80860000D01*
X88733370Y-80847701D01*
X88573145Y-80799097D01*
X88425480Y-80720169D01*
X88296051Y-80613949D01*
X88189831Y-80484520D01*
X88110903Y-80336855D01*
X88062299Y-80176630D01*
X88045888Y-80010000D01*
X88062299Y-79843370D01*
X88110903Y-79683145D01*
X88189831Y-79535480D01*
X88296051Y-79406051D01*
X88425480Y-79299831D01*
X88573145Y-79220903D01*
X88733370Y-79172299D01*
X88858248Y-79160000D01*
X88941752Y-79160000D01*
X89066630Y-79172299D01*
X89066630Y-79172299D01*
G37*
G36*
X86526630Y-79172299D02*
X86686855Y-79220903D01*
X86834520Y-79299831D01*
X86963949Y-79406051D01*
X87070169Y-79535480D01*
X87149097Y-79683145D01*
X87197701Y-79843370D01*
X87214112Y-80010000D01*
X87197701Y-80176630D01*
X87149097Y-80336855D01*
X87070169Y-80484520D01*
X86963949Y-80613949D01*
X86834520Y-80720169D01*
X86686855Y-80799097D01*
X86526630Y-80847701D01*
X86401752Y-80860000D01*
X86318248Y-80860000D01*
X86193370Y-80847701D01*
X86033145Y-80799097D01*
X85885480Y-80720169D01*
X85756051Y-80613949D01*
X85649831Y-80484520D01*
X85570903Y-80336855D01*
X85522299Y-80176630D01*
X85505888Y-80010000D01*
X85522299Y-79843370D01*
X85570903Y-79683145D01*
X85649831Y-79535480D01*
X85756051Y-79406051D01*
X85885480Y-79299831D01*
X86033145Y-79220903D01*
X86193370Y-79172299D01*
X86318248Y-79160000D01*
X86401752Y-79160000D01*
X86526630Y-79172299D01*
X86526630Y-79172299D01*
G37*
G36*
X132246630Y-79172299D02*
X132406855Y-79220903D01*
X132554520Y-79299831D01*
X132683949Y-79406051D01*
X132790169Y-79535480D01*
X132869097Y-79683145D01*
X132917701Y-79843370D01*
X132934112Y-80010000D01*
X132917701Y-80176630D01*
X132869097Y-80336855D01*
X132790169Y-80484520D01*
X132683949Y-80613949D01*
X132554520Y-80720169D01*
X132406855Y-80799097D01*
X132246630Y-80847701D01*
X132121752Y-80860000D01*
X132038248Y-80860000D01*
X131913370Y-80847701D01*
X131753145Y-80799097D01*
X131605480Y-80720169D01*
X131476051Y-80613949D01*
X131369831Y-80484520D01*
X131290903Y-80336855D01*
X131242299Y-80176630D01*
X131225888Y-80010000D01*
X131242299Y-79843370D01*
X131290903Y-79683145D01*
X131369831Y-79535480D01*
X131476051Y-79406051D01*
X131605480Y-79299831D01*
X131753145Y-79220903D01*
X131913370Y-79172299D01*
X132038248Y-79160000D01*
X132121752Y-79160000D01*
X132246630Y-79172299D01*
X132246630Y-79172299D01*
G37*
G36*
X134786630Y-79172299D02*
X134946855Y-79220903D01*
X135094520Y-79299831D01*
X135223949Y-79406051D01*
X135330169Y-79535480D01*
X135409097Y-79683145D01*
X135457701Y-79843370D01*
X135474112Y-80010000D01*
X135457701Y-80176630D01*
X135409097Y-80336855D01*
X135330169Y-80484520D01*
X135223949Y-80613949D01*
X135094520Y-80720169D01*
X134946855Y-80799097D01*
X134786630Y-80847701D01*
X134661752Y-80860000D01*
X134578248Y-80860000D01*
X134453370Y-80847701D01*
X134293145Y-80799097D01*
X134145480Y-80720169D01*
X134016051Y-80613949D01*
X133909831Y-80484520D01*
X133830903Y-80336855D01*
X133782299Y-80176630D01*
X133765888Y-80010000D01*
X133782299Y-79843370D01*
X133830903Y-79683145D01*
X133909831Y-79535480D01*
X134016051Y-79406051D01*
X134145480Y-79299831D01*
X134293145Y-79220903D01*
X134453370Y-79172299D01*
X134578248Y-79160000D01*
X134661752Y-79160000D01*
X134786630Y-79172299D01*
X134786630Y-79172299D01*
G37*
G36*
X132246630Y-76632299D02*
X132406855Y-76680903D01*
X132554520Y-76759831D01*
X132683949Y-76866051D01*
X132790169Y-76995480D01*
X132869097Y-77143145D01*
X132917701Y-77303370D01*
X132934112Y-77470000D01*
X132917701Y-77636630D01*
X132869097Y-77796855D01*
X132790169Y-77944520D01*
X132683949Y-78073949D01*
X132554520Y-78180169D01*
X132406855Y-78259097D01*
X132246630Y-78307701D01*
X132121752Y-78320000D01*
X132038248Y-78320000D01*
X131913370Y-78307701D01*
X131753145Y-78259097D01*
X131605480Y-78180169D01*
X131476051Y-78073949D01*
X131369831Y-77944520D01*
X131290903Y-77796855D01*
X131242299Y-77636630D01*
X131225888Y-77470000D01*
X131242299Y-77303370D01*
X131290903Y-77143145D01*
X131369831Y-76995480D01*
X131476051Y-76866051D01*
X131605480Y-76759831D01*
X131753145Y-76680903D01*
X131913370Y-76632299D01*
X132038248Y-76620000D01*
X132121752Y-76620000D01*
X132246630Y-76632299D01*
X132246630Y-76632299D01*
G37*
G36*
X134786630Y-76632299D02*
X134946855Y-76680903D01*
X135094520Y-76759831D01*
X135223949Y-76866051D01*
X135330169Y-76995480D01*
X135409097Y-77143145D01*
X135457701Y-77303370D01*
X135474112Y-77470000D01*
X135457701Y-77636630D01*
X135409097Y-77796855D01*
X135330169Y-77944520D01*
X135223949Y-78073949D01*
X135094520Y-78180169D01*
X134946855Y-78259097D01*
X134786630Y-78307701D01*
X134661752Y-78320000D01*
X134578248Y-78320000D01*
X134453370Y-78307701D01*
X134293145Y-78259097D01*
X134145480Y-78180169D01*
X134016051Y-78073949D01*
X133909831Y-77944520D01*
X133830903Y-77796855D01*
X133782299Y-77636630D01*
X133765888Y-77470000D01*
X133782299Y-77303370D01*
X133830903Y-77143145D01*
X133909831Y-76995480D01*
X134016051Y-76866051D01*
X134145480Y-76759831D01*
X134293145Y-76680903D01*
X134453370Y-76632299D01*
X134578248Y-76620000D01*
X134661752Y-76620000D01*
X134786630Y-76632299D01*
X134786630Y-76632299D01*
G37*
G36*
X86526630Y-76632299D02*
X86686855Y-76680903D01*
X86834520Y-76759831D01*
X86963949Y-76866051D01*
X87070169Y-76995480D01*
X87149097Y-77143145D01*
X87197701Y-77303370D01*
X87214112Y-77470000D01*
X87197701Y-77636630D01*
X87149097Y-77796855D01*
X87070169Y-77944520D01*
X86963949Y-78073949D01*
X86834520Y-78180169D01*
X86686855Y-78259097D01*
X86526630Y-78307701D01*
X86401752Y-78320000D01*
X86318248Y-78320000D01*
X86193370Y-78307701D01*
X86033145Y-78259097D01*
X85885480Y-78180169D01*
X85756051Y-78073949D01*
X85649831Y-77944520D01*
X85570903Y-77796855D01*
X85522299Y-77636630D01*
X85505888Y-77470000D01*
X85522299Y-77303370D01*
X85570903Y-77143145D01*
X85649831Y-76995480D01*
X85756051Y-76866051D01*
X85885480Y-76759831D01*
X86033145Y-76680903D01*
X86193370Y-76632299D01*
X86318248Y-76620000D01*
X86401752Y-76620000D01*
X86526630Y-76632299D01*
X86526630Y-76632299D01*
G37*
G36*
X89066630Y-76632299D02*
X89226855Y-76680903D01*
X89374520Y-76759831D01*
X89503949Y-76866051D01*
X89610169Y-76995480D01*
X89689097Y-77143145D01*
X89737701Y-77303370D01*
X89754112Y-77470000D01*
X89737701Y-77636630D01*
X89689097Y-77796855D01*
X89610169Y-77944520D01*
X89503949Y-78073949D01*
X89374520Y-78180169D01*
X89226855Y-78259097D01*
X89066630Y-78307701D01*
X88941752Y-78320000D01*
X88858248Y-78320000D01*
X88733370Y-78307701D01*
X88573145Y-78259097D01*
X88425480Y-78180169D01*
X88296051Y-78073949D01*
X88189831Y-77944520D01*
X88110903Y-77796855D01*
X88062299Y-77636630D01*
X88045888Y-77470000D01*
X88062299Y-77303370D01*
X88110903Y-77143145D01*
X88189831Y-76995480D01*
X88296051Y-76866051D01*
X88425480Y-76759831D01*
X88573145Y-76680903D01*
X88733370Y-76632299D01*
X88858248Y-76620000D01*
X88941752Y-76620000D01*
X89066630Y-76632299D01*
X89066630Y-76632299D01*
G37*
G36*
X89066630Y-74092299D02*
X89226855Y-74140903D01*
X89374520Y-74219831D01*
X89503949Y-74326051D01*
X89610169Y-74455480D01*
X89689097Y-74603145D01*
X89737701Y-74763370D01*
X89754112Y-74930000D01*
X89737701Y-75096630D01*
X89689097Y-75256855D01*
X89610169Y-75404520D01*
X89503949Y-75533949D01*
X89374520Y-75640169D01*
X89226855Y-75719097D01*
X89066630Y-75767701D01*
X88941752Y-75780000D01*
X88858248Y-75780000D01*
X88733370Y-75767701D01*
X88573145Y-75719097D01*
X88425480Y-75640169D01*
X88296051Y-75533949D01*
X88189831Y-75404520D01*
X88110903Y-75256855D01*
X88062299Y-75096630D01*
X88045888Y-74930000D01*
X88062299Y-74763370D01*
X88110903Y-74603145D01*
X88189831Y-74455480D01*
X88296051Y-74326051D01*
X88425480Y-74219831D01*
X88573145Y-74140903D01*
X88733370Y-74092299D01*
X88858248Y-74080000D01*
X88941752Y-74080000D01*
X89066630Y-74092299D01*
X89066630Y-74092299D01*
G37*
G36*
X86526630Y-74092299D02*
X86686855Y-74140903D01*
X86834520Y-74219831D01*
X86963949Y-74326051D01*
X87070169Y-74455480D01*
X87149097Y-74603145D01*
X87197701Y-74763370D01*
X87214112Y-74930000D01*
X87197701Y-75096630D01*
X87149097Y-75256855D01*
X87070169Y-75404520D01*
X86963949Y-75533949D01*
X86834520Y-75640169D01*
X86686855Y-75719097D01*
X86526630Y-75767701D01*
X86401752Y-75780000D01*
X86318248Y-75780000D01*
X86193370Y-75767701D01*
X86033145Y-75719097D01*
X85885480Y-75640169D01*
X85756051Y-75533949D01*
X85649831Y-75404520D01*
X85570903Y-75256855D01*
X85522299Y-75096630D01*
X85505888Y-74930000D01*
X85522299Y-74763370D01*
X85570903Y-74603145D01*
X85649831Y-74455480D01*
X85756051Y-74326051D01*
X85885480Y-74219831D01*
X86033145Y-74140903D01*
X86193370Y-74092299D01*
X86318248Y-74080000D01*
X86401752Y-74080000D01*
X86526630Y-74092299D01*
X86526630Y-74092299D01*
G37*
G36*
X132246630Y-74092299D02*
X132406855Y-74140903D01*
X132554520Y-74219831D01*
X132683949Y-74326051D01*
X132790169Y-74455480D01*
X132869097Y-74603145D01*
X132917701Y-74763370D01*
X132934112Y-74930000D01*
X132917701Y-75096630D01*
X132869097Y-75256855D01*
X132790169Y-75404520D01*
X132683949Y-75533949D01*
X132554520Y-75640169D01*
X132406855Y-75719097D01*
X132246630Y-75767701D01*
X132121752Y-75780000D01*
X132038248Y-75780000D01*
X131913370Y-75767701D01*
X131753145Y-75719097D01*
X131605480Y-75640169D01*
X131476051Y-75533949D01*
X131369831Y-75404520D01*
X131290903Y-75256855D01*
X131242299Y-75096630D01*
X131225888Y-74930000D01*
X131242299Y-74763370D01*
X131290903Y-74603145D01*
X131369831Y-74455480D01*
X131476051Y-74326051D01*
X131605480Y-74219831D01*
X131753145Y-74140903D01*
X131913370Y-74092299D01*
X132038248Y-74080000D01*
X132121752Y-74080000D01*
X132246630Y-74092299D01*
X132246630Y-74092299D01*
G37*
G36*
X134786630Y-74092299D02*
X134946855Y-74140903D01*
X135094520Y-74219831D01*
X135223949Y-74326051D01*
X135330169Y-74455480D01*
X135409097Y-74603145D01*
X135457701Y-74763370D01*
X135474112Y-74930000D01*
X135457701Y-75096630D01*
X135409097Y-75256855D01*
X135330169Y-75404520D01*
X135223949Y-75533949D01*
X135094520Y-75640169D01*
X134946855Y-75719097D01*
X134786630Y-75767701D01*
X134661752Y-75780000D01*
X134578248Y-75780000D01*
X134453370Y-75767701D01*
X134293145Y-75719097D01*
X134145480Y-75640169D01*
X134016051Y-75533949D01*
X133909831Y-75404520D01*
X133830903Y-75256855D01*
X133782299Y-75096630D01*
X133765888Y-74930000D01*
X133782299Y-74763370D01*
X133830903Y-74603145D01*
X133909831Y-74455480D01*
X134016051Y-74326051D01*
X134145480Y-74219831D01*
X134293145Y-74140903D01*
X134453370Y-74092299D01*
X134578248Y-74080000D01*
X134661752Y-74080000D01*
X134786630Y-74092299D01*
X134786630Y-74092299D01*
G37*
G36*
X134786630Y-71552299D02*
X134946855Y-71600903D01*
X135094520Y-71679831D01*
X135223949Y-71786051D01*
X135330169Y-71915480D01*
X135409097Y-72063145D01*
X135457701Y-72223370D01*
X135474112Y-72390000D01*
X135457701Y-72556630D01*
X135409097Y-72716855D01*
X135330169Y-72864520D01*
X135223949Y-72993949D01*
X135094520Y-73100169D01*
X134946855Y-73179097D01*
X134786630Y-73227701D01*
X134661752Y-73240000D01*
X134578248Y-73240000D01*
X134453370Y-73227701D01*
X134293145Y-73179097D01*
X134145480Y-73100169D01*
X134016051Y-72993949D01*
X133909831Y-72864520D01*
X133830903Y-72716855D01*
X133782299Y-72556630D01*
X133765888Y-72390000D01*
X133782299Y-72223370D01*
X133830903Y-72063145D01*
X133909831Y-71915480D01*
X134016051Y-71786051D01*
X134145480Y-71679831D01*
X134293145Y-71600903D01*
X134453370Y-71552299D01*
X134578248Y-71540000D01*
X134661752Y-71540000D01*
X134786630Y-71552299D01*
X134786630Y-71552299D01*
G37*
G36*
X132246630Y-71552299D02*
X132406855Y-71600903D01*
X132554520Y-71679831D01*
X132683949Y-71786051D01*
X132790169Y-71915480D01*
X132869097Y-72063145D01*
X132917701Y-72223370D01*
X132934112Y-72390000D01*
X132917701Y-72556630D01*
X132869097Y-72716855D01*
X132790169Y-72864520D01*
X132683949Y-72993949D01*
X132554520Y-73100169D01*
X132406855Y-73179097D01*
X132246630Y-73227701D01*
X132121752Y-73240000D01*
X132038248Y-73240000D01*
X131913370Y-73227701D01*
X131753145Y-73179097D01*
X131605480Y-73100169D01*
X131476051Y-72993949D01*
X131369831Y-72864520D01*
X131290903Y-72716855D01*
X131242299Y-72556630D01*
X131225888Y-72390000D01*
X131242299Y-72223370D01*
X131290903Y-72063145D01*
X131369831Y-71915480D01*
X131476051Y-71786051D01*
X131605480Y-71679831D01*
X131753145Y-71600903D01*
X131913370Y-71552299D01*
X132038248Y-71540000D01*
X132121752Y-71540000D01*
X132246630Y-71552299D01*
X132246630Y-71552299D01*
G37*
G36*
X86526630Y-71552299D02*
X86686855Y-71600903D01*
X86834520Y-71679831D01*
X86963949Y-71786051D01*
X87070169Y-71915480D01*
X87149097Y-72063145D01*
X87197701Y-72223370D01*
X87214112Y-72390000D01*
X87197701Y-72556630D01*
X87149097Y-72716855D01*
X87070169Y-72864520D01*
X86963949Y-72993949D01*
X86834520Y-73100169D01*
X86686855Y-73179097D01*
X86526630Y-73227701D01*
X86401752Y-73240000D01*
X86318248Y-73240000D01*
X86193370Y-73227701D01*
X86033145Y-73179097D01*
X85885480Y-73100169D01*
X85756051Y-72993949D01*
X85649831Y-72864520D01*
X85570903Y-72716855D01*
X85522299Y-72556630D01*
X85505888Y-72390000D01*
X85522299Y-72223370D01*
X85570903Y-72063145D01*
X85649831Y-71915480D01*
X85756051Y-71786051D01*
X85885480Y-71679831D01*
X86033145Y-71600903D01*
X86193370Y-71552299D01*
X86318248Y-71540000D01*
X86401752Y-71540000D01*
X86526630Y-71552299D01*
X86526630Y-71552299D01*
G37*
G36*
X89066630Y-71552299D02*
X89226855Y-71600903D01*
X89374520Y-71679831D01*
X89503949Y-71786051D01*
X89610169Y-71915480D01*
X89689097Y-72063145D01*
X89737701Y-72223370D01*
X89754112Y-72390000D01*
X89737701Y-72556630D01*
X89689097Y-72716855D01*
X89610169Y-72864520D01*
X89503949Y-72993949D01*
X89374520Y-73100169D01*
X89226855Y-73179097D01*
X89066630Y-73227701D01*
X88941752Y-73240000D01*
X88858248Y-73240000D01*
X88733370Y-73227701D01*
X88573145Y-73179097D01*
X88425480Y-73100169D01*
X88296051Y-72993949D01*
X88189831Y-72864520D01*
X88110903Y-72716855D01*
X88062299Y-72556630D01*
X88045888Y-72390000D01*
X88062299Y-72223370D01*
X88110903Y-72063145D01*
X88189831Y-71915480D01*
X88296051Y-71786051D01*
X88425480Y-71679831D01*
X88573145Y-71600903D01*
X88733370Y-71552299D01*
X88858248Y-71540000D01*
X88941752Y-71540000D01*
X89066630Y-71552299D01*
X89066630Y-71552299D01*
G37*
G36*
X132246630Y-69012299D02*
X132406855Y-69060903D01*
X132554520Y-69139831D01*
X132683949Y-69246051D01*
X132790169Y-69375480D01*
X132869097Y-69523145D01*
X132917701Y-69683370D01*
X132934112Y-69850000D01*
X132917701Y-70016630D01*
X132869097Y-70176855D01*
X132790169Y-70324520D01*
X132683949Y-70453949D01*
X132554520Y-70560169D01*
X132406855Y-70639097D01*
X132246630Y-70687701D01*
X132121752Y-70700000D01*
X132038248Y-70700000D01*
X131913370Y-70687701D01*
X131753145Y-70639097D01*
X131605480Y-70560169D01*
X131476051Y-70453949D01*
X131369831Y-70324520D01*
X131290903Y-70176855D01*
X131242299Y-70016630D01*
X131225888Y-69850000D01*
X131242299Y-69683370D01*
X131290903Y-69523145D01*
X131369831Y-69375480D01*
X131476051Y-69246051D01*
X131605480Y-69139831D01*
X131753145Y-69060903D01*
X131913370Y-69012299D01*
X132038248Y-69000000D01*
X132121752Y-69000000D01*
X132246630Y-69012299D01*
X132246630Y-69012299D01*
G37*
G36*
X86526630Y-69012299D02*
X86686855Y-69060903D01*
X86834520Y-69139831D01*
X86963949Y-69246051D01*
X87070169Y-69375480D01*
X87149097Y-69523145D01*
X87197701Y-69683370D01*
X87214112Y-69850000D01*
X87197701Y-70016630D01*
X87149097Y-70176855D01*
X87070169Y-70324520D01*
X86963949Y-70453949D01*
X86834520Y-70560169D01*
X86686855Y-70639097D01*
X86526630Y-70687701D01*
X86401752Y-70700000D01*
X86318248Y-70700000D01*
X86193370Y-70687701D01*
X86033145Y-70639097D01*
X85885480Y-70560169D01*
X85756051Y-70453949D01*
X85649831Y-70324520D01*
X85570903Y-70176855D01*
X85522299Y-70016630D01*
X85505888Y-69850000D01*
X85522299Y-69683370D01*
X85570903Y-69523145D01*
X85649831Y-69375480D01*
X85756051Y-69246051D01*
X85885480Y-69139831D01*
X86033145Y-69060903D01*
X86193370Y-69012299D01*
X86318248Y-69000000D01*
X86401752Y-69000000D01*
X86526630Y-69012299D01*
X86526630Y-69012299D01*
G37*
G36*
X134786630Y-69012299D02*
X134946855Y-69060903D01*
X135094520Y-69139831D01*
X135223949Y-69246051D01*
X135330169Y-69375480D01*
X135409097Y-69523145D01*
X135457701Y-69683370D01*
X135474112Y-69850000D01*
X135457701Y-70016630D01*
X135409097Y-70176855D01*
X135330169Y-70324520D01*
X135223949Y-70453949D01*
X135094520Y-70560169D01*
X134946855Y-70639097D01*
X134786630Y-70687701D01*
X134661752Y-70700000D01*
X134578248Y-70700000D01*
X134453370Y-70687701D01*
X134293145Y-70639097D01*
X134145480Y-70560169D01*
X134016051Y-70453949D01*
X133909831Y-70324520D01*
X133830903Y-70176855D01*
X133782299Y-70016630D01*
X133765888Y-69850000D01*
X133782299Y-69683370D01*
X133830903Y-69523145D01*
X133909831Y-69375480D01*
X134016051Y-69246051D01*
X134145480Y-69139831D01*
X134293145Y-69060903D01*
X134453370Y-69012299D01*
X134578248Y-69000000D01*
X134661752Y-69000000D01*
X134786630Y-69012299D01*
X134786630Y-69012299D01*
G37*
G36*
X89066630Y-69012299D02*
X89226855Y-69060903D01*
X89374520Y-69139831D01*
X89503949Y-69246051D01*
X89610169Y-69375480D01*
X89689097Y-69523145D01*
X89737701Y-69683370D01*
X89754112Y-69850000D01*
X89737701Y-70016630D01*
X89689097Y-70176855D01*
X89610169Y-70324520D01*
X89503949Y-70453949D01*
X89374520Y-70560169D01*
X89226855Y-70639097D01*
X89066630Y-70687701D01*
X88941752Y-70700000D01*
X88858248Y-70700000D01*
X88733370Y-70687701D01*
X88573145Y-70639097D01*
X88425480Y-70560169D01*
X88296051Y-70453949D01*
X88189831Y-70324520D01*
X88110903Y-70176855D01*
X88062299Y-70016630D01*
X88045888Y-69850000D01*
X88062299Y-69683370D01*
X88110903Y-69523145D01*
X88189831Y-69375480D01*
X88296051Y-69246051D01*
X88425480Y-69139831D01*
X88573145Y-69060903D01*
X88733370Y-69012299D01*
X88858248Y-69000000D01*
X88941752Y-69000000D01*
X89066630Y-69012299D01*
X89066630Y-69012299D01*
G37*
G36*
X132246630Y-66472299D02*
X132406855Y-66520903D01*
X132554520Y-66599831D01*
X132683949Y-66706051D01*
X132790169Y-66835480D01*
X132869097Y-66983145D01*
X132917701Y-67143370D01*
X132934112Y-67310000D01*
X132917701Y-67476630D01*
X132869097Y-67636855D01*
X132790169Y-67784520D01*
X132683949Y-67913949D01*
X132554520Y-68020169D01*
X132406855Y-68099097D01*
X132246630Y-68147701D01*
X132121752Y-68160000D01*
X132038248Y-68160000D01*
X131913370Y-68147701D01*
X131753145Y-68099097D01*
X131605480Y-68020169D01*
X131476051Y-67913949D01*
X131369831Y-67784520D01*
X131290903Y-67636855D01*
X131242299Y-67476630D01*
X131225888Y-67310000D01*
X131242299Y-67143370D01*
X131290903Y-66983145D01*
X131369831Y-66835480D01*
X131476051Y-66706051D01*
X131605480Y-66599831D01*
X131753145Y-66520903D01*
X131913370Y-66472299D01*
X132038248Y-66460000D01*
X132121752Y-66460000D01*
X132246630Y-66472299D01*
X132246630Y-66472299D01*
G37*
G36*
X134786630Y-66472299D02*
X134946855Y-66520903D01*
X135094520Y-66599831D01*
X135223949Y-66706051D01*
X135330169Y-66835480D01*
X135409097Y-66983145D01*
X135457701Y-67143370D01*
X135474112Y-67310000D01*
X135457701Y-67476630D01*
X135409097Y-67636855D01*
X135330169Y-67784520D01*
X135223949Y-67913949D01*
X135094520Y-68020169D01*
X134946855Y-68099097D01*
X134786630Y-68147701D01*
X134661752Y-68160000D01*
X134578248Y-68160000D01*
X134453370Y-68147701D01*
X134293145Y-68099097D01*
X134145480Y-68020169D01*
X134016051Y-67913949D01*
X133909831Y-67784520D01*
X133830903Y-67636855D01*
X133782299Y-67476630D01*
X133765888Y-67310000D01*
X133782299Y-67143370D01*
X133830903Y-66983145D01*
X133909831Y-66835480D01*
X134016051Y-66706051D01*
X134145480Y-66599831D01*
X134293145Y-66520903D01*
X134453370Y-66472299D01*
X134578248Y-66460000D01*
X134661752Y-66460000D01*
X134786630Y-66472299D01*
X134786630Y-66472299D01*
G37*
G36*
X86526630Y-66472299D02*
X86686855Y-66520903D01*
X86834520Y-66599831D01*
X86963949Y-66706051D01*
X87070169Y-66835480D01*
X87149097Y-66983145D01*
X87197701Y-67143370D01*
X87214112Y-67310000D01*
X87197701Y-67476630D01*
X87149097Y-67636855D01*
X87070169Y-67784520D01*
X86963949Y-67913949D01*
X86834520Y-68020169D01*
X86686855Y-68099097D01*
X86526630Y-68147701D01*
X86401752Y-68160000D01*
X86318248Y-68160000D01*
X86193370Y-68147701D01*
X86033145Y-68099097D01*
X85885480Y-68020169D01*
X85756051Y-67913949D01*
X85649831Y-67784520D01*
X85570903Y-67636855D01*
X85522299Y-67476630D01*
X85505888Y-67310000D01*
X85522299Y-67143370D01*
X85570903Y-66983145D01*
X85649831Y-66835480D01*
X85756051Y-66706051D01*
X85885480Y-66599831D01*
X86033145Y-66520903D01*
X86193370Y-66472299D01*
X86318248Y-66460000D01*
X86401752Y-66460000D01*
X86526630Y-66472299D01*
X86526630Y-66472299D01*
G37*
G36*
X89750000Y-68160000D02*
X88050000Y-68160000D01*
X88050000Y-66460000D01*
X89750000Y-66460000D01*
X89750000Y-68160000D01*
X89750000Y-68160000D01*
G37*
G36*
X97294000Y-66324000D02*
X95794000Y-66324000D01*
X95794000Y-63724000D01*
X97294000Y-63724000D01*
X97294000Y-66324000D01*
X97294000Y-66324000D01*
G37*
G36*
X100294000Y-66324000D02*
X98794000Y-66324000D01*
X98794000Y-63724000D01*
X100294000Y-63724000D01*
X100294000Y-66324000D01*
X100294000Y-66324000D01*
G37*
G36*
X107075464Y-64152837D02*
X107107028Y-64162412D01*
X107136117Y-64177960D01*
X107161614Y-64198886D01*
X107182540Y-64224383D01*
X107198088Y-64253472D01*
X107207663Y-64285036D01*
X107211500Y-64323998D01*
X107211500Y-65724002D01*
X107207663Y-65762964D01*
X107198088Y-65794528D01*
X107182540Y-65823617D01*
X107161614Y-65849114D01*
X107136117Y-65870040D01*
X107107028Y-65885588D01*
X107075464Y-65895163D01*
X107036502Y-65899000D01*
X105961498Y-65899000D01*
X105922536Y-65895163D01*
X105890972Y-65885588D01*
X105861883Y-65870040D01*
X105836386Y-65849114D01*
X105815460Y-65823617D01*
X105799912Y-65794528D01*
X105790337Y-65762964D01*
X105786500Y-65724002D01*
X105786500Y-64323998D01*
X105790337Y-64285036D01*
X105799912Y-64253472D01*
X105815460Y-64224383D01*
X105836386Y-64198886D01*
X105861883Y-64177960D01*
X105890972Y-64162412D01*
X105922536Y-64152837D01*
X105961498Y-64149000D01*
X107036502Y-64149000D01*
X107075464Y-64152837D01*
X107075464Y-64152837D01*
G37*
G36*
X110050464Y-64152837D02*
X110082028Y-64162412D01*
X110111117Y-64177960D01*
X110136614Y-64198886D01*
X110157540Y-64224383D01*
X110173088Y-64253472D01*
X110182663Y-64285036D01*
X110186500Y-64323998D01*
X110186500Y-65724002D01*
X110182663Y-65762964D01*
X110173088Y-65794528D01*
X110157540Y-65823617D01*
X110136614Y-65849114D01*
X110111117Y-65870040D01*
X110082028Y-65885588D01*
X110050464Y-65895163D01*
X110011502Y-65899000D01*
X108936498Y-65899000D01*
X108897536Y-65895163D01*
X108865972Y-65885588D01*
X108836883Y-65870040D01*
X108811386Y-65849114D01*
X108790460Y-65823617D01*
X108774912Y-65794528D01*
X108765337Y-65762964D01*
X108761500Y-65724002D01*
X108761500Y-64323998D01*
X108765337Y-64285036D01*
X108774912Y-64253472D01*
X108790460Y-64224383D01*
X108811386Y-64198886D01*
X108836883Y-64177960D01*
X108865972Y-64162412D01*
X108897536Y-64152837D01*
X108936498Y-64149000D01*
X110011502Y-64149000D01*
X110050464Y-64152837D01*
X110050464Y-64152837D01*
G37*
G36*
X134786630Y-63932299D02*
X134946855Y-63980903D01*
X135094520Y-64059831D01*
X135223949Y-64166051D01*
X135330169Y-64295480D01*
X135409097Y-64443145D01*
X135457701Y-64603370D01*
X135474112Y-64770000D01*
X135457701Y-64936630D01*
X135409097Y-65096855D01*
X135330169Y-65244520D01*
X135223949Y-65373949D01*
X135094520Y-65480169D01*
X134946855Y-65559097D01*
X134786630Y-65607701D01*
X134661752Y-65620000D01*
X134578248Y-65620000D01*
X134453370Y-65607701D01*
X134293145Y-65559097D01*
X134145480Y-65480169D01*
X134016051Y-65373949D01*
X133909831Y-65244520D01*
X133830903Y-65096855D01*
X133782299Y-64936630D01*
X133765888Y-64770000D01*
X133782299Y-64603370D01*
X133830903Y-64443145D01*
X133909831Y-64295480D01*
X134016051Y-64166051D01*
X134145480Y-64059831D01*
X134293145Y-63980903D01*
X134453370Y-63932299D01*
X134578248Y-63920000D01*
X134661752Y-63920000D01*
X134786630Y-63932299D01*
X134786630Y-63932299D01*
G37*
G36*
X132246630Y-63932299D02*
X132406855Y-63980903D01*
X132554520Y-64059831D01*
X132683949Y-64166051D01*
X132790169Y-64295480D01*
X132869097Y-64443145D01*
X132917701Y-64603370D01*
X132934112Y-64770000D01*
X132917701Y-64936630D01*
X132869097Y-65096855D01*
X132790169Y-65244520D01*
X132683949Y-65373949D01*
X132554520Y-65480169D01*
X132406855Y-65559097D01*
X132246630Y-65607701D01*
X132121752Y-65620000D01*
X132038248Y-65620000D01*
X131913370Y-65607701D01*
X131753145Y-65559097D01*
X131605480Y-65480169D01*
X131476051Y-65373949D01*
X131369831Y-65244520D01*
X131290903Y-65096855D01*
X131242299Y-64936630D01*
X131225888Y-64770000D01*
X131242299Y-64603370D01*
X131290903Y-64443145D01*
X131369831Y-64295480D01*
X131476051Y-64166051D01*
X131605480Y-64059831D01*
X131753145Y-63980903D01*
X131913370Y-63932299D01*
X132038248Y-63920000D01*
X132121752Y-63920000D01*
X132246630Y-63932299D01*
X132246630Y-63932299D01*
G37*
G36*
X86526630Y-61392299D02*
X86686855Y-61440903D01*
X86834520Y-61519831D01*
X86963949Y-61626051D01*
X87070169Y-61755480D01*
X87149097Y-61903145D01*
X87197701Y-62063370D01*
X87214112Y-62230000D01*
X87197701Y-62396630D01*
X87149097Y-62556855D01*
X87070169Y-62704520D01*
X86963949Y-62833949D01*
X86834520Y-62940169D01*
X86686855Y-63019097D01*
X86526630Y-63067701D01*
X86401752Y-63080000D01*
X86318248Y-63080000D01*
X86193370Y-63067701D01*
X86033145Y-63019097D01*
X85885480Y-62940169D01*
X85756051Y-62833949D01*
X85649831Y-62704520D01*
X85570903Y-62556855D01*
X85522299Y-62396630D01*
X85505888Y-62230000D01*
X85522299Y-62063370D01*
X85570903Y-61903145D01*
X85649831Y-61755480D01*
X85756051Y-61626051D01*
X85885480Y-61519831D01*
X86033145Y-61440903D01*
X86193370Y-61392299D01*
X86318248Y-61380000D01*
X86401752Y-61380000D01*
X86526630Y-61392299D01*
X86526630Y-61392299D01*
G37*
G36*
X89066630Y-61392299D02*
X89226855Y-61440903D01*
X89374520Y-61519831D01*
X89503949Y-61626051D01*
X89610169Y-61755480D01*
X89689097Y-61903145D01*
X89737701Y-62063370D01*
X89754112Y-62230000D01*
X89737701Y-62396630D01*
X89689097Y-62556855D01*
X89610169Y-62704520D01*
X89503949Y-62833949D01*
X89374520Y-62940169D01*
X89226855Y-63019097D01*
X89066630Y-63067701D01*
X88941752Y-63080000D01*
X88858248Y-63080000D01*
X88733370Y-63067701D01*
X88573145Y-63019097D01*
X88425480Y-62940169D01*
X88296051Y-62833949D01*
X88189831Y-62704520D01*
X88110903Y-62556855D01*
X88062299Y-62396630D01*
X88045888Y-62230000D01*
X88062299Y-62063370D01*
X88110903Y-61903145D01*
X88189831Y-61755480D01*
X88296051Y-61626051D01*
X88425480Y-61519831D01*
X88573145Y-61440903D01*
X88733370Y-61392299D01*
X88858248Y-61380000D01*
X88941752Y-61380000D01*
X89066630Y-61392299D01*
X89066630Y-61392299D01*
G37*
G36*
X132246630Y-61392299D02*
X132406855Y-61440903D01*
X132554520Y-61519831D01*
X132683949Y-61626051D01*
X132790169Y-61755480D01*
X132869097Y-61903145D01*
X132917701Y-62063370D01*
X132934112Y-62230000D01*
X132917701Y-62396630D01*
X132869097Y-62556855D01*
X132790169Y-62704520D01*
X132683949Y-62833949D01*
X132554520Y-62940169D01*
X132406855Y-63019097D01*
X132246630Y-63067701D01*
X132121752Y-63080000D01*
X132038248Y-63080000D01*
X131913370Y-63067701D01*
X131753145Y-63019097D01*
X131605480Y-62940169D01*
X131476051Y-62833949D01*
X131369831Y-62704520D01*
X131290903Y-62556855D01*
X131242299Y-62396630D01*
X131225888Y-62230000D01*
X131242299Y-62063370D01*
X131290903Y-61903145D01*
X131369831Y-61755480D01*
X131476051Y-61626051D01*
X131605480Y-61519831D01*
X131753145Y-61440903D01*
X131913370Y-61392299D01*
X132038248Y-61380000D01*
X132121752Y-61380000D01*
X132246630Y-61392299D01*
X132246630Y-61392299D01*
G37*
G36*
X135470000Y-63080000D02*
X133770000Y-63080000D01*
X133770000Y-61380000D01*
X135470000Y-61380000D01*
X135470000Y-63080000D01*
X135470000Y-63080000D01*
G37*
G36*
X86526630Y-58852299D02*
X86686855Y-58900903D01*
X86834520Y-58979831D01*
X86963949Y-59086051D01*
X87070169Y-59215480D01*
X87149097Y-59363145D01*
X87197701Y-59523370D01*
X87214112Y-59690000D01*
X87197701Y-59856630D01*
X87149097Y-60016855D01*
X87070169Y-60164520D01*
X86963949Y-60293949D01*
X86834520Y-60400169D01*
X86686855Y-60479097D01*
X86526630Y-60527701D01*
X86401752Y-60540000D01*
X86318248Y-60540000D01*
X86193370Y-60527701D01*
X86033145Y-60479097D01*
X85885480Y-60400169D01*
X85756051Y-60293949D01*
X85649831Y-60164520D01*
X85570903Y-60016855D01*
X85522299Y-59856630D01*
X85505888Y-59690000D01*
X85522299Y-59523370D01*
X85570903Y-59363145D01*
X85649831Y-59215480D01*
X85756051Y-59086051D01*
X85885480Y-58979831D01*
X86033145Y-58900903D01*
X86193370Y-58852299D01*
X86318248Y-58840000D01*
X86401752Y-58840000D01*
X86526630Y-58852299D01*
X86526630Y-58852299D01*
G37*
G36*
X89066630Y-58852299D02*
X89226855Y-58900903D01*
X89374520Y-58979831D01*
X89503949Y-59086051D01*
X89610169Y-59215480D01*
X89689097Y-59363145D01*
X89737701Y-59523370D01*
X89754112Y-59690000D01*
X89737701Y-59856630D01*
X89689097Y-60016855D01*
X89610169Y-60164520D01*
X89503949Y-60293949D01*
X89374520Y-60400169D01*
X89226855Y-60479097D01*
X89066630Y-60527701D01*
X88941752Y-60540000D01*
X88858248Y-60540000D01*
X88733370Y-60527701D01*
X88573145Y-60479097D01*
X88425480Y-60400169D01*
X88296051Y-60293949D01*
X88189831Y-60164520D01*
X88110903Y-60016855D01*
X88062299Y-59856630D01*
X88045888Y-59690000D01*
X88062299Y-59523370D01*
X88110903Y-59363145D01*
X88189831Y-59215480D01*
X88296051Y-59086051D01*
X88425480Y-58979831D01*
X88573145Y-58900903D01*
X88733370Y-58852299D01*
X88858248Y-58840000D01*
X88941752Y-58840000D01*
X89066630Y-58852299D01*
X89066630Y-58852299D01*
G37*
G36*
X132246630Y-57582299D02*
X132406855Y-57630903D01*
X132554520Y-57709831D01*
X132683949Y-57816051D01*
X132790169Y-57945480D01*
X132869097Y-58093145D01*
X132917701Y-58253370D01*
X132934112Y-58420000D01*
X132917701Y-58586630D01*
X132869097Y-58746855D01*
X132790169Y-58894520D01*
X132683949Y-59023949D01*
X132554520Y-59130169D01*
X132406855Y-59209097D01*
X132246630Y-59257701D01*
X132121752Y-59270000D01*
X132038248Y-59270000D01*
X131913370Y-59257701D01*
X131753145Y-59209097D01*
X131605480Y-59130169D01*
X131476051Y-59023949D01*
X131369831Y-58894520D01*
X131290903Y-58746855D01*
X131242299Y-58586630D01*
X131225888Y-58420000D01*
X131242299Y-58253370D01*
X131290903Y-58093145D01*
X131369831Y-57945480D01*
X131476051Y-57816051D01*
X131605480Y-57709831D01*
X131753145Y-57630903D01*
X131913370Y-57582299D01*
X132038248Y-57570000D01*
X132121752Y-57570000D01*
X132246630Y-57582299D01*
X132246630Y-57582299D01*
G37*
G36*
X134786630Y-57582299D02*
X134946855Y-57630903D01*
X135094520Y-57709831D01*
X135223949Y-57816051D01*
X135330169Y-57945480D01*
X135409097Y-58093145D01*
X135457701Y-58253370D01*
X135474112Y-58420000D01*
X135457701Y-58586630D01*
X135409097Y-58746855D01*
X135330169Y-58894520D01*
X135223949Y-59023949D01*
X135094520Y-59130169D01*
X134946855Y-59209097D01*
X134786630Y-59257701D01*
X134661752Y-59270000D01*
X134578248Y-59270000D01*
X134453370Y-59257701D01*
X134293145Y-59209097D01*
X134145480Y-59130169D01*
X134016051Y-59023949D01*
X133909831Y-58894520D01*
X133830903Y-58746855D01*
X133782299Y-58586630D01*
X133765888Y-58420000D01*
X133782299Y-58253370D01*
X133830903Y-58093145D01*
X133909831Y-57945480D01*
X134016051Y-57816051D01*
X134145480Y-57709831D01*
X134293145Y-57630903D01*
X134453370Y-57582299D01*
X134578248Y-57570000D01*
X134661752Y-57570000D01*
X134786630Y-57582299D01*
X134786630Y-57582299D01*
G37*
G36*
X86526630Y-56312299D02*
X86686855Y-56360903D01*
X86834520Y-56439831D01*
X86963949Y-56546051D01*
X87070169Y-56675480D01*
X87149097Y-56823145D01*
X87197701Y-56983370D01*
X87214112Y-57150000D01*
X87197701Y-57316630D01*
X87149097Y-57476855D01*
X87070169Y-57624520D01*
X86963949Y-57753949D01*
X86834520Y-57860169D01*
X86686855Y-57939097D01*
X86526630Y-57987701D01*
X86401752Y-58000000D01*
X86318248Y-58000000D01*
X86193370Y-57987701D01*
X86033145Y-57939097D01*
X85885480Y-57860169D01*
X85756051Y-57753949D01*
X85649831Y-57624520D01*
X85570903Y-57476855D01*
X85522299Y-57316630D01*
X85505888Y-57150000D01*
X85522299Y-56983370D01*
X85570903Y-56823145D01*
X85649831Y-56675480D01*
X85756051Y-56546051D01*
X85885480Y-56439831D01*
X86033145Y-56360903D01*
X86193370Y-56312299D01*
X86318248Y-56300000D01*
X86401752Y-56300000D01*
X86526630Y-56312299D01*
X86526630Y-56312299D01*
G37*
G36*
X89066630Y-56312299D02*
X89226855Y-56360903D01*
X89374520Y-56439831D01*
X89503949Y-56546051D01*
X89610169Y-56675480D01*
X89689097Y-56823145D01*
X89737701Y-56983370D01*
X89754112Y-57150000D01*
X89737701Y-57316630D01*
X89689097Y-57476855D01*
X89610169Y-57624520D01*
X89503949Y-57753949D01*
X89374520Y-57860169D01*
X89226855Y-57939097D01*
X89066630Y-57987701D01*
X88941752Y-58000000D01*
X88858248Y-58000000D01*
X88733370Y-57987701D01*
X88573145Y-57939097D01*
X88425480Y-57860169D01*
X88296051Y-57753949D01*
X88189831Y-57624520D01*
X88110903Y-57476855D01*
X88062299Y-57316630D01*
X88045888Y-57150000D01*
X88062299Y-56983370D01*
X88110903Y-56823145D01*
X88189831Y-56675480D01*
X88296051Y-56546051D01*
X88425480Y-56439831D01*
X88573145Y-56360903D01*
X88733370Y-56312299D01*
X88858248Y-56300000D01*
X88941752Y-56300000D01*
X89066630Y-56312299D01*
X89066630Y-56312299D01*
G37*
G36*
X132246630Y-55042299D02*
X132406855Y-55090903D01*
X132554520Y-55169831D01*
X132683949Y-55276051D01*
X132790169Y-55405480D01*
X132869097Y-55553145D01*
X132917701Y-55713370D01*
X132934112Y-55880000D01*
X132917701Y-56046630D01*
X132869097Y-56206855D01*
X132790169Y-56354520D01*
X132683949Y-56483949D01*
X132554520Y-56590169D01*
X132406855Y-56669097D01*
X132246630Y-56717701D01*
X132121752Y-56730000D01*
X132038248Y-56730000D01*
X131913370Y-56717701D01*
X131753145Y-56669097D01*
X131605480Y-56590169D01*
X131476051Y-56483949D01*
X131369831Y-56354520D01*
X131290903Y-56206855D01*
X131242299Y-56046630D01*
X131225888Y-55880000D01*
X131242299Y-55713370D01*
X131290903Y-55553145D01*
X131369831Y-55405480D01*
X131476051Y-55276051D01*
X131605480Y-55169831D01*
X131753145Y-55090903D01*
X131913370Y-55042299D01*
X132038248Y-55030000D01*
X132121752Y-55030000D01*
X132246630Y-55042299D01*
X132246630Y-55042299D01*
G37*
G36*
X134786630Y-55042299D02*
X134946855Y-55090903D01*
X135094520Y-55169831D01*
X135223949Y-55276051D01*
X135330169Y-55405480D01*
X135409097Y-55553145D01*
X135457701Y-55713370D01*
X135474112Y-55880000D01*
X135457701Y-56046630D01*
X135409097Y-56206855D01*
X135330169Y-56354520D01*
X135223949Y-56483949D01*
X135094520Y-56590169D01*
X134946855Y-56669097D01*
X134786630Y-56717701D01*
X134661752Y-56730000D01*
X134578248Y-56730000D01*
X134453370Y-56717701D01*
X134293145Y-56669097D01*
X134145480Y-56590169D01*
X134016051Y-56483949D01*
X133909831Y-56354520D01*
X133830903Y-56206855D01*
X133782299Y-56046630D01*
X133765888Y-55880000D01*
X133782299Y-55713370D01*
X133830903Y-55553145D01*
X133909831Y-55405480D01*
X134016051Y-55276051D01*
X134145480Y-55169831D01*
X134293145Y-55090903D01*
X134453370Y-55042299D01*
X134578248Y-55030000D01*
X134661752Y-55030000D01*
X134786630Y-55042299D01*
X134786630Y-55042299D01*
G37*
G36*
X86526630Y-53772299D02*
X86686855Y-53820903D01*
X86834520Y-53899831D01*
X86963949Y-54006051D01*
X87070169Y-54135480D01*
X87149097Y-54283145D01*
X87197701Y-54443370D01*
X87214112Y-54610000D01*
X87197701Y-54776630D01*
X87149097Y-54936855D01*
X87070169Y-55084520D01*
X86963949Y-55213949D01*
X86834520Y-55320169D01*
X86686855Y-55399097D01*
X86526630Y-55447701D01*
X86401752Y-55460000D01*
X86318248Y-55460000D01*
X86193370Y-55447701D01*
X86033145Y-55399097D01*
X85885480Y-55320169D01*
X85756051Y-55213949D01*
X85649831Y-55084520D01*
X85570903Y-54936855D01*
X85522299Y-54776630D01*
X85505888Y-54610000D01*
X85522299Y-54443370D01*
X85570903Y-54283145D01*
X85649831Y-54135480D01*
X85756051Y-54006051D01*
X85885480Y-53899831D01*
X86033145Y-53820903D01*
X86193370Y-53772299D01*
X86318248Y-53760000D01*
X86401752Y-53760000D01*
X86526630Y-53772299D01*
X86526630Y-53772299D01*
G37*
G36*
X89066630Y-53772299D02*
X89226855Y-53820903D01*
X89374520Y-53899831D01*
X89503949Y-54006051D01*
X89610169Y-54135480D01*
X89689097Y-54283145D01*
X89737701Y-54443370D01*
X89754112Y-54610000D01*
X89737701Y-54776630D01*
X89689097Y-54936855D01*
X89610169Y-55084520D01*
X89503949Y-55213949D01*
X89374520Y-55320169D01*
X89226855Y-55399097D01*
X89066630Y-55447701D01*
X88941752Y-55460000D01*
X88858248Y-55460000D01*
X88733370Y-55447701D01*
X88573145Y-55399097D01*
X88425480Y-55320169D01*
X88296051Y-55213949D01*
X88189831Y-55084520D01*
X88110903Y-54936855D01*
X88062299Y-54776630D01*
X88045888Y-54610000D01*
X88062299Y-54443370D01*
X88110903Y-54283145D01*
X88189831Y-54135480D01*
X88296051Y-54006051D01*
X88425480Y-53899831D01*
X88573145Y-53820903D01*
X88733370Y-53772299D01*
X88858248Y-53760000D01*
X88941752Y-53760000D01*
X89066630Y-53772299D01*
X89066630Y-53772299D01*
G37*
G36*
X134786630Y-52502299D02*
X134946855Y-52550903D01*
X135094520Y-52629831D01*
X135223949Y-52736051D01*
X135330169Y-52865480D01*
X135409097Y-53013145D01*
X135457701Y-53173370D01*
X135474112Y-53340000D01*
X135457701Y-53506630D01*
X135409097Y-53666855D01*
X135330169Y-53814520D01*
X135223949Y-53943949D01*
X135094520Y-54050169D01*
X134946855Y-54129097D01*
X134786630Y-54177701D01*
X134661752Y-54190000D01*
X134578248Y-54190000D01*
X134453370Y-54177701D01*
X134293145Y-54129097D01*
X134145480Y-54050169D01*
X134016051Y-53943949D01*
X133909831Y-53814520D01*
X133830903Y-53666855D01*
X133782299Y-53506630D01*
X133765888Y-53340000D01*
X133782299Y-53173370D01*
X133830903Y-53013145D01*
X133909831Y-52865480D01*
X134016051Y-52736051D01*
X134145480Y-52629831D01*
X134293145Y-52550903D01*
X134453370Y-52502299D01*
X134578248Y-52490000D01*
X134661752Y-52490000D01*
X134786630Y-52502299D01*
X134786630Y-52502299D01*
G37*
G36*
X132246630Y-52502299D02*
X132406855Y-52550903D01*
X132554520Y-52629831D01*
X132683949Y-52736051D01*
X132790169Y-52865480D01*
X132869097Y-53013145D01*
X132917701Y-53173370D01*
X132934112Y-53340000D01*
X132917701Y-53506630D01*
X132869097Y-53666855D01*
X132790169Y-53814520D01*
X132683949Y-53943949D01*
X132554520Y-54050169D01*
X132406855Y-54129097D01*
X132246630Y-54177701D01*
X132121752Y-54190000D01*
X132038248Y-54190000D01*
X131913370Y-54177701D01*
X131753145Y-54129097D01*
X131605480Y-54050169D01*
X131476051Y-53943949D01*
X131369831Y-53814520D01*
X131290903Y-53666855D01*
X131242299Y-53506630D01*
X131225888Y-53340000D01*
X131242299Y-53173370D01*
X131290903Y-53013145D01*
X131369831Y-52865480D01*
X131476051Y-52736051D01*
X131605480Y-52629831D01*
X131753145Y-52550903D01*
X131913370Y-52502299D01*
X132038248Y-52490000D01*
X132121752Y-52490000D01*
X132246630Y-52502299D01*
X132246630Y-52502299D01*
G37*
G36*
X89066630Y-51232299D02*
X89226855Y-51280903D01*
X89374520Y-51359831D01*
X89503949Y-51466051D01*
X89610169Y-51595480D01*
X89689097Y-51743145D01*
X89737701Y-51903370D01*
X89754112Y-52070000D01*
X89737701Y-52236630D01*
X89689097Y-52396855D01*
X89610169Y-52544520D01*
X89503949Y-52673949D01*
X89374520Y-52780169D01*
X89226855Y-52859097D01*
X89066630Y-52907701D01*
X88941752Y-52920000D01*
X88858248Y-52920000D01*
X88733370Y-52907701D01*
X88573145Y-52859097D01*
X88425480Y-52780169D01*
X88296051Y-52673949D01*
X88189831Y-52544520D01*
X88110903Y-52396855D01*
X88062299Y-52236630D01*
X88045888Y-52070000D01*
X88062299Y-51903370D01*
X88110903Y-51743145D01*
X88189831Y-51595480D01*
X88296051Y-51466051D01*
X88425480Y-51359831D01*
X88573145Y-51280903D01*
X88733370Y-51232299D01*
X88858248Y-51220000D01*
X88941752Y-51220000D01*
X89066630Y-51232299D01*
X89066630Y-51232299D01*
G37*
G36*
X86526630Y-51232299D02*
X86686855Y-51280903D01*
X86834520Y-51359831D01*
X86963949Y-51466051D01*
X87070169Y-51595480D01*
X87149097Y-51743145D01*
X87197701Y-51903370D01*
X87214112Y-52070000D01*
X87197701Y-52236630D01*
X87149097Y-52396855D01*
X87070169Y-52544520D01*
X86963949Y-52673949D01*
X86834520Y-52780169D01*
X86686855Y-52859097D01*
X86526630Y-52907701D01*
X86401752Y-52920000D01*
X86318248Y-52920000D01*
X86193370Y-52907701D01*
X86033145Y-52859097D01*
X85885480Y-52780169D01*
X85756051Y-52673949D01*
X85649831Y-52544520D01*
X85570903Y-52396855D01*
X85522299Y-52236630D01*
X85505888Y-52070000D01*
X85522299Y-51903370D01*
X85570903Y-51743145D01*
X85649831Y-51595480D01*
X85756051Y-51466051D01*
X85885480Y-51359831D01*
X86033145Y-51280903D01*
X86193370Y-51232299D01*
X86318248Y-51220000D01*
X86401752Y-51220000D01*
X86526630Y-51232299D01*
X86526630Y-51232299D01*
G37*
G36*
X132246630Y-49962299D02*
X132406855Y-50010903D01*
X132554520Y-50089831D01*
X132683949Y-50196051D01*
X132790169Y-50325480D01*
X132869097Y-50473145D01*
X132917701Y-50633370D01*
X132934112Y-50800000D01*
X132917701Y-50966630D01*
X132869097Y-51126855D01*
X132790169Y-51274520D01*
X132683949Y-51403949D01*
X132554520Y-51510169D01*
X132406855Y-51589097D01*
X132246630Y-51637701D01*
X132121752Y-51650000D01*
X132038248Y-51650000D01*
X131913370Y-51637701D01*
X131753145Y-51589097D01*
X131605480Y-51510169D01*
X131476051Y-51403949D01*
X131369831Y-51274520D01*
X131290903Y-51126855D01*
X131242299Y-50966630D01*
X131225888Y-50800000D01*
X131242299Y-50633370D01*
X131290903Y-50473145D01*
X131369831Y-50325480D01*
X131476051Y-50196051D01*
X131605480Y-50089831D01*
X131753145Y-50010903D01*
X131913370Y-49962299D01*
X132038248Y-49950000D01*
X132121752Y-49950000D01*
X132246630Y-49962299D01*
X132246630Y-49962299D01*
G37*
G36*
X134786630Y-49962299D02*
X134946855Y-50010903D01*
X135094520Y-50089831D01*
X135223949Y-50196051D01*
X135330169Y-50325480D01*
X135409097Y-50473145D01*
X135457701Y-50633370D01*
X135474112Y-50800000D01*
X135457701Y-50966630D01*
X135409097Y-51126855D01*
X135330169Y-51274520D01*
X135223949Y-51403949D01*
X135094520Y-51510169D01*
X134946855Y-51589097D01*
X134786630Y-51637701D01*
X134661752Y-51650000D01*
X134578248Y-51650000D01*
X134453370Y-51637701D01*
X134293145Y-51589097D01*
X134145480Y-51510169D01*
X134016051Y-51403949D01*
X133909831Y-51274520D01*
X133830903Y-51126855D01*
X133782299Y-50966630D01*
X133765888Y-50800000D01*
X133782299Y-50633370D01*
X133830903Y-50473145D01*
X133909831Y-50325480D01*
X134016051Y-50196051D01*
X134145480Y-50089831D01*
X134293145Y-50010903D01*
X134453370Y-49962299D01*
X134578248Y-49950000D01*
X134661752Y-49950000D01*
X134786630Y-49962299D01*
X134786630Y-49962299D01*
G37*
G36*
X86526630Y-48692299D02*
X86686855Y-48740903D01*
X86834520Y-48819831D01*
X86963949Y-48926051D01*
X87070169Y-49055480D01*
X87149097Y-49203145D01*
X87197701Y-49363370D01*
X87214112Y-49530000D01*
X87197701Y-49696630D01*
X87149097Y-49856855D01*
X87070169Y-50004520D01*
X86963949Y-50133949D01*
X86834520Y-50240169D01*
X86686855Y-50319097D01*
X86526630Y-50367701D01*
X86401752Y-50380000D01*
X86318248Y-50380000D01*
X86193370Y-50367701D01*
X86033145Y-50319097D01*
X85885480Y-50240169D01*
X85756051Y-50133949D01*
X85649831Y-50004520D01*
X85570903Y-49856855D01*
X85522299Y-49696630D01*
X85505888Y-49530000D01*
X85522299Y-49363370D01*
X85570903Y-49203145D01*
X85649831Y-49055480D01*
X85756051Y-48926051D01*
X85885480Y-48819831D01*
X86033145Y-48740903D01*
X86193370Y-48692299D01*
X86318248Y-48680000D01*
X86401752Y-48680000D01*
X86526630Y-48692299D01*
X86526630Y-48692299D01*
G37*
G36*
X89066630Y-48692299D02*
X89226855Y-48740903D01*
X89374520Y-48819831D01*
X89503949Y-48926051D01*
X89610169Y-49055480D01*
X89689097Y-49203145D01*
X89737701Y-49363370D01*
X89754112Y-49530000D01*
X89737701Y-49696630D01*
X89689097Y-49856855D01*
X89610169Y-50004520D01*
X89503949Y-50133949D01*
X89374520Y-50240169D01*
X89226855Y-50319097D01*
X89066630Y-50367701D01*
X88941752Y-50380000D01*
X88858248Y-50380000D01*
X88733370Y-50367701D01*
X88573145Y-50319097D01*
X88425480Y-50240169D01*
X88296051Y-50133949D01*
X88189831Y-50004520D01*
X88110903Y-49856855D01*
X88062299Y-49696630D01*
X88045888Y-49530000D01*
X88062299Y-49363370D01*
X88110903Y-49203145D01*
X88189831Y-49055480D01*
X88296051Y-48926051D01*
X88425480Y-48819831D01*
X88573145Y-48740903D01*
X88733370Y-48692299D01*
X88858248Y-48680000D01*
X88941752Y-48680000D01*
X89066630Y-48692299D01*
X89066630Y-48692299D01*
G37*
G36*
X134786630Y-47422299D02*
X134946855Y-47470903D01*
X135094520Y-47549831D01*
X135223949Y-47656051D01*
X135330169Y-47785480D01*
X135409097Y-47933145D01*
X135457701Y-48093370D01*
X135474112Y-48260000D01*
X135457701Y-48426630D01*
X135409097Y-48586855D01*
X135330169Y-48734520D01*
X135223949Y-48863949D01*
X135094520Y-48970169D01*
X134946855Y-49049097D01*
X134786630Y-49097701D01*
X134661752Y-49110000D01*
X134578248Y-49110000D01*
X134453370Y-49097701D01*
X134293145Y-49049097D01*
X134145480Y-48970169D01*
X134016051Y-48863949D01*
X133909831Y-48734520D01*
X133830903Y-48586855D01*
X133782299Y-48426630D01*
X133765888Y-48260000D01*
X133782299Y-48093370D01*
X133830903Y-47933145D01*
X133909831Y-47785480D01*
X134016051Y-47656051D01*
X134145480Y-47549831D01*
X134293145Y-47470903D01*
X134453370Y-47422299D01*
X134578248Y-47410000D01*
X134661752Y-47410000D01*
X134786630Y-47422299D01*
X134786630Y-47422299D01*
G37*
G36*
X132246630Y-47422299D02*
X132406855Y-47470903D01*
X132554520Y-47549831D01*
X132683949Y-47656051D01*
X132790169Y-47785480D01*
X132869097Y-47933145D01*
X132917701Y-48093370D01*
X132934112Y-48260000D01*
X132917701Y-48426630D01*
X132869097Y-48586855D01*
X132790169Y-48734520D01*
X132683949Y-48863949D01*
X132554520Y-48970169D01*
X132406855Y-49049097D01*
X132246630Y-49097701D01*
X132121752Y-49110000D01*
X132038248Y-49110000D01*
X131913370Y-49097701D01*
X131753145Y-49049097D01*
X131605480Y-48970169D01*
X131476051Y-48863949D01*
X131369831Y-48734520D01*
X131290903Y-48586855D01*
X131242299Y-48426630D01*
X131225888Y-48260000D01*
X131242299Y-48093370D01*
X131290903Y-47933145D01*
X131369831Y-47785480D01*
X131476051Y-47656051D01*
X131605480Y-47549831D01*
X131753145Y-47470903D01*
X131913370Y-47422299D01*
X132038248Y-47410000D01*
X132121752Y-47410000D01*
X132246630Y-47422299D01*
X132246630Y-47422299D01*
G37*
G36*
X86526630Y-46152299D02*
X86686855Y-46200903D01*
X86834520Y-46279831D01*
X86963949Y-46386051D01*
X87070169Y-46515480D01*
X87149097Y-46663145D01*
X87197701Y-46823370D01*
X87214112Y-46990000D01*
X87197701Y-47156630D01*
X87149097Y-47316855D01*
X87070169Y-47464520D01*
X86963949Y-47593949D01*
X86834520Y-47700169D01*
X86686855Y-47779097D01*
X86526630Y-47827701D01*
X86401752Y-47840000D01*
X86318248Y-47840000D01*
X86193370Y-47827701D01*
X86033145Y-47779097D01*
X85885480Y-47700169D01*
X85756051Y-47593949D01*
X85649831Y-47464520D01*
X85570903Y-47316855D01*
X85522299Y-47156630D01*
X85505888Y-46990000D01*
X85522299Y-46823370D01*
X85570903Y-46663145D01*
X85649831Y-46515480D01*
X85756051Y-46386051D01*
X85885480Y-46279831D01*
X86033145Y-46200903D01*
X86193370Y-46152299D01*
X86318248Y-46140000D01*
X86401752Y-46140000D01*
X86526630Y-46152299D01*
X86526630Y-46152299D01*
G37*
G36*
X89066630Y-46152299D02*
X89226855Y-46200903D01*
X89374520Y-46279831D01*
X89503949Y-46386051D01*
X89610169Y-46515480D01*
X89689097Y-46663145D01*
X89737701Y-46823370D01*
X89754112Y-46990000D01*
X89737701Y-47156630D01*
X89689097Y-47316855D01*
X89610169Y-47464520D01*
X89503949Y-47593949D01*
X89374520Y-47700169D01*
X89226855Y-47779097D01*
X89066630Y-47827701D01*
X88941752Y-47840000D01*
X88858248Y-47840000D01*
X88733370Y-47827701D01*
X88573145Y-47779097D01*
X88425480Y-47700169D01*
X88296051Y-47593949D01*
X88189831Y-47464520D01*
X88110903Y-47316855D01*
X88062299Y-47156630D01*
X88045888Y-46990000D01*
X88062299Y-46823370D01*
X88110903Y-46663145D01*
X88189831Y-46515480D01*
X88296051Y-46386051D01*
X88425480Y-46279831D01*
X88573145Y-46200903D01*
X88733370Y-46152299D01*
X88858248Y-46140000D01*
X88941752Y-46140000D01*
X89066630Y-46152299D01*
X89066630Y-46152299D01*
G37*
G36*
X132246630Y-44882299D02*
X132406855Y-44930903D01*
X132554520Y-45009831D01*
X132683949Y-45116051D01*
X132790169Y-45245480D01*
X132869097Y-45393145D01*
X132917701Y-45553370D01*
X132934112Y-45720000D01*
X132917701Y-45886630D01*
X132869097Y-46046855D01*
X132790169Y-46194520D01*
X132683949Y-46323949D01*
X132554520Y-46430169D01*
X132406855Y-46509097D01*
X132246630Y-46557701D01*
X132121752Y-46570000D01*
X132038248Y-46570000D01*
X131913370Y-46557701D01*
X131753145Y-46509097D01*
X131605480Y-46430169D01*
X131476051Y-46323949D01*
X131369831Y-46194520D01*
X131290903Y-46046855D01*
X131242299Y-45886630D01*
X131225888Y-45720000D01*
X131242299Y-45553370D01*
X131290903Y-45393145D01*
X131369831Y-45245480D01*
X131476051Y-45116051D01*
X131605480Y-45009831D01*
X131753145Y-44930903D01*
X131913370Y-44882299D01*
X132038248Y-44870000D01*
X132121752Y-44870000D01*
X132246630Y-44882299D01*
X132246630Y-44882299D01*
G37*
G36*
X134786630Y-44882299D02*
X134946855Y-44930903D01*
X135094520Y-45009831D01*
X135223949Y-45116051D01*
X135330169Y-45245480D01*
X135409097Y-45393145D01*
X135457701Y-45553370D01*
X135474112Y-45720000D01*
X135457701Y-45886630D01*
X135409097Y-46046855D01*
X135330169Y-46194520D01*
X135223949Y-46323949D01*
X135094520Y-46430169D01*
X134946855Y-46509097D01*
X134786630Y-46557701D01*
X134661752Y-46570000D01*
X134578248Y-46570000D01*
X134453370Y-46557701D01*
X134293145Y-46509097D01*
X134145480Y-46430169D01*
X134016051Y-46323949D01*
X133909831Y-46194520D01*
X133830903Y-46046855D01*
X133782299Y-45886630D01*
X133765888Y-45720000D01*
X133782299Y-45553370D01*
X133830903Y-45393145D01*
X133909831Y-45245480D01*
X134016051Y-45116051D01*
X134145480Y-45009831D01*
X134293145Y-44930903D01*
X134453370Y-44882299D01*
X134578248Y-44870000D01*
X134661752Y-44870000D01*
X134786630Y-44882299D01*
X134786630Y-44882299D01*
G37*
G36*
X89750000Y-45300000D02*
X88050000Y-45300000D01*
X88050000Y-43600000D01*
X89750000Y-43600000D01*
X89750000Y-45300000D01*
X89750000Y-45300000D01*
G37*
G36*
X86526630Y-43612299D02*
X86686855Y-43660903D01*
X86834520Y-43739831D01*
X86963949Y-43846051D01*
X87070169Y-43975480D01*
X87149097Y-44123145D01*
X87197701Y-44283370D01*
X87214112Y-44450000D01*
X87197701Y-44616630D01*
X87149097Y-44776855D01*
X87070169Y-44924520D01*
X86963949Y-45053949D01*
X86834520Y-45160169D01*
X86686855Y-45239097D01*
X86526630Y-45287701D01*
X86401752Y-45300000D01*
X86318248Y-45300000D01*
X86193370Y-45287701D01*
X86033145Y-45239097D01*
X85885480Y-45160169D01*
X85756051Y-45053949D01*
X85649831Y-44924520D01*
X85570903Y-44776855D01*
X85522299Y-44616630D01*
X85505888Y-44450000D01*
X85522299Y-44283370D01*
X85570903Y-44123145D01*
X85649831Y-43975480D01*
X85756051Y-43846051D01*
X85885480Y-43739831D01*
X86033145Y-43660903D01*
X86193370Y-43612299D01*
X86318248Y-43600000D01*
X86401752Y-43600000D01*
X86526630Y-43612299D01*
X86526630Y-43612299D01*
G37*
G36*
X132246630Y-42342299D02*
X132406855Y-42390903D01*
X132554520Y-42469831D01*
X132683949Y-42576051D01*
X132790169Y-42705480D01*
X132869097Y-42853145D01*
X132917701Y-43013370D01*
X132934112Y-43180000D01*
X132917701Y-43346630D01*
X132869097Y-43506855D01*
X132790169Y-43654520D01*
X132683949Y-43783949D01*
X132554520Y-43890169D01*
X132406855Y-43969097D01*
X132246630Y-44017701D01*
X132121752Y-44030000D01*
X132038248Y-44030000D01*
X131913370Y-44017701D01*
X131753145Y-43969097D01*
X131605480Y-43890169D01*
X131476051Y-43783949D01*
X131369831Y-43654520D01*
X131290903Y-43506855D01*
X131242299Y-43346630D01*
X131225888Y-43180000D01*
X131242299Y-43013370D01*
X131290903Y-42853145D01*
X131369831Y-42705480D01*
X131476051Y-42576051D01*
X131605480Y-42469831D01*
X131753145Y-42390903D01*
X131913370Y-42342299D01*
X132038248Y-42330000D01*
X132121752Y-42330000D01*
X132246630Y-42342299D01*
X132246630Y-42342299D01*
G37*
G36*
X134786630Y-42342299D02*
X134946855Y-42390903D01*
X135094520Y-42469831D01*
X135223949Y-42576051D01*
X135330169Y-42705480D01*
X135409097Y-42853145D01*
X135457701Y-43013370D01*
X135474112Y-43180000D01*
X135457701Y-43346630D01*
X135409097Y-43506855D01*
X135330169Y-43654520D01*
X135223949Y-43783949D01*
X135094520Y-43890169D01*
X134946855Y-43969097D01*
X134786630Y-44017701D01*
X134661752Y-44030000D01*
X134578248Y-44030000D01*
X134453370Y-44017701D01*
X134293145Y-43969097D01*
X134145480Y-43890169D01*
X134016051Y-43783949D01*
X133909831Y-43654520D01*
X133830903Y-43506855D01*
X133782299Y-43346630D01*
X133765888Y-43180000D01*
X133782299Y-43013370D01*
X133830903Y-42853145D01*
X133909831Y-42705480D01*
X134016051Y-42576051D01*
X134145480Y-42469831D01*
X134293145Y-42390903D01*
X134453370Y-42342299D01*
X134578248Y-42330000D01*
X134661752Y-42330000D01*
X134786630Y-42342299D01*
X134786630Y-42342299D01*
G37*
G36*
X103019434Y-41644080D02*
X103057272Y-41655559D01*
X103092149Y-41674201D01*
X103122715Y-41699285D01*
X103147799Y-41729851D01*
X103166441Y-41764728D01*
X103177920Y-41802566D01*
X103182400Y-41848057D01*
X103182400Y-43535943D01*
X103177920Y-43581434D01*
X103166441Y-43619272D01*
X103147799Y-43654149D01*
X103122715Y-43684715D01*
X103092149Y-43709799D01*
X103057272Y-43728441D01*
X103019434Y-43739920D01*
X102973943Y-43744400D01*
X97686057Y-43744400D01*
X97640566Y-43739920D01*
X97602728Y-43728441D01*
X97567851Y-43709799D01*
X97537285Y-43684715D01*
X97512201Y-43654149D01*
X97493559Y-43619272D01*
X97482080Y-43581434D01*
X97477600Y-43535943D01*
X97477600Y-41848057D01*
X97482080Y-41802566D01*
X97493559Y-41764728D01*
X97512201Y-41729851D01*
X97537285Y-41699285D01*
X97567851Y-41674201D01*
X97602728Y-41655559D01*
X97640566Y-41644080D01*
X97686057Y-41639600D01*
X102973943Y-41639600D01*
X103019434Y-41644080D01*
X103019434Y-41644080D01*
G37*
G36*
X119665319Y-40017662D02*
X119695173Y-40026718D01*
X119722679Y-40041420D01*
X119746791Y-40061209D01*
X119766580Y-40085321D01*
X119781282Y-40112827D01*
X119790338Y-40142681D01*
X119794000Y-40179862D01*
X119794000Y-41648138D01*
X119790338Y-41685319D01*
X119781282Y-41715173D01*
X119766580Y-41742679D01*
X119746791Y-41766791D01*
X119722679Y-41786580D01*
X119695173Y-41801282D01*
X119665319Y-41810338D01*
X119628138Y-41814000D01*
X114559862Y-41814000D01*
X114522681Y-41810338D01*
X114492827Y-41801282D01*
X114465321Y-41786580D01*
X114441209Y-41766791D01*
X114421420Y-41742679D01*
X114406718Y-41715173D01*
X114397662Y-41685319D01*
X114394000Y-41648138D01*
X114394000Y-40179862D01*
X114397662Y-40142681D01*
X114406718Y-40112827D01*
X114421420Y-40085321D01*
X114441209Y-40061209D01*
X114465321Y-40041420D01*
X114492827Y-40026718D01*
X114522681Y-40017662D01*
X114559862Y-40014000D01*
X119628138Y-40014000D01*
X119665319Y-40017662D01*
X119665319Y-40017662D01*
G37*
G36*
X134786630Y-39802299D02*
X134946855Y-39850903D01*
X135094520Y-39929831D01*
X135223949Y-40036051D01*
X135330169Y-40165480D01*
X135409097Y-40313145D01*
X135457701Y-40473370D01*
X135474112Y-40640000D01*
X135457701Y-40806630D01*
X135409097Y-40966855D01*
X135330169Y-41114520D01*
X135223949Y-41243949D01*
X135094520Y-41350169D01*
X134946855Y-41429097D01*
X134786630Y-41477701D01*
X134661752Y-41490000D01*
X134578248Y-41490000D01*
X134453370Y-41477701D01*
X134293145Y-41429097D01*
X134145480Y-41350169D01*
X134016051Y-41243949D01*
X133909831Y-41114520D01*
X133830903Y-40966855D01*
X133782299Y-40806630D01*
X133765888Y-40640000D01*
X133782299Y-40473370D01*
X133830903Y-40313145D01*
X133909831Y-40165480D01*
X134016051Y-40036051D01*
X134145480Y-39929831D01*
X134293145Y-39850903D01*
X134453370Y-39802299D01*
X134578248Y-39790000D01*
X134661752Y-39790000D01*
X134786630Y-39802299D01*
X134786630Y-39802299D01*
G37*
G36*
X132246630Y-39802299D02*
X132406855Y-39850903D01*
X132554520Y-39929831D01*
X132683949Y-40036051D01*
X132790169Y-40165480D01*
X132869097Y-40313145D01*
X132917701Y-40473370D01*
X132934112Y-40640000D01*
X132917701Y-40806630D01*
X132869097Y-40966855D01*
X132790169Y-41114520D01*
X132683949Y-41243949D01*
X132554520Y-41350169D01*
X132406855Y-41429097D01*
X132246630Y-41477701D01*
X132121752Y-41490000D01*
X132038248Y-41490000D01*
X131913370Y-41477701D01*
X131753145Y-41429097D01*
X131605480Y-41350169D01*
X131476051Y-41243949D01*
X131369831Y-41114520D01*
X131290903Y-40966855D01*
X131242299Y-40806630D01*
X131225888Y-40640000D01*
X131242299Y-40473370D01*
X131290903Y-40313145D01*
X131369831Y-40165480D01*
X131476051Y-40036051D01*
X131605480Y-39929831D01*
X131753145Y-39850903D01*
X131913370Y-39802299D01*
X132038248Y-39790000D01*
X132121752Y-39790000D01*
X132246630Y-39802299D01*
X132246630Y-39802299D01*
G37*
G36*
X132246630Y-37262299D02*
X132406855Y-37310903D01*
X132554520Y-37389831D01*
X132683949Y-37496051D01*
X132790169Y-37625480D01*
X132869097Y-37773145D01*
X132917701Y-37933370D01*
X132934112Y-38100000D01*
X132917701Y-38266630D01*
X132869097Y-38426855D01*
X132790169Y-38574520D01*
X132683949Y-38703949D01*
X132554520Y-38810169D01*
X132406855Y-38889097D01*
X132246630Y-38937701D01*
X132121752Y-38950000D01*
X132038248Y-38950000D01*
X131913370Y-38937701D01*
X131753145Y-38889097D01*
X131605480Y-38810169D01*
X131476051Y-38703949D01*
X131369831Y-38574520D01*
X131290903Y-38426855D01*
X131242299Y-38266630D01*
X131225888Y-38100000D01*
X131242299Y-37933370D01*
X131290903Y-37773145D01*
X131369831Y-37625480D01*
X131476051Y-37496051D01*
X131605480Y-37389831D01*
X131753145Y-37310903D01*
X131913370Y-37262299D01*
X132038248Y-37250000D01*
X132121752Y-37250000D01*
X132246630Y-37262299D01*
X132246630Y-37262299D01*
G37*
G36*
X134786630Y-37262299D02*
X134946855Y-37310903D01*
X135094520Y-37389831D01*
X135223949Y-37496051D01*
X135330169Y-37625480D01*
X135409097Y-37773145D01*
X135457701Y-37933370D01*
X135474112Y-38100000D01*
X135457701Y-38266630D01*
X135409097Y-38426855D01*
X135330169Y-38574520D01*
X135223949Y-38703949D01*
X135094520Y-38810169D01*
X134946855Y-38889097D01*
X134786630Y-38937701D01*
X134661752Y-38950000D01*
X134578248Y-38950000D01*
X134453370Y-38937701D01*
X134293145Y-38889097D01*
X134145480Y-38810169D01*
X134016051Y-38703949D01*
X133909831Y-38574520D01*
X133830903Y-38426855D01*
X133782299Y-38266630D01*
X133765888Y-38100000D01*
X133782299Y-37933370D01*
X133830903Y-37773145D01*
X133909831Y-37625480D01*
X134016051Y-37496051D01*
X134145480Y-37389831D01*
X134293145Y-37310903D01*
X134453370Y-37262299D01*
X134578248Y-37250000D01*
X134661752Y-37250000D01*
X134786630Y-37262299D01*
X134786630Y-37262299D01*
G37*
G36*
X103019434Y-36544080D02*
X103057272Y-36555559D01*
X103092149Y-36574201D01*
X103122715Y-36599285D01*
X103147799Y-36629851D01*
X103166441Y-36664728D01*
X103177920Y-36702566D01*
X103182400Y-36748057D01*
X103182400Y-38435943D01*
X103177920Y-38481434D01*
X103166441Y-38519272D01*
X103147799Y-38554149D01*
X103122715Y-38584715D01*
X103092149Y-38609799D01*
X103057272Y-38628441D01*
X103019434Y-38639920D01*
X102973943Y-38644400D01*
X97686057Y-38644400D01*
X97640566Y-38639920D01*
X97602728Y-38628441D01*
X97567851Y-38609799D01*
X97537285Y-38584715D01*
X97512201Y-38554149D01*
X97493559Y-38519272D01*
X97482080Y-38481434D01*
X97477600Y-38435943D01*
X97477600Y-36748057D01*
X97482080Y-36702566D01*
X97493559Y-36664728D01*
X97512201Y-36629851D01*
X97537285Y-36599285D01*
X97567851Y-36574201D01*
X97602728Y-36555559D01*
X97640566Y-36544080D01*
X97686057Y-36539600D01*
X102973943Y-36539600D01*
X103019434Y-36544080D01*
X103019434Y-36544080D01*
G37*
G36*
X111399434Y-32204080D02*
X111437272Y-32215559D01*
X111472149Y-32234201D01*
X111502715Y-32259285D01*
X111527799Y-32289851D01*
X111546441Y-32324728D01*
X111557920Y-32362566D01*
X111562400Y-32408057D01*
X111562400Y-37695943D01*
X111557920Y-37741434D01*
X111546441Y-37779272D01*
X111527799Y-37814149D01*
X111502715Y-37844715D01*
X111472149Y-37869799D01*
X111437272Y-37888441D01*
X111399434Y-37899920D01*
X111353943Y-37904400D01*
X109666057Y-37904400D01*
X109620566Y-37899920D01*
X109582728Y-37888441D01*
X109547851Y-37869799D01*
X109517285Y-37844715D01*
X109492201Y-37814149D01*
X109473559Y-37779272D01*
X109462080Y-37741434D01*
X109457600Y-37695943D01*
X109457600Y-32408057D01*
X109462080Y-32362566D01*
X109473559Y-32324728D01*
X109492201Y-32289851D01*
X109517285Y-32259285D01*
X109547851Y-32234201D01*
X109582728Y-32215559D01*
X109620566Y-32204080D01*
X109666057Y-32199600D01*
X111353943Y-32199600D01*
X111399434Y-32204080D01*
X111399434Y-32204080D01*
G37*
G36*
X106299434Y-32204080D02*
X106337272Y-32215559D01*
X106372149Y-32234201D01*
X106402715Y-32259285D01*
X106427799Y-32289851D01*
X106446441Y-32324728D01*
X106457920Y-32362566D01*
X106462400Y-32408057D01*
X106462400Y-37695943D01*
X106457920Y-37741434D01*
X106446441Y-37779272D01*
X106427799Y-37814149D01*
X106402715Y-37844715D01*
X106372149Y-37869799D01*
X106337272Y-37888441D01*
X106299434Y-37899920D01*
X106253943Y-37904400D01*
X104566057Y-37904400D01*
X104520566Y-37899920D01*
X104482728Y-37888441D01*
X104447851Y-37869799D01*
X104417285Y-37844715D01*
X104392201Y-37814149D01*
X104373559Y-37779272D01*
X104362080Y-37741434D01*
X104357600Y-37695943D01*
X104357600Y-32408057D01*
X104362080Y-32362566D01*
X104373559Y-32324728D01*
X104392201Y-32289851D01*
X104417285Y-32259285D01*
X104447851Y-32234201D01*
X104482728Y-32215559D01*
X104520566Y-32204080D01*
X104566057Y-32199600D01*
X106253943Y-32199600D01*
X106299434Y-32204080D01*
X106299434Y-32204080D01*
G37*
G36*
X128553319Y-31339662D02*
X128583173Y-31348718D01*
X128610679Y-31363420D01*
X128634791Y-31383209D01*
X128654580Y-31407321D01*
X128669282Y-31434827D01*
X128678338Y-31464681D01*
X128682000Y-31501862D01*
X128682000Y-36570138D01*
X128678338Y-36607319D01*
X128669282Y-36637173D01*
X128654580Y-36664679D01*
X128634791Y-36688791D01*
X128610679Y-36708580D01*
X128583173Y-36723282D01*
X128553319Y-36732338D01*
X128516138Y-36736000D01*
X127047862Y-36736000D01*
X127010681Y-36732338D01*
X126980827Y-36723282D01*
X126953321Y-36708580D01*
X126929209Y-36688791D01*
X126909420Y-36664679D01*
X126894718Y-36637173D01*
X126885662Y-36607319D01*
X126882000Y-36570138D01*
X126882000Y-31501862D01*
X126885662Y-31464681D01*
X126894718Y-31434827D01*
X126909420Y-31407321D01*
X126929209Y-31383209D01*
X126953321Y-31363420D01*
X126980827Y-31348718D01*
X127010681Y-31339662D01*
X127047862Y-31336000D01*
X128516138Y-31336000D01*
X128553319Y-31339662D01*
X128553319Y-31339662D01*
G37*
G36*
X123453319Y-31339662D02*
X123483173Y-31348718D01*
X123510679Y-31363420D01*
X123534791Y-31383209D01*
X123554580Y-31407321D01*
X123569282Y-31434827D01*
X123578338Y-31464681D01*
X123582000Y-31501862D01*
X123582000Y-36570138D01*
X123578338Y-36607319D01*
X123569282Y-36637173D01*
X123554580Y-36664679D01*
X123534791Y-36688791D01*
X123510679Y-36708580D01*
X123483173Y-36723282D01*
X123453319Y-36732338D01*
X123416138Y-36736000D01*
X121947862Y-36736000D01*
X121910681Y-36732338D01*
X121880827Y-36723282D01*
X121853321Y-36708580D01*
X121829209Y-36688791D01*
X121809420Y-36664679D01*
X121794718Y-36637173D01*
X121785662Y-36607319D01*
X121782000Y-36570138D01*
X121782000Y-31501862D01*
X121785662Y-31464681D01*
X121794718Y-31434827D01*
X121809420Y-31407321D01*
X121829209Y-31383209D01*
X121853321Y-31363420D01*
X121880827Y-31348718D01*
X121910681Y-31339662D01*
X121947862Y-31336000D01*
X123416138Y-31336000D01*
X123453319Y-31339662D01*
X123453319Y-31339662D01*
G37*
G36*
X119665319Y-34917662D02*
X119695173Y-34926718D01*
X119722679Y-34941420D01*
X119746791Y-34961209D01*
X119766580Y-34985321D01*
X119781282Y-35012827D01*
X119790338Y-35042681D01*
X119794000Y-35079862D01*
X119794000Y-36548138D01*
X119790338Y-36585319D01*
X119781282Y-36615173D01*
X119766580Y-36642679D01*
X119746791Y-36666791D01*
X119722679Y-36686580D01*
X119695173Y-36701282D01*
X119665319Y-36710338D01*
X119628138Y-36714000D01*
X114559862Y-36714000D01*
X114522681Y-36710338D01*
X114492827Y-36701282D01*
X114465321Y-36686580D01*
X114441209Y-36666791D01*
X114421420Y-36642679D01*
X114406718Y-36615173D01*
X114397662Y-36585319D01*
X114394000Y-36548138D01*
X114394000Y-35079862D01*
X114397662Y-35042681D01*
X114406718Y-35012827D01*
X114421420Y-34985321D01*
X114441209Y-34961209D01*
X114465321Y-34941420D01*
X114492827Y-34926718D01*
X114522681Y-34917662D01*
X114559862Y-34914000D01*
X119628138Y-34914000D01*
X119665319Y-34917662D01*
X119665319Y-34917662D01*
G37*
G36*
X132246630Y-34722299D02*
X132406855Y-34770903D01*
X132554520Y-34849831D01*
X132683949Y-34956051D01*
X132790169Y-35085480D01*
X132869097Y-35233145D01*
X132917701Y-35393370D01*
X132934112Y-35560000D01*
X132917701Y-35726630D01*
X132869097Y-35886855D01*
X132790169Y-36034520D01*
X132683949Y-36163949D01*
X132554520Y-36270169D01*
X132406855Y-36349097D01*
X132246630Y-36397701D01*
X132121752Y-36410000D01*
X132038248Y-36410000D01*
X131913370Y-36397701D01*
X131753145Y-36349097D01*
X131605480Y-36270169D01*
X131476051Y-36163949D01*
X131369831Y-36034520D01*
X131290903Y-35886855D01*
X131242299Y-35726630D01*
X131225888Y-35560000D01*
X131242299Y-35393370D01*
X131290903Y-35233145D01*
X131369831Y-35085480D01*
X131476051Y-34956051D01*
X131605480Y-34849831D01*
X131753145Y-34770903D01*
X131913370Y-34722299D01*
X132038248Y-34710000D01*
X132121752Y-34710000D01*
X132246630Y-34722299D01*
X132246630Y-34722299D01*
G37*
G36*
X135470000Y-36410000D02*
X133770000Y-36410000D01*
X133770000Y-34710000D01*
X135470000Y-34710000D01*
X135470000Y-36410000D01*
X135470000Y-36410000D01*
G37*
G36*
X86826703Y-30211486D02*
X87117883Y-30332097D01*
X87379944Y-30507201D01*
X87602799Y-30730056D01*
X87777903Y-30992117D01*
X87898514Y-31283297D01*
X87960000Y-31592412D01*
X87960000Y-31907588D01*
X87898514Y-32216703D01*
X87777903Y-32507883D01*
X87602799Y-32769944D01*
X87379944Y-32992799D01*
X87117883Y-33167903D01*
X86826703Y-33288514D01*
X86517588Y-33350000D01*
X86202412Y-33350000D01*
X85893297Y-33288514D01*
X85602117Y-33167903D01*
X85340056Y-32992799D01*
X85117201Y-32769944D01*
X84942097Y-32507883D01*
X84821486Y-32216703D01*
X84760000Y-31907588D01*
X84760000Y-31592412D01*
X84821486Y-31283297D01*
X84942097Y-30992117D01*
X85117201Y-30730056D01*
X85340056Y-30507201D01*
X85602117Y-30332097D01*
X85893297Y-30211486D01*
X86202412Y-30150000D01*
X86517588Y-30150000D01*
X86826703Y-30211486D01*
X86826703Y-30211486D01*
G37*
G36*
X135086703Y-30211486D02*
X135377883Y-30332097D01*
X135639944Y-30507201D01*
X135862799Y-30730056D01*
X136037903Y-30992117D01*
X136158514Y-31283297D01*
X136220000Y-31592412D01*
X136220000Y-31907588D01*
X136158514Y-32216703D01*
X136037903Y-32507883D01*
X135862799Y-32769944D01*
X135639944Y-32992799D01*
X135377883Y-33167903D01*
X135086703Y-33288514D01*
X134777588Y-33350000D01*
X134462412Y-33350000D01*
X134153297Y-33288514D01*
X133862117Y-33167903D01*
X133600056Y-32992799D01*
X133377201Y-32769944D01*
X133202097Y-32507883D01*
X133081486Y-32216703D01*
X133020000Y-31907588D01*
X133020000Y-31592412D01*
X133081486Y-31283297D01*
X133202097Y-30992117D01*
X133377201Y-30730056D01*
X133600056Y-30507201D01*
X133862117Y-30332097D01*
X134153297Y-30211486D01*
X134462412Y-30150000D01*
X134777588Y-30150000D01*
X135086703Y-30211486D01*
X135086703Y-30211486D01*
G37*
G36*
X97733352Y-26730743D02*
X97878941Y-26791048D01*
X98009973Y-26878601D01*
X98121399Y-26990027D01*
X98208952Y-27121059D01*
X98269257Y-27266648D01*
X98300000Y-27421205D01*
X98300000Y-27578795D01*
X98269257Y-27733352D01*
X98208952Y-27878941D01*
X98121399Y-28009973D01*
X98009973Y-28121399D01*
X97878941Y-28208952D01*
X97733352Y-28269257D01*
X97578795Y-28300000D01*
X97421205Y-28300000D01*
X97266648Y-28269257D01*
X97121059Y-28208952D01*
X96990027Y-28121399D01*
X96878601Y-28009973D01*
X96791048Y-27878941D01*
X96730743Y-27733352D01*
X96700000Y-27578795D01*
X96700000Y-27421205D01*
X96730743Y-27266648D01*
X96791048Y-27121059D01*
X96878601Y-26990027D01*
X96990027Y-26878601D01*
X97121059Y-26791048D01*
X97266648Y-26730743D01*
X97421205Y-26700000D01*
X97578795Y-26700000D01*
X97733352Y-26730743D01*
X97733352Y-26730743D01*
G37*
G36*
X95233352Y-26730743D02*
X95378941Y-26791048D01*
X95509973Y-26878601D01*
X95621399Y-26990027D01*
X95708952Y-27121059D01*
X95769257Y-27266648D01*
X95800000Y-27421205D01*
X95800000Y-27578795D01*
X95769257Y-27733352D01*
X95708952Y-27878941D01*
X95621399Y-28009973D01*
X95509973Y-28121399D01*
X95378941Y-28208952D01*
X95233352Y-28269257D01*
X95078795Y-28300000D01*
X94921205Y-28300000D01*
X94766648Y-28269257D01*
X94621059Y-28208952D01*
X94490027Y-28121399D01*
X94378601Y-28009973D01*
X94291048Y-27878941D01*
X94230743Y-27733352D01*
X94200000Y-27578795D01*
X94200000Y-27421205D01*
X94230743Y-27266648D01*
X94291048Y-27121059D01*
X94378601Y-26990027D01*
X94490027Y-26878601D01*
X94621059Y-26791048D01*
X94766648Y-26730743D01*
X94921205Y-26700000D01*
X95078795Y-26700000D01*
X95233352Y-26730743D01*
X95233352Y-26730743D01*
G37*
G36*
X100233352Y-26730743D02*
X100378941Y-26791048D01*
X100509973Y-26878601D01*
X100621399Y-26990027D01*
X100708952Y-27121059D01*
X100769257Y-27266648D01*
X100800000Y-27421205D01*
X100800000Y-27578795D01*
X100769257Y-27733352D01*
X100708952Y-27878941D01*
X100621399Y-28009973D01*
X100509973Y-28121399D01*
X100378941Y-28208952D01*
X100233352Y-28269257D01*
X100078795Y-28300000D01*
X99921205Y-28300000D01*
X99766648Y-28269257D01*
X99621059Y-28208952D01*
X99490027Y-28121399D01*
X99378601Y-28009973D01*
X99291048Y-27878941D01*
X99230743Y-27733352D01*
X99200000Y-27578795D01*
X99200000Y-27421205D01*
X99230743Y-27266648D01*
X99291048Y-27121059D01*
X99378601Y-26990027D01*
X99490027Y-26878601D01*
X99621059Y-26791048D01*
X99766648Y-26730743D01*
X99921205Y-26700000D01*
X100078795Y-26700000D01*
X100233352Y-26730743D01*
X100233352Y-26730743D01*
G37*
G36*
X102733352Y-26730743D02*
X102878941Y-26791048D01*
X103009973Y-26878601D01*
X103121399Y-26990027D01*
X103208952Y-27121059D01*
X103269257Y-27266648D01*
X103300000Y-27421205D01*
X103300000Y-27578795D01*
X103269257Y-27733352D01*
X103208952Y-27878941D01*
X103121399Y-28009973D01*
X103009973Y-28121399D01*
X102878941Y-28208952D01*
X102733352Y-28269257D01*
X102578795Y-28300000D01*
X102421205Y-28300000D01*
X102266648Y-28269257D01*
X102121059Y-28208952D01*
X101990027Y-28121399D01*
X101878601Y-28009973D01*
X101791048Y-27878941D01*
X101730743Y-27733352D01*
X101700000Y-27578795D01*
X101700000Y-27421205D01*
X101730743Y-27266648D01*
X101791048Y-27121059D01*
X101878601Y-26990027D01*
X101990027Y-26878601D01*
X102121059Y-26791048D01*
X102266648Y-26730743D01*
X102421205Y-26700000D01*
X102578795Y-26700000D01*
X102733352Y-26730743D01*
X102733352Y-26730743D01*
G37*
G36*
X122733352Y-26730743D02*
X122878941Y-26791048D01*
X123009973Y-26878601D01*
X123121399Y-26990027D01*
X123208952Y-27121059D01*
X123269257Y-27266648D01*
X123300000Y-27421205D01*
X123300000Y-27578795D01*
X123269257Y-27733352D01*
X123208952Y-27878941D01*
X123121399Y-28009973D01*
X123009973Y-28121399D01*
X122878941Y-28208952D01*
X122733352Y-28269257D01*
X122578795Y-28300000D01*
X122421205Y-28300000D01*
X122266648Y-28269257D01*
X122121059Y-28208952D01*
X121990027Y-28121399D01*
X121878601Y-28009973D01*
X121791048Y-27878941D01*
X121730743Y-27733352D01*
X121700000Y-27578795D01*
X121700000Y-27421205D01*
X121730743Y-27266648D01*
X121791048Y-27121059D01*
X121878601Y-26990027D01*
X121990027Y-26878601D01*
X122121059Y-26791048D01*
X122266648Y-26730743D01*
X122421205Y-26700000D01*
X122578795Y-26700000D01*
X122733352Y-26730743D01*
X122733352Y-26730743D01*
G37*
G36*
X120233352Y-26730743D02*
X120378941Y-26791048D01*
X120509973Y-26878601D01*
X120621399Y-26990027D01*
X120708952Y-27121059D01*
X120769257Y-27266648D01*
X120800000Y-27421205D01*
X120800000Y-27578795D01*
X120769257Y-27733352D01*
X120708952Y-27878941D01*
X120621399Y-28009973D01*
X120509973Y-28121399D01*
X120378941Y-28208952D01*
X120233352Y-28269257D01*
X120078795Y-28300000D01*
X119921205Y-28300000D01*
X119766648Y-28269257D01*
X119621059Y-28208952D01*
X119490027Y-28121399D01*
X119378601Y-28009973D01*
X119291048Y-27878941D01*
X119230743Y-27733352D01*
X119200000Y-27578795D01*
X119200000Y-27421205D01*
X119230743Y-27266648D01*
X119291048Y-27121059D01*
X119378601Y-26990027D01*
X119490027Y-26878601D01*
X119621059Y-26791048D01*
X119766648Y-26730743D01*
X119921205Y-26700000D01*
X120078795Y-26700000D01*
X120233352Y-26730743D01*
X120233352Y-26730743D01*
G37*
G36*
X117733352Y-26730743D02*
X117878941Y-26791048D01*
X118009973Y-26878601D01*
X118121399Y-26990027D01*
X118208952Y-27121059D01*
X118269257Y-27266648D01*
X118300000Y-27421205D01*
X118300000Y-27578795D01*
X118269257Y-27733352D01*
X118208952Y-27878941D01*
X118121399Y-28009973D01*
X118009973Y-28121399D01*
X117878941Y-28208952D01*
X117733352Y-28269257D01*
X117578795Y-28300000D01*
X117421205Y-28300000D01*
X117266648Y-28269257D01*
X117121059Y-28208952D01*
X116990027Y-28121399D01*
X116878601Y-28009973D01*
X116791048Y-27878941D01*
X116730743Y-27733352D01*
X116700000Y-27578795D01*
X116700000Y-27421205D01*
X116730743Y-27266648D01*
X116791048Y-27121059D01*
X116878601Y-26990027D01*
X116990027Y-26878601D01*
X117121059Y-26791048D01*
X117266648Y-26730743D01*
X117421205Y-26700000D01*
X117578795Y-26700000D01*
X117733352Y-26730743D01*
X117733352Y-26730743D01*
G37*
M02*
