G04 #@! TF.GenerationSoftware,KiCad,Pcbnew,5.0.2-bee76a0~70~ubuntu16.04.1*
G04 #@! TF.CreationDate,2019-02-15T18:52:28-05:00*
G04 #@! TF.ProjectId,HuskyA100_Nucleo_Shield,4875736b-7941-4313-9030-5f4e75636c65,rev?*
G04 #@! TF.SameCoordinates,Original*
G04 #@! TF.FileFunction,Copper,L1,Top*
G04 #@! TF.FilePolarity,Positive*
%FSLAX46Y46*%
G04 Gerber Fmt 4.6, Leading zero omitted, Abs format (unit mm)*
G04 Created by KiCad (PCBNEW 5.0.2-bee76a0~70~ubuntu16.04.1) date Fri 15 Feb 2019 06:52:28 PM EST*
%MOMM*%
%LPD*%
G01*
G04 APERTURE LIST*
%ADD10C,0.100000*%
%ADD11C,0.150000*%
%ADD12C,0.300000*%
%ADD13C,0.400000*%
G04 #@! TA.AperFunction,ComponentPad*
%ADD14C,1.600000*%
G04 #@! TD*
G04 #@! TA.AperFunction,ComponentPad*
%ADD15R,1.700000X1.700000*%
G04 #@! TD*
G04 #@! TA.AperFunction,ComponentPad*
%ADD16O,1.700000X1.700000*%
G04 #@! TD*
G04 #@! TA.AperFunction,Conductor*
%ADD17C,0.100000*%
G04 #@! TD*
G04 #@! TA.AperFunction,SMDPad,CuDef*
%ADD18C,1.800000*%
G04 #@! TD*
G04 #@! TA.AperFunction,SMDPad,CuDef*
%ADD19R,1.500000X2.600000*%
G04 #@! TD*
G04 #@! TA.AperFunction,SMDPad,CuDef*
%ADD20C,1.425000*%
G04 #@! TD*
G04 #@! TA.AperFunction,SMDPad,CuDef*
%ADD21C,1.975000*%
G04 #@! TD*
G04 #@! TA.AperFunction,ViaPad*
%ADD22C,0.800000*%
G04 #@! TD*
G04 #@! TA.AperFunction,Conductor*
%ADD23C,1.000000*%
G04 #@! TD*
G04 #@! TA.AperFunction,Conductor*
%ADD24C,0.250000*%
G04 #@! TD*
G04 APERTURE END LIST*
D10*
D11*
X159400000Y-171900000D02*
X159400000Y-203900000D01*
X267400000Y-203900000D01*
X267400000Y-171900000D01*
X159400000Y-171900000D01*
D10*
D11*
X10000000Y-10000000D02*
X10000000Y-205900000D01*
X269400000Y-205900000D01*
X269400000Y-10000000D01*
X10000000Y-10000000D01*
D10*
D11*
X12000000Y-12000000D02*
X12000000Y-203900000D01*
X267400000Y-203900000D01*
X267400000Y-12000000D01*
X12000000Y-12000000D01*
D10*
D11*
X60000000Y-12000000D02*
X60000000Y-10000000D01*
D10*
D11*
X110000000Y-12000000D02*
X110000000Y-10000000D01*
D10*
D11*
X160000000Y-12000000D02*
X160000000Y-10000000D01*
D10*
D11*
X210000000Y-12000000D02*
X210000000Y-10000000D01*
D10*
D11*
X260000000Y-12000000D02*
X260000000Y-10000000D01*
D10*
D11*
X36065476Y-11588095D02*
X35322619Y-11588095D01*
X35694047Y-11588095D02*
X35694047Y-10288095D01*
X35570238Y-10473809D01*
X35446428Y-10597619D01*
X35322619Y-10659523D01*
D10*
D11*
X85322619Y-10411904D02*
X85384523Y-10350000D01*
X85508333Y-10288095D01*
X85817857Y-10288095D01*
X85941666Y-10350000D01*
X86003571Y-10411904D01*
X86065476Y-10535714D01*
X86065476Y-10659523D01*
X86003571Y-10845238D01*
X85260714Y-11588095D01*
X86065476Y-11588095D01*
D10*
D11*
X135260714Y-10288095D02*
X136065476Y-10288095D01*
X135632142Y-10783333D01*
X135817857Y-10783333D01*
X135941666Y-10845238D01*
X136003571Y-10907142D01*
X136065476Y-11030952D01*
X136065476Y-11340476D01*
X136003571Y-11464285D01*
X135941666Y-11526190D01*
X135817857Y-11588095D01*
X135446428Y-11588095D01*
X135322619Y-11526190D01*
X135260714Y-11464285D01*
D10*
D11*
X185941666Y-10721428D02*
X185941666Y-11588095D01*
X185632142Y-10226190D02*
X185322619Y-11154761D01*
X186127380Y-11154761D01*
D10*
D11*
X236003571Y-10288095D02*
X235384523Y-10288095D01*
X235322619Y-10907142D01*
X235384523Y-10845238D01*
X235508333Y-10783333D01*
X235817857Y-10783333D01*
X235941666Y-10845238D01*
X236003571Y-10907142D01*
X236065476Y-11030952D01*
X236065476Y-11340476D01*
X236003571Y-11464285D01*
X235941666Y-11526190D01*
X235817857Y-11588095D01*
X235508333Y-11588095D01*
X235384523Y-11526190D01*
X235322619Y-11464285D01*
D10*
D11*
X60000000Y-203900000D02*
X60000000Y-205900000D01*
D10*
D11*
X110000000Y-203900000D02*
X110000000Y-205900000D01*
D10*
D11*
X160000000Y-203900000D02*
X160000000Y-205900000D01*
D10*
D11*
X210000000Y-203900000D02*
X210000000Y-205900000D01*
D10*
D11*
X260000000Y-203900000D02*
X260000000Y-205900000D01*
D10*
D11*
X36065476Y-205488095D02*
X35322619Y-205488095D01*
X35694047Y-205488095D02*
X35694047Y-204188095D01*
X35570238Y-204373809D01*
X35446428Y-204497619D01*
X35322619Y-204559523D01*
D10*
D11*
X85322619Y-204311904D02*
X85384523Y-204250000D01*
X85508333Y-204188095D01*
X85817857Y-204188095D01*
X85941666Y-204250000D01*
X86003571Y-204311904D01*
X86065476Y-204435714D01*
X86065476Y-204559523D01*
X86003571Y-204745238D01*
X85260714Y-205488095D01*
X86065476Y-205488095D01*
D10*
D11*
X135260714Y-204188095D02*
X136065476Y-204188095D01*
X135632142Y-204683333D01*
X135817857Y-204683333D01*
X135941666Y-204745238D01*
X136003571Y-204807142D01*
X136065476Y-204930952D01*
X136065476Y-205240476D01*
X136003571Y-205364285D01*
X135941666Y-205426190D01*
X135817857Y-205488095D01*
X135446428Y-205488095D01*
X135322619Y-205426190D01*
X135260714Y-205364285D01*
D10*
D11*
X185941666Y-204621428D02*
X185941666Y-205488095D01*
X185632142Y-204126190D02*
X185322619Y-205054761D01*
X186127380Y-205054761D01*
D10*
D11*
X236003571Y-204188095D02*
X235384523Y-204188095D01*
X235322619Y-204807142D01*
X235384523Y-204745238D01*
X235508333Y-204683333D01*
X235817857Y-204683333D01*
X235941666Y-204745238D01*
X236003571Y-204807142D01*
X236065476Y-204930952D01*
X236065476Y-205240476D01*
X236003571Y-205364285D01*
X235941666Y-205426190D01*
X235817857Y-205488095D01*
X235508333Y-205488095D01*
X235384523Y-205426190D01*
X235322619Y-205364285D01*
D10*
D11*
X10000000Y-60000000D02*
X12000000Y-60000000D01*
D10*
D11*
X10000000Y-110000000D02*
X12000000Y-110000000D01*
D10*
D11*
X10000000Y-160000000D02*
X12000000Y-160000000D01*
D10*
D11*
X10690476Y-35216666D02*
X11309523Y-35216666D01*
X10566666Y-35588095D02*
X11000000Y-34288095D01*
X11433333Y-35588095D01*
D10*
D11*
X11092857Y-84907142D02*
X11278571Y-84969047D01*
X11340476Y-85030952D01*
X11402380Y-85154761D01*
X11402380Y-85340476D01*
X11340476Y-85464285D01*
X11278571Y-85526190D01*
X11154761Y-85588095D01*
X10659523Y-85588095D01*
X10659523Y-84288095D01*
X11092857Y-84288095D01*
X11216666Y-84350000D01*
X11278571Y-84411904D01*
X11340476Y-84535714D01*
X11340476Y-84659523D01*
X11278571Y-84783333D01*
X11216666Y-84845238D01*
X11092857Y-84907142D01*
X10659523Y-84907142D01*
D10*
D11*
X11402380Y-135464285D02*
X11340476Y-135526190D01*
X11154761Y-135588095D01*
X11030952Y-135588095D01*
X10845238Y-135526190D01*
X10721428Y-135402380D01*
X10659523Y-135278571D01*
X10597619Y-135030952D01*
X10597619Y-134845238D01*
X10659523Y-134597619D01*
X10721428Y-134473809D01*
X10845238Y-134350000D01*
X11030952Y-134288095D01*
X11154761Y-134288095D01*
X11340476Y-134350000D01*
X11402380Y-134411904D01*
D10*
D11*
X10659523Y-185588095D02*
X10659523Y-184288095D01*
X10969047Y-184288095D01*
X11154761Y-184350000D01*
X11278571Y-184473809D01*
X11340476Y-184597619D01*
X11402380Y-184845238D01*
X11402380Y-185030952D01*
X11340476Y-185278571D01*
X11278571Y-185402380D01*
X11154761Y-185526190D01*
X10969047Y-185588095D01*
X10659523Y-185588095D01*
D10*
D11*
X269400000Y-60000000D02*
X267400000Y-60000000D01*
D10*
D11*
X269400000Y-110000000D02*
X267400000Y-110000000D01*
D10*
D11*
X269400000Y-160000000D02*
X267400000Y-160000000D01*
D10*
D11*
X268090476Y-35216666D02*
X268709523Y-35216666D01*
X267966666Y-35588095D02*
X268400000Y-34288095D01*
X268833333Y-35588095D01*
D10*
D11*
X268492857Y-84907142D02*
X268678571Y-84969047D01*
X268740476Y-85030952D01*
X268802380Y-85154761D01*
X268802380Y-85340476D01*
X268740476Y-85464285D01*
X268678571Y-85526190D01*
X268554761Y-85588095D01*
X268059523Y-85588095D01*
X268059523Y-84288095D01*
X268492857Y-84288095D01*
X268616666Y-84350000D01*
X268678571Y-84411904D01*
X268740476Y-84535714D01*
X268740476Y-84659523D01*
X268678571Y-84783333D01*
X268616666Y-84845238D01*
X268492857Y-84907142D01*
X268059523Y-84907142D01*
D10*
D11*
X268802380Y-135464285D02*
X268740476Y-135526190D01*
X268554761Y-135588095D01*
X268430952Y-135588095D01*
X268245238Y-135526190D01*
X268121428Y-135402380D01*
X268059523Y-135278571D01*
X267997619Y-135030952D01*
X267997619Y-134845238D01*
X268059523Y-134597619D01*
X268121428Y-134473809D01*
X268245238Y-134350000D01*
X268430952Y-134288095D01*
X268554761Y-134288095D01*
X268740476Y-134350000D01*
X268802380Y-134411904D01*
D10*
D11*
X268059523Y-185588095D02*
X268059523Y-184288095D01*
X268369047Y-184288095D01*
X268554761Y-184350000D01*
X268678571Y-184473809D01*
X268740476Y-184597619D01*
X268802380Y-184845238D01*
X268802380Y-185030952D01*
X268740476Y-185278571D01*
X268678571Y-185402380D01*
X268554761Y-185526190D01*
X268369047Y-185588095D01*
X268059523Y-185588095D01*
D10*
D11*
X182832142Y-199678571D02*
X182832142Y-198178571D01*
X183189285Y-198178571D01*
X183403571Y-198250000D01*
X183546428Y-198392857D01*
X183617857Y-198535714D01*
X183689285Y-198821428D01*
X183689285Y-199035714D01*
X183617857Y-199321428D01*
X183546428Y-199464285D01*
X183403571Y-199607142D01*
X183189285Y-199678571D01*
X182832142Y-199678571D01*
X184975000Y-199678571D02*
X184975000Y-198892857D01*
X184903571Y-198750000D01*
X184760714Y-198678571D01*
X184475000Y-198678571D01*
X184332142Y-198750000D01*
X184975000Y-199607142D02*
X184832142Y-199678571D01*
X184475000Y-199678571D01*
X184332142Y-199607142D01*
X184260714Y-199464285D01*
X184260714Y-199321428D01*
X184332142Y-199178571D01*
X184475000Y-199107142D01*
X184832142Y-199107142D01*
X184975000Y-199035714D01*
X185475000Y-198678571D02*
X186046428Y-198678571D01*
X185689285Y-198178571D02*
X185689285Y-199464285D01*
X185760714Y-199607142D01*
X185903571Y-199678571D01*
X186046428Y-199678571D01*
X187117857Y-199607142D02*
X186975000Y-199678571D01*
X186689285Y-199678571D01*
X186546428Y-199607142D01*
X186475000Y-199464285D01*
X186475000Y-198892857D01*
X186546428Y-198750000D01*
X186689285Y-198678571D01*
X186975000Y-198678571D01*
X187117857Y-198750000D01*
X187189285Y-198892857D01*
X187189285Y-199035714D01*
X186475000Y-199178571D01*
X187832142Y-199535714D02*
X187903571Y-199607142D01*
X187832142Y-199678571D01*
X187760714Y-199607142D01*
X187832142Y-199535714D01*
X187832142Y-199678571D01*
X187832142Y-198750000D02*
X187903571Y-198821428D01*
X187832142Y-198892857D01*
X187760714Y-198821428D01*
X187832142Y-198750000D01*
X187832142Y-198892857D01*
D10*
D11*
X159400000Y-200400000D02*
X267400000Y-200400000D01*
D10*
D11*
X160832142Y-202478571D02*
X160832142Y-200978571D01*
X161689285Y-202478571D02*
X161046428Y-201621428D01*
X161689285Y-200978571D02*
X160832142Y-201835714D01*
X162332142Y-202478571D02*
X162332142Y-201478571D01*
X162332142Y-200978571D02*
X162260714Y-201050000D01*
X162332142Y-201121428D01*
X162403571Y-201050000D01*
X162332142Y-200978571D01*
X162332142Y-201121428D01*
X163903571Y-202335714D02*
X163832142Y-202407142D01*
X163617857Y-202478571D01*
X163475000Y-202478571D01*
X163260714Y-202407142D01*
X163117857Y-202264285D01*
X163046428Y-202121428D01*
X162975000Y-201835714D01*
X162975000Y-201621428D01*
X163046428Y-201335714D01*
X163117857Y-201192857D01*
X163260714Y-201050000D01*
X163475000Y-200978571D01*
X163617857Y-200978571D01*
X163832142Y-201050000D01*
X163903571Y-201121428D01*
X165189285Y-202478571D02*
X165189285Y-201692857D01*
X165117857Y-201550000D01*
X164975000Y-201478571D01*
X164689285Y-201478571D01*
X164546428Y-201550000D01*
X165189285Y-202407142D02*
X165046428Y-202478571D01*
X164689285Y-202478571D01*
X164546428Y-202407142D01*
X164475000Y-202264285D01*
X164475000Y-202121428D01*
X164546428Y-201978571D01*
X164689285Y-201907142D01*
X165046428Y-201907142D01*
X165189285Y-201835714D01*
X166546428Y-202478571D02*
X166546428Y-200978571D01*
X166546428Y-202407142D02*
X166403571Y-202478571D01*
X166117857Y-202478571D01*
X165975000Y-202407142D01*
X165903571Y-202335714D01*
X165832142Y-202192857D01*
X165832142Y-201764285D01*
X165903571Y-201621428D01*
X165975000Y-201550000D01*
X166117857Y-201478571D01*
X166403571Y-201478571D01*
X166546428Y-201550000D01*
X168403571Y-201692857D02*
X168903571Y-201692857D01*
X169117857Y-202478571D02*
X168403571Y-202478571D01*
X168403571Y-200978571D01*
X169117857Y-200978571D01*
X169760714Y-202335714D02*
X169832142Y-202407142D01*
X169760714Y-202478571D01*
X169689285Y-202407142D01*
X169760714Y-202335714D01*
X169760714Y-202478571D01*
X170475000Y-202478571D02*
X170475000Y-200978571D01*
X170832142Y-200978571D01*
X171046428Y-201050000D01*
X171189285Y-201192857D01*
X171260714Y-201335714D01*
X171332142Y-201621428D01*
X171332142Y-201835714D01*
X171260714Y-202121428D01*
X171189285Y-202264285D01*
X171046428Y-202407142D01*
X170832142Y-202478571D01*
X170475000Y-202478571D01*
X171975000Y-202335714D02*
X172046428Y-202407142D01*
X171975000Y-202478571D01*
X171903571Y-202407142D01*
X171975000Y-202335714D01*
X171975000Y-202478571D01*
X172617857Y-202050000D02*
X173332142Y-202050000D01*
X172475000Y-202478571D02*
X172975000Y-200978571D01*
X173475000Y-202478571D01*
X173975000Y-202335714D02*
X174046428Y-202407142D01*
X173975000Y-202478571D01*
X173903571Y-202407142D01*
X173975000Y-202335714D01*
X173975000Y-202478571D01*
X176975000Y-202478571D02*
X176975000Y-200978571D01*
X177117857Y-201907142D02*
X177546428Y-202478571D01*
X177546428Y-201478571D02*
X176975000Y-202050000D01*
X178189285Y-202478571D02*
X178189285Y-201478571D01*
X178189285Y-200978571D02*
X178117857Y-201050000D01*
X178189285Y-201121428D01*
X178260714Y-201050000D01*
X178189285Y-200978571D01*
X178189285Y-201121428D01*
X179546428Y-202407142D02*
X179403571Y-202478571D01*
X179117857Y-202478571D01*
X178975000Y-202407142D01*
X178903571Y-202335714D01*
X178832142Y-202192857D01*
X178832142Y-201764285D01*
X178903571Y-201621428D01*
X178975000Y-201550000D01*
X179117857Y-201478571D01*
X179403571Y-201478571D01*
X179546428Y-201550000D01*
X180832142Y-202478571D02*
X180832142Y-201692857D01*
X180760714Y-201550000D01*
X180617857Y-201478571D01*
X180332142Y-201478571D01*
X180189285Y-201550000D01*
X180832142Y-202407142D02*
X180689285Y-202478571D01*
X180332142Y-202478571D01*
X180189285Y-202407142D01*
X180117857Y-202264285D01*
X180117857Y-202121428D01*
X180189285Y-201978571D01*
X180332142Y-201907142D01*
X180689285Y-201907142D01*
X180832142Y-201835714D01*
X182189285Y-202478571D02*
X182189285Y-200978571D01*
X182189285Y-202407142D02*
X182046428Y-202478571D01*
X181760714Y-202478571D01*
X181617857Y-202407142D01*
X181546428Y-202335714D01*
X181475000Y-202192857D01*
X181475000Y-201764285D01*
X181546428Y-201621428D01*
X181617857Y-201550000D01*
X181760714Y-201478571D01*
X182046428Y-201478571D01*
X182189285Y-201550000D01*
X184760714Y-200978571D02*
X184046428Y-200978571D01*
X183975000Y-201692857D01*
X184046428Y-201621428D01*
X184189285Y-201550000D01*
X184546428Y-201550000D01*
X184689285Y-201621428D01*
X184760714Y-201692857D01*
X184832142Y-201835714D01*
X184832142Y-202192857D01*
X184760714Y-202335714D01*
X184689285Y-202407142D01*
X184546428Y-202478571D01*
X184189285Y-202478571D01*
X184046428Y-202407142D01*
X183975000Y-202335714D01*
X185475000Y-202335714D02*
X185546428Y-202407142D01*
X185475000Y-202478571D01*
X185403571Y-202407142D01*
X185475000Y-202335714D01*
X185475000Y-202478571D01*
X186475000Y-200978571D02*
X186617857Y-200978571D01*
X186760714Y-201050000D01*
X186832142Y-201121428D01*
X186903571Y-201264285D01*
X186975000Y-201550000D01*
X186975000Y-201907142D01*
X186903571Y-202192857D01*
X186832142Y-202335714D01*
X186760714Y-202407142D01*
X186617857Y-202478571D01*
X186475000Y-202478571D01*
X186332142Y-202407142D01*
X186260714Y-202335714D01*
X186189285Y-202192857D01*
X186117857Y-201907142D01*
X186117857Y-201550000D01*
X186189285Y-201264285D01*
X186260714Y-201121428D01*
X186332142Y-201050000D01*
X186475000Y-200978571D01*
X187617857Y-202335714D02*
X187689285Y-202407142D01*
X187617857Y-202478571D01*
X187546428Y-202407142D01*
X187617857Y-202335714D01*
X187617857Y-202478571D01*
X188260714Y-201121428D02*
X188332142Y-201050000D01*
X188475000Y-200978571D01*
X188832142Y-200978571D01*
X188975000Y-201050000D01*
X189046428Y-201121428D01*
X189117857Y-201264285D01*
X189117857Y-201407142D01*
X189046428Y-201621428D01*
X188189285Y-202478571D01*
X189117857Y-202478571D01*
X189760714Y-201907142D02*
X190903571Y-201907142D01*
X191617857Y-202478571D02*
X191617857Y-200978571D01*
X191617857Y-201550000D02*
X191760714Y-201478571D01*
X192046428Y-201478571D01*
X192189285Y-201550000D01*
X192260714Y-201621428D01*
X192332142Y-201764285D01*
X192332142Y-202192857D01*
X192260714Y-202335714D01*
X192189285Y-202407142D01*
X192046428Y-202478571D01*
X191760714Y-202478571D01*
X191617857Y-202407142D01*
X193546428Y-202407142D02*
X193403571Y-202478571D01*
X193117857Y-202478571D01*
X192975000Y-202407142D01*
X192903571Y-202264285D01*
X192903571Y-201692857D01*
X192975000Y-201550000D01*
X193117857Y-201478571D01*
X193403571Y-201478571D01*
X193546428Y-201550000D01*
X193617857Y-201692857D01*
X193617857Y-201835714D01*
X192903571Y-201978571D01*
X194832142Y-202407142D02*
X194689285Y-202478571D01*
X194403571Y-202478571D01*
X194260714Y-202407142D01*
X194189285Y-202264285D01*
X194189285Y-201692857D01*
X194260714Y-201550000D01*
X194403571Y-201478571D01*
X194689285Y-201478571D01*
X194832142Y-201550000D01*
X194903571Y-201692857D01*
X194903571Y-201835714D01*
X194189285Y-201978571D01*
X195403571Y-200978571D02*
X196403571Y-200978571D01*
X195760714Y-202478571D01*
X197617857Y-200978571D02*
X197332142Y-200978571D01*
X197189285Y-201050000D01*
X197117857Y-201121428D01*
X196975000Y-201335714D01*
X196903571Y-201621428D01*
X196903571Y-202192857D01*
X196975000Y-202335714D01*
X197046428Y-202407142D01*
X197189285Y-202478571D01*
X197475000Y-202478571D01*
X197617857Y-202407142D01*
X197689285Y-202335714D01*
X197760714Y-202192857D01*
X197760714Y-201835714D01*
X197689285Y-201692857D01*
X197617857Y-201621428D01*
X197475000Y-201550000D01*
X197189285Y-201550000D01*
X197046428Y-201621428D01*
X196975000Y-201692857D01*
X196903571Y-201835714D01*
X199046428Y-202478571D02*
X199046428Y-201692857D01*
X198975000Y-201550000D01*
X198832142Y-201478571D01*
X198546428Y-201478571D01*
X198403571Y-201550000D01*
X199046428Y-202407142D02*
X198903571Y-202478571D01*
X198546428Y-202478571D01*
X198403571Y-202407142D01*
X198332142Y-202264285D01*
X198332142Y-202121428D01*
X198403571Y-201978571D01*
X198546428Y-201907142D01*
X198903571Y-201907142D01*
X199046428Y-201835714D01*
X200046428Y-200978571D02*
X200189285Y-200978571D01*
X200332142Y-201050000D01*
X200403571Y-201121428D01*
X200475000Y-201264285D01*
X200546428Y-201550000D01*
X200546428Y-201907142D01*
X200475000Y-202192857D01*
X200403571Y-202335714D01*
X200332142Y-202407142D01*
X200189285Y-202478571D01*
X200046428Y-202478571D01*
X199903571Y-202407142D01*
X199832142Y-202335714D01*
X199760714Y-202192857D01*
X199689285Y-201907142D01*
X199689285Y-201550000D01*
X199760714Y-201264285D01*
X199832142Y-201121428D01*
X199903571Y-201050000D01*
X200046428Y-200978571D01*
X200832142Y-200570000D02*
X202260714Y-200570000D01*
X201046428Y-200978571D02*
X202046428Y-200978571D01*
X201403571Y-202478571D01*
X202260714Y-200570000D02*
X203689285Y-200570000D01*
X202903571Y-200978571D02*
X203046428Y-200978571D01*
X203189285Y-201050000D01*
X203260714Y-201121428D01*
X203332142Y-201264285D01*
X203403571Y-201550000D01*
X203403571Y-201907142D01*
X203332142Y-202192857D01*
X203260714Y-202335714D01*
X203189285Y-202407142D01*
X203046428Y-202478571D01*
X202903571Y-202478571D01*
X202760714Y-202407142D01*
X202689285Y-202335714D01*
X202617857Y-202192857D01*
X202546428Y-201907142D01*
X202546428Y-201550000D01*
X202617857Y-201264285D01*
X202689285Y-201121428D01*
X202760714Y-201050000D01*
X202903571Y-200978571D01*
X204689285Y-201478571D02*
X204689285Y-202478571D01*
X204046428Y-201478571D02*
X204046428Y-202264285D01*
X204117857Y-202407142D01*
X204260714Y-202478571D01*
X204475000Y-202478571D01*
X204617857Y-202407142D01*
X204689285Y-202335714D01*
X205403571Y-202478571D02*
X205403571Y-200978571D01*
X205403571Y-201550000D02*
X205546428Y-201478571D01*
X205832142Y-201478571D01*
X205975000Y-201550000D01*
X206046428Y-201621428D01*
X206117857Y-201764285D01*
X206117857Y-202192857D01*
X206046428Y-202335714D01*
X205975000Y-202407142D01*
X205832142Y-202478571D01*
X205546428Y-202478571D01*
X205403571Y-202407142D01*
X207403571Y-201478571D02*
X207403571Y-202478571D01*
X206760714Y-201478571D02*
X206760714Y-202264285D01*
X206832142Y-202407142D01*
X206975000Y-202478571D01*
X207189285Y-202478571D01*
X207332142Y-202407142D01*
X207403571Y-202335714D01*
X208117857Y-201478571D02*
X208117857Y-202478571D01*
X208117857Y-201621428D02*
X208189285Y-201550000D01*
X208332142Y-201478571D01*
X208546428Y-201478571D01*
X208689285Y-201550000D01*
X208760714Y-201692857D01*
X208760714Y-202478571D01*
X209260714Y-201478571D02*
X209832142Y-201478571D01*
X209475000Y-200978571D02*
X209475000Y-202264285D01*
X209546428Y-202407142D01*
X209689285Y-202478571D01*
X209832142Y-202478571D01*
X210975000Y-201478571D02*
X210975000Y-202478571D01*
X210332142Y-201478571D02*
X210332142Y-202264285D01*
X210403571Y-202407142D01*
X210546428Y-202478571D01*
X210760714Y-202478571D01*
X210903571Y-202407142D01*
X210975000Y-202335714D01*
X212475000Y-202478571D02*
X211617857Y-202478571D01*
X212046428Y-202478571D02*
X212046428Y-200978571D01*
X211903571Y-201192857D01*
X211760714Y-201335714D01*
X211617857Y-201407142D01*
X213760714Y-200978571D02*
X213475000Y-200978571D01*
X213332142Y-201050000D01*
X213260714Y-201121428D01*
X213117857Y-201335714D01*
X213046428Y-201621428D01*
X213046428Y-202192857D01*
X213117857Y-202335714D01*
X213189285Y-202407142D01*
X213332142Y-202478571D01*
X213617857Y-202478571D01*
X213760714Y-202407142D01*
X213832142Y-202335714D01*
X213903571Y-202192857D01*
X213903571Y-201835714D01*
X213832142Y-201692857D01*
X213760714Y-201621428D01*
X213617857Y-201550000D01*
X213332142Y-201550000D01*
X213189285Y-201621428D01*
X213117857Y-201692857D01*
X213046428Y-201835714D01*
X214546428Y-202335714D02*
X214617857Y-202407142D01*
X214546428Y-202478571D01*
X214475000Y-202407142D01*
X214546428Y-202335714D01*
X214546428Y-202478571D01*
X215546428Y-200978571D02*
X215689285Y-200978571D01*
X215832142Y-201050000D01*
X215903571Y-201121428D01*
X215975000Y-201264285D01*
X216046428Y-201550000D01*
X216046428Y-201907142D01*
X215975000Y-202192857D01*
X215903571Y-202335714D01*
X215832142Y-202407142D01*
X215689285Y-202478571D01*
X215546428Y-202478571D01*
X215403571Y-202407142D01*
X215332142Y-202335714D01*
X215260714Y-202192857D01*
X215189285Y-201907142D01*
X215189285Y-201550000D01*
X215260714Y-201264285D01*
X215332142Y-201121428D01*
X215403571Y-201050000D01*
X215546428Y-200978571D01*
X217332142Y-201478571D02*
X217332142Y-202478571D01*
X216975000Y-200907142D02*
X216617857Y-201978571D01*
X217546428Y-201978571D01*
X218117857Y-202335714D02*
X218189285Y-202407142D01*
X218117857Y-202478571D01*
X218046428Y-202407142D01*
X218117857Y-202335714D01*
X218117857Y-202478571D01*
X219617857Y-202478571D02*
X218760714Y-202478571D01*
X219189285Y-202478571D02*
X219189285Y-200978571D01*
X219046428Y-201192857D01*
X218903571Y-201335714D01*
X218760714Y-201407142D01*
D10*
D11*
X159400000Y-197400000D02*
X267400000Y-197400000D01*
D10*
D12*
X246809285Y-199678571D02*
X246309285Y-198964285D01*
X245952142Y-199678571D02*
X245952142Y-198178571D01*
X246523571Y-198178571D01*
X246666428Y-198250000D01*
X246737857Y-198321428D01*
X246809285Y-198464285D01*
X246809285Y-198678571D01*
X246737857Y-198821428D01*
X246666428Y-198892857D01*
X246523571Y-198964285D01*
X245952142Y-198964285D01*
X248023571Y-199607142D02*
X247880714Y-199678571D01*
X247595000Y-199678571D01*
X247452142Y-199607142D01*
X247380714Y-199464285D01*
X247380714Y-198892857D01*
X247452142Y-198750000D01*
X247595000Y-198678571D01*
X247880714Y-198678571D01*
X248023571Y-198750000D01*
X248095000Y-198892857D01*
X248095000Y-199035714D01*
X247380714Y-199178571D01*
X248595000Y-198678571D02*
X248952142Y-199678571D01*
X249309285Y-198678571D01*
X249880714Y-199535714D02*
X249952142Y-199607142D01*
X249880714Y-199678571D01*
X249809285Y-199607142D01*
X249880714Y-199535714D01*
X249880714Y-199678571D01*
X249880714Y-198750000D02*
X249952142Y-198821428D01*
X249880714Y-198892857D01*
X249809285Y-198821428D01*
X249880714Y-198750000D01*
X249880714Y-198892857D01*
D10*
D11*
X160760714Y-199607142D02*
X160975000Y-199678571D01*
X161332142Y-199678571D01*
X161475000Y-199607142D01*
X161546428Y-199535714D01*
X161617857Y-199392857D01*
X161617857Y-199250000D01*
X161546428Y-199107142D01*
X161475000Y-199035714D01*
X161332142Y-198964285D01*
X161046428Y-198892857D01*
X160903571Y-198821428D01*
X160832142Y-198750000D01*
X160760714Y-198607142D01*
X160760714Y-198464285D01*
X160832142Y-198321428D01*
X160903571Y-198250000D01*
X161046428Y-198178571D01*
X161403571Y-198178571D01*
X161617857Y-198250000D01*
X162260714Y-199678571D02*
X162260714Y-198678571D01*
X162260714Y-198178571D02*
X162189285Y-198250000D01*
X162260714Y-198321428D01*
X162332142Y-198250000D01*
X162260714Y-198178571D01*
X162260714Y-198321428D01*
X162832142Y-198678571D02*
X163617857Y-198678571D01*
X162832142Y-199678571D01*
X163617857Y-199678571D01*
X164760714Y-199607142D02*
X164617857Y-199678571D01*
X164332142Y-199678571D01*
X164189285Y-199607142D01*
X164117857Y-199464285D01*
X164117857Y-198892857D01*
X164189285Y-198750000D01*
X164332142Y-198678571D01*
X164617857Y-198678571D01*
X164760714Y-198750000D01*
X164832142Y-198892857D01*
X164832142Y-199035714D01*
X164117857Y-199178571D01*
X165475000Y-199535714D02*
X165546428Y-199607142D01*
X165475000Y-199678571D01*
X165403571Y-199607142D01*
X165475000Y-199535714D01*
X165475000Y-199678571D01*
X165475000Y-198750000D02*
X165546428Y-198821428D01*
X165475000Y-198892857D01*
X165403571Y-198821428D01*
X165475000Y-198750000D01*
X165475000Y-198892857D01*
X167260714Y-199250000D02*
X167975000Y-199250000D01*
X167117857Y-199678571D02*
X167617857Y-198178571D01*
X168117857Y-199678571D01*
D10*
D11*
X245832142Y-202478571D02*
X245832142Y-200978571D01*
X247189285Y-202478571D02*
X247189285Y-200978571D01*
X247189285Y-202407142D02*
X247046428Y-202478571D01*
X246760714Y-202478571D01*
X246617857Y-202407142D01*
X246546428Y-202335714D01*
X246475000Y-202192857D01*
X246475000Y-201764285D01*
X246546428Y-201621428D01*
X246617857Y-201550000D01*
X246760714Y-201478571D01*
X247046428Y-201478571D01*
X247189285Y-201550000D01*
X247903571Y-202335714D02*
X247975000Y-202407142D01*
X247903571Y-202478571D01*
X247832142Y-202407142D01*
X247903571Y-202335714D01*
X247903571Y-202478571D01*
X247903571Y-201550000D02*
X247975000Y-201621428D01*
X247903571Y-201692857D01*
X247832142Y-201621428D01*
X247903571Y-201550000D01*
X247903571Y-201692857D01*
X250546428Y-202478571D02*
X249689285Y-202478571D01*
X250117857Y-202478571D02*
X250117857Y-200978571D01*
X249975000Y-201192857D01*
X249832142Y-201335714D01*
X249689285Y-201407142D01*
X252260714Y-200907142D02*
X250975000Y-202835714D01*
X253546428Y-202478571D02*
X252689285Y-202478571D01*
X253117857Y-202478571D02*
X253117857Y-200978571D01*
X252975000Y-201192857D01*
X252832142Y-201335714D01*
X252689285Y-201407142D01*
D10*
D11*
X159400000Y-193400000D02*
X267400000Y-193400000D01*
D10*
D13*
X161112380Y-194104761D02*
X162255238Y-194104761D01*
X161433809Y-196104761D02*
X161683809Y-194104761D01*
X162671904Y-196104761D02*
X162838571Y-194771428D01*
X162921904Y-194104761D02*
X162814761Y-194200000D01*
X162898095Y-194295238D01*
X163005238Y-194200000D01*
X162921904Y-194104761D01*
X162898095Y-194295238D01*
X163505238Y-194771428D02*
X164267142Y-194771428D01*
X163874285Y-194104761D02*
X163660000Y-195819047D01*
X163731428Y-196009523D01*
X163910000Y-196104761D01*
X164100476Y-196104761D01*
X165052857Y-196104761D02*
X164874285Y-196009523D01*
X164802857Y-195819047D01*
X165017142Y-194104761D01*
X166588571Y-196009523D02*
X166386190Y-196104761D01*
X166005238Y-196104761D01*
X165826666Y-196009523D01*
X165755238Y-195819047D01*
X165850476Y-195057142D01*
X165969523Y-194866666D01*
X166171904Y-194771428D01*
X166552857Y-194771428D01*
X166731428Y-194866666D01*
X166802857Y-195057142D01*
X166779047Y-195247619D01*
X165802857Y-195438095D01*
X167552857Y-195914285D02*
X167636190Y-196009523D01*
X167529047Y-196104761D01*
X167445714Y-196009523D01*
X167552857Y-195914285D01*
X167529047Y-196104761D01*
X167683809Y-194866666D02*
X167767142Y-194961904D01*
X167660000Y-195057142D01*
X167576666Y-194961904D01*
X167683809Y-194866666D01*
X167660000Y-195057142D01*
D10*
D11*
X161332142Y-191492857D02*
X160832142Y-191492857D01*
X160832142Y-192278571D02*
X160832142Y-190778571D01*
X161546428Y-190778571D01*
X162117857Y-192278571D02*
X162117857Y-191278571D01*
X162117857Y-190778571D02*
X162046428Y-190850000D01*
X162117857Y-190921428D01*
X162189285Y-190850000D01*
X162117857Y-190778571D01*
X162117857Y-190921428D01*
X163046428Y-192278571D02*
X162903571Y-192207142D01*
X162832142Y-192064285D01*
X162832142Y-190778571D01*
X164189285Y-192207142D02*
X164046428Y-192278571D01*
X163760714Y-192278571D01*
X163617857Y-192207142D01*
X163546428Y-192064285D01*
X163546428Y-191492857D01*
X163617857Y-191350000D01*
X163760714Y-191278571D01*
X164046428Y-191278571D01*
X164189285Y-191350000D01*
X164260714Y-191492857D01*
X164260714Y-191635714D01*
X163546428Y-191778571D01*
X164903571Y-192135714D02*
X164975000Y-192207142D01*
X164903571Y-192278571D01*
X164832142Y-192207142D01*
X164903571Y-192135714D01*
X164903571Y-192278571D01*
X164903571Y-191350000D02*
X164975000Y-191421428D01*
X164903571Y-191492857D01*
X164832142Y-191421428D01*
X164903571Y-191350000D01*
X164903571Y-191492857D01*
X166760714Y-192278571D02*
X166760714Y-190778571D01*
X166760714Y-191492857D02*
X167617857Y-191492857D01*
X167617857Y-192278571D02*
X167617857Y-190778571D01*
X168975000Y-191278571D02*
X168975000Y-192278571D01*
X168332142Y-191278571D02*
X168332142Y-192064285D01*
X168403571Y-192207142D01*
X168546428Y-192278571D01*
X168760714Y-192278571D01*
X168903571Y-192207142D01*
X168975000Y-192135714D01*
X169617857Y-192207142D02*
X169760714Y-192278571D01*
X170046428Y-192278571D01*
X170189285Y-192207142D01*
X170260714Y-192064285D01*
X170260714Y-191992857D01*
X170189285Y-191850000D01*
X170046428Y-191778571D01*
X169832142Y-191778571D01*
X169689285Y-191707142D01*
X169617857Y-191564285D01*
X169617857Y-191492857D01*
X169689285Y-191350000D01*
X169832142Y-191278571D01*
X170046428Y-191278571D01*
X170189285Y-191350000D01*
X170903571Y-192278571D02*
X170903571Y-190778571D01*
X171046428Y-191707142D02*
X171475000Y-192278571D01*
X171475000Y-191278571D02*
X170903571Y-191850000D01*
X171975000Y-191278571D02*
X172332142Y-192278571D01*
X172689285Y-191278571D02*
X172332142Y-192278571D01*
X172189285Y-192635714D01*
X172117857Y-192707142D01*
X171975000Y-192778571D01*
X173189285Y-191850000D02*
X173903571Y-191850000D01*
X173046428Y-192278571D02*
X173546428Y-190778571D01*
X174046428Y-192278571D01*
X175332142Y-192278571D02*
X174475000Y-192278571D01*
X174903571Y-192278571D02*
X174903571Y-190778571D01*
X174760714Y-190992857D01*
X174617857Y-191135714D01*
X174475000Y-191207142D01*
X176260714Y-190778571D02*
X176403571Y-190778571D01*
X176546428Y-190850000D01*
X176617857Y-190921428D01*
X176689285Y-191064285D01*
X176760714Y-191350000D01*
X176760714Y-191707142D01*
X176689285Y-191992857D01*
X176617857Y-192135714D01*
X176546428Y-192207142D01*
X176403571Y-192278571D01*
X176260714Y-192278571D01*
X176117857Y-192207142D01*
X176046428Y-192135714D01*
X175975000Y-191992857D01*
X175903571Y-191707142D01*
X175903571Y-191350000D01*
X175975000Y-191064285D01*
X176046428Y-190921428D01*
X176117857Y-190850000D01*
X176260714Y-190778571D01*
X177689285Y-190778571D02*
X177832142Y-190778571D01*
X177975000Y-190850000D01*
X178046428Y-190921428D01*
X178117857Y-191064285D01*
X178189285Y-191350000D01*
X178189285Y-191707142D01*
X178117857Y-191992857D01*
X178046428Y-192135714D01*
X177975000Y-192207142D01*
X177832142Y-192278571D01*
X177689285Y-192278571D01*
X177546428Y-192207142D01*
X177475000Y-192135714D01*
X177403571Y-191992857D01*
X177332142Y-191707142D01*
X177332142Y-191350000D01*
X177403571Y-191064285D01*
X177475000Y-190921428D01*
X177546428Y-190850000D01*
X177689285Y-190778571D01*
X178475000Y-192421428D02*
X179617857Y-192421428D01*
X179975000Y-192278571D02*
X179975000Y-190778571D01*
X180832142Y-192278571D01*
X180832142Y-190778571D01*
X182189285Y-191278571D02*
X182189285Y-192278571D01*
X181546428Y-191278571D02*
X181546428Y-192064285D01*
X181617857Y-192207142D01*
X181760714Y-192278571D01*
X181975000Y-192278571D01*
X182117857Y-192207142D01*
X182189285Y-192135714D01*
X183546428Y-192207142D02*
X183403571Y-192278571D01*
X183117857Y-192278571D01*
X182975000Y-192207142D01*
X182903571Y-192135714D01*
X182832142Y-191992857D01*
X182832142Y-191564285D01*
X182903571Y-191421428D01*
X182975000Y-191350000D01*
X183117857Y-191278571D01*
X183403571Y-191278571D01*
X183546428Y-191350000D01*
X184403571Y-192278571D02*
X184260714Y-192207142D01*
X184189285Y-192064285D01*
X184189285Y-190778571D01*
X185546428Y-192207142D02*
X185403571Y-192278571D01*
X185117857Y-192278571D01*
X184975000Y-192207142D01*
X184903571Y-192064285D01*
X184903571Y-191492857D01*
X184975000Y-191350000D01*
X185117857Y-191278571D01*
X185403571Y-191278571D01*
X185546428Y-191350000D01*
X185617857Y-191492857D01*
X185617857Y-191635714D01*
X184903571Y-191778571D01*
X186475000Y-192278571D02*
X186332142Y-192207142D01*
X186260714Y-192135714D01*
X186189285Y-191992857D01*
X186189285Y-191564285D01*
X186260714Y-191421428D01*
X186332142Y-191350000D01*
X186475000Y-191278571D01*
X186689285Y-191278571D01*
X186832142Y-191350000D01*
X186903571Y-191421428D01*
X186975000Y-191564285D01*
X186975000Y-191992857D01*
X186903571Y-192135714D01*
X186832142Y-192207142D01*
X186689285Y-192278571D01*
X186475000Y-192278571D01*
X187260714Y-192421428D02*
X188403571Y-192421428D01*
X188689285Y-192207142D02*
X188903571Y-192278571D01*
X189260714Y-192278571D01*
X189403571Y-192207142D01*
X189475000Y-192135714D01*
X189546428Y-191992857D01*
X189546428Y-191850000D01*
X189475000Y-191707142D01*
X189403571Y-191635714D01*
X189260714Y-191564285D01*
X188975000Y-191492857D01*
X188832142Y-191421428D01*
X188760714Y-191350000D01*
X188689285Y-191207142D01*
X188689285Y-191064285D01*
X188760714Y-190921428D01*
X188832142Y-190850000D01*
X188975000Y-190778571D01*
X189332142Y-190778571D01*
X189546428Y-190850000D01*
X190189285Y-192278571D02*
X190189285Y-190778571D01*
X190832142Y-192278571D02*
X190832142Y-191492857D01*
X190760714Y-191350000D01*
X190617857Y-191278571D01*
X190403571Y-191278571D01*
X190260714Y-191350000D01*
X190189285Y-191421428D01*
X191546428Y-192278571D02*
X191546428Y-191278571D01*
X191546428Y-190778571D02*
X191475000Y-190850000D01*
X191546428Y-190921428D01*
X191617857Y-190850000D01*
X191546428Y-190778571D01*
X191546428Y-190921428D01*
X192832142Y-192207142D02*
X192689285Y-192278571D01*
X192403571Y-192278571D01*
X192260714Y-192207142D01*
X192189285Y-192064285D01*
X192189285Y-191492857D01*
X192260714Y-191350000D01*
X192403571Y-191278571D01*
X192689285Y-191278571D01*
X192832142Y-191350000D01*
X192903571Y-191492857D01*
X192903571Y-191635714D01*
X192189285Y-191778571D01*
X193760714Y-192278571D02*
X193617857Y-192207142D01*
X193546428Y-192064285D01*
X193546428Y-190778571D01*
X194975000Y-192278571D02*
X194975000Y-190778571D01*
X194975000Y-192207142D02*
X194832142Y-192278571D01*
X194546428Y-192278571D01*
X194403571Y-192207142D01*
X194332142Y-192135714D01*
X194260714Y-191992857D01*
X194260714Y-191564285D01*
X194332142Y-191421428D01*
X194403571Y-191350000D01*
X194546428Y-191278571D01*
X194832142Y-191278571D01*
X194975000Y-191350000D01*
X195689285Y-192135714D02*
X195760714Y-192207142D01*
X195689285Y-192278571D01*
X195617857Y-192207142D01*
X195689285Y-192135714D01*
X195689285Y-192278571D01*
X196403571Y-192278571D02*
X196403571Y-190778571D01*
X196546428Y-191707142D02*
X196975000Y-192278571D01*
X196975000Y-191278571D02*
X196403571Y-191850000D01*
X197617857Y-192278571D02*
X197617857Y-191278571D01*
X197617857Y-190778571D02*
X197546428Y-190850000D01*
X197617857Y-190921428D01*
X197689285Y-190850000D01*
X197617857Y-190778571D01*
X197617857Y-190921428D01*
X198975000Y-192207142D02*
X198832142Y-192278571D01*
X198546428Y-192278571D01*
X198403571Y-192207142D01*
X198332142Y-192135714D01*
X198260714Y-191992857D01*
X198260714Y-191564285D01*
X198332142Y-191421428D01*
X198403571Y-191350000D01*
X198546428Y-191278571D01*
X198832142Y-191278571D01*
X198975000Y-191350000D01*
X200260714Y-192278571D02*
X200260714Y-191492857D01*
X200189285Y-191350000D01*
X200046428Y-191278571D01*
X199760714Y-191278571D01*
X199617857Y-191350000D01*
X200260714Y-192207142D02*
X200117857Y-192278571D01*
X199760714Y-192278571D01*
X199617857Y-192207142D01*
X199546428Y-192064285D01*
X199546428Y-191921428D01*
X199617857Y-191778571D01*
X199760714Y-191707142D01*
X200117857Y-191707142D01*
X200260714Y-191635714D01*
X201617857Y-192278571D02*
X201617857Y-190778571D01*
X201617857Y-192207142D02*
X201475000Y-192278571D01*
X201189285Y-192278571D01*
X201046428Y-192207142D01*
X200975000Y-192135714D01*
X200903571Y-191992857D01*
X200903571Y-191564285D01*
X200975000Y-191421428D01*
X201046428Y-191350000D01*
X201189285Y-191278571D01*
X201475000Y-191278571D01*
X201617857Y-191350000D01*
X201975000Y-192421428D02*
X203117857Y-192421428D01*
X203475000Y-191278571D02*
X203475000Y-192778571D01*
X203475000Y-191350000D02*
X203617857Y-191278571D01*
X203903571Y-191278571D01*
X204046428Y-191350000D01*
X204117857Y-191421428D01*
X204189285Y-191564285D01*
X204189285Y-191992857D01*
X204117857Y-192135714D01*
X204046428Y-192207142D01*
X203903571Y-192278571D01*
X203617857Y-192278571D01*
X203475000Y-192207142D01*
X205475000Y-192207142D02*
X205332142Y-192278571D01*
X205046428Y-192278571D01*
X204903571Y-192207142D01*
X204832142Y-192135714D01*
X204760714Y-191992857D01*
X204760714Y-191564285D01*
X204832142Y-191421428D01*
X204903571Y-191350000D01*
X205046428Y-191278571D01*
X205332142Y-191278571D01*
X205475000Y-191350000D01*
X206117857Y-192278571D02*
X206117857Y-190778571D01*
X206117857Y-191350000D02*
X206260714Y-191278571D01*
X206546428Y-191278571D01*
X206689285Y-191350000D01*
X206760714Y-191421428D01*
X206832142Y-191564285D01*
X206832142Y-191992857D01*
X206760714Y-192135714D01*
X206689285Y-192207142D01*
X206546428Y-192278571D01*
X206260714Y-192278571D01*
X206117857Y-192207142D01*
D10*
D11*
X159400000Y-187400000D02*
X267400000Y-187400000D01*
D10*
D11*
X160760714Y-189507142D02*
X160975000Y-189578571D01*
X161332142Y-189578571D01*
X161475000Y-189507142D01*
X161546428Y-189435714D01*
X161617857Y-189292857D01*
X161617857Y-189150000D01*
X161546428Y-189007142D01*
X161475000Y-188935714D01*
X161332142Y-188864285D01*
X161046428Y-188792857D01*
X160903571Y-188721428D01*
X160832142Y-188650000D01*
X160760714Y-188507142D01*
X160760714Y-188364285D01*
X160832142Y-188221428D01*
X160903571Y-188150000D01*
X161046428Y-188078571D01*
X161403571Y-188078571D01*
X161617857Y-188150000D01*
X162260714Y-189578571D02*
X162260714Y-188078571D01*
X162903571Y-189578571D02*
X162903571Y-188792857D01*
X162832142Y-188650000D01*
X162689285Y-188578571D01*
X162475000Y-188578571D01*
X162332142Y-188650000D01*
X162260714Y-188721428D01*
X164189285Y-189507142D02*
X164046428Y-189578571D01*
X163760714Y-189578571D01*
X163617857Y-189507142D01*
X163546428Y-189364285D01*
X163546428Y-188792857D01*
X163617857Y-188650000D01*
X163760714Y-188578571D01*
X164046428Y-188578571D01*
X164189285Y-188650000D01*
X164260714Y-188792857D01*
X164260714Y-188935714D01*
X163546428Y-189078571D01*
X165475000Y-189507142D02*
X165332142Y-189578571D01*
X165046428Y-189578571D01*
X164903571Y-189507142D01*
X164832142Y-189364285D01*
X164832142Y-188792857D01*
X164903571Y-188650000D01*
X165046428Y-188578571D01*
X165332142Y-188578571D01*
X165475000Y-188650000D01*
X165546428Y-188792857D01*
X165546428Y-188935714D01*
X164832142Y-189078571D01*
X165975000Y-188578571D02*
X166546428Y-188578571D01*
X166189285Y-188078571D02*
X166189285Y-189364285D01*
X166260714Y-189507142D01*
X166403571Y-189578571D01*
X166546428Y-189578571D01*
X167046428Y-189435714D02*
X167117857Y-189507142D01*
X167046428Y-189578571D01*
X166975000Y-189507142D01*
X167046428Y-189435714D01*
X167046428Y-189578571D01*
X167046428Y-188650000D02*
X167117857Y-188721428D01*
X167046428Y-188792857D01*
X166975000Y-188721428D01*
X167046428Y-188650000D01*
X167046428Y-188792857D01*
D10*
D11*
X179400000Y-197400000D02*
X179400000Y-200400000D01*
D10*
D11*
X243400000Y-197400000D02*
X243400000Y-203900000D01*
D14*
G04 #@! TO.P,J2,3*
G04 #@! TO.N,Net-(CN7-Pad3)*
X117500000Y-117500000D03*
G04 #@! TO.P,J2,2*
G04 #@! TO.N,3.3V*
X120000000Y-117500000D03*
G04 #@! TO.P,J2,1*
G04 #@! TO.N,GND*
X122500000Y-117500000D03*
G04 #@! TD*
G04 #@! TO.P,J3,2*
G04 #@! TO.N,Net-(CN8-Pad3)*
X100000000Y-117500000D03*
G04 #@! TO.P,J3,4*
G04 #@! TO.N,3.3V*
X95000000Y-117500000D03*
G04 #@! TO.P,J3,3*
G04 #@! TO.N,GND*
X97500000Y-117500000D03*
G04 #@! TO.P,J3,1*
G04 #@! TO.N,Net-(CN8-Pad1)*
X102500000Y-117500000D03*
G04 #@! TD*
G04 #@! TO.P,J4,2*
G04 #@! TO.N,Net-(CN8-Pad7)*
X97500000Y-27500000D03*
G04 #@! TO.P,J4,4*
G04 #@! TO.N,3.3V*
X102500000Y-27500000D03*
G04 #@! TO.P,J4,3*
G04 #@! TO.N,GND*
X100000000Y-27500000D03*
G04 #@! TO.P,J4,1*
G04 #@! TO.N,Net-(CN8-Pad5)*
X95000000Y-27500000D03*
G04 #@! TD*
D15*
G04 #@! TO.P,CN8,1*
G04 #@! TO.N,Net-(CN8-Pad1)*
X88900000Y-44450000D03*
D16*
G04 #@! TO.P,CN8,2*
G04 #@! TO.N,Net-(CN8-Pad2)*
X86360000Y-44450000D03*
G04 #@! TO.P,CN8,3*
G04 #@! TO.N,Net-(CN8-Pad3)*
X88900000Y-46990000D03*
G04 #@! TO.P,CN8,4*
G04 #@! TO.N,Net-(CN8-Pad4)*
X86360000Y-46990000D03*
G04 #@! TO.P,CN8,5*
G04 #@! TO.N,Net-(CN8-Pad5)*
X88900000Y-49530000D03*
G04 #@! TO.P,CN8,6*
G04 #@! TO.N,Net-(CN8-Pad6)*
X86360000Y-49530000D03*
G04 #@! TO.P,CN8,7*
G04 #@! TO.N,Net-(CN8-Pad7)*
X88900000Y-52070000D03*
G04 #@! TO.P,CN8,8*
G04 #@! TO.N,3.3V*
X86360000Y-52070000D03*
G04 #@! TO.P,CN8,9*
G04 #@! TO.N,Net-(CN8-Pad9)*
X88900000Y-54610000D03*
G04 #@! TO.P,CN8,10*
G04 #@! TO.N,5V*
X86360000Y-54610000D03*
G04 #@! TO.P,CN8,11*
G04 #@! TO.N,Net-(CN8-Pad11)*
X88900000Y-57150000D03*
G04 #@! TO.P,CN8,12*
G04 #@! TO.N,GND*
X86360000Y-57150000D03*
G04 #@! TO.P,CN8,13*
G04 #@! TO.N,Net-(CN8-Pad13)*
X88900000Y-59690000D03*
G04 #@! TO.P,CN8,14*
G04 #@! TO.N,GND*
X86360000Y-59690000D03*
G04 #@! TO.P,CN8,15*
G04 #@! TO.N,Net-(CN8-Pad15)*
X88900000Y-62230000D03*
G04 #@! TO.P,CN8,16*
G04 #@! TO.N,Net-(CN8-Pad16)*
X86360000Y-62230000D03*
G04 #@! TD*
D15*
G04 #@! TO.P,CN7,1*
G04 #@! TO.N,Net-(CN7-Pad1)*
X134620000Y-35560000D03*
D16*
G04 #@! TO.P,CN7,2*
G04 #@! TO.N,Net-(CN7-Pad2)*
X132080000Y-35560000D03*
G04 #@! TO.P,CN7,3*
G04 #@! TO.N,Net-(CN7-Pad3)*
X134620000Y-38100000D03*
G04 #@! TO.P,CN7,4*
G04 #@! TO.N,Net-(CN7-Pad4)*
X132080000Y-38100000D03*
G04 #@! TO.P,CN7,5*
G04 #@! TO.N,Net-(CN7-Pad5)*
X134620000Y-40640000D03*
G04 #@! TO.P,CN7,6*
G04 #@! TO.N,Net-(CN7-Pad6)*
X132080000Y-40640000D03*
G04 #@! TO.P,CN7,7*
G04 #@! TO.N,Net-(CN7-Pad7)*
X134620000Y-43180000D03*
G04 #@! TO.P,CN7,8*
G04 #@! TO.N,Net-(CN7-Pad8)*
X132080000Y-43180000D03*
G04 #@! TO.P,CN7,9*
G04 #@! TO.N,Net-(CN7-Pad9)*
X134620000Y-45720000D03*
G04 #@! TO.P,CN7,10*
G04 #@! TO.N,Net-(CN7-Pad10)*
X132080000Y-45720000D03*
G04 #@! TO.P,CN7,11*
G04 #@! TO.N,Net-(CN7-Pad11)*
X134620000Y-48260000D03*
G04 #@! TO.P,CN7,12*
G04 #@! TO.N,Net-(CN7-Pad12)*
X132080000Y-48260000D03*
G04 #@! TO.P,CN7,13*
G04 #@! TO.N,Net-(CN7-Pad13)*
X134620000Y-50800000D03*
G04 #@! TO.P,CN7,14*
G04 #@! TO.N,Net-(CN7-Pad14)*
X132080000Y-50800000D03*
G04 #@! TO.P,CN7,15*
G04 #@! TO.N,Net-(CN7-Pad15)*
X134620000Y-53340000D03*
G04 #@! TO.P,CN7,16*
G04 #@! TO.N,Net-(CN7-Pad16)*
X132080000Y-53340000D03*
G04 #@! TO.P,CN7,17*
G04 #@! TO.N,Net-(CN7-Pad17)*
X134620000Y-55880000D03*
G04 #@! TO.P,CN7,18*
G04 #@! TO.N,Net-(CN7-Pad18)*
X132080000Y-55880000D03*
G04 #@! TO.P,CN7,19*
G04 #@! TO.N,Net-(CN7-Pad19)*
X134620000Y-58420000D03*
G04 #@! TO.P,CN7,20*
G04 #@! TO.N,Net-(CN7-Pad20)*
X132080000Y-58420000D03*
G04 #@! TD*
D15*
G04 #@! TO.P,CN9,1*
G04 #@! TO.N,Net-(CN9-Pad1)*
X88900000Y-67310000D03*
D16*
G04 #@! TO.P,CN9,2*
G04 #@! TO.N,Net-(CN9-Pad2)*
X86360000Y-67310000D03*
G04 #@! TO.P,CN9,3*
G04 #@! TO.N,Net-(CN9-Pad3)*
X88900000Y-69850000D03*
G04 #@! TO.P,CN9,4*
G04 #@! TO.N,Net-(CN9-Pad4)*
X86360000Y-69850000D03*
G04 #@! TO.P,CN9,5*
G04 #@! TO.N,Net-(CN9-Pad5)*
X88900000Y-72390000D03*
G04 #@! TO.P,CN9,6*
G04 #@! TO.N,Net-(CN9-Pad6)*
X86360000Y-72390000D03*
G04 #@! TO.P,CN9,7*
G04 #@! TO.N,Net-(CN9-Pad7)*
X88900000Y-74930000D03*
G04 #@! TO.P,CN9,8*
G04 #@! TO.N,Net-(CN9-Pad8)*
X86360000Y-74930000D03*
G04 #@! TO.P,CN9,9*
G04 #@! TO.N,Net-(CN9-Pad9)*
X88900000Y-77470000D03*
G04 #@! TO.P,CN9,10*
G04 #@! TO.N,Net-(CN9-Pad10)*
X86360000Y-77470000D03*
G04 #@! TO.P,CN9,11*
G04 #@! TO.N,GND*
X88900000Y-80010000D03*
G04 #@! TO.P,CN9,12*
G04 #@! TO.N,Net-(CN9-Pad12)*
X86360000Y-80010000D03*
G04 #@! TO.P,CN9,13*
G04 #@! TO.N,Net-(CN9-Pad13)*
X88900000Y-82550000D03*
G04 #@! TO.P,CN9,14*
G04 #@! TO.N,Net-(CN9-Pad14)*
X86360000Y-82550000D03*
G04 #@! TO.P,CN9,15*
G04 #@! TO.N,Net-(CN9-Pad15)*
X88900000Y-85090000D03*
G04 #@! TO.P,CN9,16*
G04 #@! TO.N,Net-(CN9-Pad16)*
X86360000Y-85090000D03*
G04 #@! TO.P,CN9,17*
G04 #@! TO.N,Net-(CN9-Pad17)*
X88900000Y-87630000D03*
G04 #@! TO.P,CN9,18*
G04 #@! TO.N,Net-(CN9-Pad18)*
X86360000Y-87630000D03*
G04 #@! TO.P,CN9,19*
G04 #@! TO.N,Net-(CN9-Pad19)*
X88900000Y-90170000D03*
G04 #@! TO.P,CN9,20*
G04 #@! TO.N,Net-(CN9-Pad20)*
X86360000Y-90170000D03*
G04 #@! TO.P,CN9,21*
G04 #@! TO.N,Net-(CN9-Pad21)*
X88900000Y-92710000D03*
G04 #@! TO.P,CN9,22*
G04 #@! TO.N,Net-(CN9-Pad22)*
X86360000Y-92710000D03*
G04 #@! TO.P,CN9,23*
G04 #@! TO.N,Net-(CN9-Pad23)*
X88900000Y-95250000D03*
G04 #@! TO.P,CN9,24*
G04 #@! TO.N,Net-(CN9-Pad24)*
X86360000Y-95250000D03*
G04 #@! TO.P,CN9,25*
G04 #@! TO.N,Net-(CN9-Pad25)*
X88900000Y-97790000D03*
G04 #@! TO.P,CN9,26*
G04 #@! TO.N,Net-(CN9-Pad26)*
X86360000Y-97790000D03*
G04 #@! TO.P,CN9,27*
G04 #@! TO.N,Net-(CN9-Pad27)*
X88900000Y-100330000D03*
G04 #@! TO.P,CN9,28*
G04 #@! TO.N,Net-(CN9-Pad28)*
X86360000Y-100330000D03*
G04 #@! TO.P,CN9,29*
G04 #@! TO.N,Net-(CN9-Pad29)*
X88900000Y-102870000D03*
G04 #@! TO.P,CN9,30*
G04 #@! TO.N,Net-(CN9-Pad30)*
X86360000Y-102870000D03*
G04 #@! TD*
D15*
G04 #@! TO.P,CN10,1*
G04 #@! TO.N,Net-(CN10-Pad1)*
X134620000Y-62230000D03*
D16*
G04 #@! TO.P,CN10,2*
G04 #@! TO.N,Net-(CN10-Pad2)*
X132080000Y-62230000D03*
G04 #@! TO.P,CN10,3*
G04 #@! TO.N,Net-(CN10-Pad3)*
X134620000Y-64770000D03*
G04 #@! TO.P,CN10,4*
G04 #@! TO.N,Net-(CN10-Pad4)*
X132080000Y-64770000D03*
G04 #@! TO.P,CN10,5*
G04 #@! TO.N,Net-(CN10-Pad5)*
X134620000Y-67310000D03*
G04 #@! TO.P,CN10,6*
G04 #@! TO.N,GND*
X132080000Y-67310000D03*
G04 #@! TO.P,CN10,7*
G04 #@! TO.N,Net-(CN10-Pad7)*
X134620000Y-69850000D03*
G04 #@! TO.P,CN10,8*
G04 #@! TO.N,Net-(CN10-Pad8)*
X132080000Y-69850000D03*
G04 #@! TO.P,CN10,9*
G04 #@! TO.N,Net-(CN10-Pad9)*
X134620000Y-72390000D03*
G04 #@! TO.P,CN10,10*
G04 #@! TO.N,Net-(CN10-Pad10)*
X132080000Y-72390000D03*
G04 #@! TO.P,CN10,11*
G04 #@! TO.N,Net-(CN10-Pad11)*
X134620000Y-74930000D03*
G04 #@! TO.P,CN10,12*
G04 #@! TO.N,Net-(CN10-Pad12)*
X132080000Y-74930000D03*
G04 #@! TO.P,CN10,13*
G04 #@! TO.N,Net-(CN10-Pad13)*
X134620000Y-77470000D03*
G04 #@! TO.P,CN10,14*
G04 #@! TO.N,Net-(CN10-Pad14)*
X132080000Y-77470000D03*
G04 #@! TO.P,CN10,15*
G04 #@! TO.N,Net-(CN10-Pad15)*
X134620000Y-80010000D03*
G04 #@! TO.P,CN10,16*
G04 #@! TO.N,Net-(CN10-Pad16)*
X132080000Y-80010000D03*
G04 #@! TO.P,CN10,17*
G04 #@! TO.N,Net-(CN10-Pad17)*
X134620000Y-82550000D03*
G04 #@! TO.P,CN10,18*
G04 #@! TO.N,Net-(CN10-Pad18)*
X132080000Y-82550000D03*
G04 #@! TO.P,CN10,19*
G04 #@! TO.N,Net-(CN10-Pad19)*
X134620000Y-85090000D03*
G04 #@! TO.P,CN10,20*
G04 #@! TO.N,Net-(CN10-Pad20)*
X132080000Y-85090000D03*
G04 #@! TO.P,CN10,21*
G04 #@! TO.N,GND*
X134620000Y-87630000D03*
G04 #@! TO.P,CN10,22*
G04 #@! TO.N,Net-(CN10-Pad22)*
X132080000Y-87630000D03*
G04 #@! TO.P,CN10,23*
G04 #@! TO.N,Net-(CN10-Pad23)*
X134620000Y-90170000D03*
G04 #@! TO.P,CN10,24*
G04 #@! TO.N,Net-(CN10-Pad24)*
X132080000Y-90170000D03*
G04 #@! TO.P,CN10,25*
G04 #@! TO.N,Net-(CN10-Pad25)*
X134620000Y-92710000D03*
G04 #@! TO.P,CN10,26*
G04 #@! TO.N,Net-(CN10-Pad26)*
X132080000Y-92710000D03*
G04 #@! TO.P,CN10,27*
G04 #@! TO.N,Net-(CN10-Pad27)*
X134620000Y-95250000D03*
G04 #@! TO.P,CN10,28*
G04 #@! TO.N,GND*
X132080000Y-95250000D03*
G04 #@! TO.P,CN10,29*
G04 #@! TO.N,Net-(CN10-Pad29)*
X134620000Y-97790000D03*
G04 #@! TO.P,CN10,30*
G04 #@! TO.N,Net-(CN10-Pad30)*
X132080000Y-97790000D03*
G04 #@! TO.P,CN10,31*
G04 #@! TO.N,Net-(CN10-Pad31)*
X134620000Y-100330000D03*
G04 #@! TO.P,CN10,32*
G04 #@! TO.N,Net-(CN10-Pad32)*
X132080000Y-100330000D03*
G04 #@! TO.P,CN10,33*
G04 #@! TO.N,Net-(CN10-Pad33)*
X134620000Y-102870000D03*
G04 #@! TO.P,CN10,34*
G04 #@! TO.N,Net-(CN10-Pad34)*
X132080000Y-102870000D03*
G04 #@! TD*
D14*
G04 #@! TO.P,J1,1*
G04 #@! TO.N,GND*
X117500000Y-27500000D03*
G04 #@! TO.P,J1,2*
G04 #@! TO.N,3.3V*
X120000000Y-27500000D03*
G04 #@! TO.P,J1,3*
G04 #@! TO.N,Net-(CN7-Pad1)*
X122500000Y-27500000D03*
G04 #@! TD*
D17*
G04 #@! TO.N,3.3V*
G04 #@! TO.C,C1*
G36*
X106084324Y-32353205D02*
X106108612Y-32356808D01*
X106132429Y-32362774D01*
X106155547Y-32371045D01*
X106177743Y-32381543D01*
X106198804Y-32394166D01*
X106218525Y-32408793D01*
X106236718Y-32425282D01*
X106253207Y-32443475D01*
X106267834Y-32463196D01*
X106280457Y-32484257D01*
X106290955Y-32506453D01*
X106299226Y-32529571D01*
X106305192Y-32553388D01*
X106308795Y-32577676D01*
X106310000Y-32602200D01*
X106310000Y-37501800D01*
X106308795Y-37526324D01*
X106305192Y-37550612D01*
X106299226Y-37574429D01*
X106290955Y-37597547D01*
X106280457Y-37619743D01*
X106267834Y-37640804D01*
X106253207Y-37660525D01*
X106236718Y-37678718D01*
X106218525Y-37695207D01*
X106198804Y-37709834D01*
X106177743Y-37722457D01*
X106155547Y-37732955D01*
X106132429Y-37741226D01*
X106108612Y-37747192D01*
X106084324Y-37750795D01*
X106059800Y-37752000D01*
X104760200Y-37752000D01*
X104735676Y-37750795D01*
X104711388Y-37747192D01*
X104687571Y-37741226D01*
X104664453Y-37732955D01*
X104642257Y-37722457D01*
X104621196Y-37709834D01*
X104601475Y-37695207D01*
X104583282Y-37678718D01*
X104566793Y-37660525D01*
X104552166Y-37640804D01*
X104539543Y-37619743D01*
X104529045Y-37597547D01*
X104520774Y-37574429D01*
X104514808Y-37550612D01*
X104511205Y-37526324D01*
X104510000Y-37501800D01*
X104510000Y-32602200D01*
X104511205Y-32577676D01*
X104514808Y-32553388D01*
X104520774Y-32529571D01*
X104529045Y-32506453D01*
X104539543Y-32484257D01*
X104552166Y-32463196D01*
X104566793Y-32443475D01*
X104583282Y-32425282D01*
X104601475Y-32408793D01*
X104621196Y-32394166D01*
X104642257Y-32381543D01*
X104664453Y-32371045D01*
X104687571Y-32362774D01*
X104711388Y-32356808D01*
X104735676Y-32353205D01*
X104760200Y-32352000D01*
X106059800Y-32352000D01*
X106084324Y-32353205D01*
X106084324Y-32353205D01*
G37*
D18*
G04 #@! TD*
G04 #@! TO.P,C1,1*
G04 #@! TO.N,3.3V*
X105410000Y-35052000D03*
D17*
G04 #@! TO.N,GND*
G04 #@! TO.C,C1*
G36*
X111184324Y-32353205D02*
X111208612Y-32356808D01*
X111232429Y-32362774D01*
X111255547Y-32371045D01*
X111277743Y-32381543D01*
X111298804Y-32394166D01*
X111318525Y-32408793D01*
X111336718Y-32425282D01*
X111353207Y-32443475D01*
X111367834Y-32463196D01*
X111380457Y-32484257D01*
X111390955Y-32506453D01*
X111399226Y-32529571D01*
X111405192Y-32553388D01*
X111408795Y-32577676D01*
X111410000Y-32602200D01*
X111410000Y-37501800D01*
X111408795Y-37526324D01*
X111405192Y-37550612D01*
X111399226Y-37574429D01*
X111390955Y-37597547D01*
X111380457Y-37619743D01*
X111367834Y-37640804D01*
X111353207Y-37660525D01*
X111336718Y-37678718D01*
X111318525Y-37695207D01*
X111298804Y-37709834D01*
X111277743Y-37722457D01*
X111255547Y-37732955D01*
X111232429Y-37741226D01*
X111208612Y-37747192D01*
X111184324Y-37750795D01*
X111159800Y-37752000D01*
X109860200Y-37752000D01*
X109835676Y-37750795D01*
X109811388Y-37747192D01*
X109787571Y-37741226D01*
X109764453Y-37732955D01*
X109742257Y-37722457D01*
X109721196Y-37709834D01*
X109701475Y-37695207D01*
X109683282Y-37678718D01*
X109666793Y-37660525D01*
X109652166Y-37640804D01*
X109639543Y-37619743D01*
X109629045Y-37597547D01*
X109620774Y-37574429D01*
X109614808Y-37550612D01*
X109611205Y-37526324D01*
X109610000Y-37501800D01*
X109610000Y-32602200D01*
X109611205Y-32577676D01*
X109614808Y-32553388D01*
X109620774Y-32529571D01*
X109629045Y-32506453D01*
X109639543Y-32484257D01*
X109652166Y-32463196D01*
X109666793Y-32443475D01*
X109683282Y-32425282D01*
X109701475Y-32408793D01*
X109721196Y-32394166D01*
X109742257Y-32381543D01*
X109764453Y-32371045D01*
X109787571Y-32362774D01*
X109811388Y-32356808D01*
X109835676Y-32353205D01*
X109860200Y-32352000D01*
X111159800Y-32352000D01*
X111184324Y-32353205D01*
X111184324Y-32353205D01*
G37*
D18*
G04 #@! TD*
G04 #@! TO.P,C1,2*
G04 #@! TO.N,GND*
X110510000Y-35052000D03*
D17*
G04 #@! TO.N,3.3V*
G04 #@! TO.C,C3*
G36*
X119568504Y-34915204D02*
X119592773Y-34918804D01*
X119616571Y-34924765D01*
X119639671Y-34933030D01*
X119661849Y-34943520D01*
X119682893Y-34956133D01*
X119702598Y-34970747D01*
X119720777Y-34987223D01*
X119737253Y-35005402D01*
X119751867Y-35025107D01*
X119764480Y-35046151D01*
X119774970Y-35068329D01*
X119783235Y-35091429D01*
X119789196Y-35115227D01*
X119792796Y-35139496D01*
X119794000Y-35164000D01*
X119794000Y-36464000D01*
X119792796Y-36488504D01*
X119789196Y-36512773D01*
X119783235Y-36536571D01*
X119774970Y-36559671D01*
X119764480Y-36581849D01*
X119751867Y-36602893D01*
X119737253Y-36622598D01*
X119720777Y-36640777D01*
X119702598Y-36657253D01*
X119682893Y-36671867D01*
X119661849Y-36684480D01*
X119639671Y-36694970D01*
X119616571Y-36703235D01*
X119592773Y-36709196D01*
X119568504Y-36712796D01*
X119544000Y-36714000D01*
X114644000Y-36714000D01*
X114619496Y-36712796D01*
X114595227Y-36709196D01*
X114571429Y-36703235D01*
X114548329Y-36694970D01*
X114526151Y-36684480D01*
X114505107Y-36671867D01*
X114485402Y-36657253D01*
X114467223Y-36640777D01*
X114450747Y-36622598D01*
X114436133Y-36602893D01*
X114423520Y-36581849D01*
X114413030Y-36559671D01*
X114404765Y-36536571D01*
X114398804Y-36512773D01*
X114395204Y-36488504D01*
X114394000Y-36464000D01*
X114394000Y-35164000D01*
X114395204Y-35139496D01*
X114398804Y-35115227D01*
X114404765Y-35091429D01*
X114413030Y-35068329D01*
X114423520Y-35046151D01*
X114436133Y-35025107D01*
X114450747Y-35005402D01*
X114467223Y-34987223D01*
X114485402Y-34970747D01*
X114505107Y-34956133D01*
X114526151Y-34943520D01*
X114548329Y-34933030D01*
X114571429Y-34924765D01*
X114595227Y-34918804D01*
X114619496Y-34915204D01*
X114644000Y-34914000D01*
X119544000Y-34914000D01*
X119568504Y-34915204D01*
X119568504Y-34915204D01*
G37*
D18*
G04 #@! TD*
G04 #@! TO.P,C3,1*
G04 #@! TO.N,3.3V*
X117094000Y-35814000D03*
D17*
G04 #@! TO.N,GND*
G04 #@! TO.C,C3*
G36*
X119568504Y-40015204D02*
X119592773Y-40018804D01*
X119616571Y-40024765D01*
X119639671Y-40033030D01*
X119661849Y-40043520D01*
X119682893Y-40056133D01*
X119702598Y-40070747D01*
X119720777Y-40087223D01*
X119737253Y-40105402D01*
X119751867Y-40125107D01*
X119764480Y-40146151D01*
X119774970Y-40168329D01*
X119783235Y-40191429D01*
X119789196Y-40215227D01*
X119792796Y-40239496D01*
X119794000Y-40264000D01*
X119794000Y-41564000D01*
X119792796Y-41588504D01*
X119789196Y-41612773D01*
X119783235Y-41636571D01*
X119774970Y-41659671D01*
X119764480Y-41681849D01*
X119751867Y-41702893D01*
X119737253Y-41722598D01*
X119720777Y-41740777D01*
X119702598Y-41757253D01*
X119682893Y-41771867D01*
X119661849Y-41784480D01*
X119639671Y-41794970D01*
X119616571Y-41803235D01*
X119592773Y-41809196D01*
X119568504Y-41812796D01*
X119544000Y-41814000D01*
X114644000Y-41814000D01*
X114619496Y-41812796D01*
X114595227Y-41809196D01*
X114571429Y-41803235D01*
X114548329Y-41794970D01*
X114526151Y-41784480D01*
X114505107Y-41771867D01*
X114485402Y-41757253D01*
X114467223Y-41740777D01*
X114450747Y-41722598D01*
X114436133Y-41702893D01*
X114423520Y-41681849D01*
X114413030Y-41659671D01*
X114404765Y-41636571D01*
X114398804Y-41612773D01*
X114395204Y-41588504D01*
X114394000Y-41564000D01*
X114394000Y-40264000D01*
X114395204Y-40239496D01*
X114398804Y-40215227D01*
X114404765Y-40191429D01*
X114413030Y-40168329D01*
X114423520Y-40146151D01*
X114436133Y-40125107D01*
X114450747Y-40105402D01*
X114467223Y-40087223D01*
X114485402Y-40070747D01*
X114505107Y-40056133D01*
X114526151Y-40043520D01*
X114548329Y-40033030D01*
X114571429Y-40024765D01*
X114595227Y-40018804D01*
X114619496Y-40015204D01*
X114644000Y-40014000D01*
X119544000Y-40014000D01*
X119568504Y-40015204D01*
X119568504Y-40015204D01*
G37*
D18*
G04 #@! TD*
G04 #@! TO.P,C3,2*
G04 #@! TO.N,GND*
X117094000Y-40914000D03*
D17*
G04 #@! TO.N,GND*
G04 #@! TO.C,C4*
G36*
X128964324Y-108553205D02*
X128988612Y-108556808D01*
X129012429Y-108562774D01*
X129035547Y-108571045D01*
X129057743Y-108581543D01*
X129078804Y-108594166D01*
X129098525Y-108608793D01*
X129116718Y-108625282D01*
X129133207Y-108643475D01*
X129147834Y-108663196D01*
X129160457Y-108684257D01*
X129170955Y-108706453D01*
X129179226Y-108729571D01*
X129185192Y-108753388D01*
X129188795Y-108777676D01*
X129190000Y-108802200D01*
X129190000Y-113701800D01*
X129188795Y-113726324D01*
X129185192Y-113750612D01*
X129179226Y-113774429D01*
X129170955Y-113797547D01*
X129160457Y-113819743D01*
X129147834Y-113840804D01*
X129133207Y-113860525D01*
X129116718Y-113878718D01*
X129098525Y-113895207D01*
X129078804Y-113909834D01*
X129057743Y-113922457D01*
X129035547Y-113932955D01*
X129012429Y-113941226D01*
X128988612Y-113947192D01*
X128964324Y-113950795D01*
X128939800Y-113952000D01*
X127640200Y-113952000D01*
X127615676Y-113950795D01*
X127591388Y-113947192D01*
X127567571Y-113941226D01*
X127544453Y-113932955D01*
X127522257Y-113922457D01*
X127501196Y-113909834D01*
X127481475Y-113895207D01*
X127463282Y-113878718D01*
X127446793Y-113860525D01*
X127432166Y-113840804D01*
X127419543Y-113819743D01*
X127409045Y-113797547D01*
X127400774Y-113774429D01*
X127394808Y-113750612D01*
X127391205Y-113726324D01*
X127390000Y-113701800D01*
X127390000Y-108802200D01*
X127391205Y-108777676D01*
X127394808Y-108753388D01*
X127400774Y-108729571D01*
X127409045Y-108706453D01*
X127419543Y-108684257D01*
X127432166Y-108663196D01*
X127446793Y-108643475D01*
X127463282Y-108625282D01*
X127481475Y-108608793D01*
X127501196Y-108594166D01*
X127522257Y-108581543D01*
X127544453Y-108571045D01*
X127567571Y-108562774D01*
X127591388Y-108556808D01*
X127615676Y-108553205D01*
X127640200Y-108552000D01*
X128939800Y-108552000D01*
X128964324Y-108553205D01*
X128964324Y-108553205D01*
G37*
D18*
G04 #@! TD*
G04 #@! TO.P,C4,2*
G04 #@! TO.N,GND*
X128290000Y-111252000D03*
D17*
G04 #@! TO.N,3.3V*
G04 #@! TO.C,C4*
G36*
X123864324Y-108553205D02*
X123888612Y-108556808D01*
X123912429Y-108562774D01*
X123935547Y-108571045D01*
X123957743Y-108581543D01*
X123978804Y-108594166D01*
X123998525Y-108608793D01*
X124016718Y-108625282D01*
X124033207Y-108643475D01*
X124047834Y-108663196D01*
X124060457Y-108684257D01*
X124070955Y-108706453D01*
X124079226Y-108729571D01*
X124085192Y-108753388D01*
X124088795Y-108777676D01*
X124090000Y-108802200D01*
X124090000Y-113701800D01*
X124088795Y-113726324D01*
X124085192Y-113750612D01*
X124079226Y-113774429D01*
X124070955Y-113797547D01*
X124060457Y-113819743D01*
X124047834Y-113840804D01*
X124033207Y-113860525D01*
X124016718Y-113878718D01*
X123998525Y-113895207D01*
X123978804Y-113909834D01*
X123957743Y-113922457D01*
X123935547Y-113932955D01*
X123912429Y-113941226D01*
X123888612Y-113947192D01*
X123864324Y-113950795D01*
X123839800Y-113952000D01*
X122540200Y-113952000D01*
X122515676Y-113950795D01*
X122491388Y-113947192D01*
X122467571Y-113941226D01*
X122444453Y-113932955D01*
X122422257Y-113922457D01*
X122401196Y-113909834D01*
X122381475Y-113895207D01*
X122363282Y-113878718D01*
X122346793Y-113860525D01*
X122332166Y-113840804D01*
X122319543Y-113819743D01*
X122309045Y-113797547D01*
X122300774Y-113774429D01*
X122294808Y-113750612D01*
X122291205Y-113726324D01*
X122290000Y-113701800D01*
X122290000Y-108802200D01*
X122291205Y-108777676D01*
X122294808Y-108753388D01*
X122300774Y-108729571D01*
X122309045Y-108706453D01*
X122319543Y-108684257D01*
X122332166Y-108663196D01*
X122346793Y-108643475D01*
X122363282Y-108625282D01*
X122381475Y-108608793D01*
X122401196Y-108594166D01*
X122422257Y-108581543D01*
X122444453Y-108571045D01*
X122467571Y-108562774D01*
X122491388Y-108556808D01*
X122515676Y-108553205D01*
X122540200Y-108552000D01*
X123839800Y-108552000D01*
X123864324Y-108553205D01*
X123864324Y-108553205D01*
G37*
D18*
G04 #@! TD*
G04 #@! TO.P,C4,1*
G04 #@! TO.N,3.3V*
X123190000Y-111252000D03*
D17*
G04 #@! TO.N,3.3V*
G04 #@! TO.C,C5*
G36*
X101766324Y-109315205D02*
X101790612Y-109318808D01*
X101814429Y-109324774D01*
X101837547Y-109333045D01*
X101859743Y-109343543D01*
X101880804Y-109356166D01*
X101900525Y-109370793D01*
X101918718Y-109387282D01*
X101935207Y-109405475D01*
X101949834Y-109425196D01*
X101962457Y-109446257D01*
X101972955Y-109468453D01*
X101981226Y-109491571D01*
X101987192Y-109515388D01*
X101990795Y-109539676D01*
X101992000Y-109564200D01*
X101992000Y-114463800D01*
X101990795Y-114488324D01*
X101987192Y-114512612D01*
X101981226Y-114536429D01*
X101972955Y-114559547D01*
X101962457Y-114581743D01*
X101949834Y-114602804D01*
X101935207Y-114622525D01*
X101918718Y-114640718D01*
X101900525Y-114657207D01*
X101880804Y-114671834D01*
X101859743Y-114684457D01*
X101837547Y-114694955D01*
X101814429Y-114703226D01*
X101790612Y-114709192D01*
X101766324Y-114712795D01*
X101741800Y-114714000D01*
X100442200Y-114714000D01*
X100417676Y-114712795D01*
X100393388Y-114709192D01*
X100369571Y-114703226D01*
X100346453Y-114694955D01*
X100324257Y-114684457D01*
X100303196Y-114671834D01*
X100283475Y-114657207D01*
X100265282Y-114640718D01*
X100248793Y-114622525D01*
X100234166Y-114602804D01*
X100221543Y-114581743D01*
X100211045Y-114559547D01*
X100202774Y-114536429D01*
X100196808Y-114512612D01*
X100193205Y-114488324D01*
X100192000Y-114463800D01*
X100192000Y-109564200D01*
X100193205Y-109539676D01*
X100196808Y-109515388D01*
X100202774Y-109491571D01*
X100211045Y-109468453D01*
X100221543Y-109446257D01*
X100234166Y-109425196D01*
X100248793Y-109405475D01*
X100265282Y-109387282D01*
X100283475Y-109370793D01*
X100303196Y-109356166D01*
X100324257Y-109343543D01*
X100346453Y-109333045D01*
X100369571Y-109324774D01*
X100393388Y-109318808D01*
X100417676Y-109315205D01*
X100442200Y-109314000D01*
X101741800Y-109314000D01*
X101766324Y-109315205D01*
X101766324Y-109315205D01*
G37*
D18*
G04 #@! TD*
G04 #@! TO.P,C5,1*
G04 #@! TO.N,3.3V*
X101092000Y-112014000D03*
D17*
G04 #@! TO.N,GND*
G04 #@! TO.C,C5*
G36*
X106866324Y-109315205D02*
X106890612Y-109318808D01*
X106914429Y-109324774D01*
X106937547Y-109333045D01*
X106959743Y-109343543D01*
X106980804Y-109356166D01*
X107000525Y-109370793D01*
X107018718Y-109387282D01*
X107035207Y-109405475D01*
X107049834Y-109425196D01*
X107062457Y-109446257D01*
X107072955Y-109468453D01*
X107081226Y-109491571D01*
X107087192Y-109515388D01*
X107090795Y-109539676D01*
X107092000Y-109564200D01*
X107092000Y-114463800D01*
X107090795Y-114488324D01*
X107087192Y-114512612D01*
X107081226Y-114536429D01*
X107072955Y-114559547D01*
X107062457Y-114581743D01*
X107049834Y-114602804D01*
X107035207Y-114622525D01*
X107018718Y-114640718D01*
X107000525Y-114657207D01*
X106980804Y-114671834D01*
X106959743Y-114684457D01*
X106937547Y-114694955D01*
X106914429Y-114703226D01*
X106890612Y-114709192D01*
X106866324Y-114712795D01*
X106841800Y-114714000D01*
X105542200Y-114714000D01*
X105517676Y-114712795D01*
X105493388Y-114709192D01*
X105469571Y-114703226D01*
X105446453Y-114694955D01*
X105424257Y-114684457D01*
X105403196Y-114671834D01*
X105383475Y-114657207D01*
X105365282Y-114640718D01*
X105348793Y-114622525D01*
X105334166Y-114602804D01*
X105321543Y-114581743D01*
X105311045Y-114559547D01*
X105302774Y-114536429D01*
X105296808Y-114512612D01*
X105293205Y-114488324D01*
X105292000Y-114463800D01*
X105292000Y-109564200D01*
X105293205Y-109539676D01*
X105296808Y-109515388D01*
X105302774Y-109491571D01*
X105311045Y-109468453D01*
X105321543Y-109446257D01*
X105334166Y-109425196D01*
X105348793Y-109405475D01*
X105365282Y-109387282D01*
X105383475Y-109370793D01*
X105403196Y-109356166D01*
X105424257Y-109343543D01*
X105446453Y-109333045D01*
X105469571Y-109324774D01*
X105493388Y-109318808D01*
X105517676Y-109315205D01*
X105542200Y-109314000D01*
X106841800Y-109314000D01*
X106866324Y-109315205D01*
X106866324Y-109315205D01*
G37*
D18*
G04 #@! TD*
G04 #@! TO.P,C5,2*
G04 #@! TO.N,GND*
X106192000Y-112014000D03*
D17*
G04 #@! TO.N,GND*
G04 #@! TO.C,C6*
G36*
X102804324Y-41793205D02*
X102828612Y-41796808D01*
X102852429Y-41802774D01*
X102875547Y-41811045D01*
X102897743Y-41821543D01*
X102918804Y-41834166D01*
X102938525Y-41848793D01*
X102956718Y-41865282D01*
X102973207Y-41883475D01*
X102987834Y-41903196D01*
X103000457Y-41924257D01*
X103010955Y-41946453D01*
X103019226Y-41969571D01*
X103025192Y-41993388D01*
X103028795Y-42017676D01*
X103030000Y-42042200D01*
X103030000Y-43341800D01*
X103028795Y-43366324D01*
X103025192Y-43390612D01*
X103019226Y-43414429D01*
X103010955Y-43437547D01*
X103000457Y-43459743D01*
X102987834Y-43480804D01*
X102973207Y-43500525D01*
X102956718Y-43518718D01*
X102938525Y-43535207D01*
X102918804Y-43549834D01*
X102897743Y-43562457D01*
X102875547Y-43572955D01*
X102852429Y-43581226D01*
X102828612Y-43587192D01*
X102804324Y-43590795D01*
X102779800Y-43592000D01*
X97880200Y-43592000D01*
X97855676Y-43590795D01*
X97831388Y-43587192D01*
X97807571Y-43581226D01*
X97784453Y-43572955D01*
X97762257Y-43562457D01*
X97741196Y-43549834D01*
X97721475Y-43535207D01*
X97703282Y-43518718D01*
X97686793Y-43500525D01*
X97672166Y-43480804D01*
X97659543Y-43459743D01*
X97649045Y-43437547D01*
X97640774Y-43414429D01*
X97634808Y-43390612D01*
X97631205Y-43366324D01*
X97630000Y-43341800D01*
X97630000Y-42042200D01*
X97631205Y-42017676D01*
X97634808Y-41993388D01*
X97640774Y-41969571D01*
X97649045Y-41946453D01*
X97659543Y-41924257D01*
X97672166Y-41903196D01*
X97686793Y-41883475D01*
X97703282Y-41865282D01*
X97721475Y-41848793D01*
X97741196Y-41834166D01*
X97762257Y-41821543D01*
X97784453Y-41811045D01*
X97807571Y-41802774D01*
X97831388Y-41796808D01*
X97855676Y-41793205D01*
X97880200Y-41792000D01*
X102779800Y-41792000D01*
X102804324Y-41793205D01*
X102804324Y-41793205D01*
G37*
D18*
G04 #@! TD*
G04 #@! TO.P,C6,2*
G04 #@! TO.N,GND*
X100330000Y-42692000D03*
D17*
G04 #@! TO.N,3.3V*
G04 #@! TO.C,C6*
G36*
X102804324Y-36693205D02*
X102828612Y-36696808D01*
X102852429Y-36702774D01*
X102875547Y-36711045D01*
X102897743Y-36721543D01*
X102918804Y-36734166D01*
X102938525Y-36748793D01*
X102956718Y-36765282D01*
X102973207Y-36783475D01*
X102987834Y-36803196D01*
X103000457Y-36824257D01*
X103010955Y-36846453D01*
X103019226Y-36869571D01*
X103025192Y-36893388D01*
X103028795Y-36917676D01*
X103030000Y-36942200D01*
X103030000Y-38241800D01*
X103028795Y-38266324D01*
X103025192Y-38290612D01*
X103019226Y-38314429D01*
X103010955Y-38337547D01*
X103000457Y-38359743D01*
X102987834Y-38380804D01*
X102973207Y-38400525D01*
X102956718Y-38418718D01*
X102938525Y-38435207D01*
X102918804Y-38449834D01*
X102897743Y-38462457D01*
X102875547Y-38472955D01*
X102852429Y-38481226D01*
X102828612Y-38487192D01*
X102804324Y-38490795D01*
X102779800Y-38492000D01*
X97880200Y-38492000D01*
X97855676Y-38490795D01*
X97831388Y-38487192D01*
X97807571Y-38481226D01*
X97784453Y-38472955D01*
X97762257Y-38462457D01*
X97741196Y-38449834D01*
X97721475Y-38435207D01*
X97703282Y-38418718D01*
X97686793Y-38400525D01*
X97672166Y-38380804D01*
X97659543Y-38359743D01*
X97649045Y-38337547D01*
X97640774Y-38314429D01*
X97634808Y-38290612D01*
X97631205Y-38266324D01*
X97630000Y-38241800D01*
X97630000Y-36942200D01*
X97631205Y-36917676D01*
X97634808Y-36893388D01*
X97640774Y-36869571D01*
X97649045Y-36846453D01*
X97659543Y-36824257D01*
X97672166Y-36803196D01*
X97686793Y-36783475D01*
X97703282Y-36765282D01*
X97721475Y-36748793D01*
X97741196Y-36734166D01*
X97762257Y-36721543D01*
X97784453Y-36711045D01*
X97807571Y-36702774D01*
X97831388Y-36696808D01*
X97855676Y-36693205D01*
X97880200Y-36692000D01*
X102779800Y-36692000D01*
X102804324Y-36693205D01*
X102804324Y-36693205D01*
G37*
D18*
G04 #@! TD*
G04 #@! TO.P,C6,1*
G04 #@! TO.N,3.3V*
X100330000Y-37592000D03*
D17*
G04 #@! TO.N,3.3V*
G04 #@! TO.C,C7*
G36*
X120076324Y-110099205D02*
X120100612Y-110102808D01*
X120124429Y-110108774D01*
X120147547Y-110117045D01*
X120169743Y-110127543D01*
X120190804Y-110140166D01*
X120210525Y-110154793D01*
X120228718Y-110171282D01*
X120245207Y-110189475D01*
X120259834Y-110209196D01*
X120272457Y-110230257D01*
X120282955Y-110252453D01*
X120291226Y-110275571D01*
X120297192Y-110299388D01*
X120300795Y-110323676D01*
X120302000Y-110348200D01*
X120302000Y-111647800D01*
X120300795Y-111672324D01*
X120297192Y-111696612D01*
X120291226Y-111720429D01*
X120282955Y-111743547D01*
X120272457Y-111765743D01*
X120259834Y-111786804D01*
X120245207Y-111806525D01*
X120228718Y-111824718D01*
X120210525Y-111841207D01*
X120190804Y-111855834D01*
X120169743Y-111868457D01*
X120147547Y-111878955D01*
X120124429Y-111887226D01*
X120100612Y-111893192D01*
X120076324Y-111896795D01*
X120051800Y-111898000D01*
X115152200Y-111898000D01*
X115127676Y-111896795D01*
X115103388Y-111893192D01*
X115079571Y-111887226D01*
X115056453Y-111878955D01*
X115034257Y-111868457D01*
X115013196Y-111855834D01*
X114993475Y-111841207D01*
X114975282Y-111824718D01*
X114958793Y-111806525D01*
X114944166Y-111786804D01*
X114931543Y-111765743D01*
X114921045Y-111743547D01*
X114912774Y-111720429D01*
X114906808Y-111696612D01*
X114903205Y-111672324D01*
X114902000Y-111647800D01*
X114902000Y-110348200D01*
X114903205Y-110323676D01*
X114906808Y-110299388D01*
X114912774Y-110275571D01*
X114921045Y-110252453D01*
X114931543Y-110230257D01*
X114944166Y-110209196D01*
X114958793Y-110189475D01*
X114975282Y-110171282D01*
X114993475Y-110154793D01*
X115013196Y-110140166D01*
X115034257Y-110127543D01*
X115056453Y-110117045D01*
X115079571Y-110108774D01*
X115103388Y-110102808D01*
X115127676Y-110099205D01*
X115152200Y-110098000D01*
X120051800Y-110098000D01*
X120076324Y-110099205D01*
X120076324Y-110099205D01*
G37*
D18*
G04 #@! TD*
G04 #@! TO.P,C7,1*
G04 #@! TO.N,3.3V*
X117602000Y-110998000D03*
D17*
G04 #@! TO.N,GND*
G04 #@! TO.C,C7*
G36*
X120076324Y-104999205D02*
X120100612Y-105002808D01*
X120124429Y-105008774D01*
X120147547Y-105017045D01*
X120169743Y-105027543D01*
X120190804Y-105040166D01*
X120210525Y-105054793D01*
X120228718Y-105071282D01*
X120245207Y-105089475D01*
X120259834Y-105109196D01*
X120272457Y-105130257D01*
X120282955Y-105152453D01*
X120291226Y-105175571D01*
X120297192Y-105199388D01*
X120300795Y-105223676D01*
X120302000Y-105248200D01*
X120302000Y-106547800D01*
X120300795Y-106572324D01*
X120297192Y-106596612D01*
X120291226Y-106620429D01*
X120282955Y-106643547D01*
X120272457Y-106665743D01*
X120259834Y-106686804D01*
X120245207Y-106706525D01*
X120228718Y-106724718D01*
X120210525Y-106741207D01*
X120190804Y-106755834D01*
X120169743Y-106768457D01*
X120147547Y-106778955D01*
X120124429Y-106787226D01*
X120100612Y-106793192D01*
X120076324Y-106796795D01*
X120051800Y-106798000D01*
X115152200Y-106798000D01*
X115127676Y-106796795D01*
X115103388Y-106793192D01*
X115079571Y-106787226D01*
X115056453Y-106778955D01*
X115034257Y-106768457D01*
X115013196Y-106755834D01*
X114993475Y-106741207D01*
X114975282Y-106724718D01*
X114958793Y-106706525D01*
X114944166Y-106686804D01*
X114931543Y-106665743D01*
X114921045Y-106643547D01*
X114912774Y-106620429D01*
X114906808Y-106596612D01*
X114903205Y-106572324D01*
X114902000Y-106547800D01*
X114902000Y-105248200D01*
X114903205Y-105223676D01*
X114906808Y-105199388D01*
X114912774Y-105175571D01*
X114921045Y-105152453D01*
X114931543Y-105130257D01*
X114944166Y-105109196D01*
X114958793Y-105089475D01*
X114975282Y-105071282D01*
X114993475Y-105054793D01*
X115013196Y-105040166D01*
X115034257Y-105027543D01*
X115056453Y-105017045D01*
X115079571Y-105008774D01*
X115103388Y-105002808D01*
X115127676Y-104999205D01*
X115152200Y-104998000D01*
X120051800Y-104998000D01*
X120076324Y-104999205D01*
X120076324Y-104999205D01*
G37*
D18*
G04 #@! TD*
G04 #@! TO.P,C7,2*
G04 #@! TO.N,GND*
X117602000Y-105898000D03*
D17*
G04 #@! TO.N,GND*
G04 #@! TO.C,C8*
G36*
X128456504Y-31337204D02*
X128480773Y-31340804D01*
X128504571Y-31346765D01*
X128527671Y-31355030D01*
X128549849Y-31365520D01*
X128570893Y-31378133D01*
X128590598Y-31392747D01*
X128608777Y-31409223D01*
X128625253Y-31427402D01*
X128639867Y-31447107D01*
X128652480Y-31468151D01*
X128662970Y-31490329D01*
X128671235Y-31513429D01*
X128677196Y-31537227D01*
X128680796Y-31561496D01*
X128682000Y-31586000D01*
X128682000Y-36486000D01*
X128680796Y-36510504D01*
X128677196Y-36534773D01*
X128671235Y-36558571D01*
X128662970Y-36581671D01*
X128652480Y-36603849D01*
X128639867Y-36624893D01*
X128625253Y-36644598D01*
X128608777Y-36662777D01*
X128590598Y-36679253D01*
X128570893Y-36693867D01*
X128549849Y-36706480D01*
X128527671Y-36716970D01*
X128504571Y-36725235D01*
X128480773Y-36731196D01*
X128456504Y-36734796D01*
X128432000Y-36736000D01*
X127132000Y-36736000D01*
X127107496Y-36734796D01*
X127083227Y-36731196D01*
X127059429Y-36725235D01*
X127036329Y-36716970D01*
X127014151Y-36706480D01*
X126993107Y-36693867D01*
X126973402Y-36679253D01*
X126955223Y-36662777D01*
X126938747Y-36644598D01*
X126924133Y-36624893D01*
X126911520Y-36603849D01*
X126901030Y-36581671D01*
X126892765Y-36558571D01*
X126886804Y-36534773D01*
X126883204Y-36510504D01*
X126882000Y-36486000D01*
X126882000Y-31586000D01*
X126883204Y-31561496D01*
X126886804Y-31537227D01*
X126892765Y-31513429D01*
X126901030Y-31490329D01*
X126911520Y-31468151D01*
X126924133Y-31447107D01*
X126938747Y-31427402D01*
X126955223Y-31409223D01*
X126973402Y-31392747D01*
X126993107Y-31378133D01*
X127014151Y-31365520D01*
X127036329Y-31355030D01*
X127059429Y-31346765D01*
X127083227Y-31340804D01*
X127107496Y-31337204D01*
X127132000Y-31336000D01*
X128432000Y-31336000D01*
X128456504Y-31337204D01*
X128456504Y-31337204D01*
G37*
D18*
G04 #@! TD*
G04 #@! TO.P,C8,2*
G04 #@! TO.N,GND*
X127782000Y-34036000D03*
D17*
G04 #@! TO.N,3.3V*
G04 #@! TO.C,C8*
G36*
X123356504Y-31337204D02*
X123380773Y-31340804D01*
X123404571Y-31346765D01*
X123427671Y-31355030D01*
X123449849Y-31365520D01*
X123470893Y-31378133D01*
X123490598Y-31392747D01*
X123508777Y-31409223D01*
X123525253Y-31427402D01*
X123539867Y-31447107D01*
X123552480Y-31468151D01*
X123562970Y-31490329D01*
X123571235Y-31513429D01*
X123577196Y-31537227D01*
X123580796Y-31561496D01*
X123582000Y-31586000D01*
X123582000Y-36486000D01*
X123580796Y-36510504D01*
X123577196Y-36534773D01*
X123571235Y-36558571D01*
X123562970Y-36581671D01*
X123552480Y-36603849D01*
X123539867Y-36624893D01*
X123525253Y-36644598D01*
X123508777Y-36662777D01*
X123490598Y-36679253D01*
X123470893Y-36693867D01*
X123449849Y-36706480D01*
X123427671Y-36716970D01*
X123404571Y-36725235D01*
X123380773Y-36731196D01*
X123356504Y-36734796D01*
X123332000Y-36736000D01*
X122032000Y-36736000D01*
X122007496Y-36734796D01*
X121983227Y-36731196D01*
X121959429Y-36725235D01*
X121936329Y-36716970D01*
X121914151Y-36706480D01*
X121893107Y-36693867D01*
X121873402Y-36679253D01*
X121855223Y-36662777D01*
X121838747Y-36644598D01*
X121824133Y-36624893D01*
X121811520Y-36603849D01*
X121801030Y-36581671D01*
X121792765Y-36558571D01*
X121786804Y-36534773D01*
X121783204Y-36510504D01*
X121782000Y-36486000D01*
X121782000Y-31586000D01*
X121783204Y-31561496D01*
X121786804Y-31537227D01*
X121792765Y-31513429D01*
X121801030Y-31490329D01*
X121811520Y-31468151D01*
X121824133Y-31447107D01*
X121838747Y-31427402D01*
X121855223Y-31409223D01*
X121873402Y-31392747D01*
X121893107Y-31378133D01*
X121914151Y-31365520D01*
X121936329Y-31355030D01*
X121959429Y-31346765D01*
X121983227Y-31340804D01*
X122007496Y-31337204D01*
X122032000Y-31336000D01*
X123332000Y-31336000D01*
X123356504Y-31337204D01*
X123356504Y-31337204D01*
G37*
D18*
G04 #@! TD*
G04 #@! TO.P,C8,1*
G04 #@! TO.N,3.3V*
X122682000Y-34036000D03*
D19*
G04 #@! TO.P,D1,1*
G04 #@! TO.N,Net-(D1-Pad1)*
X99544000Y-65024000D03*
G04 #@! TO.P,D1,2*
G04 #@! TO.N,5V*
X96544000Y-65024000D03*
G04 #@! TD*
D17*
G04 #@! TO.N,GND*
G04 #@! TO.C,R1*
G36*
X109961004Y-64150204D02*
X109985273Y-64153804D01*
X110009071Y-64159765D01*
X110032171Y-64168030D01*
X110054349Y-64178520D01*
X110075393Y-64191133D01*
X110095098Y-64205747D01*
X110113277Y-64222223D01*
X110129753Y-64240402D01*
X110144367Y-64260107D01*
X110156980Y-64281151D01*
X110167470Y-64303329D01*
X110175735Y-64326429D01*
X110181696Y-64350227D01*
X110185296Y-64374496D01*
X110186500Y-64399000D01*
X110186500Y-65649000D01*
X110185296Y-65673504D01*
X110181696Y-65697773D01*
X110175735Y-65721571D01*
X110167470Y-65744671D01*
X110156980Y-65766849D01*
X110144367Y-65787893D01*
X110129753Y-65807598D01*
X110113277Y-65825777D01*
X110095098Y-65842253D01*
X110075393Y-65856867D01*
X110054349Y-65869480D01*
X110032171Y-65879970D01*
X110009071Y-65888235D01*
X109985273Y-65894196D01*
X109961004Y-65897796D01*
X109936500Y-65899000D01*
X109011500Y-65899000D01*
X108986996Y-65897796D01*
X108962727Y-65894196D01*
X108938929Y-65888235D01*
X108915829Y-65879970D01*
X108893651Y-65869480D01*
X108872607Y-65856867D01*
X108852902Y-65842253D01*
X108834723Y-65825777D01*
X108818247Y-65807598D01*
X108803633Y-65787893D01*
X108791020Y-65766849D01*
X108780530Y-65744671D01*
X108772265Y-65721571D01*
X108766304Y-65697773D01*
X108762704Y-65673504D01*
X108761500Y-65649000D01*
X108761500Y-64399000D01*
X108762704Y-64374496D01*
X108766304Y-64350227D01*
X108772265Y-64326429D01*
X108780530Y-64303329D01*
X108791020Y-64281151D01*
X108803633Y-64260107D01*
X108818247Y-64240402D01*
X108834723Y-64222223D01*
X108852902Y-64205747D01*
X108872607Y-64191133D01*
X108893651Y-64178520D01*
X108915829Y-64168030D01*
X108938929Y-64159765D01*
X108962727Y-64153804D01*
X108986996Y-64150204D01*
X109011500Y-64149000D01*
X109936500Y-64149000D01*
X109961004Y-64150204D01*
X109961004Y-64150204D01*
G37*
D20*
G04 #@! TD*
G04 #@! TO.P,R1,1*
G04 #@! TO.N,GND*
X109474000Y-65024000D03*
D17*
G04 #@! TO.N,Net-(D1-Pad1)*
G04 #@! TO.C,R1*
G36*
X106986004Y-64150204D02*
X107010273Y-64153804D01*
X107034071Y-64159765D01*
X107057171Y-64168030D01*
X107079349Y-64178520D01*
X107100393Y-64191133D01*
X107120098Y-64205747D01*
X107138277Y-64222223D01*
X107154753Y-64240402D01*
X107169367Y-64260107D01*
X107181980Y-64281151D01*
X107192470Y-64303329D01*
X107200735Y-64326429D01*
X107206696Y-64350227D01*
X107210296Y-64374496D01*
X107211500Y-64399000D01*
X107211500Y-65649000D01*
X107210296Y-65673504D01*
X107206696Y-65697773D01*
X107200735Y-65721571D01*
X107192470Y-65744671D01*
X107181980Y-65766849D01*
X107169367Y-65787893D01*
X107154753Y-65807598D01*
X107138277Y-65825777D01*
X107120098Y-65842253D01*
X107100393Y-65856867D01*
X107079349Y-65869480D01*
X107057171Y-65879970D01*
X107034071Y-65888235D01*
X107010273Y-65894196D01*
X106986004Y-65897796D01*
X106961500Y-65899000D01*
X106036500Y-65899000D01*
X106011996Y-65897796D01*
X105987727Y-65894196D01*
X105963929Y-65888235D01*
X105940829Y-65879970D01*
X105918651Y-65869480D01*
X105897607Y-65856867D01*
X105877902Y-65842253D01*
X105859723Y-65825777D01*
X105843247Y-65807598D01*
X105828633Y-65787893D01*
X105816020Y-65766849D01*
X105805530Y-65744671D01*
X105797265Y-65721571D01*
X105791304Y-65697773D01*
X105787704Y-65673504D01*
X105786500Y-65649000D01*
X105786500Y-64399000D01*
X105787704Y-64374496D01*
X105791304Y-64350227D01*
X105797265Y-64326429D01*
X105805530Y-64303329D01*
X105816020Y-64281151D01*
X105828633Y-64260107D01*
X105843247Y-64240402D01*
X105859723Y-64222223D01*
X105877902Y-64205747D01*
X105897607Y-64191133D01*
X105918651Y-64178520D01*
X105940829Y-64168030D01*
X105963929Y-64159765D01*
X105987727Y-64153804D01*
X106011996Y-64150204D01*
X106036500Y-64149000D01*
X106961500Y-64149000D01*
X106986004Y-64150204D01*
X106986004Y-64150204D01*
G37*
D20*
G04 #@! TD*
G04 #@! TO.P,R1,2*
G04 #@! TO.N,Net-(D1-Pad1)*
X106499000Y-65024000D03*
D17*
G04 #@! TO.N,3.3V*
G04 #@! TO.C,C2*
G36*
X97469760Y-108428708D02*
X97494109Y-108432320D01*
X97517986Y-108438300D01*
X97541162Y-108446593D01*
X97563413Y-108457117D01*
X97584526Y-108469772D01*
X97604297Y-108484435D01*
X97622535Y-108500965D01*
X97639065Y-108519203D01*
X97653728Y-108538974D01*
X97666383Y-108560087D01*
X97676907Y-108582338D01*
X97685200Y-108605514D01*
X97691180Y-108629391D01*
X97694792Y-108653740D01*
X97696000Y-108678325D01*
X97696000Y-110151675D01*
X97694792Y-110176260D01*
X97691180Y-110200609D01*
X97685200Y-110224486D01*
X97676907Y-110247662D01*
X97666383Y-110269913D01*
X97653728Y-110291026D01*
X97639065Y-110310797D01*
X97622535Y-110329035D01*
X97604297Y-110345565D01*
X97584526Y-110360228D01*
X97563413Y-110372883D01*
X97541162Y-110383407D01*
X97517986Y-110391700D01*
X97494109Y-110397680D01*
X97469760Y-110401292D01*
X97445175Y-110402500D01*
X92546825Y-110402500D01*
X92522240Y-110401292D01*
X92497891Y-110397680D01*
X92474014Y-110391700D01*
X92450838Y-110383407D01*
X92428587Y-110372883D01*
X92407474Y-110360228D01*
X92387703Y-110345565D01*
X92369465Y-110329035D01*
X92352935Y-110310797D01*
X92338272Y-110291026D01*
X92325617Y-110269913D01*
X92315093Y-110247662D01*
X92306800Y-110224486D01*
X92300820Y-110200609D01*
X92297208Y-110176260D01*
X92296000Y-110151675D01*
X92296000Y-108678325D01*
X92297208Y-108653740D01*
X92300820Y-108629391D01*
X92306800Y-108605514D01*
X92315093Y-108582338D01*
X92325617Y-108560087D01*
X92338272Y-108538974D01*
X92352935Y-108519203D01*
X92369465Y-108500965D01*
X92387703Y-108484435D01*
X92407474Y-108469772D01*
X92428587Y-108457117D01*
X92450838Y-108446593D01*
X92474014Y-108438300D01*
X92497891Y-108432320D01*
X92522240Y-108428708D01*
X92546825Y-108427500D01*
X97445175Y-108427500D01*
X97469760Y-108428708D01*
X97469760Y-108428708D01*
G37*
D21*
G04 #@! TD*
G04 #@! TO.P,C2,1*
G04 #@! TO.N,3.3V*
X94996000Y-109415000D03*
D17*
G04 #@! TO.N,GND*
G04 #@! TO.C,C2*
G36*
X97469760Y-103153708D02*
X97494109Y-103157320D01*
X97517986Y-103163300D01*
X97541162Y-103171593D01*
X97563413Y-103182117D01*
X97584526Y-103194772D01*
X97604297Y-103209435D01*
X97622535Y-103225965D01*
X97639065Y-103244203D01*
X97653728Y-103263974D01*
X97666383Y-103285087D01*
X97676907Y-103307338D01*
X97685200Y-103330514D01*
X97691180Y-103354391D01*
X97694792Y-103378740D01*
X97696000Y-103403325D01*
X97696000Y-104876675D01*
X97694792Y-104901260D01*
X97691180Y-104925609D01*
X97685200Y-104949486D01*
X97676907Y-104972662D01*
X97666383Y-104994913D01*
X97653728Y-105016026D01*
X97639065Y-105035797D01*
X97622535Y-105054035D01*
X97604297Y-105070565D01*
X97584526Y-105085228D01*
X97563413Y-105097883D01*
X97541162Y-105108407D01*
X97517986Y-105116700D01*
X97494109Y-105122680D01*
X97469760Y-105126292D01*
X97445175Y-105127500D01*
X92546825Y-105127500D01*
X92522240Y-105126292D01*
X92497891Y-105122680D01*
X92474014Y-105116700D01*
X92450838Y-105108407D01*
X92428587Y-105097883D01*
X92407474Y-105085228D01*
X92387703Y-105070565D01*
X92369465Y-105054035D01*
X92352935Y-105035797D01*
X92338272Y-105016026D01*
X92325617Y-104994913D01*
X92315093Y-104972662D01*
X92306800Y-104949486D01*
X92300820Y-104925609D01*
X92297208Y-104901260D01*
X92296000Y-104876675D01*
X92296000Y-103403325D01*
X92297208Y-103378740D01*
X92300820Y-103354391D01*
X92306800Y-103330514D01*
X92315093Y-103307338D01*
X92325617Y-103285087D01*
X92338272Y-103263974D01*
X92352935Y-103244203D01*
X92369465Y-103225965D01*
X92387703Y-103209435D01*
X92407474Y-103194772D01*
X92428587Y-103182117D01*
X92450838Y-103171593D01*
X92474014Y-103163300D01*
X92497891Y-103157320D01*
X92522240Y-103153708D01*
X92546825Y-103152500D01*
X97445175Y-103152500D01*
X97469760Y-103153708D01*
X97469760Y-103153708D01*
G37*
D21*
G04 #@! TD*
G04 #@! TO.P,C2,2*
G04 #@! TO.N,GND*
X94996000Y-104140000D03*
D22*
G04 #@! TO.N,5V*
X91948000Y-65024000D03*
G04 #@! TO.N,GND*
X108966000Y-112014000D03*
X116078000Y-102870000D03*
X131064000Y-111252000D03*
X117094000Y-43434000D03*
X129540000Y-34036000D03*
X112014000Y-34798000D03*
X111760000Y-65024000D03*
X97028000Y-99822000D03*
X100330000Y-45720000D03*
G04 #@! TO.N,3.3V*
X120000000Y-113665000D03*
X100330000Y-34290000D03*
X120000000Y-31115000D03*
X94996000Y-112014000D03*
G04 #@! TD*
D23*
G04 #@! TO.N,5V*
X91948000Y-65024000D02*
X96544000Y-65024000D01*
D24*
G04 #@! TO.N,GND*
X129290000Y-111252000D02*
X131064000Y-111252000D01*
X128290000Y-111252000D02*
X129290000Y-111252000D01*
X107192000Y-112014000D02*
X108966000Y-112014000D01*
X106192000Y-112014000D02*
X107192000Y-112014000D01*
X127782000Y-34036000D02*
X129540000Y-34036000D01*
X117094000Y-40914000D02*
X117094000Y-43434000D01*
X110256000Y-34798000D02*
X112014000Y-34798000D01*
X117602000Y-104394000D02*
X116078000Y-102870000D01*
X117602000Y-105898000D02*
X117602000Y-104394000D01*
D23*
X109474000Y-65024000D02*
X111760000Y-65024000D01*
D24*
X94996000Y-101854000D02*
X97028000Y-99822000D01*
X94996000Y-104140000D02*
X94996000Y-101854000D01*
X100330000Y-42692000D02*
X100330000Y-45720000D01*
G04 #@! TO.N,Net-(CN7-Pad1)*
X135720000Y-35560000D02*
X134620000Y-35560000D01*
X138684000Y-32596000D02*
X135720000Y-35560000D01*
X135382000Y-24384000D02*
X138684000Y-27686000D01*
X138684000Y-27686000D02*
X138684000Y-32596000D01*
X125616000Y-24384000D02*
X122500000Y-27500000D01*
X135382000Y-24384000D02*
X125616000Y-24384000D01*
G04 #@! TO.N,Net-(CN7-Pad3)*
X120142000Y-120142000D02*
X117500000Y-117500000D01*
X134620000Y-38100000D02*
X138176000Y-41656000D01*
X138176000Y-110744000D02*
X128778000Y-120142000D01*
X138176000Y-41656000D02*
X138176000Y-110744000D01*
X128778000Y-120142000D02*
X120142000Y-120142000D01*
G04 #@! TO.N,Net-(CN8-Pad1)*
X88900000Y-43350000D02*
X88900000Y-44450000D01*
X83820000Y-42672000D02*
X84328000Y-42164000D01*
X83820000Y-109728000D02*
X83820000Y-42672000D01*
X84328000Y-42164000D02*
X87714000Y-42164000D01*
X102500000Y-117500000D02*
X102500000Y-116368630D01*
X87714000Y-42164000D02*
X88900000Y-43350000D01*
X102500000Y-116368630D02*
X101701370Y-115570000D01*
X101701370Y-115570000D02*
X89662000Y-115570000D01*
X89662000Y-115570000D02*
X83820000Y-109728000D01*
G04 #@! TO.N,Net-(CN8-Pad3)*
X83058000Y-42797590D02*
X83058000Y-114046000D01*
X85723590Y-40132000D02*
X83058000Y-42797590D01*
X91440000Y-40132000D02*
X85723590Y-40132000D01*
X88646000Y-119634000D02*
X97866000Y-119634000D01*
X88900000Y-46990000D02*
X90102081Y-46990000D01*
X83058000Y-114046000D02*
X88646000Y-119634000D01*
X90102081Y-46990000D02*
X92456000Y-44636081D01*
X92456000Y-44636081D02*
X92456000Y-41148000D01*
X97866000Y-119634000D02*
X100000000Y-117500000D01*
X92456000Y-41148000D02*
X91440000Y-40132000D01*
G04 #@! TO.N,Net-(CN8-Pad5)*
X94200001Y-28299999D02*
X95000000Y-27500000D01*
X93889999Y-28610001D02*
X94200001Y-28299999D01*
X93889999Y-44540001D02*
X93889999Y-28610001D01*
X88900000Y-49530000D02*
X93889999Y-44540001D01*
G04 #@! TO.N,3.3V*
X100330000Y-37592000D02*
X100330000Y-36592000D01*
X120777000Y-113665000D02*
X120000000Y-113665000D01*
X117602000Y-110998000D02*
X120000000Y-113396000D01*
X120000000Y-113396000D02*
X120000000Y-113665000D01*
X123190000Y-111252000D02*
X120777000Y-113665000D01*
X100330000Y-36592000D02*
X100330000Y-34290000D01*
X120000000Y-31354000D02*
X120000000Y-31115000D01*
X117094000Y-35814000D02*
X117094000Y-34021000D01*
X117094000Y-34021000D02*
X120000000Y-31115000D01*
X122682000Y-34036000D02*
X120000000Y-31354000D01*
X101092000Y-35052000D02*
X100330000Y-34290000D01*
X105410000Y-35052000D02*
X101092000Y-35052000D01*
X94996000Y-109415000D02*
X94996000Y-112014000D01*
X94996000Y-112014000D02*
X101092000Y-112014000D01*
G04 #@! TO.N,Net-(CN8-Pad7)*
X96700001Y-28299999D02*
X97500000Y-27500000D01*
X88900000Y-52070000D02*
X94340009Y-46629991D01*
X97500000Y-27500000D02*
X96520000Y-28480000D01*
X96520000Y-28480000D02*
X96520000Y-44450000D01*
X96520000Y-44450000D02*
X94340009Y-46629991D01*
D23*
G04 #@! TO.N,Net-(D1-Pad1)*
X99544000Y-65024000D02*
X106499000Y-65024000D01*
G04 #@! TD*
M02*
