G04 #@! TF.GenerationSoftware,KiCad,Pcbnew,5.0.2-bee76a0~70~ubuntu16.04.1*
G04 #@! TF.CreationDate,2019-02-15T17:44:48-05:00*
G04 #@! TF.ProjectId,HuskyA100_Nucleo_Shield,4875736b-7941-4313-9030-5f4e75636c65,rev?*
G04 #@! TF.SameCoordinates,Original*
G04 #@! TF.FileFunction,Paste,Top*
G04 #@! TF.FilePolarity,Positive*
%FSLAX46Y46*%
G04 Gerber Fmt 4.6, Leading zero omitted, Abs format (unit mm)*
G04 Created by KiCad (PCBNEW 5.0.2-bee76a0~70~ubuntu16.04.1) date Fri 15 Feb 2019 05:44:48 PM EST*
%MOMM*%
%LPD*%
G01*
G04 APERTURE LIST*
%ADD10C,0.100000*%
%ADD11C,0.150000*%
%ADD12C,0.300000*%
%ADD13C,0.400000*%
%ADD14C,1.800000*%
%ADD15R,1.500000X2.600000*%
%ADD16C,1.425000*%
%ADD17C,1.975000*%
G04 APERTURE END LIST*
D10*
D11*
X159400000Y-171900000D02*
X159400000Y-203900000D01*
X267400000Y-203900000D01*
X267400000Y-171900000D01*
X159400000Y-171900000D01*
D10*
D11*
X10000000Y-10000000D02*
X10000000Y-205900000D01*
X269400000Y-205900000D01*
X269400000Y-10000000D01*
X10000000Y-10000000D01*
D10*
D11*
X12000000Y-12000000D02*
X12000000Y-203900000D01*
X267400000Y-203900000D01*
X267400000Y-12000000D01*
X12000000Y-12000000D01*
D10*
D11*
X60000000Y-12000000D02*
X60000000Y-10000000D01*
D10*
D11*
X110000000Y-12000000D02*
X110000000Y-10000000D01*
D10*
D11*
X160000000Y-12000000D02*
X160000000Y-10000000D01*
D10*
D11*
X210000000Y-12000000D02*
X210000000Y-10000000D01*
D10*
D11*
X260000000Y-12000000D02*
X260000000Y-10000000D01*
D10*
D11*
X36065476Y-11588095D02*
X35322619Y-11588095D01*
X35694047Y-11588095D02*
X35694047Y-10288095D01*
X35570238Y-10473809D01*
X35446428Y-10597619D01*
X35322619Y-10659523D01*
D10*
D11*
X85322619Y-10411904D02*
X85384523Y-10350000D01*
X85508333Y-10288095D01*
X85817857Y-10288095D01*
X85941666Y-10350000D01*
X86003571Y-10411904D01*
X86065476Y-10535714D01*
X86065476Y-10659523D01*
X86003571Y-10845238D01*
X85260714Y-11588095D01*
X86065476Y-11588095D01*
D10*
D11*
X135260714Y-10288095D02*
X136065476Y-10288095D01*
X135632142Y-10783333D01*
X135817857Y-10783333D01*
X135941666Y-10845238D01*
X136003571Y-10907142D01*
X136065476Y-11030952D01*
X136065476Y-11340476D01*
X136003571Y-11464285D01*
X135941666Y-11526190D01*
X135817857Y-11588095D01*
X135446428Y-11588095D01*
X135322619Y-11526190D01*
X135260714Y-11464285D01*
D10*
D11*
X185941666Y-10721428D02*
X185941666Y-11588095D01*
X185632142Y-10226190D02*
X185322619Y-11154761D01*
X186127380Y-11154761D01*
D10*
D11*
X236003571Y-10288095D02*
X235384523Y-10288095D01*
X235322619Y-10907142D01*
X235384523Y-10845238D01*
X235508333Y-10783333D01*
X235817857Y-10783333D01*
X235941666Y-10845238D01*
X236003571Y-10907142D01*
X236065476Y-11030952D01*
X236065476Y-11340476D01*
X236003571Y-11464285D01*
X235941666Y-11526190D01*
X235817857Y-11588095D01*
X235508333Y-11588095D01*
X235384523Y-11526190D01*
X235322619Y-11464285D01*
D10*
D11*
X60000000Y-203900000D02*
X60000000Y-205900000D01*
D10*
D11*
X110000000Y-203900000D02*
X110000000Y-205900000D01*
D10*
D11*
X160000000Y-203900000D02*
X160000000Y-205900000D01*
D10*
D11*
X210000000Y-203900000D02*
X210000000Y-205900000D01*
D10*
D11*
X260000000Y-203900000D02*
X260000000Y-205900000D01*
D10*
D11*
X36065476Y-205488095D02*
X35322619Y-205488095D01*
X35694047Y-205488095D02*
X35694047Y-204188095D01*
X35570238Y-204373809D01*
X35446428Y-204497619D01*
X35322619Y-204559523D01*
D10*
D11*
X85322619Y-204311904D02*
X85384523Y-204250000D01*
X85508333Y-204188095D01*
X85817857Y-204188095D01*
X85941666Y-204250000D01*
X86003571Y-204311904D01*
X86065476Y-204435714D01*
X86065476Y-204559523D01*
X86003571Y-204745238D01*
X85260714Y-205488095D01*
X86065476Y-205488095D01*
D10*
D11*
X135260714Y-204188095D02*
X136065476Y-204188095D01*
X135632142Y-204683333D01*
X135817857Y-204683333D01*
X135941666Y-204745238D01*
X136003571Y-204807142D01*
X136065476Y-204930952D01*
X136065476Y-205240476D01*
X136003571Y-205364285D01*
X135941666Y-205426190D01*
X135817857Y-205488095D01*
X135446428Y-205488095D01*
X135322619Y-205426190D01*
X135260714Y-205364285D01*
D10*
D11*
X185941666Y-204621428D02*
X185941666Y-205488095D01*
X185632142Y-204126190D02*
X185322619Y-205054761D01*
X186127380Y-205054761D01*
D10*
D11*
X236003571Y-204188095D02*
X235384523Y-204188095D01*
X235322619Y-204807142D01*
X235384523Y-204745238D01*
X235508333Y-204683333D01*
X235817857Y-204683333D01*
X235941666Y-204745238D01*
X236003571Y-204807142D01*
X236065476Y-204930952D01*
X236065476Y-205240476D01*
X236003571Y-205364285D01*
X235941666Y-205426190D01*
X235817857Y-205488095D01*
X235508333Y-205488095D01*
X235384523Y-205426190D01*
X235322619Y-205364285D01*
D10*
D11*
X10000000Y-60000000D02*
X12000000Y-60000000D01*
D10*
D11*
X10000000Y-110000000D02*
X12000000Y-110000000D01*
D10*
D11*
X10000000Y-160000000D02*
X12000000Y-160000000D01*
D10*
D11*
X10690476Y-35216666D02*
X11309523Y-35216666D01*
X10566666Y-35588095D02*
X11000000Y-34288095D01*
X11433333Y-35588095D01*
D10*
D11*
X11092857Y-84907142D02*
X11278571Y-84969047D01*
X11340476Y-85030952D01*
X11402380Y-85154761D01*
X11402380Y-85340476D01*
X11340476Y-85464285D01*
X11278571Y-85526190D01*
X11154761Y-85588095D01*
X10659523Y-85588095D01*
X10659523Y-84288095D01*
X11092857Y-84288095D01*
X11216666Y-84350000D01*
X11278571Y-84411904D01*
X11340476Y-84535714D01*
X11340476Y-84659523D01*
X11278571Y-84783333D01*
X11216666Y-84845238D01*
X11092857Y-84907142D01*
X10659523Y-84907142D01*
D10*
D11*
X11402380Y-135464285D02*
X11340476Y-135526190D01*
X11154761Y-135588095D01*
X11030952Y-135588095D01*
X10845238Y-135526190D01*
X10721428Y-135402380D01*
X10659523Y-135278571D01*
X10597619Y-135030952D01*
X10597619Y-134845238D01*
X10659523Y-134597619D01*
X10721428Y-134473809D01*
X10845238Y-134350000D01*
X11030952Y-134288095D01*
X11154761Y-134288095D01*
X11340476Y-134350000D01*
X11402380Y-134411904D01*
D10*
D11*
X10659523Y-185588095D02*
X10659523Y-184288095D01*
X10969047Y-184288095D01*
X11154761Y-184350000D01*
X11278571Y-184473809D01*
X11340476Y-184597619D01*
X11402380Y-184845238D01*
X11402380Y-185030952D01*
X11340476Y-185278571D01*
X11278571Y-185402380D01*
X11154761Y-185526190D01*
X10969047Y-185588095D01*
X10659523Y-185588095D01*
D10*
D11*
X269400000Y-60000000D02*
X267400000Y-60000000D01*
D10*
D11*
X269400000Y-110000000D02*
X267400000Y-110000000D01*
D10*
D11*
X269400000Y-160000000D02*
X267400000Y-160000000D01*
D10*
D11*
X268090476Y-35216666D02*
X268709523Y-35216666D01*
X267966666Y-35588095D02*
X268400000Y-34288095D01*
X268833333Y-35588095D01*
D10*
D11*
X268492857Y-84907142D02*
X268678571Y-84969047D01*
X268740476Y-85030952D01*
X268802380Y-85154761D01*
X268802380Y-85340476D01*
X268740476Y-85464285D01*
X268678571Y-85526190D01*
X268554761Y-85588095D01*
X268059523Y-85588095D01*
X268059523Y-84288095D01*
X268492857Y-84288095D01*
X268616666Y-84350000D01*
X268678571Y-84411904D01*
X268740476Y-84535714D01*
X268740476Y-84659523D01*
X268678571Y-84783333D01*
X268616666Y-84845238D01*
X268492857Y-84907142D01*
X268059523Y-84907142D01*
D10*
D11*
X268802380Y-135464285D02*
X268740476Y-135526190D01*
X268554761Y-135588095D01*
X268430952Y-135588095D01*
X268245238Y-135526190D01*
X268121428Y-135402380D01*
X268059523Y-135278571D01*
X267997619Y-135030952D01*
X267997619Y-134845238D01*
X268059523Y-134597619D01*
X268121428Y-134473809D01*
X268245238Y-134350000D01*
X268430952Y-134288095D01*
X268554761Y-134288095D01*
X268740476Y-134350000D01*
X268802380Y-134411904D01*
D10*
D11*
X268059523Y-185588095D02*
X268059523Y-184288095D01*
X268369047Y-184288095D01*
X268554761Y-184350000D01*
X268678571Y-184473809D01*
X268740476Y-184597619D01*
X268802380Y-184845238D01*
X268802380Y-185030952D01*
X268740476Y-185278571D01*
X268678571Y-185402380D01*
X268554761Y-185526190D01*
X268369047Y-185588095D01*
X268059523Y-185588095D01*
D10*
D11*
X182832142Y-199678571D02*
X182832142Y-198178571D01*
X183189285Y-198178571D01*
X183403571Y-198250000D01*
X183546428Y-198392857D01*
X183617857Y-198535714D01*
X183689285Y-198821428D01*
X183689285Y-199035714D01*
X183617857Y-199321428D01*
X183546428Y-199464285D01*
X183403571Y-199607142D01*
X183189285Y-199678571D01*
X182832142Y-199678571D01*
X184975000Y-199678571D02*
X184975000Y-198892857D01*
X184903571Y-198750000D01*
X184760714Y-198678571D01*
X184475000Y-198678571D01*
X184332142Y-198750000D01*
X184975000Y-199607142D02*
X184832142Y-199678571D01*
X184475000Y-199678571D01*
X184332142Y-199607142D01*
X184260714Y-199464285D01*
X184260714Y-199321428D01*
X184332142Y-199178571D01*
X184475000Y-199107142D01*
X184832142Y-199107142D01*
X184975000Y-199035714D01*
X185475000Y-198678571D02*
X186046428Y-198678571D01*
X185689285Y-198178571D02*
X185689285Y-199464285D01*
X185760714Y-199607142D01*
X185903571Y-199678571D01*
X186046428Y-199678571D01*
X187117857Y-199607142D02*
X186975000Y-199678571D01*
X186689285Y-199678571D01*
X186546428Y-199607142D01*
X186475000Y-199464285D01*
X186475000Y-198892857D01*
X186546428Y-198750000D01*
X186689285Y-198678571D01*
X186975000Y-198678571D01*
X187117857Y-198750000D01*
X187189285Y-198892857D01*
X187189285Y-199035714D01*
X186475000Y-199178571D01*
X187832142Y-199535714D02*
X187903571Y-199607142D01*
X187832142Y-199678571D01*
X187760714Y-199607142D01*
X187832142Y-199535714D01*
X187832142Y-199678571D01*
X187832142Y-198750000D02*
X187903571Y-198821428D01*
X187832142Y-198892857D01*
X187760714Y-198821428D01*
X187832142Y-198750000D01*
X187832142Y-198892857D01*
D10*
D11*
X159400000Y-200400000D02*
X267400000Y-200400000D01*
D10*
D11*
X160832142Y-202478571D02*
X160832142Y-200978571D01*
X161689285Y-202478571D02*
X161046428Y-201621428D01*
X161689285Y-200978571D02*
X160832142Y-201835714D01*
X162332142Y-202478571D02*
X162332142Y-201478571D01*
X162332142Y-200978571D02*
X162260714Y-201050000D01*
X162332142Y-201121428D01*
X162403571Y-201050000D01*
X162332142Y-200978571D01*
X162332142Y-201121428D01*
X163903571Y-202335714D02*
X163832142Y-202407142D01*
X163617857Y-202478571D01*
X163475000Y-202478571D01*
X163260714Y-202407142D01*
X163117857Y-202264285D01*
X163046428Y-202121428D01*
X162975000Y-201835714D01*
X162975000Y-201621428D01*
X163046428Y-201335714D01*
X163117857Y-201192857D01*
X163260714Y-201050000D01*
X163475000Y-200978571D01*
X163617857Y-200978571D01*
X163832142Y-201050000D01*
X163903571Y-201121428D01*
X165189285Y-202478571D02*
X165189285Y-201692857D01*
X165117857Y-201550000D01*
X164975000Y-201478571D01*
X164689285Y-201478571D01*
X164546428Y-201550000D01*
X165189285Y-202407142D02*
X165046428Y-202478571D01*
X164689285Y-202478571D01*
X164546428Y-202407142D01*
X164475000Y-202264285D01*
X164475000Y-202121428D01*
X164546428Y-201978571D01*
X164689285Y-201907142D01*
X165046428Y-201907142D01*
X165189285Y-201835714D01*
X166546428Y-202478571D02*
X166546428Y-200978571D01*
X166546428Y-202407142D02*
X166403571Y-202478571D01*
X166117857Y-202478571D01*
X165975000Y-202407142D01*
X165903571Y-202335714D01*
X165832142Y-202192857D01*
X165832142Y-201764285D01*
X165903571Y-201621428D01*
X165975000Y-201550000D01*
X166117857Y-201478571D01*
X166403571Y-201478571D01*
X166546428Y-201550000D01*
X168403571Y-201692857D02*
X168903571Y-201692857D01*
X169117857Y-202478571D02*
X168403571Y-202478571D01*
X168403571Y-200978571D01*
X169117857Y-200978571D01*
X169760714Y-202335714D02*
X169832142Y-202407142D01*
X169760714Y-202478571D01*
X169689285Y-202407142D01*
X169760714Y-202335714D01*
X169760714Y-202478571D01*
X170475000Y-202478571D02*
X170475000Y-200978571D01*
X170832142Y-200978571D01*
X171046428Y-201050000D01*
X171189285Y-201192857D01*
X171260714Y-201335714D01*
X171332142Y-201621428D01*
X171332142Y-201835714D01*
X171260714Y-202121428D01*
X171189285Y-202264285D01*
X171046428Y-202407142D01*
X170832142Y-202478571D01*
X170475000Y-202478571D01*
X171975000Y-202335714D02*
X172046428Y-202407142D01*
X171975000Y-202478571D01*
X171903571Y-202407142D01*
X171975000Y-202335714D01*
X171975000Y-202478571D01*
X172617857Y-202050000D02*
X173332142Y-202050000D01*
X172475000Y-202478571D02*
X172975000Y-200978571D01*
X173475000Y-202478571D01*
X173975000Y-202335714D02*
X174046428Y-202407142D01*
X173975000Y-202478571D01*
X173903571Y-202407142D01*
X173975000Y-202335714D01*
X173975000Y-202478571D01*
X176975000Y-202478571D02*
X176975000Y-200978571D01*
X177117857Y-201907142D02*
X177546428Y-202478571D01*
X177546428Y-201478571D02*
X176975000Y-202050000D01*
X178189285Y-202478571D02*
X178189285Y-201478571D01*
X178189285Y-200978571D02*
X178117857Y-201050000D01*
X178189285Y-201121428D01*
X178260714Y-201050000D01*
X178189285Y-200978571D01*
X178189285Y-201121428D01*
X179546428Y-202407142D02*
X179403571Y-202478571D01*
X179117857Y-202478571D01*
X178975000Y-202407142D01*
X178903571Y-202335714D01*
X178832142Y-202192857D01*
X178832142Y-201764285D01*
X178903571Y-201621428D01*
X178975000Y-201550000D01*
X179117857Y-201478571D01*
X179403571Y-201478571D01*
X179546428Y-201550000D01*
X180832142Y-202478571D02*
X180832142Y-201692857D01*
X180760714Y-201550000D01*
X180617857Y-201478571D01*
X180332142Y-201478571D01*
X180189285Y-201550000D01*
X180832142Y-202407142D02*
X180689285Y-202478571D01*
X180332142Y-202478571D01*
X180189285Y-202407142D01*
X180117857Y-202264285D01*
X180117857Y-202121428D01*
X180189285Y-201978571D01*
X180332142Y-201907142D01*
X180689285Y-201907142D01*
X180832142Y-201835714D01*
X182189285Y-202478571D02*
X182189285Y-200978571D01*
X182189285Y-202407142D02*
X182046428Y-202478571D01*
X181760714Y-202478571D01*
X181617857Y-202407142D01*
X181546428Y-202335714D01*
X181475000Y-202192857D01*
X181475000Y-201764285D01*
X181546428Y-201621428D01*
X181617857Y-201550000D01*
X181760714Y-201478571D01*
X182046428Y-201478571D01*
X182189285Y-201550000D01*
X184760714Y-200978571D02*
X184046428Y-200978571D01*
X183975000Y-201692857D01*
X184046428Y-201621428D01*
X184189285Y-201550000D01*
X184546428Y-201550000D01*
X184689285Y-201621428D01*
X184760714Y-201692857D01*
X184832142Y-201835714D01*
X184832142Y-202192857D01*
X184760714Y-202335714D01*
X184689285Y-202407142D01*
X184546428Y-202478571D01*
X184189285Y-202478571D01*
X184046428Y-202407142D01*
X183975000Y-202335714D01*
X185475000Y-202335714D02*
X185546428Y-202407142D01*
X185475000Y-202478571D01*
X185403571Y-202407142D01*
X185475000Y-202335714D01*
X185475000Y-202478571D01*
X186475000Y-200978571D02*
X186617857Y-200978571D01*
X186760714Y-201050000D01*
X186832142Y-201121428D01*
X186903571Y-201264285D01*
X186975000Y-201550000D01*
X186975000Y-201907142D01*
X186903571Y-202192857D01*
X186832142Y-202335714D01*
X186760714Y-202407142D01*
X186617857Y-202478571D01*
X186475000Y-202478571D01*
X186332142Y-202407142D01*
X186260714Y-202335714D01*
X186189285Y-202192857D01*
X186117857Y-201907142D01*
X186117857Y-201550000D01*
X186189285Y-201264285D01*
X186260714Y-201121428D01*
X186332142Y-201050000D01*
X186475000Y-200978571D01*
X187617857Y-202335714D02*
X187689285Y-202407142D01*
X187617857Y-202478571D01*
X187546428Y-202407142D01*
X187617857Y-202335714D01*
X187617857Y-202478571D01*
X188260714Y-201121428D02*
X188332142Y-201050000D01*
X188475000Y-200978571D01*
X188832142Y-200978571D01*
X188975000Y-201050000D01*
X189046428Y-201121428D01*
X189117857Y-201264285D01*
X189117857Y-201407142D01*
X189046428Y-201621428D01*
X188189285Y-202478571D01*
X189117857Y-202478571D01*
X189760714Y-201907142D02*
X190903571Y-201907142D01*
X191617857Y-202478571D02*
X191617857Y-200978571D01*
X191617857Y-201550000D02*
X191760714Y-201478571D01*
X192046428Y-201478571D01*
X192189285Y-201550000D01*
X192260714Y-201621428D01*
X192332142Y-201764285D01*
X192332142Y-202192857D01*
X192260714Y-202335714D01*
X192189285Y-202407142D01*
X192046428Y-202478571D01*
X191760714Y-202478571D01*
X191617857Y-202407142D01*
X193546428Y-202407142D02*
X193403571Y-202478571D01*
X193117857Y-202478571D01*
X192975000Y-202407142D01*
X192903571Y-202264285D01*
X192903571Y-201692857D01*
X192975000Y-201550000D01*
X193117857Y-201478571D01*
X193403571Y-201478571D01*
X193546428Y-201550000D01*
X193617857Y-201692857D01*
X193617857Y-201835714D01*
X192903571Y-201978571D01*
X194832142Y-202407142D02*
X194689285Y-202478571D01*
X194403571Y-202478571D01*
X194260714Y-202407142D01*
X194189285Y-202264285D01*
X194189285Y-201692857D01*
X194260714Y-201550000D01*
X194403571Y-201478571D01*
X194689285Y-201478571D01*
X194832142Y-201550000D01*
X194903571Y-201692857D01*
X194903571Y-201835714D01*
X194189285Y-201978571D01*
X195403571Y-200978571D02*
X196403571Y-200978571D01*
X195760714Y-202478571D01*
X197617857Y-200978571D02*
X197332142Y-200978571D01*
X197189285Y-201050000D01*
X197117857Y-201121428D01*
X196975000Y-201335714D01*
X196903571Y-201621428D01*
X196903571Y-202192857D01*
X196975000Y-202335714D01*
X197046428Y-202407142D01*
X197189285Y-202478571D01*
X197475000Y-202478571D01*
X197617857Y-202407142D01*
X197689285Y-202335714D01*
X197760714Y-202192857D01*
X197760714Y-201835714D01*
X197689285Y-201692857D01*
X197617857Y-201621428D01*
X197475000Y-201550000D01*
X197189285Y-201550000D01*
X197046428Y-201621428D01*
X196975000Y-201692857D01*
X196903571Y-201835714D01*
X199046428Y-202478571D02*
X199046428Y-201692857D01*
X198975000Y-201550000D01*
X198832142Y-201478571D01*
X198546428Y-201478571D01*
X198403571Y-201550000D01*
X199046428Y-202407142D02*
X198903571Y-202478571D01*
X198546428Y-202478571D01*
X198403571Y-202407142D01*
X198332142Y-202264285D01*
X198332142Y-202121428D01*
X198403571Y-201978571D01*
X198546428Y-201907142D01*
X198903571Y-201907142D01*
X199046428Y-201835714D01*
X200046428Y-200978571D02*
X200189285Y-200978571D01*
X200332142Y-201050000D01*
X200403571Y-201121428D01*
X200475000Y-201264285D01*
X200546428Y-201550000D01*
X200546428Y-201907142D01*
X200475000Y-202192857D01*
X200403571Y-202335714D01*
X200332142Y-202407142D01*
X200189285Y-202478571D01*
X200046428Y-202478571D01*
X199903571Y-202407142D01*
X199832142Y-202335714D01*
X199760714Y-202192857D01*
X199689285Y-201907142D01*
X199689285Y-201550000D01*
X199760714Y-201264285D01*
X199832142Y-201121428D01*
X199903571Y-201050000D01*
X200046428Y-200978571D01*
X200832142Y-200570000D02*
X202260714Y-200570000D01*
X201046428Y-200978571D02*
X202046428Y-200978571D01*
X201403571Y-202478571D01*
X202260714Y-200570000D02*
X203689285Y-200570000D01*
X202903571Y-200978571D02*
X203046428Y-200978571D01*
X203189285Y-201050000D01*
X203260714Y-201121428D01*
X203332142Y-201264285D01*
X203403571Y-201550000D01*
X203403571Y-201907142D01*
X203332142Y-202192857D01*
X203260714Y-202335714D01*
X203189285Y-202407142D01*
X203046428Y-202478571D01*
X202903571Y-202478571D01*
X202760714Y-202407142D01*
X202689285Y-202335714D01*
X202617857Y-202192857D01*
X202546428Y-201907142D01*
X202546428Y-201550000D01*
X202617857Y-201264285D01*
X202689285Y-201121428D01*
X202760714Y-201050000D01*
X202903571Y-200978571D01*
X204689285Y-201478571D02*
X204689285Y-202478571D01*
X204046428Y-201478571D02*
X204046428Y-202264285D01*
X204117857Y-202407142D01*
X204260714Y-202478571D01*
X204475000Y-202478571D01*
X204617857Y-202407142D01*
X204689285Y-202335714D01*
X205403571Y-202478571D02*
X205403571Y-200978571D01*
X205403571Y-201550000D02*
X205546428Y-201478571D01*
X205832142Y-201478571D01*
X205975000Y-201550000D01*
X206046428Y-201621428D01*
X206117857Y-201764285D01*
X206117857Y-202192857D01*
X206046428Y-202335714D01*
X205975000Y-202407142D01*
X205832142Y-202478571D01*
X205546428Y-202478571D01*
X205403571Y-202407142D01*
X207403571Y-201478571D02*
X207403571Y-202478571D01*
X206760714Y-201478571D02*
X206760714Y-202264285D01*
X206832142Y-202407142D01*
X206975000Y-202478571D01*
X207189285Y-202478571D01*
X207332142Y-202407142D01*
X207403571Y-202335714D01*
X208117857Y-201478571D02*
X208117857Y-202478571D01*
X208117857Y-201621428D02*
X208189285Y-201550000D01*
X208332142Y-201478571D01*
X208546428Y-201478571D01*
X208689285Y-201550000D01*
X208760714Y-201692857D01*
X208760714Y-202478571D01*
X209260714Y-201478571D02*
X209832142Y-201478571D01*
X209475000Y-200978571D02*
X209475000Y-202264285D01*
X209546428Y-202407142D01*
X209689285Y-202478571D01*
X209832142Y-202478571D01*
X210975000Y-201478571D02*
X210975000Y-202478571D01*
X210332142Y-201478571D02*
X210332142Y-202264285D01*
X210403571Y-202407142D01*
X210546428Y-202478571D01*
X210760714Y-202478571D01*
X210903571Y-202407142D01*
X210975000Y-202335714D01*
X212475000Y-202478571D02*
X211617857Y-202478571D01*
X212046428Y-202478571D02*
X212046428Y-200978571D01*
X211903571Y-201192857D01*
X211760714Y-201335714D01*
X211617857Y-201407142D01*
X213760714Y-200978571D02*
X213475000Y-200978571D01*
X213332142Y-201050000D01*
X213260714Y-201121428D01*
X213117857Y-201335714D01*
X213046428Y-201621428D01*
X213046428Y-202192857D01*
X213117857Y-202335714D01*
X213189285Y-202407142D01*
X213332142Y-202478571D01*
X213617857Y-202478571D01*
X213760714Y-202407142D01*
X213832142Y-202335714D01*
X213903571Y-202192857D01*
X213903571Y-201835714D01*
X213832142Y-201692857D01*
X213760714Y-201621428D01*
X213617857Y-201550000D01*
X213332142Y-201550000D01*
X213189285Y-201621428D01*
X213117857Y-201692857D01*
X213046428Y-201835714D01*
X214546428Y-202335714D02*
X214617857Y-202407142D01*
X214546428Y-202478571D01*
X214475000Y-202407142D01*
X214546428Y-202335714D01*
X214546428Y-202478571D01*
X215546428Y-200978571D02*
X215689285Y-200978571D01*
X215832142Y-201050000D01*
X215903571Y-201121428D01*
X215975000Y-201264285D01*
X216046428Y-201550000D01*
X216046428Y-201907142D01*
X215975000Y-202192857D01*
X215903571Y-202335714D01*
X215832142Y-202407142D01*
X215689285Y-202478571D01*
X215546428Y-202478571D01*
X215403571Y-202407142D01*
X215332142Y-202335714D01*
X215260714Y-202192857D01*
X215189285Y-201907142D01*
X215189285Y-201550000D01*
X215260714Y-201264285D01*
X215332142Y-201121428D01*
X215403571Y-201050000D01*
X215546428Y-200978571D01*
X217332142Y-201478571D02*
X217332142Y-202478571D01*
X216975000Y-200907142D02*
X216617857Y-201978571D01*
X217546428Y-201978571D01*
X218117857Y-202335714D02*
X218189285Y-202407142D01*
X218117857Y-202478571D01*
X218046428Y-202407142D01*
X218117857Y-202335714D01*
X218117857Y-202478571D01*
X219617857Y-202478571D02*
X218760714Y-202478571D01*
X219189285Y-202478571D02*
X219189285Y-200978571D01*
X219046428Y-201192857D01*
X218903571Y-201335714D01*
X218760714Y-201407142D01*
D10*
D11*
X159400000Y-197400000D02*
X267400000Y-197400000D01*
D10*
D12*
X246809285Y-199678571D02*
X246309285Y-198964285D01*
X245952142Y-199678571D02*
X245952142Y-198178571D01*
X246523571Y-198178571D01*
X246666428Y-198250000D01*
X246737857Y-198321428D01*
X246809285Y-198464285D01*
X246809285Y-198678571D01*
X246737857Y-198821428D01*
X246666428Y-198892857D01*
X246523571Y-198964285D01*
X245952142Y-198964285D01*
X248023571Y-199607142D02*
X247880714Y-199678571D01*
X247595000Y-199678571D01*
X247452142Y-199607142D01*
X247380714Y-199464285D01*
X247380714Y-198892857D01*
X247452142Y-198750000D01*
X247595000Y-198678571D01*
X247880714Y-198678571D01*
X248023571Y-198750000D01*
X248095000Y-198892857D01*
X248095000Y-199035714D01*
X247380714Y-199178571D01*
X248595000Y-198678571D02*
X248952142Y-199678571D01*
X249309285Y-198678571D01*
X249880714Y-199535714D02*
X249952142Y-199607142D01*
X249880714Y-199678571D01*
X249809285Y-199607142D01*
X249880714Y-199535714D01*
X249880714Y-199678571D01*
X249880714Y-198750000D02*
X249952142Y-198821428D01*
X249880714Y-198892857D01*
X249809285Y-198821428D01*
X249880714Y-198750000D01*
X249880714Y-198892857D01*
D10*
D11*
X160760714Y-199607142D02*
X160975000Y-199678571D01*
X161332142Y-199678571D01*
X161475000Y-199607142D01*
X161546428Y-199535714D01*
X161617857Y-199392857D01*
X161617857Y-199250000D01*
X161546428Y-199107142D01*
X161475000Y-199035714D01*
X161332142Y-198964285D01*
X161046428Y-198892857D01*
X160903571Y-198821428D01*
X160832142Y-198750000D01*
X160760714Y-198607142D01*
X160760714Y-198464285D01*
X160832142Y-198321428D01*
X160903571Y-198250000D01*
X161046428Y-198178571D01*
X161403571Y-198178571D01*
X161617857Y-198250000D01*
X162260714Y-199678571D02*
X162260714Y-198678571D01*
X162260714Y-198178571D02*
X162189285Y-198250000D01*
X162260714Y-198321428D01*
X162332142Y-198250000D01*
X162260714Y-198178571D01*
X162260714Y-198321428D01*
X162832142Y-198678571D02*
X163617857Y-198678571D01*
X162832142Y-199678571D01*
X163617857Y-199678571D01*
X164760714Y-199607142D02*
X164617857Y-199678571D01*
X164332142Y-199678571D01*
X164189285Y-199607142D01*
X164117857Y-199464285D01*
X164117857Y-198892857D01*
X164189285Y-198750000D01*
X164332142Y-198678571D01*
X164617857Y-198678571D01*
X164760714Y-198750000D01*
X164832142Y-198892857D01*
X164832142Y-199035714D01*
X164117857Y-199178571D01*
X165475000Y-199535714D02*
X165546428Y-199607142D01*
X165475000Y-199678571D01*
X165403571Y-199607142D01*
X165475000Y-199535714D01*
X165475000Y-199678571D01*
X165475000Y-198750000D02*
X165546428Y-198821428D01*
X165475000Y-198892857D01*
X165403571Y-198821428D01*
X165475000Y-198750000D01*
X165475000Y-198892857D01*
X167260714Y-199250000D02*
X167975000Y-199250000D01*
X167117857Y-199678571D02*
X167617857Y-198178571D01*
X168117857Y-199678571D01*
D10*
D11*
X245832142Y-202478571D02*
X245832142Y-200978571D01*
X247189285Y-202478571D02*
X247189285Y-200978571D01*
X247189285Y-202407142D02*
X247046428Y-202478571D01*
X246760714Y-202478571D01*
X246617857Y-202407142D01*
X246546428Y-202335714D01*
X246475000Y-202192857D01*
X246475000Y-201764285D01*
X246546428Y-201621428D01*
X246617857Y-201550000D01*
X246760714Y-201478571D01*
X247046428Y-201478571D01*
X247189285Y-201550000D01*
X247903571Y-202335714D02*
X247975000Y-202407142D01*
X247903571Y-202478571D01*
X247832142Y-202407142D01*
X247903571Y-202335714D01*
X247903571Y-202478571D01*
X247903571Y-201550000D02*
X247975000Y-201621428D01*
X247903571Y-201692857D01*
X247832142Y-201621428D01*
X247903571Y-201550000D01*
X247903571Y-201692857D01*
X250546428Y-202478571D02*
X249689285Y-202478571D01*
X250117857Y-202478571D02*
X250117857Y-200978571D01*
X249975000Y-201192857D01*
X249832142Y-201335714D01*
X249689285Y-201407142D01*
X252260714Y-200907142D02*
X250975000Y-202835714D01*
X253546428Y-202478571D02*
X252689285Y-202478571D01*
X253117857Y-202478571D02*
X253117857Y-200978571D01*
X252975000Y-201192857D01*
X252832142Y-201335714D01*
X252689285Y-201407142D01*
D10*
D11*
X159400000Y-193400000D02*
X267400000Y-193400000D01*
D10*
D13*
X161112380Y-194104761D02*
X162255238Y-194104761D01*
X161433809Y-196104761D02*
X161683809Y-194104761D01*
X162671904Y-196104761D02*
X162838571Y-194771428D01*
X162921904Y-194104761D02*
X162814761Y-194200000D01*
X162898095Y-194295238D01*
X163005238Y-194200000D01*
X162921904Y-194104761D01*
X162898095Y-194295238D01*
X163505238Y-194771428D02*
X164267142Y-194771428D01*
X163874285Y-194104761D02*
X163660000Y-195819047D01*
X163731428Y-196009523D01*
X163910000Y-196104761D01*
X164100476Y-196104761D01*
X165052857Y-196104761D02*
X164874285Y-196009523D01*
X164802857Y-195819047D01*
X165017142Y-194104761D01*
X166588571Y-196009523D02*
X166386190Y-196104761D01*
X166005238Y-196104761D01*
X165826666Y-196009523D01*
X165755238Y-195819047D01*
X165850476Y-195057142D01*
X165969523Y-194866666D01*
X166171904Y-194771428D01*
X166552857Y-194771428D01*
X166731428Y-194866666D01*
X166802857Y-195057142D01*
X166779047Y-195247619D01*
X165802857Y-195438095D01*
X167552857Y-195914285D02*
X167636190Y-196009523D01*
X167529047Y-196104761D01*
X167445714Y-196009523D01*
X167552857Y-195914285D01*
X167529047Y-196104761D01*
X167683809Y-194866666D02*
X167767142Y-194961904D01*
X167660000Y-195057142D01*
X167576666Y-194961904D01*
X167683809Y-194866666D01*
X167660000Y-195057142D01*
D10*
D11*
X161332142Y-191492857D02*
X160832142Y-191492857D01*
X160832142Y-192278571D02*
X160832142Y-190778571D01*
X161546428Y-190778571D01*
X162117857Y-192278571D02*
X162117857Y-191278571D01*
X162117857Y-190778571D02*
X162046428Y-190850000D01*
X162117857Y-190921428D01*
X162189285Y-190850000D01*
X162117857Y-190778571D01*
X162117857Y-190921428D01*
X163046428Y-192278571D02*
X162903571Y-192207142D01*
X162832142Y-192064285D01*
X162832142Y-190778571D01*
X164189285Y-192207142D02*
X164046428Y-192278571D01*
X163760714Y-192278571D01*
X163617857Y-192207142D01*
X163546428Y-192064285D01*
X163546428Y-191492857D01*
X163617857Y-191350000D01*
X163760714Y-191278571D01*
X164046428Y-191278571D01*
X164189285Y-191350000D01*
X164260714Y-191492857D01*
X164260714Y-191635714D01*
X163546428Y-191778571D01*
X164903571Y-192135714D02*
X164975000Y-192207142D01*
X164903571Y-192278571D01*
X164832142Y-192207142D01*
X164903571Y-192135714D01*
X164903571Y-192278571D01*
X164903571Y-191350000D02*
X164975000Y-191421428D01*
X164903571Y-191492857D01*
X164832142Y-191421428D01*
X164903571Y-191350000D01*
X164903571Y-191492857D01*
X166760714Y-192278571D02*
X166760714Y-190778571D01*
X166760714Y-191492857D02*
X167617857Y-191492857D01*
X167617857Y-192278571D02*
X167617857Y-190778571D01*
X168975000Y-191278571D02*
X168975000Y-192278571D01*
X168332142Y-191278571D02*
X168332142Y-192064285D01*
X168403571Y-192207142D01*
X168546428Y-192278571D01*
X168760714Y-192278571D01*
X168903571Y-192207142D01*
X168975000Y-192135714D01*
X169617857Y-192207142D02*
X169760714Y-192278571D01*
X170046428Y-192278571D01*
X170189285Y-192207142D01*
X170260714Y-192064285D01*
X170260714Y-191992857D01*
X170189285Y-191850000D01*
X170046428Y-191778571D01*
X169832142Y-191778571D01*
X169689285Y-191707142D01*
X169617857Y-191564285D01*
X169617857Y-191492857D01*
X169689285Y-191350000D01*
X169832142Y-191278571D01*
X170046428Y-191278571D01*
X170189285Y-191350000D01*
X170903571Y-192278571D02*
X170903571Y-190778571D01*
X171046428Y-191707142D02*
X171475000Y-192278571D01*
X171475000Y-191278571D02*
X170903571Y-191850000D01*
X171975000Y-191278571D02*
X172332142Y-192278571D01*
X172689285Y-191278571D02*
X172332142Y-192278571D01*
X172189285Y-192635714D01*
X172117857Y-192707142D01*
X171975000Y-192778571D01*
X173189285Y-191850000D02*
X173903571Y-191850000D01*
X173046428Y-192278571D02*
X173546428Y-190778571D01*
X174046428Y-192278571D01*
X175332142Y-192278571D02*
X174475000Y-192278571D01*
X174903571Y-192278571D02*
X174903571Y-190778571D01*
X174760714Y-190992857D01*
X174617857Y-191135714D01*
X174475000Y-191207142D01*
X176260714Y-190778571D02*
X176403571Y-190778571D01*
X176546428Y-190850000D01*
X176617857Y-190921428D01*
X176689285Y-191064285D01*
X176760714Y-191350000D01*
X176760714Y-191707142D01*
X176689285Y-191992857D01*
X176617857Y-192135714D01*
X176546428Y-192207142D01*
X176403571Y-192278571D01*
X176260714Y-192278571D01*
X176117857Y-192207142D01*
X176046428Y-192135714D01*
X175975000Y-191992857D01*
X175903571Y-191707142D01*
X175903571Y-191350000D01*
X175975000Y-191064285D01*
X176046428Y-190921428D01*
X176117857Y-190850000D01*
X176260714Y-190778571D01*
X177689285Y-190778571D02*
X177832142Y-190778571D01*
X177975000Y-190850000D01*
X178046428Y-190921428D01*
X178117857Y-191064285D01*
X178189285Y-191350000D01*
X178189285Y-191707142D01*
X178117857Y-191992857D01*
X178046428Y-192135714D01*
X177975000Y-192207142D01*
X177832142Y-192278571D01*
X177689285Y-192278571D01*
X177546428Y-192207142D01*
X177475000Y-192135714D01*
X177403571Y-191992857D01*
X177332142Y-191707142D01*
X177332142Y-191350000D01*
X177403571Y-191064285D01*
X177475000Y-190921428D01*
X177546428Y-190850000D01*
X177689285Y-190778571D01*
X178475000Y-192421428D02*
X179617857Y-192421428D01*
X179975000Y-192278571D02*
X179975000Y-190778571D01*
X180832142Y-192278571D01*
X180832142Y-190778571D01*
X182189285Y-191278571D02*
X182189285Y-192278571D01*
X181546428Y-191278571D02*
X181546428Y-192064285D01*
X181617857Y-192207142D01*
X181760714Y-192278571D01*
X181975000Y-192278571D01*
X182117857Y-192207142D01*
X182189285Y-192135714D01*
X183546428Y-192207142D02*
X183403571Y-192278571D01*
X183117857Y-192278571D01*
X182975000Y-192207142D01*
X182903571Y-192135714D01*
X182832142Y-191992857D01*
X182832142Y-191564285D01*
X182903571Y-191421428D01*
X182975000Y-191350000D01*
X183117857Y-191278571D01*
X183403571Y-191278571D01*
X183546428Y-191350000D01*
X184403571Y-192278571D02*
X184260714Y-192207142D01*
X184189285Y-192064285D01*
X184189285Y-190778571D01*
X185546428Y-192207142D02*
X185403571Y-192278571D01*
X185117857Y-192278571D01*
X184975000Y-192207142D01*
X184903571Y-192064285D01*
X184903571Y-191492857D01*
X184975000Y-191350000D01*
X185117857Y-191278571D01*
X185403571Y-191278571D01*
X185546428Y-191350000D01*
X185617857Y-191492857D01*
X185617857Y-191635714D01*
X184903571Y-191778571D01*
X186475000Y-192278571D02*
X186332142Y-192207142D01*
X186260714Y-192135714D01*
X186189285Y-191992857D01*
X186189285Y-191564285D01*
X186260714Y-191421428D01*
X186332142Y-191350000D01*
X186475000Y-191278571D01*
X186689285Y-191278571D01*
X186832142Y-191350000D01*
X186903571Y-191421428D01*
X186975000Y-191564285D01*
X186975000Y-191992857D01*
X186903571Y-192135714D01*
X186832142Y-192207142D01*
X186689285Y-192278571D01*
X186475000Y-192278571D01*
X187260714Y-192421428D02*
X188403571Y-192421428D01*
X188689285Y-192207142D02*
X188903571Y-192278571D01*
X189260714Y-192278571D01*
X189403571Y-192207142D01*
X189475000Y-192135714D01*
X189546428Y-191992857D01*
X189546428Y-191850000D01*
X189475000Y-191707142D01*
X189403571Y-191635714D01*
X189260714Y-191564285D01*
X188975000Y-191492857D01*
X188832142Y-191421428D01*
X188760714Y-191350000D01*
X188689285Y-191207142D01*
X188689285Y-191064285D01*
X188760714Y-190921428D01*
X188832142Y-190850000D01*
X188975000Y-190778571D01*
X189332142Y-190778571D01*
X189546428Y-190850000D01*
X190189285Y-192278571D02*
X190189285Y-190778571D01*
X190832142Y-192278571D02*
X190832142Y-191492857D01*
X190760714Y-191350000D01*
X190617857Y-191278571D01*
X190403571Y-191278571D01*
X190260714Y-191350000D01*
X190189285Y-191421428D01*
X191546428Y-192278571D02*
X191546428Y-191278571D01*
X191546428Y-190778571D02*
X191475000Y-190850000D01*
X191546428Y-190921428D01*
X191617857Y-190850000D01*
X191546428Y-190778571D01*
X191546428Y-190921428D01*
X192832142Y-192207142D02*
X192689285Y-192278571D01*
X192403571Y-192278571D01*
X192260714Y-192207142D01*
X192189285Y-192064285D01*
X192189285Y-191492857D01*
X192260714Y-191350000D01*
X192403571Y-191278571D01*
X192689285Y-191278571D01*
X192832142Y-191350000D01*
X192903571Y-191492857D01*
X192903571Y-191635714D01*
X192189285Y-191778571D01*
X193760714Y-192278571D02*
X193617857Y-192207142D01*
X193546428Y-192064285D01*
X193546428Y-190778571D01*
X194975000Y-192278571D02*
X194975000Y-190778571D01*
X194975000Y-192207142D02*
X194832142Y-192278571D01*
X194546428Y-192278571D01*
X194403571Y-192207142D01*
X194332142Y-192135714D01*
X194260714Y-191992857D01*
X194260714Y-191564285D01*
X194332142Y-191421428D01*
X194403571Y-191350000D01*
X194546428Y-191278571D01*
X194832142Y-191278571D01*
X194975000Y-191350000D01*
X195689285Y-192135714D02*
X195760714Y-192207142D01*
X195689285Y-192278571D01*
X195617857Y-192207142D01*
X195689285Y-192135714D01*
X195689285Y-192278571D01*
X196403571Y-192278571D02*
X196403571Y-190778571D01*
X196546428Y-191707142D02*
X196975000Y-192278571D01*
X196975000Y-191278571D02*
X196403571Y-191850000D01*
X197617857Y-192278571D02*
X197617857Y-191278571D01*
X197617857Y-190778571D02*
X197546428Y-190850000D01*
X197617857Y-190921428D01*
X197689285Y-190850000D01*
X197617857Y-190778571D01*
X197617857Y-190921428D01*
X198975000Y-192207142D02*
X198832142Y-192278571D01*
X198546428Y-192278571D01*
X198403571Y-192207142D01*
X198332142Y-192135714D01*
X198260714Y-191992857D01*
X198260714Y-191564285D01*
X198332142Y-191421428D01*
X198403571Y-191350000D01*
X198546428Y-191278571D01*
X198832142Y-191278571D01*
X198975000Y-191350000D01*
X200260714Y-192278571D02*
X200260714Y-191492857D01*
X200189285Y-191350000D01*
X200046428Y-191278571D01*
X199760714Y-191278571D01*
X199617857Y-191350000D01*
X200260714Y-192207142D02*
X200117857Y-192278571D01*
X199760714Y-192278571D01*
X199617857Y-192207142D01*
X199546428Y-192064285D01*
X199546428Y-191921428D01*
X199617857Y-191778571D01*
X199760714Y-191707142D01*
X200117857Y-191707142D01*
X200260714Y-191635714D01*
X201617857Y-192278571D02*
X201617857Y-190778571D01*
X201617857Y-192207142D02*
X201475000Y-192278571D01*
X201189285Y-192278571D01*
X201046428Y-192207142D01*
X200975000Y-192135714D01*
X200903571Y-191992857D01*
X200903571Y-191564285D01*
X200975000Y-191421428D01*
X201046428Y-191350000D01*
X201189285Y-191278571D01*
X201475000Y-191278571D01*
X201617857Y-191350000D01*
X201975000Y-192421428D02*
X203117857Y-192421428D01*
X203475000Y-191278571D02*
X203475000Y-192778571D01*
X203475000Y-191350000D02*
X203617857Y-191278571D01*
X203903571Y-191278571D01*
X204046428Y-191350000D01*
X204117857Y-191421428D01*
X204189285Y-191564285D01*
X204189285Y-191992857D01*
X204117857Y-192135714D01*
X204046428Y-192207142D01*
X203903571Y-192278571D01*
X203617857Y-192278571D01*
X203475000Y-192207142D01*
X205475000Y-192207142D02*
X205332142Y-192278571D01*
X205046428Y-192278571D01*
X204903571Y-192207142D01*
X204832142Y-192135714D01*
X204760714Y-191992857D01*
X204760714Y-191564285D01*
X204832142Y-191421428D01*
X204903571Y-191350000D01*
X205046428Y-191278571D01*
X205332142Y-191278571D01*
X205475000Y-191350000D01*
X206117857Y-192278571D02*
X206117857Y-190778571D01*
X206117857Y-191350000D02*
X206260714Y-191278571D01*
X206546428Y-191278571D01*
X206689285Y-191350000D01*
X206760714Y-191421428D01*
X206832142Y-191564285D01*
X206832142Y-191992857D01*
X206760714Y-192135714D01*
X206689285Y-192207142D01*
X206546428Y-192278571D01*
X206260714Y-192278571D01*
X206117857Y-192207142D01*
D10*
D11*
X159400000Y-187400000D02*
X267400000Y-187400000D01*
D10*
D11*
X160760714Y-189507142D02*
X160975000Y-189578571D01*
X161332142Y-189578571D01*
X161475000Y-189507142D01*
X161546428Y-189435714D01*
X161617857Y-189292857D01*
X161617857Y-189150000D01*
X161546428Y-189007142D01*
X161475000Y-188935714D01*
X161332142Y-188864285D01*
X161046428Y-188792857D01*
X160903571Y-188721428D01*
X160832142Y-188650000D01*
X160760714Y-188507142D01*
X160760714Y-188364285D01*
X160832142Y-188221428D01*
X160903571Y-188150000D01*
X161046428Y-188078571D01*
X161403571Y-188078571D01*
X161617857Y-188150000D01*
X162260714Y-189578571D02*
X162260714Y-188078571D01*
X162903571Y-189578571D02*
X162903571Y-188792857D01*
X162832142Y-188650000D01*
X162689285Y-188578571D01*
X162475000Y-188578571D01*
X162332142Y-188650000D01*
X162260714Y-188721428D01*
X164189285Y-189507142D02*
X164046428Y-189578571D01*
X163760714Y-189578571D01*
X163617857Y-189507142D01*
X163546428Y-189364285D01*
X163546428Y-188792857D01*
X163617857Y-188650000D01*
X163760714Y-188578571D01*
X164046428Y-188578571D01*
X164189285Y-188650000D01*
X164260714Y-188792857D01*
X164260714Y-188935714D01*
X163546428Y-189078571D01*
X165475000Y-189507142D02*
X165332142Y-189578571D01*
X165046428Y-189578571D01*
X164903571Y-189507142D01*
X164832142Y-189364285D01*
X164832142Y-188792857D01*
X164903571Y-188650000D01*
X165046428Y-188578571D01*
X165332142Y-188578571D01*
X165475000Y-188650000D01*
X165546428Y-188792857D01*
X165546428Y-188935714D01*
X164832142Y-189078571D01*
X165975000Y-188578571D02*
X166546428Y-188578571D01*
X166189285Y-188078571D02*
X166189285Y-189364285D01*
X166260714Y-189507142D01*
X166403571Y-189578571D01*
X166546428Y-189578571D01*
X167046428Y-189435714D02*
X167117857Y-189507142D01*
X167046428Y-189578571D01*
X166975000Y-189507142D01*
X167046428Y-189435714D01*
X167046428Y-189578571D01*
X167046428Y-188650000D02*
X167117857Y-188721428D01*
X167046428Y-188792857D01*
X166975000Y-188721428D01*
X167046428Y-188650000D01*
X167046428Y-188792857D01*
D10*
D11*
X179400000Y-197400000D02*
X179400000Y-200400000D01*
D10*
D11*
X243400000Y-197400000D02*
X243400000Y-203900000D01*
D10*
G04 #@! TO.C,C1*
G36*
X106084504Y-32353204D02*
X106108773Y-32356804D01*
X106132571Y-32362765D01*
X106155671Y-32371030D01*
X106177849Y-32381520D01*
X106198893Y-32394133D01*
X106218598Y-32408747D01*
X106236777Y-32425223D01*
X106253253Y-32443402D01*
X106267867Y-32463107D01*
X106280480Y-32484151D01*
X106290970Y-32506329D01*
X106299235Y-32529429D01*
X106305196Y-32553227D01*
X106308796Y-32577496D01*
X106310000Y-32602000D01*
X106310000Y-37502000D01*
X106308796Y-37526504D01*
X106305196Y-37550773D01*
X106299235Y-37574571D01*
X106290970Y-37597671D01*
X106280480Y-37619849D01*
X106267867Y-37640893D01*
X106253253Y-37660598D01*
X106236777Y-37678777D01*
X106218598Y-37695253D01*
X106198893Y-37709867D01*
X106177849Y-37722480D01*
X106155671Y-37732970D01*
X106132571Y-37741235D01*
X106108773Y-37747196D01*
X106084504Y-37750796D01*
X106060000Y-37752000D01*
X104760000Y-37752000D01*
X104735496Y-37750796D01*
X104711227Y-37747196D01*
X104687429Y-37741235D01*
X104664329Y-37732970D01*
X104642151Y-37722480D01*
X104621107Y-37709867D01*
X104601402Y-37695253D01*
X104583223Y-37678777D01*
X104566747Y-37660598D01*
X104552133Y-37640893D01*
X104539520Y-37619849D01*
X104529030Y-37597671D01*
X104520765Y-37574571D01*
X104514804Y-37550773D01*
X104511204Y-37526504D01*
X104510000Y-37502000D01*
X104510000Y-32602000D01*
X104511204Y-32577496D01*
X104514804Y-32553227D01*
X104520765Y-32529429D01*
X104529030Y-32506329D01*
X104539520Y-32484151D01*
X104552133Y-32463107D01*
X104566747Y-32443402D01*
X104583223Y-32425223D01*
X104601402Y-32408747D01*
X104621107Y-32394133D01*
X104642151Y-32381520D01*
X104664329Y-32371030D01*
X104687429Y-32362765D01*
X104711227Y-32356804D01*
X104735496Y-32353204D01*
X104760000Y-32352000D01*
X106060000Y-32352000D01*
X106084504Y-32353204D01*
X106084504Y-32353204D01*
G37*
D14*
X105410000Y-35052000D03*
D10*
G36*
X111184504Y-32353204D02*
X111208773Y-32356804D01*
X111232571Y-32362765D01*
X111255671Y-32371030D01*
X111277849Y-32381520D01*
X111298893Y-32394133D01*
X111318598Y-32408747D01*
X111336777Y-32425223D01*
X111353253Y-32443402D01*
X111367867Y-32463107D01*
X111380480Y-32484151D01*
X111390970Y-32506329D01*
X111399235Y-32529429D01*
X111405196Y-32553227D01*
X111408796Y-32577496D01*
X111410000Y-32602000D01*
X111410000Y-37502000D01*
X111408796Y-37526504D01*
X111405196Y-37550773D01*
X111399235Y-37574571D01*
X111390970Y-37597671D01*
X111380480Y-37619849D01*
X111367867Y-37640893D01*
X111353253Y-37660598D01*
X111336777Y-37678777D01*
X111318598Y-37695253D01*
X111298893Y-37709867D01*
X111277849Y-37722480D01*
X111255671Y-37732970D01*
X111232571Y-37741235D01*
X111208773Y-37747196D01*
X111184504Y-37750796D01*
X111160000Y-37752000D01*
X109860000Y-37752000D01*
X109835496Y-37750796D01*
X109811227Y-37747196D01*
X109787429Y-37741235D01*
X109764329Y-37732970D01*
X109742151Y-37722480D01*
X109721107Y-37709867D01*
X109701402Y-37695253D01*
X109683223Y-37678777D01*
X109666747Y-37660598D01*
X109652133Y-37640893D01*
X109639520Y-37619849D01*
X109629030Y-37597671D01*
X109620765Y-37574571D01*
X109614804Y-37550773D01*
X109611204Y-37526504D01*
X109610000Y-37502000D01*
X109610000Y-32602000D01*
X109611204Y-32577496D01*
X109614804Y-32553227D01*
X109620765Y-32529429D01*
X109629030Y-32506329D01*
X109639520Y-32484151D01*
X109652133Y-32463107D01*
X109666747Y-32443402D01*
X109683223Y-32425223D01*
X109701402Y-32408747D01*
X109721107Y-32394133D01*
X109742151Y-32381520D01*
X109764329Y-32371030D01*
X109787429Y-32362765D01*
X109811227Y-32356804D01*
X109835496Y-32353204D01*
X109860000Y-32352000D01*
X111160000Y-32352000D01*
X111184504Y-32353204D01*
X111184504Y-32353204D01*
G37*
D14*
X110510000Y-35052000D03*
G04 #@! TD*
D10*
G04 #@! TO.C,C3*
G36*
X119568504Y-34915204D02*
X119592773Y-34918804D01*
X119616571Y-34924765D01*
X119639671Y-34933030D01*
X119661849Y-34943520D01*
X119682893Y-34956133D01*
X119702598Y-34970747D01*
X119720777Y-34987223D01*
X119737253Y-35005402D01*
X119751867Y-35025107D01*
X119764480Y-35046151D01*
X119774970Y-35068329D01*
X119783235Y-35091429D01*
X119789196Y-35115227D01*
X119792796Y-35139496D01*
X119794000Y-35164000D01*
X119794000Y-36464000D01*
X119792796Y-36488504D01*
X119789196Y-36512773D01*
X119783235Y-36536571D01*
X119774970Y-36559671D01*
X119764480Y-36581849D01*
X119751867Y-36602893D01*
X119737253Y-36622598D01*
X119720777Y-36640777D01*
X119702598Y-36657253D01*
X119682893Y-36671867D01*
X119661849Y-36684480D01*
X119639671Y-36694970D01*
X119616571Y-36703235D01*
X119592773Y-36709196D01*
X119568504Y-36712796D01*
X119544000Y-36714000D01*
X114644000Y-36714000D01*
X114619496Y-36712796D01*
X114595227Y-36709196D01*
X114571429Y-36703235D01*
X114548329Y-36694970D01*
X114526151Y-36684480D01*
X114505107Y-36671867D01*
X114485402Y-36657253D01*
X114467223Y-36640777D01*
X114450747Y-36622598D01*
X114436133Y-36602893D01*
X114423520Y-36581849D01*
X114413030Y-36559671D01*
X114404765Y-36536571D01*
X114398804Y-36512773D01*
X114395204Y-36488504D01*
X114394000Y-36464000D01*
X114394000Y-35164000D01*
X114395204Y-35139496D01*
X114398804Y-35115227D01*
X114404765Y-35091429D01*
X114413030Y-35068329D01*
X114423520Y-35046151D01*
X114436133Y-35025107D01*
X114450747Y-35005402D01*
X114467223Y-34987223D01*
X114485402Y-34970747D01*
X114505107Y-34956133D01*
X114526151Y-34943520D01*
X114548329Y-34933030D01*
X114571429Y-34924765D01*
X114595227Y-34918804D01*
X114619496Y-34915204D01*
X114644000Y-34914000D01*
X119544000Y-34914000D01*
X119568504Y-34915204D01*
X119568504Y-34915204D01*
G37*
D14*
X117094000Y-35814000D03*
D10*
G36*
X119568504Y-40015204D02*
X119592773Y-40018804D01*
X119616571Y-40024765D01*
X119639671Y-40033030D01*
X119661849Y-40043520D01*
X119682893Y-40056133D01*
X119702598Y-40070747D01*
X119720777Y-40087223D01*
X119737253Y-40105402D01*
X119751867Y-40125107D01*
X119764480Y-40146151D01*
X119774970Y-40168329D01*
X119783235Y-40191429D01*
X119789196Y-40215227D01*
X119792796Y-40239496D01*
X119794000Y-40264000D01*
X119794000Y-41564000D01*
X119792796Y-41588504D01*
X119789196Y-41612773D01*
X119783235Y-41636571D01*
X119774970Y-41659671D01*
X119764480Y-41681849D01*
X119751867Y-41702893D01*
X119737253Y-41722598D01*
X119720777Y-41740777D01*
X119702598Y-41757253D01*
X119682893Y-41771867D01*
X119661849Y-41784480D01*
X119639671Y-41794970D01*
X119616571Y-41803235D01*
X119592773Y-41809196D01*
X119568504Y-41812796D01*
X119544000Y-41814000D01*
X114644000Y-41814000D01*
X114619496Y-41812796D01*
X114595227Y-41809196D01*
X114571429Y-41803235D01*
X114548329Y-41794970D01*
X114526151Y-41784480D01*
X114505107Y-41771867D01*
X114485402Y-41757253D01*
X114467223Y-41740777D01*
X114450747Y-41722598D01*
X114436133Y-41702893D01*
X114423520Y-41681849D01*
X114413030Y-41659671D01*
X114404765Y-41636571D01*
X114398804Y-41612773D01*
X114395204Y-41588504D01*
X114394000Y-41564000D01*
X114394000Y-40264000D01*
X114395204Y-40239496D01*
X114398804Y-40215227D01*
X114404765Y-40191429D01*
X114413030Y-40168329D01*
X114423520Y-40146151D01*
X114436133Y-40125107D01*
X114450747Y-40105402D01*
X114467223Y-40087223D01*
X114485402Y-40070747D01*
X114505107Y-40056133D01*
X114526151Y-40043520D01*
X114548329Y-40033030D01*
X114571429Y-40024765D01*
X114595227Y-40018804D01*
X114619496Y-40015204D01*
X114644000Y-40014000D01*
X119544000Y-40014000D01*
X119568504Y-40015204D01*
X119568504Y-40015204D01*
G37*
D14*
X117094000Y-40914000D03*
G04 #@! TD*
D10*
G04 #@! TO.C,C4*
G36*
X128964504Y-108553204D02*
X128988773Y-108556804D01*
X129012571Y-108562765D01*
X129035671Y-108571030D01*
X129057849Y-108581520D01*
X129078893Y-108594133D01*
X129098598Y-108608747D01*
X129116777Y-108625223D01*
X129133253Y-108643402D01*
X129147867Y-108663107D01*
X129160480Y-108684151D01*
X129170970Y-108706329D01*
X129179235Y-108729429D01*
X129185196Y-108753227D01*
X129188796Y-108777496D01*
X129190000Y-108802000D01*
X129190000Y-113702000D01*
X129188796Y-113726504D01*
X129185196Y-113750773D01*
X129179235Y-113774571D01*
X129170970Y-113797671D01*
X129160480Y-113819849D01*
X129147867Y-113840893D01*
X129133253Y-113860598D01*
X129116777Y-113878777D01*
X129098598Y-113895253D01*
X129078893Y-113909867D01*
X129057849Y-113922480D01*
X129035671Y-113932970D01*
X129012571Y-113941235D01*
X128988773Y-113947196D01*
X128964504Y-113950796D01*
X128940000Y-113952000D01*
X127640000Y-113952000D01*
X127615496Y-113950796D01*
X127591227Y-113947196D01*
X127567429Y-113941235D01*
X127544329Y-113932970D01*
X127522151Y-113922480D01*
X127501107Y-113909867D01*
X127481402Y-113895253D01*
X127463223Y-113878777D01*
X127446747Y-113860598D01*
X127432133Y-113840893D01*
X127419520Y-113819849D01*
X127409030Y-113797671D01*
X127400765Y-113774571D01*
X127394804Y-113750773D01*
X127391204Y-113726504D01*
X127390000Y-113702000D01*
X127390000Y-108802000D01*
X127391204Y-108777496D01*
X127394804Y-108753227D01*
X127400765Y-108729429D01*
X127409030Y-108706329D01*
X127419520Y-108684151D01*
X127432133Y-108663107D01*
X127446747Y-108643402D01*
X127463223Y-108625223D01*
X127481402Y-108608747D01*
X127501107Y-108594133D01*
X127522151Y-108581520D01*
X127544329Y-108571030D01*
X127567429Y-108562765D01*
X127591227Y-108556804D01*
X127615496Y-108553204D01*
X127640000Y-108552000D01*
X128940000Y-108552000D01*
X128964504Y-108553204D01*
X128964504Y-108553204D01*
G37*
D14*
X128290000Y-111252000D03*
D10*
G36*
X123864504Y-108553204D02*
X123888773Y-108556804D01*
X123912571Y-108562765D01*
X123935671Y-108571030D01*
X123957849Y-108581520D01*
X123978893Y-108594133D01*
X123998598Y-108608747D01*
X124016777Y-108625223D01*
X124033253Y-108643402D01*
X124047867Y-108663107D01*
X124060480Y-108684151D01*
X124070970Y-108706329D01*
X124079235Y-108729429D01*
X124085196Y-108753227D01*
X124088796Y-108777496D01*
X124090000Y-108802000D01*
X124090000Y-113702000D01*
X124088796Y-113726504D01*
X124085196Y-113750773D01*
X124079235Y-113774571D01*
X124070970Y-113797671D01*
X124060480Y-113819849D01*
X124047867Y-113840893D01*
X124033253Y-113860598D01*
X124016777Y-113878777D01*
X123998598Y-113895253D01*
X123978893Y-113909867D01*
X123957849Y-113922480D01*
X123935671Y-113932970D01*
X123912571Y-113941235D01*
X123888773Y-113947196D01*
X123864504Y-113950796D01*
X123840000Y-113952000D01*
X122540000Y-113952000D01*
X122515496Y-113950796D01*
X122491227Y-113947196D01*
X122467429Y-113941235D01*
X122444329Y-113932970D01*
X122422151Y-113922480D01*
X122401107Y-113909867D01*
X122381402Y-113895253D01*
X122363223Y-113878777D01*
X122346747Y-113860598D01*
X122332133Y-113840893D01*
X122319520Y-113819849D01*
X122309030Y-113797671D01*
X122300765Y-113774571D01*
X122294804Y-113750773D01*
X122291204Y-113726504D01*
X122290000Y-113702000D01*
X122290000Y-108802000D01*
X122291204Y-108777496D01*
X122294804Y-108753227D01*
X122300765Y-108729429D01*
X122309030Y-108706329D01*
X122319520Y-108684151D01*
X122332133Y-108663107D01*
X122346747Y-108643402D01*
X122363223Y-108625223D01*
X122381402Y-108608747D01*
X122401107Y-108594133D01*
X122422151Y-108581520D01*
X122444329Y-108571030D01*
X122467429Y-108562765D01*
X122491227Y-108556804D01*
X122515496Y-108553204D01*
X122540000Y-108552000D01*
X123840000Y-108552000D01*
X123864504Y-108553204D01*
X123864504Y-108553204D01*
G37*
D14*
X123190000Y-111252000D03*
G04 #@! TD*
D10*
G04 #@! TO.C,C5*
G36*
X101766504Y-109315204D02*
X101790773Y-109318804D01*
X101814571Y-109324765D01*
X101837671Y-109333030D01*
X101859849Y-109343520D01*
X101880893Y-109356133D01*
X101900598Y-109370747D01*
X101918777Y-109387223D01*
X101935253Y-109405402D01*
X101949867Y-109425107D01*
X101962480Y-109446151D01*
X101972970Y-109468329D01*
X101981235Y-109491429D01*
X101987196Y-109515227D01*
X101990796Y-109539496D01*
X101992000Y-109564000D01*
X101992000Y-114464000D01*
X101990796Y-114488504D01*
X101987196Y-114512773D01*
X101981235Y-114536571D01*
X101972970Y-114559671D01*
X101962480Y-114581849D01*
X101949867Y-114602893D01*
X101935253Y-114622598D01*
X101918777Y-114640777D01*
X101900598Y-114657253D01*
X101880893Y-114671867D01*
X101859849Y-114684480D01*
X101837671Y-114694970D01*
X101814571Y-114703235D01*
X101790773Y-114709196D01*
X101766504Y-114712796D01*
X101742000Y-114714000D01*
X100442000Y-114714000D01*
X100417496Y-114712796D01*
X100393227Y-114709196D01*
X100369429Y-114703235D01*
X100346329Y-114694970D01*
X100324151Y-114684480D01*
X100303107Y-114671867D01*
X100283402Y-114657253D01*
X100265223Y-114640777D01*
X100248747Y-114622598D01*
X100234133Y-114602893D01*
X100221520Y-114581849D01*
X100211030Y-114559671D01*
X100202765Y-114536571D01*
X100196804Y-114512773D01*
X100193204Y-114488504D01*
X100192000Y-114464000D01*
X100192000Y-109564000D01*
X100193204Y-109539496D01*
X100196804Y-109515227D01*
X100202765Y-109491429D01*
X100211030Y-109468329D01*
X100221520Y-109446151D01*
X100234133Y-109425107D01*
X100248747Y-109405402D01*
X100265223Y-109387223D01*
X100283402Y-109370747D01*
X100303107Y-109356133D01*
X100324151Y-109343520D01*
X100346329Y-109333030D01*
X100369429Y-109324765D01*
X100393227Y-109318804D01*
X100417496Y-109315204D01*
X100442000Y-109314000D01*
X101742000Y-109314000D01*
X101766504Y-109315204D01*
X101766504Y-109315204D01*
G37*
D14*
X101092000Y-112014000D03*
D10*
G36*
X106866504Y-109315204D02*
X106890773Y-109318804D01*
X106914571Y-109324765D01*
X106937671Y-109333030D01*
X106959849Y-109343520D01*
X106980893Y-109356133D01*
X107000598Y-109370747D01*
X107018777Y-109387223D01*
X107035253Y-109405402D01*
X107049867Y-109425107D01*
X107062480Y-109446151D01*
X107072970Y-109468329D01*
X107081235Y-109491429D01*
X107087196Y-109515227D01*
X107090796Y-109539496D01*
X107092000Y-109564000D01*
X107092000Y-114464000D01*
X107090796Y-114488504D01*
X107087196Y-114512773D01*
X107081235Y-114536571D01*
X107072970Y-114559671D01*
X107062480Y-114581849D01*
X107049867Y-114602893D01*
X107035253Y-114622598D01*
X107018777Y-114640777D01*
X107000598Y-114657253D01*
X106980893Y-114671867D01*
X106959849Y-114684480D01*
X106937671Y-114694970D01*
X106914571Y-114703235D01*
X106890773Y-114709196D01*
X106866504Y-114712796D01*
X106842000Y-114714000D01*
X105542000Y-114714000D01*
X105517496Y-114712796D01*
X105493227Y-114709196D01*
X105469429Y-114703235D01*
X105446329Y-114694970D01*
X105424151Y-114684480D01*
X105403107Y-114671867D01*
X105383402Y-114657253D01*
X105365223Y-114640777D01*
X105348747Y-114622598D01*
X105334133Y-114602893D01*
X105321520Y-114581849D01*
X105311030Y-114559671D01*
X105302765Y-114536571D01*
X105296804Y-114512773D01*
X105293204Y-114488504D01*
X105292000Y-114464000D01*
X105292000Y-109564000D01*
X105293204Y-109539496D01*
X105296804Y-109515227D01*
X105302765Y-109491429D01*
X105311030Y-109468329D01*
X105321520Y-109446151D01*
X105334133Y-109425107D01*
X105348747Y-109405402D01*
X105365223Y-109387223D01*
X105383402Y-109370747D01*
X105403107Y-109356133D01*
X105424151Y-109343520D01*
X105446329Y-109333030D01*
X105469429Y-109324765D01*
X105493227Y-109318804D01*
X105517496Y-109315204D01*
X105542000Y-109314000D01*
X106842000Y-109314000D01*
X106866504Y-109315204D01*
X106866504Y-109315204D01*
G37*
D14*
X106192000Y-112014000D03*
G04 #@! TD*
D10*
G04 #@! TO.C,C6*
G36*
X102804504Y-41793204D02*
X102828773Y-41796804D01*
X102852571Y-41802765D01*
X102875671Y-41811030D01*
X102897849Y-41821520D01*
X102918893Y-41834133D01*
X102938598Y-41848747D01*
X102956777Y-41865223D01*
X102973253Y-41883402D01*
X102987867Y-41903107D01*
X103000480Y-41924151D01*
X103010970Y-41946329D01*
X103019235Y-41969429D01*
X103025196Y-41993227D01*
X103028796Y-42017496D01*
X103030000Y-42042000D01*
X103030000Y-43342000D01*
X103028796Y-43366504D01*
X103025196Y-43390773D01*
X103019235Y-43414571D01*
X103010970Y-43437671D01*
X103000480Y-43459849D01*
X102987867Y-43480893D01*
X102973253Y-43500598D01*
X102956777Y-43518777D01*
X102938598Y-43535253D01*
X102918893Y-43549867D01*
X102897849Y-43562480D01*
X102875671Y-43572970D01*
X102852571Y-43581235D01*
X102828773Y-43587196D01*
X102804504Y-43590796D01*
X102780000Y-43592000D01*
X97880000Y-43592000D01*
X97855496Y-43590796D01*
X97831227Y-43587196D01*
X97807429Y-43581235D01*
X97784329Y-43572970D01*
X97762151Y-43562480D01*
X97741107Y-43549867D01*
X97721402Y-43535253D01*
X97703223Y-43518777D01*
X97686747Y-43500598D01*
X97672133Y-43480893D01*
X97659520Y-43459849D01*
X97649030Y-43437671D01*
X97640765Y-43414571D01*
X97634804Y-43390773D01*
X97631204Y-43366504D01*
X97630000Y-43342000D01*
X97630000Y-42042000D01*
X97631204Y-42017496D01*
X97634804Y-41993227D01*
X97640765Y-41969429D01*
X97649030Y-41946329D01*
X97659520Y-41924151D01*
X97672133Y-41903107D01*
X97686747Y-41883402D01*
X97703223Y-41865223D01*
X97721402Y-41848747D01*
X97741107Y-41834133D01*
X97762151Y-41821520D01*
X97784329Y-41811030D01*
X97807429Y-41802765D01*
X97831227Y-41796804D01*
X97855496Y-41793204D01*
X97880000Y-41792000D01*
X102780000Y-41792000D01*
X102804504Y-41793204D01*
X102804504Y-41793204D01*
G37*
D14*
X100330000Y-42692000D03*
D10*
G36*
X102804504Y-36693204D02*
X102828773Y-36696804D01*
X102852571Y-36702765D01*
X102875671Y-36711030D01*
X102897849Y-36721520D01*
X102918893Y-36734133D01*
X102938598Y-36748747D01*
X102956777Y-36765223D01*
X102973253Y-36783402D01*
X102987867Y-36803107D01*
X103000480Y-36824151D01*
X103010970Y-36846329D01*
X103019235Y-36869429D01*
X103025196Y-36893227D01*
X103028796Y-36917496D01*
X103030000Y-36942000D01*
X103030000Y-38242000D01*
X103028796Y-38266504D01*
X103025196Y-38290773D01*
X103019235Y-38314571D01*
X103010970Y-38337671D01*
X103000480Y-38359849D01*
X102987867Y-38380893D01*
X102973253Y-38400598D01*
X102956777Y-38418777D01*
X102938598Y-38435253D01*
X102918893Y-38449867D01*
X102897849Y-38462480D01*
X102875671Y-38472970D01*
X102852571Y-38481235D01*
X102828773Y-38487196D01*
X102804504Y-38490796D01*
X102780000Y-38492000D01*
X97880000Y-38492000D01*
X97855496Y-38490796D01*
X97831227Y-38487196D01*
X97807429Y-38481235D01*
X97784329Y-38472970D01*
X97762151Y-38462480D01*
X97741107Y-38449867D01*
X97721402Y-38435253D01*
X97703223Y-38418777D01*
X97686747Y-38400598D01*
X97672133Y-38380893D01*
X97659520Y-38359849D01*
X97649030Y-38337671D01*
X97640765Y-38314571D01*
X97634804Y-38290773D01*
X97631204Y-38266504D01*
X97630000Y-38242000D01*
X97630000Y-36942000D01*
X97631204Y-36917496D01*
X97634804Y-36893227D01*
X97640765Y-36869429D01*
X97649030Y-36846329D01*
X97659520Y-36824151D01*
X97672133Y-36803107D01*
X97686747Y-36783402D01*
X97703223Y-36765223D01*
X97721402Y-36748747D01*
X97741107Y-36734133D01*
X97762151Y-36721520D01*
X97784329Y-36711030D01*
X97807429Y-36702765D01*
X97831227Y-36696804D01*
X97855496Y-36693204D01*
X97880000Y-36692000D01*
X102780000Y-36692000D01*
X102804504Y-36693204D01*
X102804504Y-36693204D01*
G37*
D14*
X100330000Y-37592000D03*
G04 #@! TD*
D10*
G04 #@! TO.C,C7*
G36*
X120076504Y-110099204D02*
X120100773Y-110102804D01*
X120124571Y-110108765D01*
X120147671Y-110117030D01*
X120169849Y-110127520D01*
X120190893Y-110140133D01*
X120210598Y-110154747D01*
X120228777Y-110171223D01*
X120245253Y-110189402D01*
X120259867Y-110209107D01*
X120272480Y-110230151D01*
X120282970Y-110252329D01*
X120291235Y-110275429D01*
X120297196Y-110299227D01*
X120300796Y-110323496D01*
X120302000Y-110348000D01*
X120302000Y-111648000D01*
X120300796Y-111672504D01*
X120297196Y-111696773D01*
X120291235Y-111720571D01*
X120282970Y-111743671D01*
X120272480Y-111765849D01*
X120259867Y-111786893D01*
X120245253Y-111806598D01*
X120228777Y-111824777D01*
X120210598Y-111841253D01*
X120190893Y-111855867D01*
X120169849Y-111868480D01*
X120147671Y-111878970D01*
X120124571Y-111887235D01*
X120100773Y-111893196D01*
X120076504Y-111896796D01*
X120052000Y-111898000D01*
X115152000Y-111898000D01*
X115127496Y-111896796D01*
X115103227Y-111893196D01*
X115079429Y-111887235D01*
X115056329Y-111878970D01*
X115034151Y-111868480D01*
X115013107Y-111855867D01*
X114993402Y-111841253D01*
X114975223Y-111824777D01*
X114958747Y-111806598D01*
X114944133Y-111786893D01*
X114931520Y-111765849D01*
X114921030Y-111743671D01*
X114912765Y-111720571D01*
X114906804Y-111696773D01*
X114903204Y-111672504D01*
X114902000Y-111648000D01*
X114902000Y-110348000D01*
X114903204Y-110323496D01*
X114906804Y-110299227D01*
X114912765Y-110275429D01*
X114921030Y-110252329D01*
X114931520Y-110230151D01*
X114944133Y-110209107D01*
X114958747Y-110189402D01*
X114975223Y-110171223D01*
X114993402Y-110154747D01*
X115013107Y-110140133D01*
X115034151Y-110127520D01*
X115056329Y-110117030D01*
X115079429Y-110108765D01*
X115103227Y-110102804D01*
X115127496Y-110099204D01*
X115152000Y-110098000D01*
X120052000Y-110098000D01*
X120076504Y-110099204D01*
X120076504Y-110099204D01*
G37*
D14*
X117602000Y-110998000D03*
D10*
G36*
X120076504Y-104999204D02*
X120100773Y-105002804D01*
X120124571Y-105008765D01*
X120147671Y-105017030D01*
X120169849Y-105027520D01*
X120190893Y-105040133D01*
X120210598Y-105054747D01*
X120228777Y-105071223D01*
X120245253Y-105089402D01*
X120259867Y-105109107D01*
X120272480Y-105130151D01*
X120282970Y-105152329D01*
X120291235Y-105175429D01*
X120297196Y-105199227D01*
X120300796Y-105223496D01*
X120302000Y-105248000D01*
X120302000Y-106548000D01*
X120300796Y-106572504D01*
X120297196Y-106596773D01*
X120291235Y-106620571D01*
X120282970Y-106643671D01*
X120272480Y-106665849D01*
X120259867Y-106686893D01*
X120245253Y-106706598D01*
X120228777Y-106724777D01*
X120210598Y-106741253D01*
X120190893Y-106755867D01*
X120169849Y-106768480D01*
X120147671Y-106778970D01*
X120124571Y-106787235D01*
X120100773Y-106793196D01*
X120076504Y-106796796D01*
X120052000Y-106798000D01*
X115152000Y-106798000D01*
X115127496Y-106796796D01*
X115103227Y-106793196D01*
X115079429Y-106787235D01*
X115056329Y-106778970D01*
X115034151Y-106768480D01*
X115013107Y-106755867D01*
X114993402Y-106741253D01*
X114975223Y-106724777D01*
X114958747Y-106706598D01*
X114944133Y-106686893D01*
X114931520Y-106665849D01*
X114921030Y-106643671D01*
X114912765Y-106620571D01*
X114906804Y-106596773D01*
X114903204Y-106572504D01*
X114902000Y-106548000D01*
X114902000Y-105248000D01*
X114903204Y-105223496D01*
X114906804Y-105199227D01*
X114912765Y-105175429D01*
X114921030Y-105152329D01*
X114931520Y-105130151D01*
X114944133Y-105109107D01*
X114958747Y-105089402D01*
X114975223Y-105071223D01*
X114993402Y-105054747D01*
X115013107Y-105040133D01*
X115034151Y-105027520D01*
X115056329Y-105017030D01*
X115079429Y-105008765D01*
X115103227Y-105002804D01*
X115127496Y-104999204D01*
X115152000Y-104998000D01*
X120052000Y-104998000D01*
X120076504Y-104999204D01*
X120076504Y-104999204D01*
G37*
D14*
X117602000Y-105898000D03*
G04 #@! TD*
D10*
G04 #@! TO.C,C8*
G36*
X128456504Y-31337204D02*
X128480773Y-31340804D01*
X128504571Y-31346765D01*
X128527671Y-31355030D01*
X128549849Y-31365520D01*
X128570893Y-31378133D01*
X128590598Y-31392747D01*
X128608777Y-31409223D01*
X128625253Y-31427402D01*
X128639867Y-31447107D01*
X128652480Y-31468151D01*
X128662970Y-31490329D01*
X128671235Y-31513429D01*
X128677196Y-31537227D01*
X128680796Y-31561496D01*
X128682000Y-31586000D01*
X128682000Y-36486000D01*
X128680796Y-36510504D01*
X128677196Y-36534773D01*
X128671235Y-36558571D01*
X128662970Y-36581671D01*
X128652480Y-36603849D01*
X128639867Y-36624893D01*
X128625253Y-36644598D01*
X128608777Y-36662777D01*
X128590598Y-36679253D01*
X128570893Y-36693867D01*
X128549849Y-36706480D01*
X128527671Y-36716970D01*
X128504571Y-36725235D01*
X128480773Y-36731196D01*
X128456504Y-36734796D01*
X128432000Y-36736000D01*
X127132000Y-36736000D01*
X127107496Y-36734796D01*
X127083227Y-36731196D01*
X127059429Y-36725235D01*
X127036329Y-36716970D01*
X127014151Y-36706480D01*
X126993107Y-36693867D01*
X126973402Y-36679253D01*
X126955223Y-36662777D01*
X126938747Y-36644598D01*
X126924133Y-36624893D01*
X126911520Y-36603849D01*
X126901030Y-36581671D01*
X126892765Y-36558571D01*
X126886804Y-36534773D01*
X126883204Y-36510504D01*
X126882000Y-36486000D01*
X126882000Y-31586000D01*
X126883204Y-31561496D01*
X126886804Y-31537227D01*
X126892765Y-31513429D01*
X126901030Y-31490329D01*
X126911520Y-31468151D01*
X126924133Y-31447107D01*
X126938747Y-31427402D01*
X126955223Y-31409223D01*
X126973402Y-31392747D01*
X126993107Y-31378133D01*
X127014151Y-31365520D01*
X127036329Y-31355030D01*
X127059429Y-31346765D01*
X127083227Y-31340804D01*
X127107496Y-31337204D01*
X127132000Y-31336000D01*
X128432000Y-31336000D01*
X128456504Y-31337204D01*
X128456504Y-31337204D01*
G37*
D14*
X127782000Y-34036000D03*
D10*
G36*
X123356504Y-31337204D02*
X123380773Y-31340804D01*
X123404571Y-31346765D01*
X123427671Y-31355030D01*
X123449849Y-31365520D01*
X123470893Y-31378133D01*
X123490598Y-31392747D01*
X123508777Y-31409223D01*
X123525253Y-31427402D01*
X123539867Y-31447107D01*
X123552480Y-31468151D01*
X123562970Y-31490329D01*
X123571235Y-31513429D01*
X123577196Y-31537227D01*
X123580796Y-31561496D01*
X123582000Y-31586000D01*
X123582000Y-36486000D01*
X123580796Y-36510504D01*
X123577196Y-36534773D01*
X123571235Y-36558571D01*
X123562970Y-36581671D01*
X123552480Y-36603849D01*
X123539867Y-36624893D01*
X123525253Y-36644598D01*
X123508777Y-36662777D01*
X123490598Y-36679253D01*
X123470893Y-36693867D01*
X123449849Y-36706480D01*
X123427671Y-36716970D01*
X123404571Y-36725235D01*
X123380773Y-36731196D01*
X123356504Y-36734796D01*
X123332000Y-36736000D01*
X122032000Y-36736000D01*
X122007496Y-36734796D01*
X121983227Y-36731196D01*
X121959429Y-36725235D01*
X121936329Y-36716970D01*
X121914151Y-36706480D01*
X121893107Y-36693867D01*
X121873402Y-36679253D01*
X121855223Y-36662777D01*
X121838747Y-36644598D01*
X121824133Y-36624893D01*
X121811520Y-36603849D01*
X121801030Y-36581671D01*
X121792765Y-36558571D01*
X121786804Y-36534773D01*
X121783204Y-36510504D01*
X121782000Y-36486000D01*
X121782000Y-31586000D01*
X121783204Y-31561496D01*
X121786804Y-31537227D01*
X121792765Y-31513429D01*
X121801030Y-31490329D01*
X121811520Y-31468151D01*
X121824133Y-31447107D01*
X121838747Y-31427402D01*
X121855223Y-31409223D01*
X121873402Y-31392747D01*
X121893107Y-31378133D01*
X121914151Y-31365520D01*
X121936329Y-31355030D01*
X121959429Y-31346765D01*
X121983227Y-31340804D01*
X122007496Y-31337204D01*
X122032000Y-31336000D01*
X123332000Y-31336000D01*
X123356504Y-31337204D01*
X123356504Y-31337204D01*
G37*
D14*
X122682000Y-34036000D03*
G04 #@! TD*
D15*
G04 #@! TO.C,D1*
X99544000Y-65024000D03*
X96544000Y-65024000D03*
G04 #@! TD*
D10*
G04 #@! TO.C,R1*
G36*
X109961004Y-64150204D02*
X109985273Y-64153804D01*
X110009071Y-64159765D01*
X110032171Y-64168030D01*
X110054349Y-64178520D01*
X110075393Y-64191133D01*
X110095098Y-64205747D01*
X110113277Y-64222223D01*
X110129753Y-64240402D01*
X110144367Y-64260107D01*
X110156980Y-64281151D01*
X110167470Y-64303329D01*
X110175735Y-64326429D01*
X110181696Y-64350227D01*
X110185296Y-64374496D01*
X110186500Y-64399000D01*
X110186500Y-65649000D01*
X110185296Y-65673504D01*
X110181696Y-65697773D01*
X110175735Y-65721571D01*
X110167470Y-65744671D01*
X110156980Y-65766849D01*
X110144367Y-65787893D01*
X110129753Y-65807598D01*
X110113277Y-65825777D01*
X110095098Y-65842253D01*
X110075393Y-65856867D01*
X110054349Y-65869480D01*
X110032171Y-65879970D01*
X110009071Y-65888235D01*
X109985273Y-65894196D01*
X109961004Y-65897796D01*
X109936500Y-65899000D01*
X109011500Y-65899000D01*
X108986996Y-65897796D01*
X108962727Y-65894196D01*
X108938929Y-65888235D01*
X108915829Y-65879970D01*
X108893651Y-65869480D01*
X108872607Y-65856867D01*
X108852902Y-65842253D01*
X108834723Y-65825777D01*
X108818247Y-65807598D01*
X108803633Y-65787893D01*
X108791020Y-65766849D01*
X108780530Y-65744671D01*
X108772265Y-65721571D01*
X108766304Y-65697773D01*
X108762704Y-65673504D01*
X108761500Y-65649000D01*
X108761500Y-64399000D01*
X108762704Y-64374496D01*
X108766304Y-64350227D01*
X108772265Y-64326429D01*
X108780530Y-64303329D01*
X108791020Y-64281151D01*
X108803633Y-64260107D01*
X108818247Y-64240402D01*
X108834723Y-64222223D01*
X108852902Y-64205747D01*
X108872607Y-64191133D01*
X108893651Y-64178520D01*
X108915829Y-64168030D01*
X108938929Y-64159765D01*
X108962727Y-64153804D01*
X108986996Y-64150204D01*
X109011500Y-64149000D01*
X109936500Y-64149000D01*
X109961004Y-64150204D01*
X109961004Y-64150204D01*
G37*
D16*
X109474000Y-65024000D03*
D10*
G36*
X106986004Y-64150204D02*
X107010273Y-64153804D01*
X107034071Y-64159765D01*
X107057171Y-64168030D01*
X107079349Y-64178520D01*
X107100393Y-64191133D01*
X107120098Y-64205747D01*
X107138277Y-64222223D01*
X107154753Y-64240402D01*
X107169367Y-64260107D01*
X107181980Y-64281151D01*
X107192470Y-64303329D01*
X107200735Y-64326429D01*
X107206696Y-64350227D01*
X107210296Y-64374496D01*
X107211500Y-64399000D01*
X107211500Y-65649000D01*
X107210296Y-65673504D01*
X107206696Y-65697773D01*
X107200735Y-65721571D01*
X107192470Y-65744671D01*
X107181980Y-65766849D01*
X107169367Y-65787893D01*
X107154753Y-65807598D01*
X107138277Y-65825777D01*
X107120098Y-65842253D01*
X107100393Y-65856867D01*
X107079349Y-65869480D01*
X107057171Y-65879970D01*
X107034071Y-65888235D01*
X107010273Y-65894196D01*
X106986004Y-65897796D01*
X106961500Y-65899000D01*
X106036500Y-65899000D01*
X106011996Y-65897796D01*
X105987727Y-65894196D01*
X105963929Y-65888235D01*
X105940829Y-65879970D01*
X105918651Y-65869480D01*
X105897607Y-65856867D01*
X105877902Y-65842253D01*
X105859723Y-65825777D01*
X105843247Y-65807598D01*
X105828633Y-65787893D01*
X105816020Y-65766849D01*
X105805530Y-65744671D01*
X105797265Y-65721571D01*
X105791304Y-65697773D01*
X105787704Y-65673504D01*
X105786500Y-65649000D01*
X105786500Y-64399000D01*
X105787704Y-64374496D01*
X105791304Y-64350227D01*
X105797265Y-64326429D01*
X105805530Y-64303329D01*
X105816020Y-64281151D01*
X105828633Y-64260107D01*
X105843247Y-64240402D01*
X105859723Y-64222223D01*
X105877902Y-64205747D01*
X105897607Y-64191133D01*
X105918651Y-64178520D01*
X105940829Y-64168030D01*
X105963929Y-64159765D01*
X105987727Y-64153804D01*
X106011996Y-64150204D01*
X106036500Y-64149000D01*
X106961500Y-64149000D01*
X106986004Y-64150204D01*
X106986004Y-64150204D01*
G37*
D16*
X106499000Y-65024000D03*
G04 #@! TD*
D10*
G04 #@! TO.C,C2*
G36*
X97470505Y-108428704D02*
X97494773Y-108432304D01*
X97518572Y-108438265D01*
X97541671Y-108446530D01*
X97563850Y-108457020D01*
X97584893Y-108469632D01*
X97604599Y-108484247D01*
X97622777Y-108500723D01*
X97639253Y-108518901D01*
X97653868Y-108538607D01*
X97666480Y-108559650D01*
X97676970Y-108581829D01*
X97685235Y-108604928D01*
X97691196Y-108628727D01*
X97694796Y-108652995D01*
X97696000Y-108677499D01*
X97696000Y-110152501D01*
X97694796Y-110177005D01*
X97691196Y-110201273D01*
X97685235Y-110225072D01*
X97676970Y-110248171D01*
X97666480Y-110270350D01*
X97653868Y-110291393D01*
X97639253Y-110311099D01*
X97622777Y-110329277D01*
X97604599Y-110345753D01*
X97584893Y-110360368D01*
X97563850Y-110372980D01*
X97541671Y-110383470D01*
X97518572Y-110391735D01*
X97494773Y-110397696D01*
X97470505Y-110401296D01*
X97446001Y-110402500D01*
X92545999Y-110402500D01*
X92521495Y-110401296D01*
X92497227Y-110397696D01*
X92473428Y-110391735D01*
X92450329Y-110383470D01*
X92428150Y-110372980D01*
X92407107Y-110360368D01*
X92387401Y-110345753D01*
X92369223Y-110329277D01*
X92352747Y-110311099D01*
X92338132Y-110291393D01*
X92325520Y-110270350D01*
X92315030Y-110248171D01*
X92306765Y-110225072D01*
X92300804Y-110201273D01*
X92297204Y-110177005D01*
X92296000Y-110152501D01*
X92296000Y-108677499D01*
X92297204Y-108652995D01*
X92300804Y-108628727D01*
X92306765Y-108604928D01*
X92315030Y-108581829D01*
X92325520Y-108559650D01*
X92338132Y-108538607D01*
X92352747Y-108518901D01*
X92369223Y-108500723D01*
X92387401Y-108484247D01*
X92407107Y-108469632D01*
X92428150Y-108457020D01*
X92450329Y-108446530D01*
X92473428Y-108438265D01*
X92497227Y-108432304D01*
X92521495Y-108428704D01*
X92545999Y-108427500D01*
X97446001Y-108427500D01*
X97470505Y-108428704D01*
X97470505Y-108428704D01*
G37*
D17*
X94996000Y-109415000D03*
D10*
G36*
X97470505Y-103153704D02*
X97494773Y-103157304D01*
X97518572Y-103163265D01*
X97541671Y-103171530D01*
X97563850Y-103182020D01*
X97584893Y-103194632D01*
X97604599Y-103209247D01*
X97622777Y-103225723D01*
X97639253Y-103243901D01*
X97653868Y-103263607D01*
X97666480Y-103284650D01*
X97676970Y-103306829D01*
X97685235Y-103329928D01*
X97691196Y-103353727D01*
X97694796Y-103377995D01*
X97696000Y-103402499D01*
X97696000Y-104877501D01*
X97694796Y-104902005D01*
X97691196Y-104926273D01*
X97685235Y-104950072D01*
X97676970Y-104973171D01*
X97666480Y-104995350D01*
X97653868Y-105016393D01*
X97639253Y-105036099D01*
X97622777Y-105054277D01*
X97604599Y-105070753D01*
X97584893Y-105085368D01*
X97563850Y-105097980D01*
X97541671Y-105108470D01*
X97518572Y-105116735D01*
X97494773Y-105122696D01*
X97470505Y-105126296D01*
X97446001Y-105127500D01*
X92545999Y-105127500D01*
X92521495Y-105126296D01*
X92497227Y-105122696D01*
X92473428Y-105116735D01*
X92450329Y-105108470D01*
X92428150Y-105097980D01*
X92407107Y-105085368D01*
X92387401Y-105070753D01*
X92369223Y-105054277D01*
X92352747Y-105036099D01*
X92338132Y-105016393D01*
X92325520Y-104995350D01*
X92315030Y-104973171D01*
X92306765Y-104950072D01*
X92300804Y-104926273D01*
X92297204Y-104902005D01*
X92296000Y-104877501D01*
X92296000Y-103402499D01*
X92297204Y-103377995D01*
X92300804Y-103353727D01*
X92306765Y-103329928D01*
X92315030Y-103306829D01*
X92325520Y-103284650D01*
X92338132Y-103263607D01*
X92352747Y-103243901D01*
X92369223Y-103225723D01*
X92387401Y-103209247D01*
X92407107Y-103194632D01*
X92428150Y-103182020D01*
X92450329Y-103171530D01*
X92473428Y-103163265D01*
X92497227Y-103157304D01*
X92521495Y-103153704D01*
X92545999Y-103152500D01*
X97446001Y-103152500D01*
X97470505Y-103153704D01*
X97470505Y-103153704D01*
G37*
D17*
X94996000Y-104140000D03*
G04 #@! TD*
M02*
